<?xml version="1.0" encoding="UTF-8"?>
<svg width="50px" height="50px" viewBox="0 0 50 50" version="1.1" xmlns="http://www.w3.org/2000/svg" xmlns:xlink="http://www.w3.org/1999/xlink">
    <!-- Generator: Sketch 63.1 (92452) - https://sketch.com -->
    <title>Tech Architecture</title>
    <desc>Created with Sketch.</desc>
    <defs>
        <linearGradient x1="75.4765625%" y1="91.8652344%" x2="23.3007812%" y2="9.76367188%" id="linearGradient-1">
            <stop stop-color="#F6B684" offset="0%"></stop>
            <stop stop-color="#FFEFCB" offset="100%"></stop>
        </linearGradient>
        <linearGradient x1="74.1453072%" y1="89.7704284%" x2="23.3007813%" y2="9.76367188%" id="linearGradient-2">
            <stop stop-color="#EEBB97" offset="0%"></stop>
            <stop stop-color="#FDE8DA" offset="100%"></stop>
        </linearGradient>
        <filter x="-8.8%" y="-15.0%" width="117.6%" height="130.0%" filterUnits="objectBoundingBox" id="filter-3">
            <feGaussianBlur stdDeviation="1" in="SourceGraphic"></feGaussianBlur>
        </filter>
    </defs>
    <g id="Symbols" stroke="none" stroke-width="1" fill="none" fill-rule="evenodd">
        <g id="ic/tech-architecture">
            <g id="Tech-Architecture">
                <circle id="Oval" fill="url(#linearGradient-2)" cx="25" cy="25" r="25"></circle>
                <path d="M9,37 C8.44771525,37 8,36.5522847 8,36 L8,35 C8,34.4477153 8.44771525,34 9,34 L10,34 L10,18 C10,17.4477153 10.4477153,17 11,17 L39,17 C39.5522847,17 40,17.4477153 40,18 L40,34 L41,34 C41.5522847,34 42,34.4477153 42,35 L42,36 C42,36.5522847 41.5522847,37 41,37 L9,37 Z" id="Combined-Shape" fill="#F6B684" filter="url(#filter-3)"></path>
                <g id="Group-12" transform="translate(8.000000, 15.000000)">
                    <g id="Group-30" fill="#FFFFFF">
                        <path d="M3,0 L31,0 C31.5522847,-1.01453063e-16 32,0.44771525 32,1 L32,19 C32,19.5522847 31.5522847,20 31,20 L3,20 C2.44771525,20 2,19.5522847 2,19 L2,1 C2,0.44771525 2.44771525,1.01453063e-16 3,0 Z" id="Rectangle"></path>
                        <path d="M1,17 L33,17 C33.5522847,17 34,17.4477153 34,18 L34,19 C34,19.5522847 33.5522847,20 33,20 L1,20 C0.44771525,20 6.76353751e-17,19.5522847 0,19 L0,18 C-6.76353751e-17,17.4477153 0.44771525,17 1,17 Z" id="Rectangle"></path>
                    </g>
                    <g id="Group-117" transform="translate(7.000000, 2.000000)">
                        <g id="Group-116" transform="translate(-0.000000, 0.000000)" fill="#E7B08B">
                            <path d="M20,1.96134422 C20,0.879679645 19.0919766,0 17.9754601,0 L2.02453988,0 C0.908023374,0 9.09494702e-13,0.879679645 9.09494702e-13,1.96134422 L9.09494702e-13,4 L20,4 L20,1.96134422 Z M2.70510695,2.02740016 C2.70510695,2.52095186 2.28998931,2.91847066 1.78053513,2.91847066 C1.27126514,2.91847066 0.856147508,2.51631084 0.86075382,2.02275919 C0.865544325,1.52920748 1.27587146,1.1272262 1.78532564,1.13168869 L1.79011614,1.13168869 C2.29477982,1.13168869 2.70989745,1.52920748 2.70510695,2.02740016 Z M5.16429511,2.02718466 C5.16429511,2.52073626 4.74917757,2.91825496 4.23972351,2.91825496 L4.2351172,2.91825496 C3.72566313,2.91379248 3.3153361,2.51163276 3.31994241,2.01808122 C3.32473291,1.52917064 3.73505995,1.13611437 4.23972351,1.13165189 L4.24451401,1.13165189 C4.75396807,1.13165189 5.16429511,1.53381165 5.16429511,2.02718466 Z M7.62348326,2.02745114 C7.62348326,2.5208726 7.20850917,2.91860893 6.69900509,2.91860893 L6.69421411,2.91860893 C6.18471003,2.91396746 5.7743427,2.51176826 5.77913368,2.0181682 C5.78374044,1.52920967 6.19429198,1.13629336 6.69900509,1.13165189 L6.70361185,1.13165189 C7.21311594,1.13165189 7.62348326,1.53385109 7.62348326,2.02745114 Z" id="Shape" fill-rule="nonzero"></path>
                            <path d="M0,5.33333333 L20,5.33333333 L20,14.605 C20,15.3754372 19.3754372,16 18.605,16 L1.395,16 C0.624562774,16 -3.49737862e-16,15.3754372 0,14.605 L0,5.33333333 L0,5.33333333 Z" id="Rectangle"></path>
                        </g>
                        <rect id="Rectangle" fill="#FFFFFF" x="1.33333333" y="6.66666667" width="8" height="1.33333333"></rect>
                        <rect id="Rectangle" fill="#FFFFFF" x="1.33333333" y="9.33333333" width="6.66666667" height="1.33333333"></rect>
                        <rect id="Rectangle" fill="#FFFFFF" x="1.33333333" y="12" width="4" height="1.33333333"></rect>
                        <path d="M17.5672178,9.74941256 L17.3652631,9.25927678 C17.3652631,9.25927678 17.835132,8.17643627 17.7936294,8.13480311 L17.1714607,7.5144691 C17.1284758,7.47170049 16.0679358,7.96599959 16.0679358,7.96599959 L15.5787978,7.76426803 C15.5787978,7.76426803 15.1467259,6.66666667 15.0874365,6.66666667 L14.209582,6.66666667 C14.1484398,6.66666667 13.7486065,7.76653893 13.7486065,7.76653893 L13.2602096,7.96902746 C13.2602096,7.96902746 12.177436,7.49895129 12.1359334,7.54096292 L11.5148764,8.1620539 C11.4718915,8.20482251 11.9662173,9.265711 11.9662173,9.265711 L11.7642627,9.75508981 C11.7642627,9.75508981 10.6666667,10.1869392 10.6666667,10.2452256 L10.6666667,11.1240636 C10.6666667,11.1853779 11.7668566,11.5854347 11.7668566,11.5854347 L11.9688113,12.0740566 C11.9688113,12.0740566 11.4989424,13.1561401 11.5400744,13.1977733 L12.1618725,13.8196212 C12.2041163,13.8616328 13.2650269,13.3673337 13.2650269,13.3673337 L13.7545355,13.5698223 C13.7545355,13.5698223 14.1866073,14.6666667 14.2462673,14.6666667 L15.1241218,14.6666667 C15.1848935,14.6666667 15.5850973,13.5667944 15.5850973,13.5667944 L16.0749764,13.3643059 C16.0749764,13.3643059 17.1555267,13.834382 17.1973998,13.7931274 L17.819198,13.1720364 C17.8625534,13.1285108 17.3671159,12.0683793 17.3671159,12.0683793 L17.5687,11.5790005 C17.5687,11.5790005 18.6666667,11.1463942 18.6666667,11.0873508 L18.6666667,10.2092697 C18.6670371,10.1483339 17.5672178,9.74941256 17.5672178,9.74941256 Z M15.9493569,10.6664774 C15.9493569,11.3731056 15.3738786,11.9484001 14.6668519,11.9484001 C13.9605663,11.9484001 13.3843469,11.3731056 13.3843469,10.6664774 C13.3843469,9.95984924 13.9605663,9.3853117 14.6668519,9.3853117 C15.3742492,9.38569018 15.9493569,9.95984924 15.9493569,10.6664774 Z" id="Shape" fill="#FFFFFF" fill-rule="nonzero"></path>
                    </g>
                </g>
            </g>
        </g>
    </g>
</svg>