<?xml version="1.0" encoding="UTF-8"?>
<svg width="49px" height="49px" viewBox="0 0 49 49" version="1.1" xmlns="http://www.w3.org/2000/svg" xmlns:xlink="http://www.w3.org/1999/xlink">
    <!-- Generator: Sketch 53.2 (72643) - https://sketchapp.com -->
    <title>Tech architecture</title>
    <desc>Created with Sketch.</desc>
    <defs>
        <linearGradient x1="75.4765625%" y1="91.8652344%" x2="23.3007812%" y2="9.76367188%" id="linearGradient-1">
            <stop stop-color="#F6B684" offset="0%"></stop>
            <stop stop-color="#FFEFCB" offset="100%"></stop>
        </linearGradient>
        <linearGradient x1="74.1453072%" y1="89.7704284%" x2="23.3007813%" y2="9.76367188%" id="linearGradient-2">
            <stop stop-color="#EEBB97" offset="0%"></stop>
            <stop stop-color="#FDE8DA" offset="100%"></stop>
        </linearGradient>
        <filter x="-9.0%" y="-15.3%" width="118.0%" height="130.6%" filterUnits="objectBoundingBox" id="filter-3">
            <feGaussianBlur stdDeviation="1" in="SourceGraphic"></feGaussianBlur>
        </filter>
    </defs>
    <g id="Page-1" stroke="none" stroke-width="1" fill="none" fill-rule="evenodd">
        <g id="Icons-V2-Copy" transform="translate(-198.000000, -290.000000)">
            <g id="Tech-architecture" transform="translate(198.000000, 290.000000)">
                <circle id="Oval" fill="url(#linearGradient-2)" cx="24.5" cy="24.5" r="24.5"></circle>
                <path d="M39.24,34.36 L40.16,34.36 C40.7122847,34.36 41.16,34.8077153 41.16,35.36 L41.16,36.3 C41.16,36.8522847 40.7122847,37.3 40.16,37.3 L8.84,37.3 C8.28771525,37.3 7.84,36.8522847 7.84,36.3 L7.84,35.36 C7.84,34.8077153 8.28771525,34.36 8.84,34.36 L9.84,34.36 L9.84,18.7 C9.84,18.1477153 10.2877153,17.7 10.84,17.7 L38.24,17.7 C38.7922847,17.7 39.24,18.1477153 39.24,18.7 L39.24,34.36 Z" id="Combined-Shape" fill="#F6B684" filter="url(#filter-3)"></path>
                <g id="Group" transform="translate(7.840000, 14.700000)">
                    <path d="M3,1.81188398e-13 L30.4,1.81188398e-13 C30.9522847,1.81086945e-13 31.4,0.44771525 31.4,1 L31.4,18.6 C31.4,19.1522847 30.9522847,19.6 30.4,19.6 L3,19.6 C2.44771525,19.6 2,19.1522847 2,18.6 L2,1 C2,0.44771525 2.44771525,1.81289851e-13 3,1.81188398e-13 Z" id="Rectangle" fill="#FFFFFF"></path>
                    <path d="M1,16.66 L32.32,16.66 C32.8722847,16.66 33.32,17.1077153 33.32,17.66 L33.32,18.6 C33.32,19.1522847 32.8722847,19.6 32.32,19.6 L1,19.6 C0.44771525,19.6 3.37575435e-13,19.1522847 3.37507799e-13,18.6 L3.37507799e-13,17.66 C3.37440164e-13,17.1077153 0.44771525,16.66 1,16.66 Z" id="Rectangle" fill="#FFFFFF"></path>
                    <g id="stacked-files" opacity="0.699999988" transform="translate(9.160000, 3.300000)" fill="#F78761" fill-rule="nonzero">
                        <path d="M13.6440487,2.72505951 L7.24327564,0.048968427 C7.08831518,-0.016322809 6.9111981,-0.016322809 6.75542206,0.048968427 L0.354966198,2.72505951 C0.146041443,2.81227025 0.00807226453,3.00423583 0.000324241722,3.21880059 C-0.00715192063,3.43294055 0.115139971,3.63301974 0.317177595,3.73378149 L6.71754284,6.93390165 C6.80580687,6.97829289 6.90254388,7 6.99955275,7 C7.09706003,7 7.19366111,6.97829289 7.28206106,6.93390165 L13.6827435,3.73378149 C13.8845999,3.63301974 14.0070277,3.43294055 13.9996875,3.21880059 C13.9909426,3.00423583 13.8532906,2.81227025 13.6440487,2.72505951 Z" id="Path"></path>
                        <path d="M13.1183322,5.31724032 L6.99950713,8.41281147 L0.88167889,5.31724032 C0.588798109,5.1690362 0.226140656,5.27418421 0.0709102175,5.55142775 C-0.0854076499,5.82854239 0.0254647622,6.1723897 0.317529972,6.32020709 L6.7178178,9.55818138 C6.80608076,9.60278442 6.9028166,9.625 6.99982429,9.625 C7.0973304,9.625 7.19393031,9.60308521 7.28232919,9.55818138 L13.6829342,6.32020709 C13.9743198,6.1723897 14.0850562,5.82854239 13.9296446,5.55142775 C13.7732361,5.27414124 13.4103068,5.16899323 13.1183322,5.31724032 Z" id="Path"></path>
                        <path d="M13.1183322,7.94231446 L6.99950713,11.0375112 L0.88167889,7.94231446 C0.588798109,7.79394994 0.226140656,7.89924921 0.0709102175,8.17616479 C-0.0854076499,8.45333824 0.0254647622,8.79760238 0.317529972,8.94523625 L6.7178178,12.1828663 C6.80608076,12.2277797 6.9028166,12.25 6.99982429,12.25 C7.0973304,12.25 7.19393031,12.2280806 7.28232919,12.1828663 L13.6829342,8.94523625 C13.9743198,8.79760238 14.0850562,8.45338122 13.9296446,8.17616479 C13.7732361,7.89924921 13.4108052,7.79390696 13.1183322,7.94231446 Z" id="Path"></path>
                    </g>
                </g>
            </g>
        </g>
    </g>
</svg>