<?xml version="1.0" encoding="UTF-8"?>
<svg width="50px" height="50px" viewBox="0 0 50 50" version="1.1" xmlns="http://www.w3.org/2000/svg" xmlns:xlink="http://www.w3.org/1999/xlink">
    <!-- Generator: sketchtool 56.2 (101010) - https://sketch.com -->
    <title>486C9679-F7A4-4ACE-8900-63EE9770AD52</title>
    <desc>Created with sketchtool.</desc>
    <defs>
        <linearGradient x1="75.4765625%" y1="91.8652344%" x2="23.3007812%" y2="9.76367188%" id="linearGradient-1">
            <stop stop-color="#85C26A" offset="0%"></stop>
            <stop stop-color="#CCF5BA" offset="100%"></stop>
        </linearGradient>
        <filter x="-26.7%" y="-40.0%" width="153.3%" height="180.0%" filterUnits="objectBoundingBox" id="filter-2">
            <feOffset dx="0" dy="2" in="SourceAlpha" result="shadowOffsetOuter1"></feOffset>
            <feGaussianBlur stdDeviation="1" in="shadowOffsetOuter1" result="shadowBlurOuter1"></feGaussianBlur>
            <feColorMatrix values="0 0 0 0 0.552941176   0 0 0 0 0.780392157   0 0 0 0 0.454901961  0 0 0 1 0" type="matrix" in="shadowBlurOuter1" result="shadowMatrixOuter1"></feColorMatrix>
            <feMerge>
                <feMergeNode in="shadowMatrixOuter1"></feMergeNode>
                <feMergeNode in="SourceGraphic"></feMergeNode>
            </feMerge>
        </filter>
    </defs>
    <g id="Page-1" stroke="none" stroke-width="1" fill="none" fill-rule="evenodd">
        <g id="landing-page_2" transform="translate(-210.000000, -9298.000000)">
            <g id="wrapper" transform="translate(85.000000, 165.000000)">
                <g id="section-2" transform="translate(0.000000, 4552.000000)">
                    <g id="sub-section" transform="translate(65.000000, 4515.000000)">
                        <g id="Group-5" transform="translate(60.000000, 61.000000)">
                            <g id="UX-Driven-Engineering" transform="translate(0.000000, 5.000000)">
                                <circle id="Oval" fill="url(#linearGradient-1)" cx="25" cy="25" r="25"></circle>
                                <g id="Rectangle-2" filter="url(#filter-2)" transform="translate(10.375000, 15.583333)">
                                    <path d="M1,-9.09494702e-13 L29,-9.09494702e-13 C29.5522847,-9.09596155e-13 30,0.44771525 30,1 L30,19 C30,19.5522847 29.5522847,20 29,20 L1,20 C0.44771525,20 6.76353751e-17,19.5522847 0,19 L0,1 C-6.76353751e-17,0.44771525 0.44771525,-9.09393249e-13 1,-9.09494702e-13 Z" id="Rectangle" fill="#FFFFFF"></path>
                                    <g id="Group-2" transform="translate(6.625000, 1.416667)">
                                        <path d="M8.97603909,2 C12.79156,2 19.4085254,12.3208321 17.6070808,15.5101446 C15.8056362,18.6994571 2.29243835,18.957932 0.344997347,15.5101446 C-1.60244366,12.0623572 5.16051822,2 8.97603909,2 Z" id="Polygon" fill="#85C26A" opacity="0.599999964" transform="translate(8.955831, 10.000000) scale(1, -1) translate(-8.955831, -10.000000) "></path>
                                        <path d="M9.02215437,9.09494702e-13 C12.8376752,9.09494702e-13 19.4546407,10.3208321 17.6531961,13.5101446 C15.8517515,16.6994571 2.33855363,16.957932 0.391112624,13.5101446 C-1.55632838,10.0623572 5.20663349,9.09494702e-13 9.02215437,9.09494702e-13 Z" id="Polygon" fill="#85C26A" opacity="0.800000012"></path>
                                        <text id="UX" stroke="#FFFFFF" stroke-width="2" font-family="HelveticaNeue-Bold, Helvetica Neue" font-size="8" font-weight="bold" line-spacing="10" letter-spacing="0.699999988" fill="#FFFFFF">
                                            <tspan x="3" y="12">U</tspan>
                                            <tspan x="9.62799999" y="12">X</tspan>
                                        </text>
                                    </g>
                                </g>
                            </g>
                        </g>
                    </g>
                </g>
            </g>
        </g>
    </g>
</svg>