<svg xmlns="http://www.w3.org/2000/svg" xmlns:xlink="http://www.w3.org/1999/xlink" width="263" height="233" viewBox="0 0 263 233">
    <defs>
        <linearGradient id="a" x1="20.535%" x2="60.384%" y1="-4.095%" y2="90.434%">
            <stop offset="0%" stop-color="#D3DAED"/>
            <stop offset="100%" stop-color="#99A7D8"/>
        </linearGradient>
        <linearGradient id="b" x1="21.317%" x2="72.057%" y1="54.821%" y2="41.241%">
            <stop offset="0%" stop-color="#EBF0FD"/>
            <stop offset="100%" stop-color="#FFF"/>
        </linearGradient>
        <linearGradient id="c" x1="16.79%" x2="80.452%" y1="28.755%" y2="71.955%">
            <stop offset="0%" stop-color="#D9E0F2"/>
            <stop offset="100%" stop-color="#C0C9E9"/>
        </linearGradient>
        <filter id="d" width="125.4%" height="156.4%" x="-12.7%" y="-28.2%" filterUnits="objectBoundingBox">
            <feGaussianBlur in="SourceGraphic" stdDeviation="8"/>
        </filter>
        <linearGradient id="e" x1="4.648%" x2="65.983%" y1="40.781%" y2="56.891%">
            <stop offset="0%" stop-color="#D3DAED"/>
            <stop offset="100%" stop-color="#99A7D8"/>
        </linearGradient>
        <linearGradient id="f" x1="5.291%" x2="96.119%" y1="54.42%" y2="44.724%">
            <stop offset="0%" stop-color="#FFF"/>
            <stop offset="100%" stop-color="#F4F7FD"/>
        </linearGradient>
        <path id="g" d="M5.471 70.585C2.618 68.94.282 64.48.282 60.678L0 4.537C0 .735 2.336-1.03 5.189.617l74.833 42.665c2.854 1.646 5.19 6.105 5.19 9.907l.48 56.604c0 3.802-2.337 5.566-5.191 3.92L5.471 70.585z"/>
    </defs>
    <g fill="none" fill-rule="evenodd">
        <path fill="#C2BEF7" d="M.3 83.492v49.874l80.5-53.253V14.341l-6.07 12.772L64.531 21 55.5 40.113 43.434 47l-6.76 13.03-8.295-2.356-5.964 6.985-5.915-5.958-3.1-2.018-6.132 11.914z" opacity=".296"/>
        <path fill="url(#a)" fill-rule="nonzero" d="M74.416 1.648c1.67-1.545 3.137-2.004 4.4-1.376 1.538.835 40.25 22.534 116.14 65.096 2.053.996 3.08 3.29 3.08 6.883v69.217a977.876 977.876 0 0 0 0 8.19c-.166 1.235-1.22 1.915-1.49 2.188-2.604 1.704-2.686 1.796-4.147 1.153-.853-7.028-2.812-13.575-5.878-19.64l-46.902-67.497-33.536-22.796-22.348-22.36-9.32-19.058z" transform="translate(46)"/>
        <path fill="url(#b)" d="M76.704 1.512l115.695 65.93c1.412.804 2.556 2.6 2.556 4.01v80.45c0 1.41-1.144 1.901-2.556 1.097L76.704 87.069c-1.412-.805-2.557-2.6-2.557-4.011V2.608c0-1.41 1.145-1.901 2.557-1.096z" transform="translate(46)"/>
        <path fill="url(#c)" fill-rule="nonzero" d="M84.648 15.502l99.167 56.4c1.21.688 2.192 2.225 2.192 3.431v65.627c0 1.207-.981 1.627-2.192.939l-99.167-56.4c-1.21-.688-2.191-2.224-2.191-3.43V16.44c0-1.207.98-1.627 2.191-.939z" transform="translate(46)"/>
        <path fill="#8292C2" fill-opacity=".5" fill-rule="nonzero" d="M0 130.359v8.007c.052 5.743 1.314 9.186 3.786 10.33 2.355 1.33 38.622 22.374 108.802 63.131 7.147 3.93 12.595 4.657 16.342 2.183 3.748-2.475 22.421-13.96 56.021-34.456 2.835-1.727 4.252-3.431 4.252-5.114v-14.677c.215-1.315-.46-2.838-2.025-4.571-1.564-1.733-29.21-.085-82.937 4.946L12.712 138.96 0 130.359z" filter="url(#d)" opacity=".5" transform="translate(46)"/>
        <path fill="url(#e)" fill-rule="nonzero" d="M0 127.546v7.435c.052 1.487 1.314 2.802 3.786 3.945 2.355 1.33 38.622 22.374 108.802 63.132 7.147 3.93 12.595 4.657 16.342 2.182 3.748-2.475 22.421-13.96 56.021-34.456 2.835-1.726 4.252-3.43 4.252-5.114 0-1.683.013-3.602.039-5.757.096-1.295-.598-2.78-2.083-4.452-1.485-1.673-29.124-3.038-82.918-4.093l-91.529-17.346L0 127.546z" transform="translate(46)"/>
        <path fill="url(#f)" d="M2.688 162.247c-3.985-2.325-3.48-6.426 1.121-9.112L113.562 90.82c4.601-2.685 11.627-2.98 15.612-.654l57.34 33.47c3.985 2.326 3.481 6.426-1.12 9.112l-109.79 64.084c-4.602 2.685-11.627 2.98-15.613.653L2.688 162.247z" transform="matrix(-1 0 0 1 235.203 0)"/>
        <path fill="#E0E7F8" fill-rule="nonzero" d="M215.368 161.181c3.406-1.99 2.975-5.497-.958-7.795l-93.809-53.31c-3.933-2.297-9.937-2.55-13.344-.56l-24.443 13.855c-3.405 1.99-2.975 5.497.958 7.795l95.76 54.185c3.932 2.297 9.936 2.55 13.343.56l22.493-14.73z"/>
        <path fill="#D1D9EE" fill-rule="nonzero" d="M133.416 159.225c3.071-1.78 2.682-4.917-.864-6.972l-14.282-7.96c-3.547-2.054-9.108-2.861-12.18-1.082l-10.66 6.054c-3.07 1.779-2.815 4.83.731 6.885l15.106 8.641c3.546 2.055 8.96 2.28 12.033.5l10.116-6.066z"/>
        <g fill="#C2BEF7" fill-rule="nonzero">
            <path d="M254.878 187.356c9.36 4.717 9.81 13.305 1.095 18.97-8.71 5.763-23.49 6.537-32.755 1.716-9.365-4.817-9.91-13.3-1.095-18.969 8.716-5.664 23.396-6.433 32.755-1.717zm-6.263 18.053l2.418-1.629-6.185-7.186-2.323 1.524 4.466 4.973-9.013-1.931-2.324 1.524 12.96 2.725zm-10.352-10.272l2.323-1.524-13.055-2.62-2.418 1.628 6.185 7.187 2.323-1.524-4.461-4.873 9.103 1.726z"/>
        </g>
        <g>
            <path fill="#978FF7" d="M.3 83.5l4.6-13.2 9.3-16 7.6 9.4 6.6-7.2 7.3 2.8L42.3 46l11.5-6.9 10.1-18.9 10.3 5.2 6.5-11.9 1.5.8-7.3 13.4-10.3-5.1-9.4 17.8-11.5 6.9-7.2 14.2-7.6-2.9-7.2 7.8-7.3-9-7.9 13.7-4.7 13.4z"/>
            <path fill="#7068CE" d="M13.4 52.4c1.7-1 3.1-.2 3.1 1.8s-1.4 4.4-3.1 5.4c-1.7 1-3.1.2-3.1-1.8s1.4-4.4 3.1-5.4z"/>
            <path fill="#FFF" d="M13.4 54.3c.8-.4 1.4-.1 1.4.8s-.6 2-1.4 2.4c-.8.4-1.4.1-1.4-.8 0-.8.6-1.9 1.4-2.4z"/>
            <path fill="#FF584F" d="M54.1 35.5c1.7-1 3.1-.2 3.1 1.8s-1.4 4.4-3.1 5.4c-1.7 1-3.1.2-3.1-1.8s1.3-4.4 3.1-5.4z"/>
            <path fill="#FFF" d="M54.1 37.5c.8-.4 1.4-.1 1.4.8s-.6 2-1.4 2.4c-.8.4-1.4.1-1.4-.8s.6-2 1.4-2.4z"/>
            <path fill="#7068CE" d="M80.8 11.3c1.7-1 3.1-.2 3.1 1.8s-1.4 4.4-3.1 5.4c-1.7 1-3.1.2-3.1-1.8s1.4-4.4 3.1-5.4z"/>
            <path fill="#FFF" d="M80.8 13.2c.8-.4 1.4-.1 1.4.8s-.6 2-1.4 2.4c-.8.4-1.4.1-1.4-.8s.6-1.9 1.4-2.4z"/>
        </g>
        <path fill="#9BA9DA" d="M145.994.466l36.438 20.71c1.654.957 2.994 3.074 2.994 4.729 0 1.654-1.34 2.22-2.994 1.263L145.994 6.457C144.34 5.5 143 3.383 143 1.728c0-1.654 1.34-2.22 2.994-1.262zm0 11.716l18.358 9.896c1.653.957 2.993 3.074 2.993 4.728s-1.34 2.22-2.993 1.263l-18.358-9.895C144.34 17.217 143 15.1 143 13.445c0-1.654 1.34-2.22 2.994-1.263zm45.2 14.421l14.812 8.502c1.654.957 2.994 3.074 2.994 4.728s-1.34 2.22-2.994 1.263l-14.811-8.502c-1.653-.957-2.994-3.074-2.994-4.728s1.34-2.22 2.994-1.263zm-17.51 2.101l32.322 18.118c1.654.957 2.994 3.073 2.994 4.728 0 1.654-1.34 2.22-2.994 1.263l-32.322-18.118c-1.653-.957-2.994-3.073-2.994-4.728 0-1.654 1.34-2.22 2.994-1.263zm-27.69-3.903l24.22 13.35c1.653.956 2.993 3.073 2.993 4.728 0 1.654-1.34 2.22-2.993 1.262l-24.22-13.35c-1.654-.956-2.994-3.073-2.994-4.728 0-1.654 1.34-2.22 2.994-1.262zm32.745 18.543l27.267 16.096c1.654.957 2.994 3.074 2.994 4.728s-1.34 2.22-2.994 1.263L178.74 49.335c-1.653-.957-2.993-3.074-2.993-4.728s1.34-2.22 2.993-1.263zm-32.745-6.827l36.438 20.711c1.654.957 2.994 3.074 2.994 4.729 0 1.654-1.34 2.22-2.994 1.262l-36.438-20.71C144.34 41.551 143 39.434 143 37.78c0-1.654 1.34-2.22 2.994-1.263zm0 11.717l18.358 9.896c1.653.957 2.993 3.073 2.993 4.728 0 1.654-1.34 2.22-2.993 1.263l-18.358-9.896c-1.654-.957-2.994-3.074-2.994-4.728s1.34-2.22 2.994-1.263zm45.2 14.421l14.812 8.502c1.654.957 2.994 3.073 2.994 4.728 0 1.654-1.34 2.22-2.994 1.263l-14.811-8.502c-1.653-.957-2.994-3.074-2.994-4.728 0-1.655 1.34-2.22 2.994-1.263zm-17.51 2.101l32.322 18.117c1.654.957 2.994 3.074 2.994 4.729 0 1.654-1.34 2.22-2.994 1.262l-32.322-18.117c-1.653-.957-2.994-3.074-2.994-4.728s1.34-2.22 2.994-1.263zm-27.69-3.904l24.22 13.35c1.653.957 2.993 3.074 2.993 4.728 0 1.655-1.34 2.22-2.993 1.263l-24.22-13.35C144.34 65.886 143 63.77 143 62.115c0-1.654 1.34-2.22 2.994-1.263zm32.745 18.544l27.267 16.096c1.654.956 2.994 3.073 2.994 4.728 0 1.654-1.34 2.22-2.994 1.263L178.74 85.387c-1.653-.957-2.993-3.074-2.993-4.728 0-1.655 1.34-2.22 2.993-1.263zm-32.745-6.827l36.438 20.711c1.654.957 2.994 3.074 2.994 4.728 0 1.655-1.34 2.22-2.994 1.263l-36.438-20.71c-1.654-.958-2.994-3.075-2.994-4.729s1.34-2.22 2.994-1.263zm0 11.717l18.358 9.895c1.653.957 2.993 3.074 2.993 4.729 0 1.654-1.34 2.22-2.993 1.262l-18.358-9.895C144.34 89.32 143 87.203 143 85.55c0-1.655 1.34-2.22 2.994-1.263zm45.2 14.42l14.812 8.502c1.654.957 2.994 3.074 2.994 4.729 0 1.654-1.34 2.22-2.994 1.262l-14.811-8.501c-1.653-.957-2.994-3.074-2.994-4.728 0-1.655 1.34-2.22 2.994-1.263zm-17.51 2.102l32.322 18.117c1.654.957 2.994 3.074 2.994 4.728 0 1.655-1.34 2.22-2.994 1.263L173.684 106.8c-1.653-.957-2.994-3.074-2.994-4.728 0-1.655 1.34-2.22 2.994-1.263zm-27.69-3.904l24.22 13.35c1.653.957 2.993 3.074 2.993 4.728 0 1.655-1.34 2.22-2.993 1.263l-24.22-13.35c-1.654-.957-2.994-3.074-2.994-4.728s1.34-2.22 2.994-1.263zm32.745 18.544l27.267 16.095c1.654.957 2.994 3.074 2.994 4.729 0 1.654-1.34 2.22-2.994 1.262L178.74 121.44c-1.653-.957-2.993-3.074-2.993-4.728 0-1.655 1.34-2.22 2.993-1.263z"/>
        <g>
            <g transform="translate(97 43)">
                <mask id="h" fill="#fff">
                    <use xlink:href="#g"/>
                </mask>
                <use fill="#2645B5" opacity=".696" xlink:href="#g"/>
                <path fill="#2645B5" d="M-2.158 10.72c-2.853-1.647-.894 2.047-.894-1.755l-.006-13.107c0-3.802 3.171-4.092 6.024-2.446l77.056 42.429c2.854 1.646 5.19 6.105 5.19 9.907l1.48 9.045c0 3.802 2.642 8.62-.213 6.973L-2.158 10.72z" mask="url(#h)"/>
            </g>
            <path fill="#FFF" fill-rule="nonzero" d="M122.459 106.401a3.748 3.748 0 0 1-1.376-1.07l-8.304-10.165c-.494-.605-.779-1.306-.779-1.915s.285-1.062.779-1.237l8.304-2.936c.916-.324 2.274.388 3.034 1.589.76 1.2.634 2.437-.282 2.76l-6.306 2.23 6.306 7.72c.916 1.12 1.042 2.467.282 3.007-.426.302-1.04.286-1.658.017zm20.083 12.394c-.618-.269-1.233-.788-1.66-1.461-.76-1.202-.633-2.438.283-2.762l6.306-2.23-6.306-7.719c-.916-1.12-1.042-2.467-.282-3.006.76-.54 2.119-.068 3.034 1.053l8.304 10.164c.494.604.779 1.305.779 1.914 0 .61-.285 1.062-.78 1.237l-8.303 2.937c-.402.142-.89.084-1.375-.127zm-14-1.477c-.198-.086-.4-.2-.6-.342-1.142-.812-1.8-2.233-1.47-3.176l7.916-22.54c.33-.942 1.525-1.048 2.67-.236 1.142.812 1.8 2.234 1.47 3.177l-7.916 22.54c-.274.777-1.134.984-2.07.577z"/>
            <path fill="#23B685" fill-rule="nonzero" d="M113.534 60.07c.971.56 1.753.11 1.756-1a3.845 3.845 0 0 0-1.747-3.024c-.971-.559-1.753-.11-1.756 1a3.845 3.845 0 0 0 1.747 3.025"/>
            <path fill="#FF584F" fill-rule="nonzero" d="M101.746 53.265c.972.558 1.754.11 1.756-1a3.845 3.845 0 0 0-1.743-3.025c-.972-.558-1.754-.11-1.759 1a3.85 3.85 0 0 0 1.746 3.025"/>
            <path fill="#F7B500" fill-rule="nonzero" d="M107.639 56.668c.971.558 1.753.109 1.758-1.001a3.85 3.85 0 0 0-1.746-3.024c-.972-.559-1.754-.11-1.756 1a3.842 3.842 0 0 0 1.744 3.025"/>
        </g>
    </g>
</svg>
