<svg xmlns="http://www.w3.org/2000/svg" xmlns:xlink="http://www.w3.org/1999/xlink" width="305" height="256" viewBox="0 0 305 256">
    <defs>
        <linearGradient id="a" x1="4.648%" x2="65.983%" y1="42.782%" y2="55.395%">
            <stop offset="0%" stop-color="#D3DAED"/>
            <stop offset="100%" stop-color="#99A7D8"/>
        </linearGradient>
        <linearGradient id="b" x1="5.291%" x2="96.119%" y1="54.323%" y2="44.84%">
            <stop offset="0%" stop-color="#FFF"/>
            <stop offset="100%" stop-color="#F4F7FD"/>
        </linearGradient>
        <linearGradient id="c" x1="0%" x2="95.848%" y1="42.918%" y2="57.319%">
            <stop offset="0%" stop-color="#D9E0F2"/>
            <stop offset="100%" stop-color="#C0C9E9"/>
        </linearGradient>
        <linearGradient id="d" x1="20.535%" x2="60.384%" y1="-4.095%" y2="90.434%">
            <stop offset="0%" stop-color="#D3DAED"/>
            <stop offset="100%" stop-color="#99A7D8"/>
        </linearGradient>
        <linearGradient id="e" x1="21.317%" x2="72.057%" y1="54.821%" y2="41.241%">
            <stop offset="0%" stop-color="#EBF0FD"/>
            <stop offset="100%" stop-color="#FFF"/>
        </linearGradient>
        <linearGradient id="f" x1="16.79%" x2="80.452%" y1="28.755%" y2="71.955%">
            <stop offset="0%" stop-color="#D9E0F2"/>
            <stop offset="100%" stop-color="#C0C9E9"/>
        </linearGradient>
        <filter id="g" width="125.4%" height="156.4%" x="-12.7%" y="-28.2%" filterUnits="objectBoundingBox">
            <feGaussianBlur in="SourceGraphic" stdDeviation="8"/>
        </filter>
        <linearGradient id="h" x1="4.648%" x2="65.983%" y1="40.781%" y2="56.891%">
            <stop offset="0%" stop-color="#D3DAED"/>
            <stop offset="100%" stop-color="#99A7D8"/>
        </linearGradient>
        <linearGradient id="j" x1="5.291%" x2="96.119%" y1="54.42%" y2="44.724%">
            <stop offset="0%" stop-color="#FFF"/>
            <stop offset="100%" stop-color="#F4F7FD"/>
        </linearGradient>
        <path id="i" d="M2.688 162.247c-3.985-2.325-3.48-6.426 1.121-9.112L113.562 90.82c4.601-2.685 11.627-2.98 15.612-.654l57.34 33.47c3.985 2.326 3.481 6.426-1.12 9.112l-109.79 64.084c-4.602 2.685-11.627 2.98-15.613.653L2.688 162.247z"/>
        <path id="k" d="M36.814 161.181c-3.406-1.99-2.974-5.497.959-7.795l93.809-53.31c3.932-2.297 9.937-2.55 13.343-.56l24.444 13.855c3.405 1.99 2.974 5.497-.959 7.795l-95.759 54.185c-3.933 2.297-9.936 2.55-13.343.56l-22.494-14.73z"/>
        <path id="l" d="M49.373 159.225c-3.072-1.78-2.683-4.917.864-6.972l14.282-7.96c3.546-2.054 9.108-2.861 12.18-1.082l10.659 6.054c3.07 1.779 2.816 4.83-.73 6.885l-15.106 8.641c-3.547 2.055-8.961 2.28-12.034.5l-10.115-6.066z"/>
        <path id="n" d="M5.471 110.585C2.618 108.94.282 104.48.282 100.678L0 4.537C0 .735 2.336-1.03 5.189.617l74.833 42.665c2.854 1.646 5.19 6.105 5.19 9.907l.48 96.604c0 3.802-2.337 5.566-5.191 3.92l-75.03-43.128z"/>
        <linearGradient id="p" x1="24.485%" x2="58.992%" y1="-4.095%" y2="90.434%">
            <stop offset="0%" stop-color="#DFDCFF"/>
            <stop offset="100%" stop-color="#9992EC"/>
        </linearGradient>
        <path id="q" d="M5.717 42.944C2.864 41.297.528 36.839.528 33.037L.246 6.895c0-3.802 2.336-5.566 5.189-3.92L40.268 22.64c2.854 1.647 5.19 6.105 5.19 9.907l.48 26.604c0 3.802-2.337 5.567-5.191 3.92L5.717 42.944z"/>
        <linearGradient id="s" x1="23.615%" x2="74.849%" y1="18.496%" y2="91.285%">
            <stop offset="0%" stop-color="#A6A1D6"/>
            <stop offset="100%" stop-color="#8077E4"/>
        </linearGradient>
        <path id="t" d="M5.717 42.944C2.864 41.297.528 36.839.528 33.037L.246 6.895c0-3.802 2.336-5.566 5.189-3.92L40.268 22.64c2.854 1.647 5.19 6.105 5.19 9.907l.48 26.604c0 3.802-2.337 5.567-5.191 3.92L5.717 42.944z"/>
        <filter id="u" width="201.6%" height="250.1%" x="-50.8%" y="-75.1%" filterUnits="objectBoundingBox">
            <feGaussianBlur in="SourceGraphic" stdDeviation="7.973"/>
        </filter>
        <linearGradient id="v" x1="12.035%" x2="85.754%" y1="18.496%" y2="91.285%">
            <stop offset="0%" stop-color="#A6A1D6"/>
            <stop offset="100%" stop-color="#8077E4"/>
        </linearGradient>
    </defs>
    <g fill="none" fill-rule="evenodd">
        <path fill="url(#a)" fill-rule="nonzero" d="M134.247 31.026c1.625 1.457 1.1 3.556-1.41 5.003L62.748 76.492c-2.83 1.635-7.11 1.81-9.56.396L2.005 47.333c-2.169-1.253-2.186-3.342-.187-4.93-2.7 1.846-2.186 6.261.187 7.634L53.196 79.59c2.45 1.416 6.73 1.236 9.56-.396l70.08-40.462c2.798-1.615 3.758-6.233 1.411-7.707" transform="translate(0 63)"/>
        <path fill="url(#b)" d="M53.196 76.888L2.006 47.333c-2.451-1.416-2.153-3.886.684-5.52l70.083-40.46c2.83-1.635 7.11-1.813 9.56-.399l51.19 29.557c2.451 1.414 2.145 3.886-.684 5.518l-70.09 40.463c-2.83 1.635-7.11 1.812-9.56.396" transform="translate(0 63)"/>
        <path fill="url(#c)" fill-rule="nonzero" d="M8.427 40.807L74.118 2.88c.361-.202.797-.22 1.174-.048l54.98 31.745c.3.172.262.486-.086.678L64.498 73.179a1.31 1.31 0 0 1-1.176.05L8.342 41.483c-.299-.172-.262-.486.085-.675" transform="translate(0 63)"/>
        <path fill="#96A3D1" fill-rule="nonzero" d="M104.02 100.073l-4.64-2.679a2 2 0 0 1-.006-3.461l4.085-2.373a7 7 0 0 1 7.016-.01l4.14 2.389a2 2 0 0 1 .004 3.461l-4.585 2.665a6 6 0 0 1-6.014.008zm-14.86-8.577l-4.641-2.68a2 2 0 0 1-.005-3.462l4.085-2.373a7 7 0 0 1 7.016-.01l4.14 2.39a2 2 0 0 1 .005 3.46l-4.585 2.666a6 6 0 0 1-6.016.009zm-4.263-14.712a2 2 0 0 1 .005 3.461l-4.585 2.664a6 6 0 0 1-6.014.009l-4.644-2.681a2 2 0 0 1-.004-3.461l4.585-2.665a6 6 0 0 1 6.014-.008l4.643 2.68zm-25.83 50.711l-36.36-20.993a1.123 1.123 0 0 1-.002-1.943 3.346 3.346 0 0 1 3.354-.005l36.36 20.993a1.123 1.123 0 0 1 .003 1.943 3.346 3.346 0 0 1-3.355.005zm-1.5-26.437l-12.055-6.67a2 2 0 0 1-.037-3.48l13.062-7.59a7 7 0 0 1 6.906-.073l9.52 5.267a3 3 0 0 1 .055 5.219L62.5 101.006a5 5 0 0 1-4.933.052zm8.51 22.364l-36.36-20.993a1.123 1.123 0 0 1-.004-1.943 3.343 3.343 0 0 1 3.353-.005l36.363 20.993a1.123 1.123 0 0 1 .002 1.943 3.346 3.346 0 0 1-3.354.005zm7.01-4.073L36.726 98.356a1.123 1.123 0 0 1-.003-1.943 3.346 3.346 0 0 1 3.354-.005l36.361 20.996a1.122 1.122 0 0 1 .003 1.941 3.344 3.344 0 0 1-3.352.004zm4.805-6.1l-10.567-5.846a2 2 0 0 1-.037-3.479l13.062-7.59a7 7 0 0 1 6.906-.073l11.063 6.12a2 2 0 0 1 .036 3.48l-12.57 7.305a8 8 0 0 1-7.893.084z"/>
        <path fill="#D1D9EE" fill-rule="nonzero" d="M30.153 123.51a4.586 4.586 0 0 1-2.257-.538c-.578-.336-.896-.77-.896-1.215 0-.444.313-.88.882-1.214a4.532 4.532 0 0 1 2.22-.542 4.595 4.595 0 0 1 2.259.54c.578.332.896.77.896 1.214 0 .444-.314.879-.882 1.214a4.542 4.542 0 0 1-2.232.532"/>
        <g>
            <g transform="translate(75 23)">
                <path fill="url(#d)" fill-rule="nonzero" d="M74.416 1.648c1.67-1.545 3.137-2.004 4.4-1.376 1.538.835 40.25 22.534 116.14 65.096 2.053.996 3.08 3.29 3.08 6.883v69.217a977.876 977.876 0 0 0 0 8.19c-.166 1.235-1.22 1.915-1.49 2.188-2.604 1.704-2.686 1.796-4.147 1.153-.853-7.028-2.812-13.575-5.878-19.64l-46.902-67.497-33.536-22.796-22.348-22.36-9.32-19.058z"/>
                <path fill="url(#e)" d="M76.704 1.512l115.695 65.93c1.412.804 2.556 2.6 2.556 4.01v80.45c0 1.41-1.144 1.901-2.556 1.097L76.704 87.069c-1.412-.805-2.557-2.6-2.557-4.011V2.608c0-1.41 1.145-1.901 2.557-1.096z"/>
                <path fill="url(#f)" fill-rule="nonzero" d="M84.648 15.502l99.167 56.4c1.21.688 2.192 2.225 2.192 3.431v65.627c0 1.207-.981 1.627-2.192.939l-99.167-56.4c-1.21-.688-2.191-2.224-2.191-3.43V16.44c0-1.207.98-1.627 2.191-.939z"/>
                <path fill="#8292C2" fill-opacity=".5" fill-rule="nonzero" d="M0 130.359v8.007c.052 5.743 1.314 9.186 3.786 10.33 2.355 1.33 38.622 22.374 108.802 63.131 7.147 3.93 12.595 4.657 16.342 2.183 3.748-2.475 22.421-13.96 56.021-34.456 2.835-1.727 4.252-3.431 4.252-5.114v-14.677c.215-1.315-.46-2.838-2.025-4.571-1.564-1.733-29.21-.085-82.937 4.946L12.712 138.96 0 130.359z" filter="url(#g)" opacity=".5"/>
                <path fill="url(#h)" fill-rule="nonzero" d="M0 127.546v7.435c.052 1.487 1.314 2.802 3.786 3.945 2.355 1.33 38.622 22.374 108.802 63.132 7.147 3.93 12.595 4.657 16.342 2.182 3.748-2.475 22.421-13.96 56.021-34.456 2.835-1.726 4.252-3.43 4.252-5.114 0-1.683.013-3.602.039-5.757.096-1.295-.598-2.78-2.083-4.452-1.485-1.673-29.124-3.038-82.918-4.093l-91.529-17.346L0 127.546z"/>
                <use fill="url(#j)" transform="matrix(-1 0 0 1 189.203 0)" xlink:href="#i"/>
                <use fill="#E0E7F8" fill-rule="nonzero" transform="matrix(-1 0 0 1 206.183 0)" xlink:href="#k"/>
                <mask id="m" fill="#fff">
                    <use xlink:href="#l"/>
                </mask>
                <use fill="#D1D9EE" fill-rule="nonzero" transform="matrix(-1 0 0 1 136.788 0)" xlink:href="#l"/>
                <path fill="#B7C2E5" d="M134.551 41.884c1.236 1.13 2.237.95 2.237-.403s-1.001-3.366-2.237-4.497c-1.235-1.13-2.237-.95-2.237.403s1.002 3.366 2.237 4.497z" mask="url(#m)"/>
                <g fill="#FFF" mask="url(#m)">
                    <path d="M124.341 77.458c-2.567-1.512-4.649-5-4.649-7.789 0-2.79 2.082-3.825 4.649-2.313s4.649 5 4.649 7.789c0 2.79-2.082 3.825-4.649 2.313zm0-11.145c-1.284-.756-2.324-2.5-2.324-3.894 0-1.395 1.04-1.913 2.324-1.157 1.284.756 2.324 2.5 2.324 3.894 0 1.395-1.04 1.913-2.324 1.157z"/>
                </g>
            </g>
        </g>
        <g>
            <g transform="translate(166 12)">
                <mask id="o" fill="#fff">
                    <use xlink:href="#n"/>
                </mask>
                <use fill="#2645B5" opacity=".746" xlink:href="#n"/>
                <path fill="#2645B5" d="M-2.158 12.72c-2.853-1.647-.894 2.047-.894-1.755l-.006-13.107c0-3.802 3.171-4.092 6.024-2.446l77.056 42.429c2.854 1.646 5.19 6.105 5.19 9.907l1.48 9.045c0 3.802 2.642 8.62-.213 6.973L-2.158 12.72z" mask="url(#o)"/>
            </g>
            <path fill="#23B685" fill-rule="nonzero" d="M182.534 30.07c.971.56 1.753.11 1.756-1a3.845 3.845 0 0 0-1.747-3.024c-.971-.559-1.753-.11-1.756 1a3.845 3.845 0 0 0 1.747 3.025"/>
            <path fill="#FF584F" fill-rule="nonzero" d="M170.746 23.265c.972.558 1.754.11 1.756-1a3.845 3.845 0 0 0-1.743-3.025c-.972-.558-1.754-.11-1.759 1a3.85 3.85 0 0 0 1.746 3.025"/>
            <path fill="#F7B500" fill-rule="nonzero" d="M176.639 26.668c.971.558 1.753.109 1.758-1.001a3.85 3.85 0 0 0-1.746-3.024c-.972-.559-1.754-.11-1.756 1a3.842 3.842 0 0 0 1.744 3.025"/>
            <path fill="#FDFDFF" d="M199.598 58.517l40.307 22.979c1.829 1.061 3.311 3.41 3.311 5.246 0 1.835-1.482 2.463-3.311 1.4l-40.307-22.978c-1.83-1.062-3.312-3.41-3.312-5.246 0-1.836 1.483-2.463 3.312-1.401zM199.311 72.32l22.028 12.632c1.829 1.062 3.311 3.41 3.311 5.246 0 1.836-1.482 2.463-3.31 1.401L199.31 78.967C197.483 77.905 196 75.556 196 73.72c0-1.835 1.483-2.462 3.311-1.4z"/>
            <g>
                <path fill="#93A1D1" d="M181.302 47.46C175.615 44.191 171 46.595 171 52.828c0 3.214 1.219 6.809 3.19 9.996v.015c1.847 2.988 4.354 5.622 7.112 7.207 2.757 1.587 5.268 1.838 7.114.956 1.97-.919 3.189-3.113 3.189-6.329 0-6.231-4.617-13.944-10.303-17.213"/>
                <path fill="#FFF" d="M181.302 60.676c1.914 1.1 3.455.286 3.455-1.797 0-2.084-1.541-4.672-3.455-5.772-1.9-1.093-3.453-.283-3.453 1.8s1.554 4.677 3.453 5.77M181.302 61.426c-3.278-1.887-6.064-1.2-7.111 1.399v.013c1.846 2.988 4.353 5.622 7.11 7.209 2.758 1.585 5.269 1.836 7.115.955-1.047-3.8-3.834-7.69-7.114-9.576"/>
            </g>
            <path fill="#58E9E2" d="M174.15 106.982c-.6-.34-1.09-1.259-1.09-2.042L173 81.935c0-.784.49-1.147 1.09-.808l15.72 8.796c.599.34 1.09 1.258 1.09 2.042l.1 23.1c0 .784-.49 1.147-1.09.808l-15.76-8.891zM199.15 120.982c-.6-.34-1.09-1.259-1.09-2.042L198 95.935c0-.784.49-1.147 1.09-.808l15.72 8.796c.599.34 1.09 1.258 1.09 2.042l.1 23.1c0 .784-.49 1.147-1.09.808l-15.76-8.891zM225.15 134.982c-.6-.34-1.09-1.259-1.09-2.042l-.06-23.005c0-.784.49-1.147 1.09-.808l15.72 8.796c.599.34 1.09 1.258 1.09 2.042l.1 23.1c0 .784-.49 1.147-1.09.808l-15.76-8.891z" opacity=".746"/>
        </g>
        <g transform="translate(256 57)">
            <path fill="url(#p)" fill-rule="nonzero" d="M4.803 2.59l-.005.003c-1.564-.374-2.018-.301-2.807.158l2.271-1.314c.788-.459 1.6-.858 2.8-.166l37.264 20.815c2.385 1.377 3.937 4.543 3.93 7.283l.203 29.134c-.005 1.36-.491 2.322-1.27 2.774l-2.532 1.571c.78-.454 1.223-2.502 1.228-3.864l-.851-29.279c-1.079-3.064-2.195-4.939-3.722-6.294L4.803 2.59z"/>
            <mask id="r" fill="#fff">
                <use xlink:href="#q"/>
            </mask>
            <use fill="#B0AAF7" xlink:href="#q"/>
            <path fill="#8780DC" d="M-2.45 9.26c-2.853-1.647-.894 2.047-.894-1.755l-.006-5.107c0-3.801 3.171-4.092 6.024-2.446l40.046 19.3c2.854 1.647 5.19 6.105 5.19 9.907l1.48 1.045c0 3.802 2.642 9.62-.212 7.973L-2.45 9.26z" mask="url(#r)"/>
            <path fill="#FDFDFF" d="M7.311 20.517l30.307 16.979c1.83 1.061 2.435 1.992 2.435 3.827 0 1.836-1.606 1.882-3.435.82L6.311 25.163c-1.828-1.061-2.374-1.818-2.374-3.654 0-1.835 1.546-2.054 3.374-.992zM8.375 31.638l14.307 7.98c1.829 1.06 2.435 1.991 2.435 3.827 0 1.835-1.606 1.881-3.435.82l-14.307-7.98C5.546 35.223 5 34.466 5 32.631c0-1.836 1.546-2.055 3.375-.993z"/>
            <path fill="#23B685" fill-rule="nonzero" d="M17.534 18.07c.971.56 1.753.11 1.756-1a3.845 3.845 0 0 0-1.747-3.024c-.971-.559-1.753-.11-1.756 1a3.845 3.845 0 0 0 1.747 3.025"/>
            <path fill="#FF584F" fill-rule="nonzero" d="M5.746 11.265c.972.558 1.754.11 1.756-1A3.845 3.845 0 0 0 5.76 7.24c-.972-.558-1.754-.11-1.759 1a3.85 3.85 0 0 0 1.746 3.025"/>
            <path fill="#F7B500" fill-rule="nonzero" d="M11.639 14.668c.971.558 1.753.109 1.758-1.001a3.85 3.85 0 0 0-1.746-3.024c-.972-.559-1.754-.11-1.756 1a3.842 3.842 0 0 0 1.744 3.025"/>
        </g>
        <g>
            <g transform="translate(88)">
                <path fill="url(#s)" fill-rule="nonzero" d="M4.7 2.67l-.355.006c-1.564-.373-1.688-.145-2.354.075l2.271-1.314C5.05.978 6.578.279 7.778.97l36.548 21.115c2.385 1.377 3.937 4.543 3.93 7.283l.203 29.134c-.005 1.36-.491 2.322-1.27 2.774l-2.532 1.571c.78-.454 1.223-2.502 1.228-3.864l-.851-29.279c-1.079-3.064-2.195-4.939-3.722-6.294L4.7 2.67z"/>
                <use fill="#B0AAF7" xlink:href="#t"/>
                <path fill="#8B84DD" d="M8.707 35.321L39.033 52.81c1.83 1.062 2.435 1.992 2.435 3.828 0 1.835-1.606 1.881-3.435.82L7.707 39.967c-1.829-1.062-2.375-1.819-2.375-3.654 0-1.836 1.546-2.055 3.375-.993z"/>
                <path fill="#6A63BC" d="M8.707 35.321l16.538 9.498c1.83 1.062 2.435 1.992 2.435 3.828 0 1.836-1.606 1.881-3.435.82L7.707 39.968c-1.829-1.062-2.375-1.819-2.375-3.654 0-1.836 1.546-2.055 3.375-.993z"/>
                <path fill="#FFF" fill-rule="nonzero" d="M26.49 51.627c1.387.868 2.503.17 2.51-1.555-.093-1.91-1.02-3.656-2.493-4.699-1.387-.868-2.504-.17-2.507 1.555.09 1.91 1.016 3.657 2.49 4.699M21.975 36.147c3.329 1.984 6.008.388 6.025-3.554-.223-4.366-2.447-8.357-5.983-10.74-3.33-1.984-6.009-.388-6.017 3.554.217 4.365 2.439 8.359 5.975 10.74"/>
                <path fill="#B0AAF7" fill-rule="nonzero" d="M24.31 31.717c.688-.06.899-.571.462-1.143l-3.98-5.22c-.436-.57-.792-.437-.792.296v5.12c-.005.346.13.678.37.912.24.234.564.347.89.312l3.05-.277z"/>
            </g>
            <path fill="#8292C2" fill-opacity=".5" d="M7.007 47.951l33.077 15.972c3.87 2.08 7.008 6.897 7.008 10.76 0 3.863-3.138 5.308-7.008 3.228L7.007 61.94C3.137 59.86 0 55.042 0 51.18c0-3.863 3.137-5.308 7.007-3.228z" filter="url(#u)" transform="translate(87)"/>
        </g>
        <g>
            <path fill="url(#v)" fill-rule="nonzero" d="M4.544.311L30.53 15.172c1.254.729 2.279 2.5 2.274 3.945l-2.266 1.316c.002-1.445-1.02-3.218-2.276-3.942L2.276 1.627c-.632-.364-1.205-.395-1.62-.155L2.922.156c.415-.243.99-.21 1.622.155zm25.981 23.767l.013-3.645 2.266-1.316-.01 3.648-.01.006c.002 1.443.827 3.79 1.844 5.218l-2.269 1.317c-1.008-1.428-1.843-3.78-1.843-5.222l.01-.006zm-.036 12.944c.002-.83.34-1.457.86-1.758l2.266-1.319c-.52.304-.855.93-.858 1.759l-.012 4.131-2.266 1.319.01-4.132zm1.588 4.275l-2.266 1.317c.408-.243.666-.744.668-1.458l2.266-1.319c-.002.715-.257 1.22-.668 1.46zm2.56-13.308L38.201 33l-2.269 1.32-3.563-5.014 2.268-1.317zm4.032 6.884c-.757.437-1.514.876-2.268 1.316.364-.211.22-.9-.469-1.87l2.269-1.316c.69.966.83 1.659.468 1.87z" transform="translate(119 72)"/>
            <path fill="#B0AAF7" d="M147.262 88.491c1.255.729 2.278 2.497 2.276 3.942l-.013 3.644c0 1.442.826 3.793 1.844 5.222l3.563 5.02c1.018 1.43.843 2.254-.391 1.824l-2.803-.971c-1.231-.425-2.244.403-2.25 1.846v4.129c0 1.442-1.036 2.028-2.29 1.304l-25.922-14.824c-1.256-.728-2.28-2.499-2.276-3.942l.058-20.718c0-1.457 1.035-2.033 2.29-1.309l25.914 14.833z"/>
            <path fill="#FDFDFF" d="M127.375 83.638l17.022 9.777c1.828 1.061 2.434 1.992 2.434 3.827 0 1.836-1.606 1.882-3.434.82l-17.022-9.777c-1.829-1.062-2.375-1.819-2.375-3.654 0-1.836 1.546-2.055 3.375-.993zM135.608 97.148l7.756 4.346c1.828 1.061 2.434 1.992 2.434 3.827 0 1.836-1.606 1.882-3.434.82l-7.756-4.346c-1.828-1.062-2.374-1.819-2.374-3.654 0-1.836 1.546-2.055 3.374-.993z"/>
        </g>
    </g>
</svg>
