<svg xmlns="http://www.w3.org/2000/svg" width="369" height="230" viewBox="0 0 369 230">
    <defs>
        <filter id="a" width="118.5%" height="132%" x="-9.2%" y="-16%" filterUnits="objectBoundingBox">
            <feGaussianBlur in="SourceGraphic" stdDeviation="10"/>
        </filter>
    </defs>
    <g fill="none" fill-rule="evenodd">
        <path fill="#D8DFF2" d="M92.962 151.238c.42-1.485 1.821-2.896 4.21-4.248a19.204 19.204 0 0 1 9.22-2.6c2.988-.11 5.947.589 8.549 2.017h.012c2.224 1.236 3.342 2.588 3.426 4.08a3.973 3.973 0 0 1-1.118 2.567 4.195 4.195 0 0 0 1.398-2.935c-.085-1.551-1.236-2.958-3.455-4.243a16.247 16.247 0 0 0-8.62-2.097 18.926 18.926 0 0 0-9.3 2.703c-2.584 1.453-4.022 3.079-4.322 4.756zm19.846.32c.108-.116.202-.243.28-.378a2.17 2.17 0 0 1-.37.346l.09.032zm-15.093.316a1.748 1.748 0 0 0-.135.455c-.144.99.433 1.853 1.744 2.587a7.61 7.61 0 0 0 3.39.886 12.195 12.195 0 0 0 4.376-.792l2.396 2.578.213-.073-2.424-2.691c-1.406.55-2.904.83-4.414.824a7.493 7.493 0 0 1-3.419-.921c-1.321-.764-1.903-1.661-1.758-2.692a1.65 1.65 0 0 1 .031-.161zm160.223 1.21l-.7.39 3.467 1.91c.85.503 1.73.96 2.634 1.364a5.233 5.233 0 0 0 2.07.332 4.404 4.404 0 0 0 2.059-.581c.448-.197.799-.554.98-.997.074-.293.03-.597-.117-.854-.006.04-.013.08-.023.12-.18.453-.527.818-.97 1.019a4.254 4.254 0 0 1-2.036.594 5.03 5.03 0 0 1-2.048-.34 25.452 25.452 0 0 1-2.606-1.394l-2.71-1.564zm7.921-4.458l-.743.421-.037.048 2.45 1.34c1.446.807 2.353 1.294 2.745 1.472.672.3 1.403.458 2.144.463a4.021 4.021 0 0 0 1.96-.487c.563-.32.845-.605.894-1.032a.935.935 0 0 0-.182-.657c-.111.291-.386.568-.831.829a3.878 3.878 0 0 1-1.94.497 5.126 5.126 0 0 1-2.12-.473c-.388-.182-1.285-.679-2.715-1.503l-1.625-.918zm14.267 1.844c.037-.321.005-.65-.098-.963a3.48 3.48 0 0 0-1.151-1.527 25.126 25.126 0 0 0-3.018-1.952l-7.272-4.17-17.975 10.45.036.06.598.345 17.325-9.753 7.35 4.082-.036-.06a25.507 25.507 0 0 1 3.05 1.91c.525.384.928.902 1.164 1.496.01.027.018.055.027.082zm-7.498 3.971a10.58 10.58 0 0 1-.713-.125c.508.416.828.994.916 1.615a2.63 2.63 0 0 0-.203-1.49zM256.23 59.605l-.424.237h.049l3.418 1.91c.85.504 1.729.96 2.633 1.365.66.25 1.364.363 2.07.333a4.542 4.542 0 0 0 2.071-.57 2.047 2.047 0 0 0 .994-1.013 2.06 2.06 0 0 1-.848.773c-.625.36-1.328.56-2.048.582a5.026 5.026 0 0 1-2.048-.34 25.442 25.442 0 0 1-2.605-1.394l-3.262-1.883zm7.863-4.482l-.41.232-.025.036 2.45 1.365c1.434.795 2.353 1.281 2.745 1.46.668.3 1.395.458 2.131.462a3.981 3.981 0 0 0 1.973-.498c.531-.297.846-.573.901-.975-.146.232-.404.453-.758.658a3.84 3.84 0 0 1-1.951.509 5.075 5.075 0 0 1-2.109-.473c-.387-.182-1.296-.679-2.714-1.491l-2.233-1.285zm14.446 3.265c.076-.114.145-.233.208-.356.248-.523.291-1.12.121-1.673a3.322 3.322 0 0 0-1.151-1.528 24.513 24.513 0 0 0-3.03-1.952l-7.27-4.171-17.971 10.44.034.057 17.67-9.939 7.35 4.083-.036-.06a24.893 24.893 0 0 1 3.062 1.912c.531.377.936.897 1.164 1.495a2.202 2.202 0 0 1-.151 1.692zm-7.424 2.347a10.93 10.93 0 0 1-.62-.11 2.545 2.545 0 0 1 .918 2.374 3.347 3.347 0 0 1-1.4 1.817 3.407 3.407 0 0 0 1.657-2.018 2.645 2.645 0 0 0-.555-2.063zm-172.99-3.258l2.753 1.586h-.036a14.293 14.293 0 0 1 2.982 2.026c.296.3.415.731.315 1.14-.186.448-.532.81-.97 1.019a4.268 4.268 0 0 1-.086.05c.372-.099.73-.245 1.063-.437.443-.204.792-.56.98-1 .102-.4-.019-.824-.318-1.117a14.48 14.48 0 0 0-3.015-1.987l-2.978-1.665-.69.385zm7.244-4.086l1.777 1.027.036-.024c1.722.994 2.728 1.6 3.055 1.831.534.437.776.837.74 1.213-.036.376-.327.728-.885 1.055-.108.06-.218.116-.33.166a4.003 4.003 0 0 0 1.358-.449c.564-.32.846-.618.895-1.034.049-.417-.209-.797-.748-1.19-.33-.226-1.348-.82-3.088-1.796l-2.12-1.19-.69.39zm-.598-3.821l-.365-.21-17.979 10.443 6.195 3.627c2.34 1.285 3.855 2.11 4.534 2.425a10.41 10.41 0 0 0 3.286.922c1.146.107 2.3.05 3.43-.17a10.084 10.084 0 0 0 2.959-1.055c.19-.09.371-.197.54-.318-.83.397-1.713.683-2.624.85-1.142.215-2.31.27-3.468.166a10.776 10.776 0 0 1-3.322-.904c-.686-.25-2.218-1.058-4.583-2.378l-6.226-3.485 17.623-9.913zm9.1 10.821a8.135 8.135 0 0 1-1.734.376c-1.16.14-2.338.088-3.48-.154.224.18.412.392.56.626.655.045 1.313.028 1.966-.053a7.841 7.841 0 0 0 2.688-.795zm79.145 37.264l.753.53h-.013a14.04 14.04 0 0 1 6.176-1.756 9.986 9.986 0 0 1 3.904.754 10.104 10.104 0 0 0-4.816-1.168c-2.101.096-4.152.657-6.004 1.64zm15.547-4.686c.619.293 1.228.609 1.825.948 3.814 2.182 5.8 4.496 5.934 6.907.138 2.418-1.316 4.5-4.362 6.243a22.699 22.699 0 0 1-5.86 2.302c-2.591.6-5.229.979-7.884 1.133-2.035.097-5.276.097-9.748 0-4.472-.096-7.36-.096-8.676-.096a32.216 32.216 0 0 0-3.57.313l14.707 8.437-6.815 3.925.968.557 6.794-3.95-14.644-8.48a31.784 31.784 0 0 1 3.555-.314c1.359-.037 4.198-.06 8.638.097 4.44.157 7.68.133 9.706 0a46.507 46.507 0 0 0 7.85-1.14 22.476 22.476 0 0 0 5.835-2.313c3.034-1.757 4.477-3.84 4.344-6.275-.134-2.435-2.111-4.75-5.909-6.942a26.463 26.463 0 0 0-2.688-1.352zm26.901-7.503c-.267.823.123 1.718 1.29 2.386l29.263 16.876-.009.005 30.58 9.116v11.45c.198.039-12.693 3.067-15.226 4.534-6.158 3.576-4.558 8.352 1.478 11.843 6.036 3.492 14.278 4.437 20.436.8a19.819 19.819 0 0 0 6.57-6.849c1.114-1.915 34.603 4.452 37.027 5.87v9.938l.061.024-29.09 16.887a7.271 7.271 0 0 1-6.593 0 3.212 3.212 0 0 1-1.14-1.055 20.037 20.037 0 0 0-6.641-6.861c-6.194-3.589-14.436-2.68-20.436.812-6 3.491-7.527 8.195-1.333 11.831 2.545 1.48 14.322-4.993 14.887-4.679.858 1.07.858 11.795-1.045 12.91l-23.708 13.771-5.576 3.249-29.477-16.971c-2.46-1.43-3.697-12.329-.4-12.959 4.836-.91 11.624 6.207 14.157 4.74 6.17-3.588 4.594-8.352-1.467-11.844-6.06-3.49-14.278-4.449-20.447-.812a19.637 19.637 0 0 0-6.57 6.861c-1.114 1.891-5.284 2.473-7.708 1.055L185.1 151.508l.228-.133L156 134.517c-1.702-.95-4.227-1-5.984-.32 1.75-.641 4.164-.585 5.792.367l29.268 16.853.024.012-29.098 16.9a7.275 7.275 0 0 1-6.596 0 3.043 3.043 0 0 1-1.127-1.042 20.199 20.199 0 0 0-6.644-6.874c-6.208-3.577-14.428-2.692-20.442.812-6.013 3.504-7.541 8.208-1.333 11.845 3.799 1.83 6.202-2.88 10.369-2.233.64.117 3.946-2.752 4.52-2.443 1.733 1.006.872 11.793-1.044 12.908l-23.702 13.773-5.59 3.249-29.486-16.973c-2.461-1.431-3.145-12.327.14-12.957 4.156-.648 9.834 6.552 13.621 4.724 6.171-3.588 4.583-8.353-1.467-11.845-6.05-3.491-14.282-4.45-20.453-.812a19.762 19.762 0 0 0-6.56 6.874c-1.127 1.892-5.298 2.474-7.723 1.055l-29.22-16.973v-10.205c2.073-1.053 33.562-7.665 35.634-6.611.46.25.848.612 1.128 1.055a20.162 20.162 0 0 0 6.631 6.874c6.208 3.589 14.44 2.68 20.442-.812 6.001-3.492 7.541-8.208 1.334-11.845-2.547-1.467-7.166-2.813-12.016-3.735a5.892 5.892 0 0 1-1.83-.642c-1.722-1.006-1.904-12.677 0-13.78l23.715-3.848 5.577-3.237 29.486 16.973a2.425 2.425 0 0 1 1.382 1.867c-.158 1.006-1.285 1.94-3.152 2.316a43.066 43.066 0 0 0-11.833 3.83 9.408 9.408 0 0 0-3.08 2.656c-2.352 3.128-.352 6.656 4.389 9.396 3.385 1.95 7.447 3.11 11.446 3.12-3.9-.057-7.84-1.188-11.143-3.088-4.647-2.69-6.661-6.106-4.562-9.183a9.41 9.41 0 0 1 3.081-2.653 43.14 43.14 0 0 1 11.842-3.828c1.868-.376 2.996-1.308 3.154-2.314a2.156 2.156 0 0 0-1.432-2.362l-29.275-16.876 29.3-16.96h.121c1.577-1.127 1.31-2.69-.34-3.634a6.072 6.072 0 0 0-1.82-.655 43.103 43.103 0 0 1-11.865-3.816c-5.278-3.04-4.974-6.93-1.08-10.164a17.52 17.52 0 0 1 2.427-1.671 23.367 23.367 0 0 1 9.744-3.043c-3.798.109-7.612 1.235-10.831 3.096a16.84 16.84 0 0 0-2.485 1.723c-3.892 3.238-4.195 7.131 1.079 10.176a43.012 43.012 0 0 0 11.856 3.82 6.06 6.06 0 0 1 1.819.655c1.649.958 1.915 2.523.34 3.639h-.122l-29.278 16.98-29.472-16.98c-2.46-1.42-2.286-13.282 1.012-13.912 4.15-.65 8.953 7.516 12.736 5.688 6.171-3.578 4.583-8.356-1.467-11.85-6.05-3.492-14.28-4.438-20.452-.8a19.936 19.936 0 0 0-6.57 6.84c-1.104 1.905-5.274 2.487-7.699 1.068l-29.29-16.859V47.98c2.072-1.054 33.62-8.103 35.691-7.049.455.257.841.619 1.128 1.055a19.935 19.935 0 0 0 6.643 6.865c6.195 3.578 14.427 2.693 20.44-.812 6.013-3.506 7.529-8.2 1.334-11.838-2.546-1.48-7.165-2.826-12.014-3.748a5.781 5.781 0 0 1-1.831-.643c-1.734-1.006-2.562-11.675-.646-12.779l24.347-4.843 5.589-3.25 29.92 8.093c2.461 1.42 1.067 12.755-2.218 13.374-4.85.922-9.456 2.268-11.99 3.735-6.159 3.59-4.57 8.357 1.479 11.85 6.05 3.493 14.281 4.39 20.44.813a19.754 19.754 0 0 0 6.57-6.865c1.128-1.904 5.286-2.486 7.711-1.067l29.241 16.895-.012.097-29.096 16.907-.218.121a7.268 7.268 0 0 1-2.771.64 7.36 7.36 0 0 0 3.847-.641l.146-.097.218-.122 29.118-16.887 29.336 16.887a7.186 7.186 0 0 0 2.99.787 7.35 7.35 0 0 1-2.885-.777L185.1 57.778l29.083-16.903a7.267 7.267 0 0 1 6.58 0c.457.253.844.615 1.127 1.055a20.074 20.074 0 0 0 6.677 6.863c6.204 3.589 14.396 2.68 20.418-.813 6.023-3.492 7.55-8.208 1.345-11.846-2.544-1.467-7.173-2.813-12.02-3.723a5.802 5.802 0 0 1-1.818-.654c-1.733-.995-2.587-12.177-.673-13.293l24.315-4.277 5.586-3.25 29.859 8.094c2.46 1.419 1.114 12.75-2.17 13.368a42.393 42.393 0 0 0-11.972 3.747c-6.156 3.577-4.568 8.342 1.478 11.834 6.047 3.493 14.275 4.45 20.431.813a19.614 19.614 0 0 0 6.556-6.863c1.127-1.904 34.548 4.498 36.971 5.917l.061 9.955v.036L317.851 74.73a7.194 7.194 0 0 1-6.58 0 3.164 3.164 0 0 1-1.127-1.055 20.074 20.074 0 0 0-6.652-6.863c-6.205-3.589-14.409-2.704-20.42.8-6.01 3.505-7.549 8.21-1.344 11.847 2.545 1.48 2.426-3.327 7.273-2.405.641.111 7.017-1.603 7.587-1.289 1.733 1.006.893 10.812-1.01 11.927l-23.726 13.69-5.587 3.25-29.47-16.976c-1.027-.617-1.454-1.425-1.331-2.189zm.358-.645a4.664 4.664 0 0 1 2.512-1.204 42.684 42.684 0 0 0 11.815-3.82 11.73 11.73 0 0 0 2.072-1.49c4.168-3.444 2.326-7.58-3.102-10.72-4.268-2.46-9.614-3.636-14.556-2.861 4.908-.71 10.201.467 14.432 2.907h.06-.035c5.253 3.077 7.194 7.002 3.554 10.346-.66.61-1.389 1.143-2.171 1.587a42.8 42.8 0 0 1-11.83 3.816 4.673 4.673 0 0 0-2.751 1.439zm-8.883-16.947a19.506 19.506 0 0 0-5.425 6.055c-.163.258-.364.49-.596.688a7.21 7.21 0 0 0 .1-.055c.381-.24.705-.564.946-.944a19.5 19.5 0 0 1 4.975-5.744zm-9.22 65.952a7.268 7.268 0 0 1 3.04.795l.182.11c.354.224.652.527.872.884a20.122 20.122 0 0 0 6.63 6.861c2.775 1.605 5.942 2.312 9.137 2.291-3.06-.04-6.082-.751-8.737-2.279a20.123 20.123 0 0 1-6.636-6.856 2.764 2.764 0 0 0-.874-.885l-.182-.12a7.286 7.286 0 0 0-3.431-.801zm24.206-7.138a43.495 43.495 0 0 0-3.507-.746 5.731 5.731 0 0 1-.27-.055c.196.057.394.103.595.138a43.6 43.6 0 0 1 3.182.663z" opacity=".9"/>
        <path fill="#8292C2" fill-opacity=".5" d="M71.962 150.81c.42-1.486 1.821-2.897 4.21-4.249a19.204 19.204 0 0 1 9.22-2.6c2.988-.109 5.947.59 8.549 2.017h.012c2.224 1.236 3.342 2.588 3.426 4.08a3.973 3.973 0 0 1-1.118 2.567 4.195 4.195 0 0 0 1.398-2.934c-.085-1.552-1.236-2.959-3.455-4.244a16.247 16.247 0 0 0-8.62-2.097 18.926 18.926 0 0 0-9.3 2.703c-2.584 1.453-4.022 3.079-4.322 4.756zm19.846.319c.108-.116.202-.243.28-.378a2.17 2.17 0 0 1-.37.346l.09.032zm-15.093.316a1.748 1.748 0 0 0-.135.455c-.144.99.433 1.853 1.744 2.587a7.61 7.61 0 0 0 3.39.886 12.195 12.195 0 0 0 4.376-.792l2.396 2.579.213-.074-2.424-2.691c-1.406.55-2.904.83-4.414.824a7.493 7.493 0 0 1-3.419-.921c-1.321-.764-1.903-1.661-1.758-2.692a1.65 1.65 0 0 1 .031-.16zm160.223 1.21l-.7.39 3.467 1.91c.85.504 1.73.96 2.634 1.364a5.233 5.233 0 0 0 2.07.333 4.404 4.404 0 0 0 2.059-.582c.448-.197.799-.554.98-.997.074-.292.03-.597-.117-.854-.006.04-.013.08-.023.12-.18.453-.527.818-.97 1.019a4.254 4.254 0 0 1-2.036.594 5.03 5.03 0 0 1-2.048-.34 25.452 25.452 0 0 1-2.606-1.394l-2.71-1.563zm7.921-4.458l-.743.421-.037.048 2.45 1.34c1.446.807 2.353 1.294 2.745 1.472.672.3 1.403.459 2.144.463a4.021 4.021 0 0 0 1.96-.487c.563-.32.845-.605.894-1.032a.935.935 0 0 0-.182-.657c-.111.292-.386.568-.831.829a3.878 3.878 0 0 1-1.94.497 5.126 5.126 0 0 1-2.12-.473c-.388-.182-1.285-.679-2.715-1.503l-1.625-.918zm14.267 1.844c.037-.321.005-.65-.098-.962a3.48 3.48 0 0 0-1.151-1.528 25.126 25.126 0 0 0-3.018-1.951l-7.272-4.17-17.975 10.449.036.06.598.345 17.325-9.753 7.35 4.082-.036-.06a25.507 25.507 0 0 1 3.05 1.911c.525.383.928.901 1.164 1.495.01.027.018.055.027.082zm-7.498 3.972a10.581 10.581 0 0 1-.713-.126c.508.416.828.994.916 1.615a2.63 2.63 0 0 0-.203-1.49zM235.23 59.176l-.424.237h.049l3.418 1.91c.85.505 1.729.96 2.633 1.366.66.249 1.364.362 2.07.332a4.542 4.542 0 0 0 2.071-.57 2.047 2.047 0 0 0 .994-1.013 2.06 2.06 0 0 1-.848.773c-.625.36-1.328.56-2.048.582a5.026 5.026 0 0 1-2.048-.34 25.442 25.442 0 0 1-2.605-1.394l-3.262-1.883zm7.863-4.482l-.41.232-.025.036 2.45 1.365c1.434.795 2.353 1.282 2.745 1.46.668.3 1.395.458 2.131.463a3.981 3.981 0 0 0 1.973-.499c.531-.297.846-.573.901-.975-.146.233-.404.453-.758.658a3.84 3.84 0 0 1-1.951.51 5.075 5.075 0 0 1-2.109-.474c-.387-.182-1.296-.679-2.714-1.491l-2.233-1.285zm14.446 3.265c.076-.114.145-.232.208-.355.248-.523.291-1.12.121-1.674a3.322 3.322 0 0 0-1.151-1.527 24.513 24.513 0 0 0-3.03-1.953l-7.27-4.17-17.971 10.44.034.056 17.67-9.938 7.35 4.082-.036-.059a24.893 24.893 0 0 1 3.062 1.911c.531.377.936.897 1.164 1.495a2.202 2.202 0 0 1-.151 1.692zm-7.424 2.347a10.93 10.93 0 0 1-.62-.11 2.545 2.545 0 0 1 .918 2.374 3.347 3.347 0 0 1-1.4 1.817 3.407 3.407 0 0 0 1.657-2.018 2.645 2.645 0 0 0-.555-2.063zm-172.99-3.258l2.753 1.587h-.036a14.293 14.293 0 0 1 2.982 2.025c.296.3.415.731.315 1.14-.186.448-.532.81-.97 1.019a4.268 4.268 0 0 1-.086.05c.372-.098.73-.245 1.063-.437.443-.204.792-.56.98-1 .102-.4-.019-.823-.318-1.117a14.48 14.48 0 0 0-3.015-1.986l-2.978-1.665-.69.384zm7.244-4.086l1.777 1.027.036-.024c1.722.995 2.728 1.601 3.055 1.832.534.436.776.836.74 1.212-.036.376-.327.728-.885 1.056-.108.06-.218.115-.33.165a4.003 4.003 0 0 0 1.358-.448c.564-.322.846-.619.895-1.035.049-.417-.209-.797-.748-1.19-.33-.226-1.348-.82-3.088-1.796l-2.12-1.189-.69.39zm-.598-3.82l-.365-.21-17.979 10.443L71.622 63c2.34 1.286 3.855 2.11 4.534 2.426a10.41 10.41 0 0 0 3.286.921c1.146.107 2.3.05 3.43-.17a10.084 10.084 0 0 0 2.959-1.055c.19-.09.371-.197.54-.318-.83.397-1.713.684-2.624.85-1.142.215-2.31.271-3.468.167a10.776 10.776 0 0 1-3.322-.904c-.686-.25-2.218-1.059-4.583-2.38l-6.226-3.484 17.623-9.913zm9.1 10.82a8.135 8.135 0 0 1-1.734.377c-1.16.139-2.338.087-3.48-.155.224.18.412.393.56.626.655.046 1.313.028 1.966-.053a7.841 7.841 0 0 0 2.688-.795zm79.145 37.264l.753.53h-.013A14.04 14.04 0 0 1 178.932 96a9.986 9.986 0 0 1 3.904.755 10.104 10.104 0 0 0-4.816-1.17c-2.101.098-4.152.659-6.004 1.641zm15.547-4.685c.619.292 1.228.608 1.825.948 3.814 2.181 5.8 4.495 5.934 6.906.138 2.419-1.316 4.5-4.362 6.243a22.699 22.699 0 0 1-5.86 2.302c-2.591.6-5.229.979-7.884 1.133-2.035.097-5.276.097-9.748 0-4.472-.096-7.36-.096-8.676-.096a32.215 32.215 0 0 0-3.57.313l14.707 8.437-6.815 3.925.968.557 6.794-3.949-14.644-8.48a31.784 31.784 0 0 1 3.555-.315c1.359-.036 4.198-.06 8.638.097 4.44.157 7.68.133 9.706 0a46.507 46.507 0 0 0 7.85-1.139 22.476 22.476 0 0 0 5.835-2.314c3.034-1.756 4.477-3.84 4.344-6.275-.134-2.435-2.111-4.749-5.909-6.942a26.463 26.463 0 0 0-2.688-1.351zm26.901-7.504c-.267.824.123 1.718 1.29 2.386l29.263 16.876-.009.005 30.58 9.116v11.45c.198.039-12.693 3.067-15.226 4.534-6.158 3.576-4.558 8.352 1.478 11.844 6.036 3.49 14.278 4.436 20.436.8a19.819 19.819 0 0 0 6.57-6.85c1.114-1.915 34.603 4.453 37.027 5.87v9.938l.061.024-29.09 16.887a7.271 7.271 0 0 1-6.593 0 3.212 3.212 0 0 1-1.14-1.055 20.037 20.037 0 0 0-6.641-6.861c-6.194-3.588-14.436-2.68-20.436.812-6 3.491-7.527 8.195-1.333 11.831 2.545 1.48 14.322-4.993 14.887-4.679.858 1.07.858 11.795-1.045 12.91l-23.708 13.771-5.576 3.25-29.477-16.972c-2.46-1.43-3.697-12.328-.4-12.959 4.836-.909 11.624 6.207 14.157 4.74 6.17-3.588 4.594-8.352-1.467-11.843-6.06-3.492-14.278-4.45-20.447-.813a19.637 19.637 0 0 0-6.57 6.862c-1.114 1.89-5.284 2.473-7.708 1.054L164.1 151.08l.228-.133L135 134.088c-1.702-.95-4.227-1-5.984-.319 1.75-.642 4.164-.586 5.792.367l29.268 16.852.024.012-29.098 16.9a7.275 7.275 0 0 1-6.596 0 3.043 3.043 0 0 1-1.127-1.042 20.199 20.199 0 0 0-6.644-6.874c-6.208-3.577-14.428-2.692-20.442.812-6.013 3.504-7.541 8.208-1.333 11.845 3.799 1.83 6.202-2.88 10.369-2.233.64.117 3.946-2.751 4.52-2.443 1.733 1.006.872 11.793-1.044 12.908l-23.702 13.773-5.59 3.25-29.486-16.974c-2.461-1.43-3.145-12.326.14-12.957 4.156-.648 9.834 6.553 13.621 4.725 6.171-3.589 4.583-8.354-1.467-11.845-6.05-3.492-14.282-4.45-20.453-.813a19.762 19.762 0 0 0-6.56 6.875c-1.127 1.89-5.298 2.473-7.723 1.054l-29.22-16.973v-10.204c2.073-1.054 33.562-7.666 35.634-6.612.46.25.848.613 1.128 1.055a20.162 20.162 0 0 0 6.631 6.874c6.208 3.589 14.44 2.68 20.442-.812 6.001-3.492 7.541-8.208 1.334-11.845-2.547-1.467-7.166-2.813-12.016-3.734a5.892 5.892 0 0 1-1.83-.643c-1.722-1.006-1.904-12.677 0-13.78l23.715-3.848 5.577-3.237 29.486 16.973a2.425 2.425 0 0 1 1.382 1.867c-.158 1.007-1.285 1.94-3.152 2.316a43.066 43.066 0 0 0-11.833 3.831 9.408 9.408 0 0 0-3.08 2.655c-2.352 3.128-.352 6.656 4.389 9.396 3.385 1.95 7.447 3.11 11.446 3.12-3.9-.057-7.84-1.188-11.143-3.088-4.647-2.69-6.661-6.106-4.562-9.183a9.41 9.41 0 0 1 3.081-2.653 43.14 43.14 0 0 1 11.842-3.828c1.868-.375 2.996-1.308 3.154-2.314a2.156 2.156 0 0 0-1.432-2.362l-29.275-16.876 29.3-16.96h.121c1.577-1.126 1.31-2.69-.34-3.634a6.072 6.072 0 0 0-1.82-.654 43.103 43.103 0 0 1-11.865-3.816c-5.278-3.041-4.974-6.93-1.08-10.164a17.52 17.52 0 0 1 2.427-1.672 23.367 23.367 0 0 1 9.744-3.043c-3.798.11-7.612 1.235-10.831 3.097a16.84 16.84 0 0 0-2.485 1.722c-3.892 3.238-4.195 7.131 1.079 10.176a43.012 43.012 0 0 0 11.856 3.82 6.06 6.06 0 0 1 1.819.655c1.649.958 1.915 2.523.34 3.639h-.122l-29.278 16.98-29.472-16.98c-2.46-1.42-2.286-13.281 1.012-13.912 4.15-.65 8.953 7.516 12.736 5.689 6.171-3.578 4.583-8.357-1.467-11.85-6.05-3.493-14.28-4.44-20.452-.8a19.936 19.936 0 0 0-6.57 6.84c-1.104 1.904-5.274 2.486-7.699 1.067L.846 57.398v-9.846c2.072-1.055 33.62-8.104 35.691-7.05.455.257.841.619 1.128 1.056a19.935 19.935 0 0 0 6.643 6.864c6.195 3.578 14.427 2.693 20.44-.812 6.013-3.505 7.529-8.2 1.334-11.838-2.546-1.48-7.165-2.826-12.014-3.747a5.781 5.781 0 0 1-1.831-.643c-1.734-1.007-2.562-11.676-.646-12.78l24.347-4.843 5.589-3.25 29.92 8.093c2.461 1.42 1.067 12.755-2.218 13.374-4.85.922-9.456 2.268-11.99 3.736-6.159 3.59-4.57 8.356 1.479 11.85 6.05 3.492 14.281 4.39 20.44.812a19.754 19.754 0 0 0 6.57-6.865c1.128-1.904 5.286-2.486 7.711-1.067l29.241 16.895-.012.097-29.096 16.907-.218.121a7.268 7.268 0 0 1-2.771.64 7.36 7.36 0 0 0 3.847-.641l.146-.097.218-.121 29.118-16.888 29.336 16.888a7.186 7.186 0 0 0 2.99.787 7.35 7.35 0 0 1-2.885-.778L164.1 57.349l29.083-16.903a7.267 7.267 0 0 1 6.58 0c.457.253.844.616 1.127 1.055a20.074 20.074 0 0 0 6.677 6.863c6.204 3.59 14.396 2.68 20.418-.812 6.023-3.492 7.55-8.21 1.345-11.847-2.544-1.467-7.173-2.813-12.02-3.722a5.802 5.802 0 0 1-1.818-.655c-1.733-.994-2.587-12.177-.673-13.293l24.315-4.277 5.586-3.25 29.859 8.094c2.46 1.42 1.114 12.75-2.17 13.368a42.393 42.393 0 0 0-11.972 3.747c-6.156 3.577-4.568 8.343 1.478 11.835 6.047 3.492 14.275 4.45 20.431.812a19.614 19.614 0 0 0 6.556-6.863c1.127-1.904 34.548 4.498 36.971 5.917l.061 9.955v.037L296.851 74.3a7.194 7.194 0 0 1-6.58 0 3.164 3.164 0 0 1-1.127-1.054 20.074 20.074 0 0 0-6.652-6.864c-6.205-3.589-14.409-2.703-20.42.8-6.01 3.505-7.549 8.21-1.344 11.847 2.545 1.48 2.426-3.327 7.273-2.405.641.112 7.017-1.603 7.587-1.289 1.733 1.007.893 10.812-1.01 11.928l-23.726 13.69-5.587 3.249-29.47-16.976c-1.027-.617-1.454-1.425-1.331-2.189zm.358-.645a4.664 4.664 0 0 1 2.512-1.204 42.684 42.684 0 0 0 11.815-3.82 11.73 11.73 0 0 0 2.072-1.49c4.168-3.444 2.326-7.579-3.102-10.72-4.268-2.46-9.614-3.636-14.556-2.861 4.908-.71 10.201.467 14.432 2.907h.06-.035c5.253 3.077 7.194 7.002 3.554 10.346-.66.61-1.389 1.143-2.171 1.587a42.8 42.8 0 0 1-11.83 3.816 4.673 4.673 0 0 0-2.751 1.439zm-8.883-16.947a19.506 19.506 0 0 0-5.425 6.055c-.163.259-.364.49-.596.688a7.21 7.21 0 0 0 .1-.054c.381-.242.705-.564.946-.945a19.5 19.5 0 0 1 4.975-5.744zm-9.22 65.952a7.268 7.268 0 0 1 3.04.795l.182.11c.354.224.652.527.872.884a20.122 20.122 0 0 0 6.63 6.862c2.775 1.604 5.942 2.312 9.137 2.29-3.06-.04-6.082-.751-8.737-2.278a20.123 20.123 0 0 1-6.636-6.857 2.764 2.764 0 0 0-.874-.885l-.182-.12a7.286 7.286 0 0 0-3.431-.8zm24.206-7.138a43.495 43.495 0 0 0-3.507-.746 5.731 5.731 0 0 1-.27-.054c.196.056.394.102.595.137a43.6 43.6 0 0 1 3.182.663z" filter="url(#a)" opacity=".626" transform="translate(21 10.937)"/>
        <g>
            <path fill="#8A9BDD" d="M263.902 48.508l-2.944-1.698-4.847 2.789 3.38 1.952c.841.515 1.711.98 2.606 1.394.652.255 1.349.37 2.048.34a4.385 4.385 0 0 0 2.048-.582 2.06 2.06 0 0 0 .981-1.03 1.213 1.213 0 0 0-.327-1.14c-.907-.8-1.913-1.481-2.993-2.025m6.301-4.645l-2.096-1.212-4.157 2.425 2.424 1.394c1.418.813 2.327 1.31 2.714 1.492.661.307 1.38.468 2.109.473a3.84 3.84 0 0 0 1.95-.51c.546-.315.861-.666.898-1.042.036-.376-.206-.776-.752-1.213-.327-.23-1.345-.849-3.065-1.843m-20.734 5.384l17.97-10.44 7.271 4.171a24.513 24.513 0 0 1 3.03 1.952c.525.385.925.917 1.151 1.528.17.553.127 1.15-.121 1.673a3.527 3.527 0 0 1-1.54 1.54 8.03 8.03 0 0 1-3.016.958 10.5 10.5 0 0 1-3.43-.158 2.644 2.644 0 0 1 .909 2.426 3.407 3.407 0 0 1-1.818 2.097c-.92.512-1.92.865-2.956 1.043-1.124.229-2.276.29-3.418.182a10.55 10.55 0 0 1-3.308-.922c-.666-.315-2.181-1.14-4.52-2.425l-6.168-3.565m97.452-1.406l-29.313-16.927c-2.424-1.419-6.592-.849-7.72 1.055a19.614 19.614 0 0 1-6.555 6.863c-6.156 3.637-14.384 2.68-20.43-.813-6.047-3.492-7.635-8.257-1.479-11.834a42.393 42.393 0 0 1 11.972-3.747c3.284-.618 4.242-3.068 1.782-4.486L265.72 1l-5.587 3.25-23.642 13.726c-1.915 1.115-1.733 2.85 0 3.843.565.319 1.18.54 1.818.655 4.847.91 9.476 2.256 12.02 3.723 6.205 3.637 4.678 8.354-1.345 11.846-6.022 3.492-14.214 4.402-20.418.813a20.074 20.074 0 0 1-6.677-6.863 3.164 3.164 0 0 0-1.127-1.055 7.267 7.267 0 0 0-6.58 0L185.1 47.84l29.253 16.903a7.351 7.351 0 0 0 6.216.194c.381-.242.704-.565.945-.946a19.504 19.504 0 0 1 6.604-6.851l.618-.34c6.156-3.54 14.348-2.63 20.383.85 5.428 3.14 7.27 7.274 3.102 10.718a11.73 11.73 0 0 1-2.072 1.491 42.684 42.684 0 0 1-11.815 3.82 4.664 4.664 0 0 0-2.751 1.443c-.376.873 0 1.867 1.212 2.595l29.47 16.975 5.587-3.25 23.727-13.689c1.902-1.115 1.732-2.837 0-3.844a5.887 5.887 0 0 0-1.83-.642c-4.847-.922-9.476-2.268-12.021-3.747-6.205-3.638-4.666-8.342 1.345-11.847 6.01-3.504 14.214-4.389 20.419-.8a20.074 20.074 0 0 1 6.652 6.863c.283.44.67.802 1.127 1.055a7.194 7.194 0 0 0 6.58 0l29.083-16.89"/>
            <path fill="#B0AAF7" d="M96.387 146.62c-2.425-1.398-3.585-3.015-3.48-4.85.097-1.842 1.552-3.637 4.377-5.225a18.926 18.926 0 0 1 9.3-2.704 16.247 16.247 0 0 1 8.62 2.098c2.219 1.285 3.37 2.691 3.455 4.243a4.195 4.195 0 0 1-1.467 2.995l-4.474-1.588a2.17 2.17 0 0 0 .861-2.05 2.995 2.995 0 0 0-1.66-1.903 8.487 8.487 0 0 0-4.705-1.055 13.082 13.082 0 0 0-5.892 1.977c-2.28 1.321-3.492 2.51-3.638 3.54-.145 1.03.437 1.928 1.758 2.691a7.493 7.493 0 0 0 3.42.922c1.51.006 3.007-.274 4.413-.825l2.424 2.692a18.005 18.005 0 0 1-7.092.982 14.646 14.646 0 0 1-6.232-1.94m88.7-5.14l-29.267-16.853c-2.425-1.418-6.596-.848-7.711 1.055a19.75 19.75 0 0 1-6.571 6.862c-6.16 3.637-14.392 2.68-20.454-.812-4.74-2.74-6.741-6.268-4.389-9.396a9.408 9.408 0 0 1 3.08-2.655 43.066 43.066 0 0 1 11.833-3.831c1.867-.376 2.994-1.31 3.152-2.316a2.425 2.425 0 0 0-1.382-1.867L103.88 94.693l-5.577 3.237-23.715 13.785c-1.904 1.104-1.722 2.837 0 3.844.57.314 1.189.53 1.83.642 4.85.922 9.47 2.267 12.016 3.734 6.207 3.638 4.667 8.354-1.334 11.845-6.002 3.492-14.234 4.401-20.442.813a20.162 20.162 0 0 1-6.631-6.875 3.055 3.055 0 0 0-1.128-1.054 7.275 7.275 0 0 0-6.596 0L23.266 141.48l29.22 16.973c2.424 1.418 6.595.837 7.722-1.055a19.762 19.762 0 0 1 6.56-6.874c6.17-3.637 14.403-2.68 20.453.812 6.05 3.492 7.638 8.257 1.467 11.845a42.69 42.69 0 0 1-11.979 3.734c-3.285.63-4.243 3.068-1.782 4.498l29.486 16.974 5.59-3.25 23.702-13.772c1.916-1.115 1.734-2.85 0-3.855a6.22 6.22 0 0 0-1.83-.643 42.848 42.848 0 0 1-12.015-3.734c-6.208-3.637-4.68-8.341 1.333-11.845 6.014-3.504 14.234-4.39 20.442-.813a20.199 20.199 0 0 1 6.644 6.875c.28.438.668.797 1.127 1.042a7.275 7.275 0 0 0 6.596 0l29.098-16.9"/>
            <path fill="#8A9BDD" d="M100.878 49.126l-2.946-1.698-4.85 2.79 3.383 1.953c.841.519 1.716.98 2.619 1.382.646.263 1.34.382 2.037.352a4.266 4.266 0 0 0 2.048-.594c.438-.209.784-.571.97-1.02.1-.408-.02-.84-.315-1.14a14.293 14.293 0 0 0-2.982-2.025m6.304-4.645l-2.097-1.213-4.159 2.426 2.425 1.383c1.418.824 2.328 1.322 2.716 1.503.664.31 1.388.472 2.121.474a3.878 3.878 0 0 0 1.94-.498c.558-.327.849-.679.885-1.055.036-.376-.206-.776-.74-1.213-.327-.23-1.333-.837-3.055-1.831m-20.755 5.41l17.98-10.444 7.273 4.173a25.13 25.13 0 0 1 3.019 1.952c.522.39.921.92 1.151 1.529.171.549.128 1.142-.12 1.661a3.529 3.529 0 0 1-1.553 1.553 7.841 7.841 0 0 1-2.994.958 10.252 10.252 0 0 1-3.443-.158 2.608 2.608 0 0 1 .91 2.426 3.444 3.444 0 0 1-1.82 2.098c-.924.504-1.922.86-2.957 1.055-1.13.22-2.285.277-3.431.17a10.41 10.41 0 0 1-3.286-.922c-.679-.315-2.194-1.14-4.534-2.425l-6.195-3.627m97.253-2.037L154.44 30.933c-2.425-1.419-6.583-.836-7.71 1.068a19.754 19.754 0 0 1-6.571 6.864c-6.159 3.578-14.39 2.68-20.44-.812-6.05-3.493-7.638-8.26-1.48-11.85 2.535-1.467 7.141-2.814 11.99-3.735 3.286-.619 4.244-3.069 1.783-4.488L102.527 1l-5.589 3.25L73.237 18.03c-1.915 1.103-1.734 2.838 0 3.844.57.316 1.189.534 1.83.643 4.85.922 9.469 2.268 12.015 3.748 6.195 3.638 4.68 8.332-1.334 11.837-6.013 3.506-14.245 4.39-20.44.813a19.935 19.935 0 0 1-6.643-6.865 3.274 3.274 0 0 0-1.128-1.055 7.271 7.271 0 0 0-6.595 0L21.846 47.889l29.29 16.859c2.425 1.419 6.595.837 7.699-1.067a19.936 19.936 0 0 1 6.57-6.84c6.171-3.64 14.403-2.693 20.452.8 6.05 3.493 7.638 8.271 1.467 11.85a42.697 42.697 0 0 1-11.965 3.735c-3.298.63-4.244 3.068-1.783 4.487l29.472 16.98 29.278-16.98h.121c1.576-1.115 1.31-2.68-.34-3.638a6.06 6.06 0 0 0-1.818-.655 43.012 43.012 0 0 1-11.856-3.82c-5.274-3.045-4.97-6.938-1.08-10.177a16.84 16.84 0 0 1 2.486-1.722c6.062-3.505 14.233-4.402 20.44-.812a20.057 20.057 0 0 1 6.644 6.864c.28.439.668.798 1.127 1.043a7.271 7.271 0 0 0 6.304.158l.218-.121 29.096-16.907M265.06 141.667l-2.946-1.697-4.848 2.788 3.382 1.952c.84.515 1.71.98 2.606 1.394a5.03 5.03 0 0 0 2.048.34 4.254 4.254 0 0 0 2.036-.594c.443-.201.79-.567.97-1.019.1-.408-.02-.84-.315-1.14a14.423 14.423 0 0 0-2.982-2.024m6.29-4.642l-2.096-1.213-4.145 2.425 2.424 1.37c1.43.824 2.327 1.321 2.715 1.503a5.126 5.126 0 0 0 2.12.473 3.878 3.878 0 0 0 1.94-.497c.558-.328.848-.68.885-1.055.036-.376-.206-.776-.727-1.212-.328-.23-1.358-.849-3.079-1.843m-20.726 5.395l17.975-10.45 7.272 4.17c1.051.578 2.06 1.23 3.018 1.952.519.391.918.92 1.151 1.527.182.551.143 1.15-.109 1.673a3.636 3.636 0 0 1-1.551 1.54 7.975 7.975 0 0 1-3.006.957 10.168 10.168 0 0 1-3.43-.157 2.63 2.63 0 0 1 .897 2.424 3.37 3.37 0 0 1-1.818 2.097c-.92.513-1.92.87-2.958 1.055a11.622 11.622 0 0 1-3.418.17 10.095 10.095 0 0 1-3.297-.922c-.678-.315-2.193-1.14-4.52-2.424l-6.17-3.552m96.225-.933l-29.32-16.875c-2.423-1.418-6.593-.848-7.708 1.067a19.819 19.819 0 0 1-6.57 6.85c-6.157 3.636-14.399 2.69-20.435-.8-6.036-3.492-7.636-8.268-1.478-11.844 2.533-1.467 7.139-2.825 11.975-3.746 3.297-.618 4.242-3.067 1.782-4.485l-29.453-16.972-29.284 16.972-.121.06c-1.564 1.103-1.297 2.667.351 3.637a5.732 5.732 0 0 0 1.806.642c4.12.7 8.116 1.991 11.867 3.831 5.248 3.03 4.957 6.91 1.09 10.159a16.969 16.969 0 0 1-2.496 1.733c-6.06 3.503-14.23 4.4-20.436.812a20.122 20.122 0 0 1-6.63-6.86 2.764 2.764 0 0 0-.872-.886l-.182-.109a7.271 7.271 0 0 0-6.412-.11l-.158.11L185.1 141.57l29.247 16.887c2.424 1.418 6.594.836 7.709-1.055a19.637 19.637 0 0 1 6.569-6.861c6.17-3.637 14.387-2.68 20.447.812 6.06 3.491 7.636 8.255 1.467 11.844-2.533 1.466-7.139 2.812-11.975 3.721-3.297.63-4.242 3.067-1.782 4.498l29.477 16.97 5.576-3.248 23.708-13.77c1.903-1.116 1.733-2.838 0-3.844a5.805 5.805 0 0 0-1.818-.642c-4.849-.921-9.479-2.267-12.024-3.746-6.194-3.637-4.666-8.34 1.333-11.831 6-3.492 14.242-4.4 20.436-.813a20.037 20.037 0 0 1 6.642 6.862c.288.44.679.801 1.14 1.054a7.271 7.271 0 0 0 6.593 0l29.09-16.886"/>
            <path fill="#5C629E" fill-rule="nonzero" d="M193.769 88.249l-6.613-4.665a25.643 25.643 0 0 1 12.812-2.665 26.477 26.477 0 0 1 11.283 3.465c3.798 2.193 5.775 4.507 5.909 6.942.133 2.435-1.31 4.518-4.344 6.275a22.476 22.476 0 0 1-5.835 2.314c-2.58.602-5.206.983-7.85 1.139-2.026.133-5.265.157-9.706 0-4.44-.158-7.28-.134-8.638-.097-1.19.038-2.377.143-3.555.315l14.644 8.48-6.794 3.949-25.866-14.9a34.957 34.957 0 0 1 9.839-2.8 118.465 118.465 0 0 1 17.458-.532c6.394.133 10.531.097 12.388-.11a15.51 15.51 0 0 0 5.993-1.732c1.618-.945 2.426-1.926 2.426-2.943 0-1.018-.788-1.975-2.329-2.872a9.984 9.984 0 0 0-5.06-1.32c-2.166.1-4.28.702-6.175 1.757m55.3-30.553h-.06c-5.86-3.38-13.759-4.337-19.85-1.212l-.618.34a19.505 19.505 0 0 0-6.564 6.856c-.241.381-.565.704-.946.945a7.192 7.192 0 0 1-6.77.11l-29.336-16.888-29.118 16.887-.218.121-.146.097c-2.04.944-4.4.904-6.406-.109a2.825 2.825 0 0 1-1.116-1.042 19.02 19.02 0 0 0-6.54-6.953c-6.211-3.635-14.425-2.69-20.442.8a17.52 17.52 0 0 0-2.427 1.671c-3.894 3.235-4.198 7.123 1.08 10.164a43.103 43.103 0 0 0 11.865 3.816c.638.12 1.253.34 1.82.654 1.65.945 1.917 2.508.34 3.635h-.121l-29.3 16.96 29.275 16.876a2.156 2.156 0 0 1 1.432 2.362c-.158 1.005-1.286 1.938-3.154 2.314a43.14 43.14 0 0 0-11.842 3.828 9.41 9.41 0 0 0-3.081 2.653c-2.1 3.077-.085 6.493 4.562 9.183 6.066 3.489 14.28 4.385 20.455.8a18.618 18.618 0 0 0 6.418-6.942c1.067-1.902 5.277-2.423 7.752-1.042l29.506 16.96 29.118-16.875.158-.11a7.29 7.29 0 0 1 6.37.134l.181.121c.355.225.654.527.874.884a20.123 20.123 0 0 0 6.636 6.857c6.212 3.574 14.438 2.677 20.443-.811a17.835 17.835 0 0 0 2.427-1.672c3.87-3.247 4.161-7.124-1.092-10.152a43.589 43.589 0 0 0-11.878-3.828 5.744 5.744 0 0 1-1.807-.642c-1.65-.958-1.917-2.52-.352-3.635l.121-.06 29.312-16.96-29.263-16.876c-1.48-.848-1.711-2.06-.935-3.029a4.673 4.673 0 0 1 2.755-1.441 42.8 42.8 0 0 0 11.829-3.816 11.743 11.743 0 0 0 2.171-1.587c3.64-3.344 1.699-7.27-3.554-10.346"/>
            <path fill="#FFF" fill-rule="nonzero" d="M210.376 83.98a26.773 26.773 0 0 0-11.332-3.447 25.96 25.96 0 0 0-12.867 2.652l6.64 4.64a14.202 14.202 0 0 1 6.203-1.748 10.101 10.101 0 0 1 5.08 1.314c1.548.892 2.34 1.844 2.34 2.857 0 1.012-.804 1.988-2.437 2.929a15.688 15.688 0 0 1-6.019 1.723c-1.864.205-6.02.241-12.44.109-5.85-.251-11.711-.074-17.535.53a35.362 35.362 0 0 0-9.881 2.784l25.978 14.825 6.823-3.929-14.707-8.437a32.216 32.216 0 0 1 3.57-.313c1.316 0 4.204 0 8.676.096s7.713.096 9.748 0a47.12 47.12 0 0 0 7.883-1.133 22.699 22.699 0 0 0 5.861-2.302c3.046-1.744 4.5-3.825 4.362-6.243-.134-2.411-2.12-4.725-5.934-6.907M93.913 49.89l4.902-2.735 2.978 1.665a14.48 14.48 0 0 1 3.015 1.986c.3.294.42.717.319 1.118a1.953 1.953 0 0 1-.98 1 4.412 4.412 0 0 1-2.072.582 5.036 5.036 0 0 1-2.059-.345 22.535 22.535 0 0 1-2.647-1.355l-3.42-1.915m7.906-4.449l4.203-2.378 2.12 1.19c1.74.974 2.758 1.569 3.089 1.795.54.393.797.773.748 1.19-.05.416-.331.713-.895 1.034a4.016 4.016 0 0 1-1.961.488 5.229 5.229 0 0 1-2.145-.464c-.392-.178-1.311-.666-2.745-1.475l-2.451-1.356m10.846-2.045l-7.353-4.092-18.163 10.217 6.226 3.485c2.365 1.32 3.897 2.129 4.583 2.378 1.049.477 2.17.782 3.322.904 1.158.105 2.326.049 3.468-.166a10.401 10.401 0 0 0 2.99-1.035 3.41 3.41 0 0 0 1.839-2.058c.15-.895-.2-1.8-.92-2.378 1.143.241 2.32.294 3.481.154a8.1 8.1 0 0 0 3.027-.94 3.516 3.516 0 0 0 1.57-1.522c.25-.508.294-1.09.122-1.63a3.354 3.354 0 0 0-1.165-1.498 25.508 25.508 0 0 0-3.051-1.915M255.806 49.904l4.9-2.73 2.977 1.662a14.343 14.343 0 0 1 3.026 1.982c.303.291.428.714.33 1.116-.196.44-.548.797-.992 1.009a4.542 4.542 0 0 1-2.07.57 5.231 5.231 0 0 1-2.07-.333 26.012 26.012 0 0 1-2.634-1.365l-3.418-1.91m7.828-4.487l4.202-2.374 2.12 1.187c1.739.973 2.768 1.579 3.099 1.804.551.38.796.76.76 1.187-.037.427-.356.712-.907 1.02-.6.334-1.281.506-1.973.5a5.272 5.272 0 0 1-2.131-.464c-.392-.178-1.311-.664-2.745-1.46l-2.45-1.364m10.842-2.042l-7.35-4.083-18.168 10.22 6.236 3.489c2.364 1.305 3.895 2.112 4.57 2.374 1.056.475 2.185.78 3.344.902 1.154.105 2.318.045 3.454-.178a9.622 9.622 0 0 0 2.99-1.021 3.37 3.37 0 0 0 1.837-2.053 2.545 2.545 0 0 0-.919-2.374c1.14.235 2.31.287 3.467.154a8.309 8.309 0 0 0 3.05-.938 3.511 3.511 0 0 0 1.557-1.507c.25-.512.294-1.096.122-1.638a3.264 3.264 0 0 0-1.164-1.495 24.893 24.893 0 0 0-3.062-1.911M257.238 143.536l4.9-2.73 2.978 1.662a14.613 14.613 0 0 1 3.014 1.982c.298.293.419.715.318 1.115-.181.443-.532.8-.98.997a4.404 4.404 0 0 1-2.058.581 5.233 5.233 0 0 1-2.07-.332 26.016 26.016 0 0 1-2.635-1.365l-3.467-1.91m7.878-4.426l4.19-2.373 2.12 1.186c1.739.973 2.78 1.578 3.111 1.804.527.38.784.76.735 1.187-.049.427-.33.711-.894 1.032a4.021 4.021 0 0 1-1.96.486 5.324 5.324 0 0 1-2.144-.462c-.392-.178-1.3-.665-2.745-1.472l-2.45-1.34m10.843-2.054l-7.351-4.081-18.17 10.228 6.237 3.477c2.352 1.305 3.883 2.112 4.57 2.373 1.05.482 2.176.787 3.332.902 1.154.11 2.318.054 3.455-.166a9.823 9.823 0 0 0 2.99-1.033 3.333 3.333 0 0 0 1.837-2.052 2.532 2.532 0 0 0-.907-2.374c1.139.242 2.311.294 3.468.155a8.248 8.248 0 0 0 3.038-.938 3.621 3.621 0 0 0 1.568-1.507 2.132 2.132 0 0 0 .11-1.637 3.419 3.419 0 0 0-1.163-1.495 25.507 25.507 0 0 0-3.051-1.91M114.94 136.47a16.515 16.515 0 0 0-8.547-2.017 19.204 19.204 0 0 0-9.221 2.6c-2.801 1.585-4.244 3.252-4.34 5.024-.097 1.771 1.07 3.322 3.45 4.662a14.85 14.85 0 0 0 6.18 1.865 18.372 18.372 0 0 0 7.032-.944l-2.404-2.588c-1.394.53-2.879.799-4.376.793a7.61 7.61 0 0 1-3.39-.886c-1.31-.734-1.888-1.597-1.744-2.588.145-.99 1.335-2.133 3.607-3.403a13.248 13.248 0 0 1 5.843-1.9 8.633 8.633 0 0 1 4.665 1.014 2.909 2.909 0 0 1 1.647 1.83 2.058 2.058 0 0 1-.854 1.97l4.436 1.527a3.99 3.99 0 0 0 1.455-2.88c-.084-1.491-1.202-2.844-3.426-4.08"/>
        </g>
    </g>
</svg>
