<svg xmlns="http://www.w3.org/2000/svg" xmlns:xlink="http://www.w3.org/1999/xlink" width="298" height="294" viewBox="0 0 298 294">
    <defs>
        <filter id="a" width="165.5%" height="195.9%" x="-32.8%" y="-48%" filterUnits="objectBoundingBox">
            <feGaussianBlur in="SourceGraphic" stdDeviation="9.6"/>
        </filter>
        <filter id="b" width="165.5%" height="195.9%" x="-32.8%" y="-48%" filterUnits="objectBoundingBox">
            <feGaussianBlur in="SourceGraphic" stdDeviation="9.6"/>
        </filter>
        <filter id="c" width="220.7%" height="248.7%" x="-60.3%" y="-74.4%" filterUnits="objectBoundingBox">
            <feGaussianBlur in="SourceGraphic" stdDeviation="9.6"/>
        </filter>
        <path id="d" d="M18.203 2.545C8.155-3.152 0 1.037 0 11.898c0 5.6 2.154 11.864 5.638 17.417v.026c3.262 5.206 7.693 9.796 12.565 12.558 4.872 2.765 9.309 3.202 12.57 1.666 3.482-1.6 5.636-5.425 5.636-11.027 0-10.859-8.158-24.297-18.206-29.993"/>
    </defs>
    <g fill="none" fill-rule="evenodd">
        <path fill="#B0AAF7" d="M42.934 102.83a4.874 4.874 0 0 0-2.419 4.208v102.994c0 3.008 2.517 4.87 4.851 4.87a4.75 4.75 0 0 0 2.41-.663l123.372-71.476a4.877 4.877 0 0 0 2.422-4.208V35.56c0-3.008-2.517-4.869-4.852-4.869-.84 0-1.651.223-2.41.662L42.934 102.83z" opacity=".255"/>
        <path fill="#9F9AD0" d="M58.815 59.176L1.132 92.595A2.278 2.278 0 0 0 0 94.56v48.156c0 1.407 1.177 2.277 2.269 2.277.393 0 .772-.105 1.126-.31l57.682-33.42a2.278 2.278 0 0 0 1.133-1.966V61.143c0-1.407-1.178-2.277-2.269-2.277a2.21 2.21 0 0 0-1.126.31" opacity=".9"/>
        <path fill="#FFF" fill-rule="nonzero" d="M24.055 113.357c-.365.218-.73.32-1.03.26l-6.185-1.229c-.368-.073-.577-.382-.572-.844.005-.461.225-1.027.6-1.543l6.298-8.695c.695-.959 1.715-1.478 2.279-1.16.564.317.458 1.352-.237 2.31l-4.784 6.603 4.697.934c.683.135.766 1.057.187 2.058-.325.561-.789 1.028-1.253 1.306zm15.065-6.26c-.465.278-.925.364-1.24.186-.565-.318-.459-1.353.236-2.312l4.783-6.603-4.697-.933c-.682-.136-.765-1.058-.186-2.058.579-1.001 1.6-1.703 2.283-1.567l6.185 1.23c.368.072.577.381.572.843-.005.461-.225 1.027-.6 1.544l-6.298 8.694a3.61 3.61 0 0 1-1.038.976zm-10.563 9.79c-.15.088-.301.16-.451.207-.856.276-1.341-.288-1.083-1.26l6.176-23.242c.258-.972 1.161-1.983 2.018-2.26.857-.274 1.342.29 1.084 1.262l-6.176 23.242c-.214.802-.866 1.63-1.568 2.05z"/>
        <path fill="#647AC9" d="M193.65.96c-.349 0-.685.091-.999.275L141.532 30.85a2.02 2.02 0 0 0-1.002 1.743v42.675c0 1.246 1.044 2.017 2.01 2.017.35 0 .685-.093 1-.274l51.116-29.616a2.018 2.018 0 0 0 1.003-1.743V2.977c0-1.246-1.043-2.017-2.01-2.017z" opacity=".499"/>
        <path fill="#FFF" d="M188.218 20.131l-37.924 22.29a1.307 1.307 0 0 1-1.97-1.126c0-1.416.75-2.726 1.97-3.443l37.924-22.29a1.307 1.307 0 0 1 1.97 1.127c0 1.415-.75 2.725-1.97 3.442zM188.218 32.615l-37.924 22.29a1.307 1.307 0 0 1-1.97-1.127c0-1.416.75-2.726 1.97-3.443l37.924-22.29a1.307 1.307 0 0 1 1.97 1.127c0 1.415-.75 2.725-1.97 3.443zM171.011 52.81l-20.736 12.627a1.284 1.284 0 0 1-1.951-1.097c0-1.418.74-2.735 1.951-3.473l20.736-12.627a1.284 1.284 0 0 1 1.952 1.097c0 1.419-.74 2.735-1.952 3.473z"/>
        <path fill="#ABA6F6" d="M73.42 170.836l-51.119 29.616a2.017 2.017 0 0 0-1.002 1.743v42.673c0 1.246 1.043 2.017 2.01 2.017.35 0 .685-.092.999-.274l51.117-29.615a2.018 2.018 0 0 0 1.004-1.743v-42.674c0-1.247-1.043-2.018-2.01-2.018-.349 0-.685.092-.999.275" opacity=".302"/>
        <path fill="#2645B5" d="M133.741 150.502L69.03 187.993c-2.004 1.161-3.642 4.303-3.642 6.983v61.387c0 2.68 1.638 3.923 3.642 2.763l64.711-37.491c2.003-1.16 3.641-4.303 3.641-6.982v-61.387c0-2-.91-3.198-2.205-3.198-.44 0-.927.14-1.436.434" opacity=".7"/>
        <path fill="#978FF7" d="M266.613 69.89l-64.71 37.49c-2.005 1.162-3.643 4.304-3.643 6.983v47.887c0 2.681 1.638 3.924 3.643 2.763l64.71-37.491c2.003-1.16 3.642-4.302 3.642-6.982V72.652c0-1.998-.91-3.197-2.204-3.197-.443 0-.929.14-1.438.435" opacity=".746"/>
        <path fill="#FFF" d="M262.644 120.583l-56.773 32.892a1.317 1.317 0 0 1-1.977-1.14c0-1.414.754-2.721 1.977-3.43l56.773-32.892a1.317 1.317 0 0 1 1.977 1.14 3.964 3.964 0 0 1-1.977 3.43zM262.644 111.221l-56.773 32.892a1.317 1.317 0 0 1-1.977-1.14c0-1.414.754-2.72 1.977-3.43l56.773-32.891a1.317 1.317 0 0 1 1.977 1.14 3.964 3.964 0 0 1-1.977 3.43z"/>
        <path fill="#9790E5" d="M218.56 125.83l-10.553 6.116a1.92 1.92 0 0 1-2.883-1.662v-12.246a5.76 5.76 0 0 1 2.872-4.984l9.113-5.28a2.88 2.88 0 0 1 4.324 2.492v10.581a5.76 5.76 0 0 1-2.873 4.984zM239.54 113.677l-10.555 6.115a1.92 1.92 0 0 1-2.882-1.662v-12.246a5.76 5.76 0 0 1 2.872-4.984l10.555-6.116a1.92 1.92 0 0 1 2.883 1.662v12.247a5.76 5.76 0 0 1-2.873 4.984zM260.04 101.8l-10.075 5.837a1.92 1.92 0 0 1-2.883-1.661V93.729a5.76 5.76 0 0 1 2.873-4.984l10.554-6.115a1.92 1.92 0 0 1 2.882 1.662v11.693a6.72 6.72 0 0 1-3.35 5.815z"/>
        <path fill="#B0AAF7" d="M165.329 83.968c0 2.053-1.467 4.568-3.277 5.616-1.81 1.049-3.277.235-3.277-1.818 0-2.054 1.467-4.57 3.277-5.618s3.277-.233 3.277 1.82M176.847 77.294c0 2.054-1.466 4.568-3.277 5.617-1.81 1.048-3.277.234-3.277-1.819 0-2.054 1.467-4.569 3.277-5.617s3.277-.234 3.277 1.82M188.366 70.621c0 2.053-1.467 4.568-3.277 5.617-1.81 1.048-3.277.234-3.277-1.82 0-2.053 1.467-4.568 3.277-5.616 1.81-1.049 3.277-.235 3.277 1.82"/>
        <path fill="#657AC9" d="M78.29 124.271c-.26.105-.587.254-1.01.546-2.148 1.48-3.842 5.088-3.842 7.978 0 1.427.554 1.947 1.628 1.206 1.204-.83 2.475-3.47 2.768-5.85l.455-3.88zm2.897 13.509c-1.953 2.36-3.646 3.865-5.958 5.458-5.404 3.725-10.158 2.533-10.158-4.826 0-7.66 4.818-17.626 12.177-22.697 5.73-3.948 9.832-2.232 9.832 4.075 0 5.481-2.67 10.775-6.186 13.199-1.53 1.054-2.637.916-2.8-.961l-.065.045c-1.01 2.61-2.474 4.595-4.2 5.785-2.116 1.458-3.647.71-3.647-2.368 0-4.58 2.93-10.767 7.619-13.998 1.433-.988 3.06-1.697 3.874-1.732l-.976 7.619c-.326 2.44-.098 3.296.814 2.705 1.4-.926 3.157-4.203 3.157-8.521 0-4.88-2.734-6.788-7.78-3.31-4.982 3.432-9.345 10.945-9.345 18.116 0 6.27 3.484 7.436 8.335 4.092 1.66-1.144 3.419-2.768 4.72-4.455l.587 1.774z"/>
        <path fill="#FE665D" d="M98.88 80.196l14.147 3.935c.437.122 1.112-.269 1.55-.896l14.151-20.286L98.88 80.196zM108.928 84.382l-9.845 16.347c-.16-.217-.267-.51-.267-.89V81.592l10.112 2.79z"/>
        <path fill="#FE665D" d="M117.759 80.028l9.911 4.985c-.276.32-.592.585-.926.78l-25.879 14.993c-.306.177-.595.276-.854.291l9.9-16.452 3.894 1.085 3.954-5.682zM128.793 64.224v18.248c0 .347-.11.739-.245 1.109l-9.79-4.948 10.035-14.409z"/>
        <path fill="#FF584F" d="M227.85 88.796a.24.24 0 0 1-.239-.24V17.99l-95.743 55.555a.24.24 0 0 1-.24-.416l96.462-55.971v71.398a.24.24 0 0 1-.24.24"/>
        <path fill="#BDCEFA" d="M234.257 89.092c-.264 0-.478-.192-.478-.457v-.048a.479.479 0 1 1 .957 0c0 .265-.214.505-.479.505"/>
        <path fill="#FF655D" d="M234.378 63.07c-.33 0-.599-.17-.599-.436v-.09c0-.265.268-.48.6-.48.33 0 .598.215.598.48s-.268.525-.599.525m0 3.721c-.33 0-.599-.17-.599-.435v-.09c0-.266.268-.48.6-.48.33 0 .598.214.598.48 0 .265-.268.525-.599.525m0 3.72c-.33 0-.599-.169-.599-.435v-.09c0-.266.268-.48.6-.48.33 0 .598.214.598.48 0 .265-.268.525-.599.525m0 3.721c-.33 0-.599-.17-.599-.435v-.091c0-.265.268-.48.6-.48.33 0 .598.215.598.48 0 .266-.268.526-.599.526m0 3.72c-.33 0-.599-.169-.599-.435v-.09c0-.266.268-.48.6-.48.33 0 .598.214.598.48 0 .265-.268.525-.599.525m0 3.721c-.33 0-.599-.17-.599-.435v-.091c0-.265.268-.48.6-.48.33 0 .598.215.598.48 0 .266-.268.526-.599.526m0 3.72c-.33 0-.599-.169-.599-.435v-.09c0-.266.268-.48.6-.48.33 0 .598.214.598.48 0 .265-.268.525-.599.525"/>
        <path fill="#FF584F" d="M234.257 59.37a.48.48 0 0 1-.4-.2.347.347 0 0 1-.039-.059c-.128-.231-.066-.512.165-.64a.522.522 0 0 1 .496-.007c.147.086.257.232.257.402 0 .265-.214.504-.479.504M230.794 61.287a.482.482 0 0 1-.234-.899c.23-.13.564-.07.693.16s.089.5-.141.63l-.083.047a.483.483 0 0 1-.235.062m-3.422 1.916a.48.48 0 0 1-.232-.9l.084-.047a.48.48 0 0 1 .465.84l-.084.047a.472.472 0 0 1-.233.06m-3.42 1.917a.48.48 0 0 1-.234-.899c.228-.13.562-.07.692.16.129.232.089.5-.141.63l-.083.048a.473.473 0 0 1-.235.061m-3.422 1.917a.481.481 0 0 1-.234-.899c.231-.129.563-.07.694.16.129.232.089.5-.142.63l-.082.047a.48.48 0 0 1-.236.062m-3.422 1.916a.482.482 0 0 1-.233-.9l.085-.046a.478.478 0 0 1 .652.187.482.482 0 0 1-.187.653l-.084.046a.472.472 0 0 1-.233.06m-3.42 1.917a.48.48 0 0 1-.233-.9c.23-.128.563-.069.693.163.127.232.086.5-.145.63l-.083.046a.472.472 0 0 1-.233.06m-3.42 1.918a.482.482 0 0 1-.233-.9c.23-.128.563-.07.692.163.128.231.087.5-.144.63l-.083.046a.472.472 0 0 1-.233.06m-3.422 1.917a.48.48 0 0 1-.233-.9c.23-.127.563-.069.693.164.128.231.087.501-.144.63l-.083.046a.472.472 0 0 1-.233.06m-3.42 1.917a.48.48 0 0 1-.233-.9c.23-.129.562-.069.692.163.128.232.087.502-.144.63l-.083.046a.472.472 0 0 1-.233.06M200 78.538a.479.479 0 0 1-.23-.901l.084-.046a.48.48 0 1 1 .461.84l-.083.047a.484.484 0 0 1-.232.06m-3.42 1.916a.481.481 0 0 1-.233-.9c.23-.127.563-.069.693.164.127.232.086.5-.145.63l-.083.046a.472.472 0 0 1-.233.06m-3.42 1.918a.482.482 0 0 1-.234-.899c.229-.13.563-.071.692.16.129.23.089.5-.141.63l-.083.047a.483.483 0 0 1-.235.062m-3.42 1.916a.48.48 0 0 1-.236-.898c.232-.132.564-.072.694.16.129.23.089.5-.142.63l-.082.047a.483.483 0 0 1-.235.061m-3.422 1.917a.48.48 0 0 1-.233-.9l.083-.047a.48.48 0 0 1 .467.839l-.084.047a.47.47 0 0 1-.233.061m-3.42 1.917a.482.482 0 0 1-.234-.9l.083-.047a.479.479 0 1 1 .466.84l-.083.045a.479.479 0 0 1-.233.062m-3.42 1.916a.48.48 0 0 1-.235-.899c.229-.13.563-.07.693.16.128.232.088.501-.142.63l-.083.048a.48.48 0 0 1-.234.061m-3.422 1.917a.48.48 0 0 1-.235-.899c.23-.13.564-.07.694.16.129.232.089.5-.142.63l-.083.048a.47.47 0 0 1-.234.061m-3.422 1.917a.479.479 0 0 1-.233-.9l.084-.046a.48.48 0 0 1 .466.838l-.084.047a.475.475 0 0 1-.233.06m-3.422 1.917a.479.479 0 0 1-.233-.898l.083-.047a.478.478 0 0 1 .652.185.482.482 0 0 1-.185.653l-.084.047a.472.472 0 0 1-.233.06m-3.42 1.917a.48.48 0 0 1-.236-.899c.232-.13.564-.07.694.16.129.231.089.5-.14.631l-.084.047a.473.473 0 0 1-.235.061m-3.422 1.917a.477.477 0 0 1-.417-.244.482.482 0 0 1 .183-.655c.23-.13.564-.071.693.16.13.232.09.5-.14.631l-.084.046a.473.473 0 0 1-.235.062m-3.42 1.916a.48.48 0 0 1-.234-.899l.083-.046a.48.48 0 0 1 .466.838l-.083.047a.475.475 0 0 1-.233.06m-3.422 1.918a.48.48 0 0 1-.233-.9l.083-.047a.48.48 0 1 1 .466.838l-.083.048a.476.476 0 0 1-.233.061m-3.42 1.917a.48.48 0 0 1-.234-.899c.229-.133.562-.071.692.16.129.23.089.5-.142.63l-.083.047a.477.477 0 0 1-.234.062m-3.422 1.916a.48.48 0 0 1-.233-.9l.084-.047a.48.48 0 0 1 .466.838l-.083.048a.48.48 0 0 1-.234.061m-3.422 1.916a.48.48 0 0 1-.231-.9c.231-.128.564-.067.693.164.127.233.085.502-.147.63l-.083.046a.48.48 0 0 1-.232.06m-3.42 1.917a.481.481 0 0 1-.233-.9c.23-.129.564-.068.692.163.129.232.087.501-.144.63l-.083.046a.475.475 0 0 1-.233.06m-3.421 1.918a.481.481 0 0 1-.233-.9c.23-.13.564-.069.692.163.129.232.087.501-.144.63l-.083.047a.472.472 0 0 1-.232.06m-3.422 1.917a.48.48 0 0 1-.231-.9c.231-.129.563-.068.692.164.127.232.086.5-.146.63l-.084.045a.465.465 0 0 1-.23.06m-3.422 1.918a.48.48 0 0 1-.233-.901c.233-.128.565-.067.693.165.127.231.086.5-.145.629l-.084.046a.47.47 0 0 1-.23.06m-3.422 1.917a.48.48 0 0 1-.233-.9c.229-.13.563-.068.692.164.128.231.087.5-.144.63l-.083.046a.478.478 0 0 1-.232.06m-3.422 1.917a.48.48 0 0 1-.233-.9l.082-.046a.479.479 0 0 1 .652.184.483.483 0 0 1-.185.654l-.084.046a.474.474 0 0 1-.232.062m-3.421 1.917a.48.48 0 0 1-.233-.899l.082-.047a.477.477 0 0 1 .651.185c.13.23.046.523-.184.653l-.084.047a.475.475 0 0 1-.232.06m-3.422 1.917a.48.48 0 0 1-.235-.899c.23-.13.564-.07.693.16.13.232.09.501-.14.63l-.084.048a.473.473 0 0 1-.234.061m-3.421 1.917a.48.48 0 0 1-.236-.899c.232-.132.565-.071.694.16.13.232.089.5-.14.63l-.085.047a.467.467 0 0 1-.233.062m-3.422 1.916a.479.479 0 0 1-.234-.898l.083-.047a.48.48 0 0 1 .467.838l-.084.047a.472.472 0 0 1-.232.06m-3.421 1.917a.479.479 0 0 1-.235-.899l.084-.047a.48.48 0 0 1 .466.838l-.084.048a.469.469 0 0 1-.231.06m-3.421 1.917a.481.481 0 0 1-.235-.899c.23-.13.562-.07.693.16.128.232.088.5-.142.631l-.083.047a.479.479 0 0 1-.233.06m-3.423 1.918a.48.48 0 0 1-.233-.9l.083-.046a.48.48 0 1 1 .466.838l-.083.047a.48.48 0 0 1-.233.061m-3.421 1.917a.48.48 0 0 1-.233-.9l.082-.047a.48.48 0 0 1 .467.838l-.084.048a.476.476 0 0 1-.232.061"/>
        <path fill="#BDCEFA" d="M93.975 137.956c-.265 0-.479-.191-.479-.456 0-.174.093-.381.243-.467.232-.13.544-.058.673.172.119.211.077.464-.105.605a.463.463 0 0 1-.332.146"/>
        <path fill="#FF655D" d="M94.095 142.06c-.332 0-.599-.216-.599-.48v-.1c0-.266.267-.48.6-.48.33 0 .598.214.598.48v.1c0 .264-.268.48-.599.48m0 4.08c-.332 0-.599-.215-.599-.48v-.1c0-.265.267-.48.6-.48.33 0 .598.215.598.48v.1c0 .265-.268.48-.599.48m0 4.079c-.332 0-.599-.215-.599-.48v-.1c0-.265.267-.48.6-.48.33 0 .598.215.598.48v.1c0 .265-.268.48-.599.48m0 4.079c-.332 0-.599-.215-.599-.48v-.1c0-.265.267-.48.6-.48.33 0 .598.215.598.48v.1c0 .265-.268.48-.599.48m0 4.08c-.332 0-.599-.215-.599-.48v-.1c0-.265.267-.48.6-.48.33 0 .598.215.598.48v.1c0 .265-.268.48-.599.48m0 4.08c-.332 0-.599-.215-.599-.481v-.1c0-.265.267-.48.6-.48.33 0 .598.215.598.48v.1c0 .266-.268.48-.599.48m0 4.08c-.332 0-.599-.215-.599-.48v-.1c0-.266.267-.48.6-.48.33 0 .598.214.598.48v.1c0 .265-.268.48-.599.48"/>
        <path fill="#BDCEFA" d="M93.975 170.564a.479.479 0 0 1-.479-.48c0-.265.214-.504.479-.504.264 0 .478.191.478.456v.048a.48.48 0 0 1-.478.48"/>
        <path fill="#FF584F" d="M34.03 189.524a.24.24 0 0 1-.24-.24v-38.379l.128-.068 22.46-11.93a.24.24 0 0 1 .225.425l-22.334 11.863v38.089a.24.24 0 0 1-.24.24"/>
        <path fill="#FF584F" d="M92.926 83.304a.479.479 0 0 1-.24-.897l.085-.047a.48.48 0 0 1 .475.833l-.083.048a.476.476 0 0 1-.237.063m-3.358 1.91a.48.48 0 0 1-.426-.227c-.13-.23-.09-.5.14-.63l.082-.048a.48.48 0 0 1 .472.835.544.544 0 0 1-.268.07m-3.407 1.95a.48.48 0 0 1-.426-.226c-.13-.231-.091-.5.139-.631l.083-.047a.48.48 0 0 1 .472.835.546.546 0 0 1-.268.07m-3.46 1.99a.479.479 0 0 1-.237-.895l.083-.048a.48.48 0 0 1 .475.833l-.083.047a.47.47 0 0 1-.238.064m-3.357 1.91a.48.48 0 0 1-.425-.226c-.13-.232-.091-.5.138-.632l.084-.047a.48.48 0 0 1 .472.835.546.546 0 0 1-.269.07m-3.407 1.95a.482.482 0 0 1-.426-.226c-.13-.23-.09-.5.139-.63l.083-.049a.479.479 0 1 1 .472.835.544.544 0 0 1-.268.07m-3.46 1.991a.479.479 0 0 1-.237-.896l.083-.048a.48.48 0 0 1 .477.833l-.085.048a.47.47 0 0 1-.237.063m-3.357 1.91a.482.482 0 0 1-.426-.225c-.13-.23-.091-.5.139-.631l.083-.048a.48.48 0 0 1 .472.835.544.544 0 0 1-.268.07m-3.408 1.95a.482.482 0 0 1-.426-.226c-.13-.23-.092-.5.139-.631l.083-.047c.23-.13.522-.05.652.18.131.231.05.524-.18.655a.543.543 0 0 1-.268.069m-3.46 1.992a.48.48 0 0 1-.238-.897l.084-.048a.48.48 0 0 1 .476.833l-.083.048a.478.478 0 0 1-.238.064m-3.358 1.91a.48.48 0 0 1-.425-.227c-.13-.23-.092-.5.139-.63l.083-.048a.477.477 0 0 1 .652.181c.13.23.05.523-.18.655a.546.546 0 0 1-.27.068m-3.407 1.951a.477.477 0 0 1-.424-.225c-.132-.23-.092-.5.136-.631l.083-.047a.475.475 0 0 1 .653.178c.131.23.05.524-.178.655a.544.544 0 0 1-.27.07m-3.458 1.992a.482.482 0 0 1-.238-.897l.083-.047a.478.478 0 1 1 .476.832l-.084.048a.478.478 0 0 1-.237.064m-1.847 2.86a.48.48 0 0 1-.478-.48v-.096a.479.479 0 1 1 .957 0v.096a.48.48 0 0 1-.479.48m0 3.937a.48.48 0 0 1-.478-.48v-.096a.48.48 0 1 1 .957 0v.096a.48.48 0 0 1-.479.48m0 3.937a.479.479 0 0 1-.478-.48v-.096a.48.48 0 1 1 .957 0v.096c0 .266-.215.48-.479.48m0 3.937a.479.479 0 0 1-.478-.48v-.096a.48.48 0 1 1 .957 0v.096c0 .266-.215.48-.479.48m0 3.89c-.264 0-.478-.168-.478-.433v-.096a.48.48 0 1 1 .957 0c0 .266-.215.528-.479.528m0 3.985a.48.48 0 0 1-.478-.48v-.096a.479.479 0 1 1 .957 0v.096a.48.48 0 0 1-.479.48m0 3.938a.48.48 0 0 1-.478-.48v-.097a.48.48 0 1 1 .957 0v.096a.48.48 0 0 1-.479.48m0 3.938a.479.479 0 0 1-.478-.48v-.097a.48.48 0 1 1 .957 0v.096c0 .266-.215.48-.479.48m0 3.938a.479.479 0 0 1-.478-.48v-.097a.48.48 0 1 1 .957 0v.096c0 .266-.215.48-.479.48m0 3.89c-.264 0-.478-.168-.478-.433v-.096a.48.48 0 1 1 .957 0c0 .266-.215.529-.479.529m0 3.985a.48.48 0 0 1-.478-.48v-.097a.479.479 0 1 1 .957 0v.096a.48.48 0 0 1-.479.48m0 3.938a.48.48 0 0 1-.478-.48v-.097a.48.48 0 1 1 .957 0v.096a.48.48 0 0 1-.479.48m0 3.938a.479.479 0 0 1-.478-.48v-.097a.48.48 0 1 1 .957 0v.096c0 .266-.215.48-.479.48m0 3.938a.479.479 0 0 1-.478-.48v-.097a.48.48 0 1 1 .957 0v.096c0 .266-.215.48-.479.48m0 3.89c-.264 0-.478-.167-.478-.433v-.096a.48.48 0 1 1 .957 0c0 .266-.215.529-.479.529m0 3.985a.48.48 0 0 1-.478-.48v-.097a.479.479 0 1 1 .957 0v.097a.48.48 0 0 1-.479.48m0 3.937a.48.48 0 0 1-.478-.48v-.096a.48.48 0 1 1 .957 0v.096a.48.48 0 0 1-.479.48m0 3.937a.479.479 0 0 1-.478-.48v-.096a.48.48 0 1 1 .957 0v.096c0 .266-.215.48-.479.48m0 3.937a.479.479 0 0 1-.478-.48v-.096a.48.48 0 1 1 .957 0v.096c0 .266-.215.48-.479.48m0 3.889c-.264 0-.478-.167-.478-.432v-.096a.48.48 0 1 1 .957 0c0 .266-.215.528-.479.528m0 3.985a.48.48 0 0 1-.478-.48v-.096a.479.479 0 1 1 .957 0v.096a.48.48 0 0 1-.479.48m0 3.937a.48.48 0 0 1-.478-.48v-.096a.48.48 0 1 1 .957 0v.096a.48.48 0 0 1-.479.48m0 3.937a.479.479 0 0 1-.478-.48v-.096a.48.48 0 1 1 .957 0v.096c0 .266-.215.48-.479.48m0 3.937a.479.479 0 0 1-.478-.48v-.096a.48.48 0 1 1 .957 0v.096c0 .266-.215.48-.479.48m0 3.889c-.264 0-.478-.167-.478-.432v-.096a.48.48 0 1 1 .957 0c0 .266-.215.528-.479.528m0 3.985a.48.48 0 0 1-.478-.48v-.096a.479.479 0 1 1 .957 0v.096a.48.48 0 0 1-.479.48m0 3.937a.48.48 0 0 1-.478-.48v-.096a.48.48 0 1 1 .957 0v.096a.48.48 0 0 1-.479.48m0 3.889c-.264 0-.478-.167-.478-.432v-.096a.48.48 0 1 1 .957 0c0 .265-.215.528-.479.528m0 3.985a.479.479 0 0 1-.478-.48v-.096a.479.479 0 1 1 .957 0v.096c0 .266-.215.48-.479.48m0 3.889c-.264 0-.478-.167-.478-.432v-.096a.48.48 0 1 1 .957 0c0 .266-.215.528-.479.528m0 3.985a.479.479 0 0 1-.478-.48v-.096a.479.479 0 1 1 .957 0v.096c0 .266-.215.48-.479.48m0 3.889c-.264 0-.478-.167-.478-.432v-.096a.48.48 0 1 1 .957 0c0 .266-.215.528-.479.528m0 3.937c-.264 0-.478-.167-.478-.432v-.096a.48.48 0 1 1 .957 0c0 .265-.215.528-.479.528m0 3.985a.479.479 0 0 1-.478-.48v-.096a.479.479 0 1 1 .957 0v.096c0 .266-.215.48-.479.48m0 3.889c-.264 0-.478-.167-.478-.432v-.096a.48.48 0 1 1 .957 0c0 .266-.215.528-.479.528m0 3.985a.479.479 0 0 1-.478-.48v-.096a.479.479 0 1 1 .957 0v.096c0 .266-.215.48-.479.48m0 3.889c-.264 0-.478-.167-.478-.432v-.096a.48.48 0 1 1 .957 0c0 .266-.215.528-.479.528M155.803 89.664a.48.48 0 0 1-.423-.223c-.132-.23-.095-.499.134-.632l.083-.048a.479.479 0 1 1 .478.832.54.54 0 0 1-.272.071m-3.446 2.013a.48.48 0 0 1-.238-.897l.083-.048a.479.479 0 0 1 .475.832l-.083.048a.474.474 0 0 1-.237.065m-3.347 1.929a.478.478 0 0 1-.423-.223c-.132-.23-.094-.5.134-.632l.084-.047a.476.476 0 0 1 .652.176.481.481 0 0 1-.175.656.551.551 0 0 1-.272.07m-32.135.834a.479.479 0 0 1-.479-.48v-.096a.479.479 0 1 1 .957 0v.096a.48.48 0 0 1-.478.48m28.738 1.137a.48.48 0 0 1-.422-.22c-.132-.23-.096-.5.132-.633l.083-.048a.478.478 0 0 1 .654.172.481.481 0 0 1-.173.657.545.545 0 0 1-.274.072m-3.445 2.013a.48.48 0 0 1-.241-.896l.083-.048a.48.48 0 0 1 .48.83l-.083.05a.484.484 0 0 1-.239.064m-25.293.787a.478.478 0 0 1-.479-.48v-.096a.479.479 0 1 1 .957 0v.096c0 .266-.214.48-.478.48m21.946 1.142a.479.479 0 0 1-.422-.22c-.133-.23-.097-.5.132-.633l.082-.049a.479.479 0 1 1 .482.83.535.535 0 0 1-.274.072m-3.396 1.971a.48.48 0 0 1-.422-.22c-.133-.23-.097-.5.132-.633l.082-.048a.48.48 0 0 1 .481.83.538.538 0 0 1-.273.071m-18.55.824a.479.479 0 0 1-.479-.48c0-.266.214-.528.479-.528.264 0 .478.167.478.432v.096a.48.48 0 0 1-.478.48m15.104 1.19a.481.481 0 0 1-.24-.896l.083-.049a.48.48 0 0 1 .48.83l-.084.05a.472.472 0 0 1-.24.064m-3.345 1.93a.478.478 0 0 1-.423-.223c-.132-.23-.095-.5.134-.632l.083-.048a.476.476 0 0 1 .652.176.481.481 0 0 1-.175.656.546.546 0 0 1-.271.07m-11.758.82a.479.479 0 0 1-.479-.48v-.097a.478.478 0 1 1 .957 0v.096a.48.48 0 0 1-.478.48m8.361 1.153a.48.48 0 0 1-.424-.223c-.13-.23-.093-.5.135-.632l.083-.048a.48.48 0 1 1 .478.832.536.536 0 0 1-.272.07m-3.397 1.972a.48.48 0 0 1-.423-.224c-.132-.23-.094-.499.135-.63l.083-.049a.48.48 0 0 1 .478.832.547.547 0 0 1-.273.071m-4.964.813a.479.479 0 0 1-.479-.48v-.096a.479.479 0 1 1 .957 0v.096a.48.48 0 0 1-.478.48m1.57 1.158a.48.48 0 0 1-.425-.223c-.132-.23-.095-.5.135-.632l.082-.047a.476.476 0 0 1 .654.176.482.482 0 0 1-.175.655.552.552 0 0 1-.272.071"/>
        <path fill="#8292C2" fill-opacity=".5" d="M100.693 166.635l71.03 40.909c4.654 2.505 8.426 8.306 8.426 12.958 0 4.651-3.772 6.392-8.425 3.887l-71.031-40.909c-4.654-2.505-8.426-8.306-8.426-12.958 0-4.651 3.772-6.391 8.426-3.887z" filter="url(#a)" opacity=".5" transform="matrix(-1 0 0 1 272.416 0)"/>
        <path fill="#8292C2" fill-opacity=".5" d="M197.753 142.651l71.031 40.909c4.653 2.505 8.426 8.306 8.426 12.958 0 4.651-3.773 6.392-8.426 3.887l-71.031-40.909c-4.653-2.505-8.425-8.306-8.425-12.958 0-4.651 3.772-6.391 8.425-3.887z" filter="url(#b)" opacity=".5" transform="matrix(-1 0 0 1 466.537 0)"/>
        <path fill="#8292C2" fill-opacity=".5" d="M102.496 235.986l30.883 19.599c4.653 2.505 8.425 8.306 8.425 12.958 0 4.651-3.772 6.391-8.425 3.887l-30.883-19.6c-4.653-2.504-8.425-8.305-8.425-12.957 0-4.652 3.772-6.392 8.425-3.887z" filter="url(#c)" opacity=".498" transform="matrix(-1 0 0 1 235.875 0)"/>
        <g>
            <g transform="matrix(-1 0 0 1 119.828 185.971)">
                <mask id="e" fill="#fff">
                    <use xlink:href="#d"/>
                </mask>
                <use fill="#C3CEED" xlink:href="#d"/>
                <path fill="#FFF" d="M18.058 28.778c-5.791-3.288-10.715-2.09-12.564 2.437v.023c3.261 5.207 7.692 9.797 12.564 12.562 4.872 2.762 9.309 3.2 12.57 1.663-1.85-6.62-6.773-13.4-12.57-16.685" mask="url(#e)"/>
            </g>
            <path fill="#FFF" d="M101.257 211.682c-3.195 1.955-5.767.507-5.767-3.194 0-3.704 2.572-8.304 5.767-10.258 3.169-1.944 5.761-.504 5.761 3.2 0 3.701-2.592 8.311-5.761 10.252"/>
        </g>
    </g>
</svg>
