<svg xmlns="http://www.w3.org/2000/svg" xmlns:xlink="http://www.w3.org/1999/xlink" width="333" height="233" viewBox="0 0 333 233">
    <defs>
        <linearGradient id="a" x1="20.535%" x2="60.384%" y1="-4.095%" y2="90.434%">
            <stop offset="0%" stop-color="#D3DAED"/>
            <stop offset="100%" stop-color="#99A7D8"/>
        </linearGradient>
        <linearGradient id="b" x1="21.317%" x2="72.057%" y1="54.821%" y2="41.241%">
            <stop offset="0%" stop-color="#EBF0FD"/>
            <stop offset="100%" stop-color="#FFF"/>
        </linearGradient>
        <linearGradient id="c" x1="16.79%" x2="80.452%" y1="28.755%" y2="71.955%">
            <stop offset="0%" stop-color="#D9E0F2"/>
            <stop offset="100%" stop-color="#C0C9E9"/>
        </linearGradient>
        <filter id="d" width="125.4%" height="156.4%" x="-12.7%" y="-28.2%" filterUnits="objectBoundingBox">
            <feGaussianBlur in="SourceGraphic" stdDeviation="8"/>
        </filter>
        <linearGradient id="e" x1="4.648%" x2="65.983%" y1="40.781%" y2="56.891%">
            <stop offset="0%" stop-color="#D3DAED"/>
            <stop offset="100%" stop-color="#99A7D8"/>
        </linearGradient>
        <linearGradient id="g" x1="5.291%" x2="96.119%" y1="54.42%" y2="44.724%">
            <stop offset="0%" stop-color="#FFF"/>
            <stop offset="100%" stop-color="#F4F7FD"/>
        </linearGradient>
        <path id="f" d="M2.688 162.247c-3.985-2.325-3.48-6.426 1.121-9.112L113.562 90.82c4.601-2.685 11.627-2.98 15.612-.654l57.34 33.47c3.985 2.326 3.481 6.426-1.12 9.112l-109.79 64.084c-4.602 2.685-11.627 2.98-15.613.653L2.688 162.247z"/>
        <path id="h" d="M36.814 161.181c-3.406-1.99-2.974-5.497.959-7.795l93.809-53.31c3.932-2.297 9.937-2.55 13.343-.56l24.444 13.855c3.405 1.99 2.974 5.497-.959 7.795l-95.759 54.185c-3.933 2.297-9.936 2.55-13.343.56l-22.494-14.73z"/>
        <path id="i" d="M49.373 159.225c-3.072-1.78-2.683-4.917.864-6.972l14.282-7.96c3.546-2.054 9.108-2.861 12.18-1.082l10.659 6.054c3.07 1.779 2.816 4.83-.73 6.885l-15.106 8.641c-3.547 2.055-8.961 2.28-12.034.5l-10.115-6.066z"/>
        <filter id="j" width="165.4%" height="195.9%" x="-32.7%" y="-47.9%" filterUnits="objectBoundingBox">
            <feGaussianBlur in="SourceGraphic" stdDeviation="8"/>
        </filter>
        <path id="k" d="M.001 2.406L0 47.488c-.004 1.3.905 2.873 2.033 3.523l56.409 32.531c1.126.65 2.042.13 2.046-1.17V37.29c.003-1.292-.906-2.872-2.032-3.522L2.046 1.236C1.72 1.047 1.41.958 1.134.958.465.958.003 1.49.001 2.406"/>
        <filter id="m" width="139.7%" height="158%" x="-19.8%" y="-29%" filterUnits="objectBoundingBox">
            <feGaussianBlur in="SourceGraphic" stdDeviation="6.744"/>
        </filter>
    </defs>
    <g fill="none" fill-rule="evenodd">
        <g transform="translate(18)">
            <path fill="url(#a)" fill-rule="nonzero" d="M74.416 1.648c1.67-1.545 3.137-2.004 4.4-1.376 1.538.835 40.25 22.534 116.14 65.096 2.053.996 3.08 3.29 3.08 6.883v69.217a977.876 977.876 0 0 0 0 8.19c-.166 1.235-1.22 1.915-1.49 2.188-2.604 1.704-2.686 1.796-4.147 1.153-.853-7.028-2.812-13.575-5.878-19.64l-46.902-67.497-33.536-22.796-22.348-22.36-9.32-19.058z"/>
            <path fill="url(#b)" d="M76.704 1.512l115.695 65.93c1.412.804 2.556 2.6 2.556 4.01v80.45c0 1.41-1.144 1.901-2.556 1.097L76.704 87.069c-1.412-.805-2.557-2.6-2.557-4.011V2.608c0-1.41 1.145-1.901 2.557-1.096z"/>
            <path fill="url(#c)" fill-rule="nonzero" d="M84.648 15.502l99.167 56.4c1.21.688 2.192 2.225 2.192 3.431v65.627c0 1.207-.981 1.627-2.192.939l-99.167-56.4c-1.21-.688-2.191-2.224-2.191-3.43V16.44c0-1.207.98-1.627 2.191-.939z"/>
            <path fill="#8292C2" fill-opacity=".5" fill-rule="nonzero" d="M0 130.359v8.007c.052 5.743 1.314 9.186 3.786 10.33 2.355 1.33 38.622 22.374 108.802 63.131 7.147 3.93 12.595 4.657 16.342 2.183 3.748-2.475 22.421-13.96 56.021-34.456 2.835-1.727 4.252-3.431 4.252-5.114v-14.677c.215-1.315-.46-2.838-2.025-4.571-1.564-1.733-29.21-.085-82.937 4.946L12.712 138.96 0 130.359z" filter="url(#d)" opacity=".5"/>
            <path fill="url(#e)" fill-rule="nonzero" d="M0 127.546v7.435c.052 1.487 1.314 2.802 3.786 3.945 2.355 1.33 38.622 22.374 108.802 63.132 7.147 3.93 12.595 4.657 16.342 2.182 3.748-2.475 22.421-13.96 56.021-34.456 2.835-1.726 4.252-3.43 4.252-5.114 0-1.683.013-3.602.039-5.757.096-1.295-.598-2.78-2.083-4.452-1.485-1.673-29.124-3.038-82.918-4.093l-91.529-17.346L0 127.546z"/>
            <use fill="url(#g)" transform="matrix(-1 0 0 1 189.203 0)" xlink:href="#f"/>
            <use fill="#E0E7F8" fill-rule="nonzero" transform="matrix(-1 0 0 1 206.183 0)" xlink:href="#h"/>
            <use fill="#D1D9EE" fill-rule="nonzero" transform="matrix(-1 0 0 1 136.788 0)" xlink:href="#i"/>
        </g>
        <path fill="#8292C2" fill-opacity=".5" d="M13.031 65.955l59.278 34.113c3.883 2.089 7.031 6.927 7.031 10.806 0 3.878-3.148 5.33-7.03 3.24L13.03 80.003C9.148 77.913 6 73.075 6 69.196c0-3.878 3.148-5.33 7.031-3.24z" filter="url(#j)" opacity=".7" transform="translate(236 57)"/>
        <g transform="translate(248 57)">
            <mask id="l" fill="#fff">
                <use xlink:href="#k"/>
            </mask>
            <use fill="#FD817A" xlink:href="#k"/>
            <path fill="#E6E6E6" d="M0-.031l60.488 34.75v10L0 9.968z" mask="url(#l)"/>
        </g>
        <path fill="#FD6057" d="M236 69.153v35.907c-.003 1.035.718 2.289 1.613 2.807l44.763 25.91c.894.518 1.62.103 1.624-.932V96.938c.003-1.03-.719-2.287-1.612-2.805L237.624 68.22c-.26-.15-.506-.221-.724-.221-.531 0-.898.423-.9 1.153" opacity=".501"/>
        <path fill="#FF584F" d="M252.426 66.76c.787.564 1.426.242 1.426-.72 0-.96-.639-2.197-1.426-2.762-.788-.564-1.426-.243-1.426.719 0 .96.638 2.198 1.426 2.762z"/>
        <path fill="#F7B500" d="M257.215 69.616c.788.565 1.426.243 1.426-.718s-.638-2.198-1.426-2.763c-.787-.564-1.426-.243-1.426.719 0 .96.639 2.198 1.426 2.762z"/>
        <path fill="#23B685" d="M262.005 72.473c.787.565 1.426.243 1.426-.718s-.639-2.198-1.426-2.762c-.788-.565-1.426-.243-1.426.718s.638 2.198 1.426 2.762z"/>
        <path fill="#FFF" fill-rule="nonzero" d="M248.887 101.6a2.472 2.472 0 0 1-.905-.713l-5.469-6.776c-.325-.403-.513-.87-.513-1.277 0-.406.188-.708.513-.824l5.469-1.958c.602-.216 1.497.258 1.998 1.06.5.8.417 1.624-.186 1.84l-4.153 1.486 4.153 5.147c.603.747.686 1.644.186 2.004-.281.201-.686.191-1.093.012zm13.226 8.264a2.553 2.553 0 0 1-1.093-.975c-.5-.8-.417-1.625.186-1.84l4.153-1.488-4.153-5.146c-.603-.747-.686-1.644-.186-2.004.501-.36 1.396-.045 1.999.702l5.468 6.776c.325.403.513.87.513 1.277 0 .406-.188.708-.513.824l-5.468 1.958c-.265.095-.587.056-.906-.084zm-9.219-.985a2.202 2.202 0 0 1-.395-.228c-.753-.542-1.187-1.49-.968-2.118l5.212-15.027c.218-.628 1.005-.698 1.758-.157.753.542 1.186 1.49.969 2.118l-5.213 15.027c-.18.518-.747.656-1.363.385z"/>
        <g>
            <path fill="#2645B5" d="M95.977 94.602c-3.395-1.87-6.176-6.938-6.176-11.259V34.156c0-4.32 2.78-6.326 6.176-4.455l84.597 48.821c3.397 1.871 6.177 6.938 6.177 11.26v49.186c0 4.321-2.78 6.326-6.177 4.455l-84.597-48.82z" opacity=".2"/>
            <path fill="#2645B5" d="M172.512 150.18l-84.714-49.384c-3.21-1.87-5.837-6.938-5.837-11.259V40.35c0-4.32 2.628-6.326 5.837-4.455l84.714 49.384c3.211 1.871 5.839 6.939 5.839 11.26v49.187c0 4.32-2.628 6.325-5.839 4.454" opacity=".2"/>
            <path fill="#2645B5" d="M78.837 109.877c-3.21-1.872-5.837-6.939-5.837-11.26V54.499c0-4.32 2.628-6.326 5.837-4.455l84.714 49.384c3.211 1.872 5.839 6.939 5.839 11.26v44.119c0 4.32-2.628 6.326-5.839 4.455l-84.714-49.384z" opacity=".746"/>
            <path fill="#FFF" fill-rule="nonzero" d="M161.209 148.06v3.053l-17.306-10.01-.168-3.053zM161.209 139.916v3.224l-33.435-19.17v-3.053z"/>
            <path fill="#224384" d="M78.054 40.371l85.269 49.006a11.802 11.802 0 0 1 5.921 10.232v10.064L73.001 54.361V43.295a3.372 3.372 0 0 1 5.053-2.924z"/>
            <path fill="#FFF" fill-rule="nonzero" d="M161.209 131.943v3.223l-26.21-15.098v-3.053zM120.465 107.19v2.46L78.042 84.882v-2.46zM92.743 79.115v2.46l-14.701-8.568.084-2.46zM112.317 96.333v2.46L78.042 78.86V76.4zM135.839 98.284v2.46l-57.713-33.59V64.61z"/>
            <path fill="#FF584F" d="M80.41 54.007c1.32.954 2.388.41 2.388-1.213 0-1.624-1.068-3.713-2.387-4.667-1.319-.954-2.388-.41-2.388 1.213 0 1.624 1.07 3.714 2.388 4.667z"/>
            <path fill="#F7B500" d="M88.43 58.834c1.32.954 2.388.41 2.388-1.213 0-1.624-1.069-3.714-2.387-4.667-1.319-.954-2.388-.41-2.388 1.213 0 1.624 1.069 3.713 2.388 4.667z"/>
            <path fill="#23B685" d="M96.45 63.66c1.319.954 2.388.411 2.388-1.213 0-1.623-1.069-3.713-2.388-4.667-1.318-.953-2.387-.41-2.387 1.214 0 1.624 1.069 3.713 2.387 4.667z"/>
            <path fill="#8292C2" fill-opacity=".5" d="M19.853 93.116l82.385 47.571c5.397 2.913 9.772 9.66 9.772 15.069 0 5.409-4.375 7.432-9.772 4.52l-82.385-47.572c-5.397-2.913-9.772-9.659-9.772-15.068 0-5.41 4.375-7.433 9.772-4.52z" filter="url(#m)" opacity=".5" transform="translate(73 29)"/>
        </g>
    </g>
</svg>
