<svg xmlns="http://www.w3.org/2000/svg" width="273" height="209" viewBox="0 0 273 209">
    <defs>
        <linearGradient id="a" x1="45.418%" x2="52.607%" y1="-22.267%" y2="90.434%">
            <stop offset="0%" stop-color="#D3DAED"/>
            <stop offset="100%" stop-color="#99A7D8"/>
        </linearGradient>
        <linearGradient id="b" x1="40.916%" x2="55.169%" y1="-22.267%" y2="90.434%">
            <stop offset="0%" stop-color="#D3DAED"/>
            <stop offset="100%" stop-color="#99A7D8"/>
        </linearGradient>
        <linearGradient id="c" x1="42.722%" x2="54.141%" y1="-22.267%" y2="90.434%">
            <stop offset="0%" stop-color="#D3DAED"/>
            <stop offset="100%" stop-color="#99A7D8"/>
        </linearGradient>
        <linearGradient id="d" x1="32.995%" x2="59.676%" y1="-22.267%" y2="90.434%">
            <stop offset="0%" stop-color="#D3DAED"/>
            <stop offset="100%" stop-color="#99A7D8"/>
        </linearGradient>
        <linearGradient id="e" x1="42.817%" x2="54.087%" y1="-22.267%" y2="90.434%">
            <stop offset="0%" stop-color="#D3DAED"/>
            <stop offset="100%" stop-color="#99A7D8"/>
        </linearGradient>
        <linearGradient id="f" x1="31.064%" x2="60.775%" y1="-22.267%" y2="90.434%">
            <stop offset="0%" stop-color="#D3DAED"/>
            <stop offset="100%" stop-color="#99A7D8"/>
        </linearGradient>
        <filter id="g" width="204%" height="250.5%" x="-52%" y="-75.2%" filterUnits="objectBoundingBox">
            <feGaussianBlur in="SourceGraphic" stdDeviation="8.19"/>
        </filter>
        <linearGradient id="h" x1="42.838%" x2="61.953%" y1="28.045%" y2="65.334%">
            <stop offset="0%" stop-color="#F0F1F4"/>
            <stop offset="100%" stop-color="#F3F6F9"/>
        </linearGradient>
        <linearGradient id="i" x1="42.838%" x2="61.953%" y1="28.045%" y2="65.334%">
            <stop offset="0%" stop-color="#F0F1F4"/>
            <stop offset="100%" stop-color="#F3F6F9"/>
        </linearGradient>
        <path id="j" d="M0 21.862v.19c.044 15.877 11.166 35.13 24.916 43.09 13.813 7.995 25.041 1.58 25.087-14.333.045-15.906-11.11-35.282-24.923-43.277-4.03-2.333-7.84-3.437-11.217-3.438C5.672 4.094.033 10.598 0 21.862m24.933 37.389C13.95 52.892 5.078 37.475 5.113 24.821c.037-12.653 8.968-17.755 19.95-11.398 10.99 6.362 19.862 21.772 19.826 34.425-.025 8.96-4.512 14.138-11.03 14.138-2.687 0-5.718-.878-8.926-2.735"/>
    </defs>
    <g fill="none" fill-rule="evenodd">
        <path fill="#3851AE" d="M115.097 7.59l-95.85 55.322c-3.08 1.778-5.6 6.592-5.6 10.699v69.091c0 4.107 2.52 6.012 5.6 4.234l95.85-55.321c3.08-1.778 5.601-6.592 5.601-10.7v-69.09c0-3.063-1.401-4.9-3.39-4.9-.68 0-1.427.213-2.211.666" opacity=".8"/>
        <path fill="#3851AE" d="M105.021 1.296L9.171 56.617c-3.08 1.778-5.6 6.592-5.6 10.699v69.091c0 4.107 2.52 6.011 5.6 4.234l95.85-55.321c3.081-1.779 5.602-6.592 5.602-10.7V5.53c0-3.063-1.402-4.9-3.391-4.9-.68 0-1.427.213-2.21.666" opacity=".3"/>
        <path fill="#3851AE" d="M124.473 96.658l-95.85 55.32c-3.08 1.779-5.601-.126-5.601-4.233V78.654c0-4.106 2.52-8.922 5.601-10.7l95.85-55.32c3.081-1.779 5.601.126 5.601 4.233v69.092c0 4.106-2.52 8.92-5.601 10.7" opacity=".5"/>
        <path fill="#FFF" d="M110.652 44.517l-11.478 29.89c-2.808 7.315-10.112 10.784-12.01 5.706l-4.195-11.221c-2.23-5.963-10.972-1.343-13.723 7.25l-9.315 29.103c-2.155 6.731-8.791 10.914-11.374 7.17-4.626-6.709-15.925-1.392-21.961 10.334L23.3 129.15v18.84c0 4.107 2.52 6.012 5.601 4.234l95.85-55.321c3.08-1.778 5.601-6.593 5.601-10.7V56.42l-11.937-16.454c-1.752-2.415-6.058.109-7.763 4.551" opacity=".3"/>
        <path fill="#FFF" d="M130.144 76.119L23.092 137.906v-1.562l107.052-61.786zM130.144 56.406L23.092 118.193v-1.561l107.052-61.787zM130.144 36.693L23.092 98.48v-1.561l107.052-61.787z" opacity=".803"/>
        <g>
            <path fill="#FC03AF" d="M178.813 98.005l-18.189 10.498c-1.326.766-3.664.669-5.196-.215l-17.442-10.067c-1.531-.884-1.699-2.234-.373-2.999l18.189-10.497c1.326-.766 3.663-.669 5.195.215l17.443 10.067c1.531.884 1.699 2.233.373 2.998"/>
            <path fill="#DE028B" d="M178.813 98.006l-18.188 10.497c-.639.368-1.51.531-2.413.51v66.875c.903.022 1.774-.142 2.413-.51l18.188-10.497c.694-.4.975-.96.87-1.53V96.943c-.082.4-.369.772-.87 1.062"/>
            <path fill="#B60177" d="M136.743 163.158c-.135.658.29 1.388 1.243 1.938l17.442 10.067c.796.46 1.808.701 2.784.725v-66.876c-.976-.024-1.988-.265-2.784-.724L137.986 98.22c-.73-.422-1.147-.95-1.243-1.47v66.407z"/>
            <path fill="#12DFD1" d="M131.939 148.075c-.637.368-1.51.532-2.412.51v43.811c.902.022 1.775-.141 2.412-.509l18.19-10.498c.692-.4.974-.96.868-1.53v-43.342c-.08.399-5.403-.927-5.904-.638l-13.154 12.196z"/>
            <path fill="#29F1E3" d="M150.128 137.577l-18.189 10.498c-1.325.766-3.664.669-5.195-.215L109.3 137.793c-1.531-.884-1.699-2.234-.373-2.999l18.19-10.497c1.325-.766 3.663-.669 5.195.215l17.442 10.067c1.532.884 1.7 2.233.373 2.998"/>
            <path fill="#00D3C5" d="M108.06 179.666c-.136.658.288 1.388 1.241 1.939l17.443 10.067c.795.459 1.807.7 2.783.724v-43.811c-.976-.024-1.988-.266-2.783-.725l-17.443-10.067c-.73-.422-1.147-.949-1.242-1.469v43.342z"/>
            <path fill="#73EBFF" d="M122.076 170.42l-18.188 10.498c-1.326.766-3.664.669-5.196-.215L81.25 170.636c-1.532-.884-1.7-2.234-.373-2.998l18.189-10.499c1.325-.765 3.663-.668 5.195.216l17.443 10.067c1.531.884 1.699 2.233.372 2.999"/>
            <path fill="#38E3FF" d="M122.076 170.42l-18.188 10.498c-.637.368-1.51.532-2.413.51v27.16c.903.024 1.776-.14 2.413-.508l18.188-10.498c.694-.4.975-.96.87-1.53V169.36c-.081.398-.369.771-.87 1.06"/>
            <path fill="#17DEFF" d="M80.008 195.86c-.135.657.289 1.388 1.241 1.938l17.443 10.067c.795.459 1.807.7 2.783.724v-27.161c-.976-.024-1.988-.266-2.783-.725L81.25 170.636c-.73-.421-1.146-.949-1.241-1.469v26.692z"/>
        </g>
        <g>
            <path fill="#DA0096" d="M158.763 94.329l-13.858 7.885 4.814 2.778 13.785-8.014z"/>
            <path fill="#12D7C9" d="M126.33 139.126l-7.07 4.415 4.541 2.62 7.263-4.36z"/>
            <path fill="#25E0FF" d="M91.659 167.337l-7.922 4.77 4.776 2.713 7.888-4.833z"/>
        </g>
        <g>
            <path fill="#D8E0FE" d="M188.887 41.262l-.236-17.692-13.26 16.8 4.243.28L164.35 81.13l-9.94-22.886-23.682 69.895-13.738-18.704-2.106 6.967c-.046.128-4.61 12.856-9.11 25.522-9.467 26.648-9.073 26.772-9.374 28.064 0 0 5.613-2.567 5.596-2.504.625-2.285 9.091-26.129 15.586-44.283l13.48 18.602 22.824-66.966 9.547 22.286 21.212-56.14 4.241.28z"/>
            <path fill="url(#a)" fill-rule="nonzero" d="M18.485 92.832c-.045.128-4.61 12.855-9.11 25.521C-.091 145.001.302 145.125 0 146.417l4.743 2.65c.3-1.292-.095-1.38 9.372-28.028l.002-.036c4.5-12.665 8.797-24.399 8.842-24.526l.268-.995 2.176-6.835-4.528-2.48-2.39 6.665z" transform="translate(91.658 20.92)"/>
            <path fill="url(#b)" fill-rule="nonzero" d="M78.992 16.801l3.593 1.996-12.964 34.339 3.072 7.072 15.282-40.477-4.241-.28 13.26-16.8L92.25 0 78.992 16.801zM69.62 53.136l-6.868-15.813 6.868 15.813z" transform="translate(91.658 20.92)"/>
            <path fill="url(#c)" fill-rule="nonzero" d="M35.098 101.9l-9.48-13.083 13.665 18.727L62.71 37.438l-4.7-2.765z" transform="translate(91.658 20.92)"/>
            <path fill="url(#d)" fill-rule="nonzero" d="M24.993 104.887l9.67 13.345.01-.026 4.733 2.676-13.482-18.603c-.563 1.578-1.195 3.347-.93 2.608" transform="translate(91.658 20.92)"/>
            <path fill="url(#e)" fill-rule="nonzero" d="M60.65 58.549l6.455 14.86 4.741 2.649-9.617-22.142z" transform="translate(91.658 20.92)"/>
        </g>
        <g>
            <path fill="#667BBC" d="M40.536 180.514c0 9.582-6.73 21.233-15.03 26.023-8.3 4.791-15.03.908-15.03-8.674 0-9.582 6.73-21.233 15.03-26.024 8.3-4.79 15.03-.907 15.03 8.675"/>
            <path fill="#4B64B0" d="M25.506 172.817c8.159-4.71 14.794-1.034 15.02 8.192.003-.165.01-.332.01-.495 0-9.582-6.73-13.466-15.03-8.675-8.3 4.791-15.03 16.442-15.03 26.024 0 .164.008.322.01.482.226-9.484 6.862-20.82 15.02-25.528"/>
            <path fill="url(#f)" fill-rule="nonzero" d="M15.03 2.05C6.73 6.841 0 18.492 0 28.074c0 4.813 1.699 8.187 4.441 9.747l10.373 6.139c-2.682-1.586-4.337-4.934-4.337-9.687 0-9.581 6.728-21.233 15.03-26.023 4.13-2.384 7.87-2.619 10.587-1.073L25.722 1.039C24.567.356 23.222 0 21.738 0c-2.019 0-4.297.658-6.708 2.05" transform="translate(0 163.59)"/>
            <g fill="#FFFDFF">
                <path d="M18.9 195.113v1.285l-3.624 2.156v-1.286l1.266-.753v-3.218a2.425 2.425 0 0 1-.253.413 9.072 9.072 0 0 1-.38.475 5.816 5.816 0 0 1-.424.443 2.368 2.368 0 0 1-.388.305v-1.327c.107-.064.238-.183.392-.356a8.953 8.953 0 0 0 .845-1.128 2.52 2.52 0 0 0 .208-.385l1.224-.728v4.778l1.134-.674zM22.953 190.877c0-.283-.027-.528-.08-.733a1.148 1.148 0 0 0-.228-.475.516.516 0 0 0-.348-.186c-.135-.012-.28.03-.443.125a1.67 1.67 0 0 0-.45.406c-.133.172-.25.371-.347.6-.1.229-.175.476-.228.746-.054.27-.081.545-.081.828 0 .282.027.526.08.728.054.2.13.358.229.47a.515.515 0 0 0 .347.185c.134.012.284-.031.45-.13.163-.096.308-.23.443-.4.133-.173.25-.373.348-.6.098-.23.175-.476.228-.741.053-.266.08-.54.08-.823m1.205-.717c0 .467-.058.931-.173 1.394a6.397 6.397 0 0 1-.483 1.305c-.206.41-.45.777-.733 1.105a3.72 3.72 0 0 1-.915.784c-.332.197-.64.3-.919.307a1.085 1.085 0 0 1-.727-.236c-.205-.165-.366-.41-.482-.733-.117-.324-.174-.72-.174-1.186 0-.467.057-.932.174-1.394.116-.462.277-.897.482-1.306a5.52 5.52 0 0 1 .727-1.106c.28-.33.587-.594.919-.792.328-.195.634-.294.915-.3a1.1 1.1 0 0 1 .733.239c.206.165.366.409.483.733.115.323.173.719.173 1.186M28.435 187.617a2.93 2.93 0 0 0-.08-.733 1.148 1.148 0 0 0-.228-.474.516.516 0 0 0-.348-.187c-.135-.012-.28.03-.443.126a1.631 1.631 0 0 0-.45.406c-.134.17-.25.37-.347.6-.1.228-.176.476-.229.745-.053.27-.08.546-.08.828 0 .283.027.526.08.728.053.202.13.358.229.47a.52.52 0 0 0 .347.186c.134.011.283-.032.45-.131.163-.096.308-.23.443-.4.133-.173.25-.372.348-.6.098-.229.174-.476.227-.741.054-.265.08-.54.08-.823m1.206-.716c0 .466-.059.931-.173 1.394-.118.46-.278.896-.482 1.304a5.39 5.39 0 0 1-.733 1.105c-.282.328-.588.589-.916.784-.332.198-.64.3-.919.307a1.085 1.085 0 0 1-.728-.236c-.204-.165-.366-.409-.481-.733-.118-.323-.175-.72-.175-1.186 0-.467.057-.932.175-1.393.115-.463.277-.898.481-1.307.206-.409.449-.777.728-1.106.28-.33.587-.594.919-.792.328-.194.634-.294.916-.3.282-.005.526.074.733.239.204.165.364.41.482.733.114.324.173.72.173 1.187M35.31 186.035a.908.908 0 0 0 .245-.22 1.93 1.93 0 0 0 .34-.68c.032-.125.048-.248.048-.369a.827.827 0 0 0-.054-.323.51.51 0 0 0-.138-.206.303.303 0 0 0-.2-.07.47.47 0 0 0-.242.074.93.93 0 0 0-.246.22 1.851 1.851 0 0 0-.339.685c-.032.129-.049.254-.049.374 0 .248.063.421.188.52.124.1.274.099.446-.005zm0 .711a1.492 1.492 0 0 1-.582.218.815.815 0 0 1-.463-.064.696.696 0 0 1-.313-.318 1.211 1.211 0 0 1-.116-.563c0-.227.038-.46.116-.7a3.482 3.482 0 0 1 .776-1.317c.18-.19.373-.349.581-.472.208-.124.402-.197.58-.218.179-.022.336 0 .47.065a.697.697 0 0 1 .312.324c.073.151.112.34.112.566 0 .227-.039.459-.112.699a3.21 3.21 0 0 1-.312.69c-.134.22-.291.427-.47.618a2.61 2.61 0 0 1-.58.472zm-3.447-3.195a.917.917 0 0 0 .245-.22c.075-.095.141-.199.2-.317a1.7 1.7 0 0 0 .189-.743c0-.247-.063-.42-.188-.52-.125-.1-.274-.098-.446.004a.934.934 0 0 0-.245.221 1.906 1.906 0 0 0-.34.68c-.031.126-.049.249-.049.369 0 .247.062.423.187.525.126.103.275.103.447 0zm-.974 5.217l2.518-4.989 2.322-5.012.544.25-2.437 4.879-2.4 5.122-.547-.25zm.974-4.506a1.49 1.49 0 0 1-.58.217.797.797 0 0 1-.465-.069.721.721 0 0 1-.312-.324 1.212 1.212 0 0 1-.116-.562c0-.22.039-.45.116-.696.078-.243.181-.476.312-.695.13-.219.286-.425.466-.616.177-.191.371-.348.579-.472.202-.12.394-.192.576-.215a.815.815 0 0 1 .469.061c.13.064.235.171.313.323.076.153.115.338.115.557 0 .227-.039.461-.115.701a3.504 3.504 0 0 1-.782 1.32 2.64 2.64 0 0 1-.576.47z"/>
            </g>
        </g>
        <g>
            <path fill="#8292C2" fill-opacity=".5" d="M14.3 96.965l38.172 22.25c2.5 1.362 4.528 4.518 4.528 7.048 0 2.53-2.027 3.476-4.528 2.114L14.3 106.127c-2.5-1.363-4.528-4.518-4.528-7.048 0-2.53 2.028-3.477 4.528-2.114z" filter="url(#g)" transform="translate(199 37)"/>
            <path fill="url(#h)" d="M5.114 24.822c-.036 12.653 8.836 28.07 19.82 34.429 10.988 6.36 19.92 1.25 19.955-11.403.036-12.653-8.837-28.063-19.826-34.425-3.206-1.855-6.237-2.735-8.922-2.735-6.516.001-11.002 5.175-11.027 14.134m19.834 29.587C16.285 49.394 9.281 37.239 9.31 27.252c.028-9.98 7.077-14.008 15.74-8.994 8.668 5.018 15.67 17.181 15.642 27.16-.02 7.071-3.556 11.152-8.697 11.15-2.121 0-4.515-.694-7.047-2.16" transform="translate(199 37.573)"/>
            <path fill="url(#i)" d="M14.196 30.08c-.018 6.88 4.802 15.254 10.768 18.706 5.97 3.457 10.824.684 10.843-6.196.02-6.872-4.802-15.247-10.773-18.703-1.741-1.007-3.387-1.485-4.846-1.484-3.54 0-5.979 2.81-5.992 7.677m10.781 13.817c-3.62-2.096-6.549-7.181-6.537-11.36.012-4.173 2.959-5.855 6.58-3.76 3.627 2.1 6.556 7.185 6.543 11.357-.009 2.959-1.488 4.667-3.64 4.667-.886 0-1.887-.291-2.946-.904" transform="translate(199 37.573)"/>
            <path fill="#FF6C64" fill-rule="nonzero" d="M208.31 64.825c-.029 9.987 6.975 22.142 15.638 27.157 8.668 5.018 15.717.997 15.744-8.99.029-9.98-6.974-22.143-15.642-27.16-2.528-1.465-4.92-2.158-7.037-2.158-5.142 0-8.683 4.083-8.703 11.151m15.654 21.534c-5.966-3.452-10.786-11.827-10.768-18.706.019-6.872 4.873-9.646 10.838-6.193 5.97 3.456 10.793 11.831 10.773 18.703-.013 4.871-2.451 7.683-5.992 7.684-1.46 0-3.108-.478-4.85-1.488"/>
            <path fill="#FF6C64" fill-rule="nonzero" d="M199 59.435v.19c.044 15.877 11.166 35.13 24.916 43.09 13.813 7.995 25.041 1.58 25.087-14.333.045-15.906-11.11-35.282-24.923-43.277-4.03-2.333-7.84-3.438-11.217-3.438-8.192 0-13.83 6.504-13.863 17.768m24.933 37.389c-10.983-6.359-19.855-21.776-19.82-34.43.037-12.653 8.968-17.755 19.95-11.398 10.99 6.362 19.862 21.772 19.826 34.425-.025 8.96-4.512 14.138-11.03 14.138-2.687 0-5.718-.878-8.926-2.735"/>
            <path fill="#FF6C64" fill-rule="nonzero" d="M217.44 70.11c-.012 4.179 2.917 9.264 6.537 11.36 3.627 2.1 6.574.415 6.586-3.763.013-4.172-2.916-9.257-6.542-11.357-1.057-.612-2.057-.9-2.942-.9-2.15 0-3.63 1.706-3.639 4.66"/>
            <path fill="#F34C43" fill-rule="nonzero" d="M219.307 37.816c-.238.002-.473.01-.706.023-.01.002-.021.002-.032.002h-.033c-.062.003-.12.016-.18.02-.384.03-.76.074-1.13.133-.065.01-.135.012-.201.023-.049.009-.095.025-.145.034-.424.079-.842.17-1.248.289l-.01.002-.048.016c-.384.115-.757.25-1.123.398-.049.02-.102.033-.149.053-.059.025-.113.058-.172.084-.314.138-.621.288-.92.45-.054.03-.111.05-.163.08l-.137.08-6.617 3.855c.097-.056.2-.104.299-.158.3-.163.606-.314.92-.452.106-.046.212-.092.321-.135.367-.149.74-.285 1.124-.399.02-.005.038-.013.057-.02.406-.116.824-.208 1.248-.287.115-.022.23-.039.347-.057.37-.06.745-.104 1.127-.133.083-.005.165-.016.248-.022a15.54 15.54 0 0 1 1.448-.01c.11.003.22.011.331.017.548.03 1.102.08 1.67.168.373.058.75.128 1.131.21.118.026.239.06.358.087.26.062.52.123.784.196.445.123.895.261 1.348.417.09.03.182.068.27.1.368.13.737.27 1.109.423.14.057.28.12.42.181.394.17.79.351 1.191.546.15.074.3.144.45.22.526.267 1.053.546 1.586.855.664.384 1.32.802 1.97 1.238.111.075.223.146.333.222.621.425 1.233.872 1.84 1.34.118.09.235.184.353.277.616.486 1.226.987 1.824 1.514.053.045.103.095.155.14.58.514 1.15 1.05 1.711 1.599.09.09.183.176.274.266a51.1 51.1 0 0 1 1.276 1.311c.026.027.05.056.075.083a55.4 55.4 0 0 1 1.166 1.294l.249.291c.628.73 1.242 1.476 1.838 2.245l.19.251c.475.617.937 1.248 1.39 1.888.064.094.133.185.198.28.433.621.854 1.254 1.265 1.894.099.153.195.307.291.46.332.526.656 1.056.97 1.592.07.116.14.23.206.345.356.615.701 1.238 1.036 1.865.082.152.16.305.24.459.261.5.516 1.005.764 1.51.08.167.163.333.242.501.306.638.6 1.28.88 1.926.039.09.075.18.114.271.249.582.487 1.167.715 1.753.067.174.135.349.2.523.264.694.515 1.39.748 2.087l.053.167c.236.72.455 1.44.657 2.16.04.138.08.276.118.414.229.836.431 1.673.612 2.508.04.183.08.365.117.548.067.326.13.652.188.978.043.228.083.457.122.685.056.336.104.672.151 1.006.029.202.059.404.084.605.091.72.16 1.437.21 2.15.012.15.02.303.029.454.042.73.07 1.458.069 2.177-.022 7.905-2.805 13.466-7.293 16.081l6.618-3.856c4.488-2.615 7.27-8.176 7.293-16.081a36.383 36.383 0 0 0-.07-2.178l-.027-.454a39.376 39.376 0 0 0-.211-2.151c-.004-.041-.006-.081-.012-.123-.02-.158-.05-.319-.072-.477a40.289 40.289 0 0 0-.152-1.01 47.352 47.352 0 0 0-.31-1.665h.001c-.022-.108-.04-.216-.063-.324-.014-.073-.038-.147-.054-.221-.18-.834-.384-1.67-.612-2.508-.014-.048-.023-.097-.036-.146-.026-.09-.057-.18-.083-.27a53.1 53.1 0 0 0-.656-2.156c-.014-.043-.025-.085-.04-.129-.003-.013-.009-.026-.014-.04a55.062 55.062 0 0 0-.746-2.087c-.03-.08-.055-.16-.086-.238-.037-.095-.078-.188-.116-.283a57.896 57.896 0 0 0-.715-1.756c-.03-.069-.056-.14-.086-.21l-.028-.06a55.818 55.818 0 0 0-.879-1.926c-.03-.063-.055-.125-.085-.188-.05-.106-.106-.208-.158-.313a59.2 59.2 0 0 0-.761-1.506c-.055-.103-.103-.21-.159-.313-.027-.052-.057-.102-.084-.153a62.942 62.942 0 0 0-1.035-1.863c-.02-.03-.035-.064-.054-.095-.048-.084-.102-.165-.15-.248a61.864 61.864 0 0 0-.971-1.592c-.058-.093-.112-.188-.17-.28-.04-.062-.083-.12-.123-.183a62.15 62.15 0 0 0-1.264-1.893l-.06-.09c-.045-.065-.094-.125-.139-.189a58.731 58.731 0 0 0-1.39-1.89c-.046-.06-.089-.123-.135-.183-.018-.022-.036-.043-.053-.066a57.516 57.516 0 0 0-1.839-2.243c-.047-.056-.09-.115-.137-.169-.037-.042-.076-.083-.114-.124a53.21 53.21 0 0 0-1.157-1.286c-.028-.03-.055-.062-.084-.091a49.747 49.747 0 0 0-1.275-1.311c-.035-.035-.067-.072-.103-.106-.055-.056-.114-.106-.17-.16a47.476 47.476 0 0 0-1.711-1.599l-.155-.14a43.773 43.773 0 0 0-1.825-1.515c-.118-.091-.234-.185-.353-.276a40.202 40.202 0 0 0-1.839-1.34c-.11-.076-.222-.148-.333-.222a36.593 36.593 0 0 0-1.97-1.238 32.585 32.585 0 0 0-1.585-.854c-.15-.076-.301-.148-.452-.222-.4-.193-.796-.375-1.19-.544-.09-.04-.184-.088-.274-.126-.05-.02-.097-.036-.146-.056a26.296 26.296 0 0 0-1.108-.422c-.09-.033-.18-.07-.27-.102a22.817 22.817 0 0 0-1.349-.416c-.023-.007-.047-.016-.07-.022-.238-.065-.472-.116-.707-.17-.12-.031-.245-.065-.367-.091a20.85 20.85 0 0 0-1.126-.21h-.002a17.396 17.396 0 0 0-1.67-.168c-.062-.003-.128-.017-.192-.02-.025 0-.05 0-.074.002h-.067c-.176-.006-.351-.01-.526-.012h-.216z"/>
        </g>
    </g>
</svg>
