<svg xmlns="http://www.w3.org/2000/svg" xmlns:xlink="http://www.w3.org/1999/xlink" width="369" height="186" viewBox="0 0 369 186">
    <defs>
        <path id="a" d="M101.722 116.557L47.084 84.666c-3.797-2.216-3.316-6.124 1.068-8.683l104.614-61.061c4.384-2.559 11.078-2.84 14.875-.624L222.28 46.19c3.796 2.216 3.316 6.123-1.068 8.683l-104.614 61.06c-4.384 2.56-11.077 2.84-14.875.624"/>
        <filter id="b" width="217.6%" height="247%" x="-58.8%" y="-73.5%" filterUnits="objectBoundingBox">
            <feGaussianBlur in="SourceGraphic" stdDeviation="7.973"/>
        </filter>
        <filter id="c" width="256.5%" height="279.1%" x="-78.3%" y="-89.6%" filterUnits="objectBoundingBox">
            <feGaussianBlur in="SourceGraphic" stdDeviation="7.973"/>
        </filter>
        <path id="d" d="M.97 4.363c-1.416 1.987-1.232 4.179.225 6.1l-.007.01c1.36 1.8 3.838 3.367 7.14 4.278 3.3.913 6.832 1.005 9.899.414 3.263-.617 5.999-2.004 7.416-3.992 2.747-3.853-.552-8.506-7.36-10.386C11.472-1.093 3.717.51.97 4.363z"/>
        <path id="f" d="M.97 4.363c-1.416 1.987-1.232 4.179.225 6.1l-.007.01c1.36 1.8 3.838 3.367 7.14 4.278 3.3.913 6.832 1.005 9.899.414 3.263-.617 5.999-2.004 7.416-3.992 2.747-3.853-.552-8.506-7.36-10.386C11.472-1.093 3.717.51.97 4.363z"/>
    </defs>
    <g fill="none" fill-rule="evenodd">
        <g stroke="#978FF7" stroke-width=".9" transform="rotate(2 -497.265 967.863)">
            <path d="M3.52 98.392c-5.218-3.034-4.557-8.384 1.468-11.888l143.78-83.603c6.026-3.504 15.226-3.888 20.445-.855l75.093 43.666c5.217 3.034 4.557 8.383-1.468 11.888l-143.78 83.603c-6.026 3.504-15.225 3.888-20.445.853L3.52 98.392z"/>
            <use opacity=".355" xlink:href="#a"/>
            <path d="M46.996 113.846c-4.782-2.623-4.782-6.877 0-9.502 4.78-2.623 12.533-2.623 17.315 0 4.782 2.625 4.782 6.879 0 9.502-4.782 2.623-12.536 2.623-17.315 0z"/>
        </g>
        <path fill="#6F83CD" d="M320.318 112.054c0 3.623 2.225 7.87 4.945 9.44l20.022 11.564c2.72 1.57 4.946-.11 4.946-3.734v-27.868c0-3.624-2.227-7.871-4.946-9.44l-20.022-11.565c-.692-.4-1.351-.589-1.95-.588-1.758 0-2.995 1.622-2.995 4.322v27.869z" opacity=".9"/>
        <path fill="#3851AE" d="M311.41 103.145c0 3.623 2.224 6.756 4.943 8.326l18.91 11.565c2.718 1.57 4.945-.111 4.945-3.735v-14.504c0-3.624-2.227-7.872-4.946-9.44l-18.909-11.565c-.691-.4-1.35-.589-1.95-.587-1.757 0-2.994 1.62-2.994 4.321v15.619z"/>
        <path fill="#A2AFDB" d="M325.482 93.528c-4.185-2.62-7.581-.693-7.581 4.303 0 2.575.897 5.456 2.348 8.01v.013c1.359 2.394 3.204 4.506 5.233 5.776 2.03 1.272 3.877 1.473 5.236.766 1.45-.736 2.347-2.495 2.347-5.072 0-4.995-3.398-11.176-7.583-13.796"/>
        <path fill="#FFF" d="M325.482 104.12c1.41.882 2.544.23 2.544-1.44s-1.135-3.745-2.544-4.626c-1.397-.876-2.54-.227-2.54 1.443 0 1.67 1.143 3.748 2.54 4.623M325.482 104.721c-2.412-1.512-4.462-.961-5.233 1.121v.011c1.359 2.395 3.204 4.506 5.233 5.778 2.03 1.27 3.877 1.471 5.236.765-.77-3.045-2.821-6.163-5.236-7.675"/>
        <path fill="#8292C2" fill-opacity=".5" d="M290.794 126.835l25.082 14.786c4.305 2.323 7.794 7.703 7.794 12.017 0 4.313-3.49 5.927-7.794 3.604l-25.082-14.786c-4.305-2.323-7.794-7.703-7.794-12.016 0-4.314 3.49-5.928 7.794-3.605z" filter="url(#b)" transform="translate(28.41 9.977)"/>
        <g>
            <path fill="#FC9E99" d="M21.91 51.076c0 3.624 2.224 7.87 4.943 9.44l22.16 11.25c2.72 1.57 4.946-.11 4.946-3.734V40.164c0-3.623-2.227-7.871-4.946-9.44l-22.16-11.25c-.691-.4-1.35-.589-1.95-.588-1.757 0-2.994 1.622-2.994 4.322v27.868z" opacity=".26"/>
            <path fill="#FE7F79" d="M13 42.167c0 3.624 2.225 6.756 4.944 8.326l21.046 11.25c2.72 1.57 4.946-.11 4.946-3.733V43.505c0-3.623-2.226-7.871-4.946-9.44l-21.046-11.25c-.692-.4-1.35-.589-1.95-.588-1.757 0-2.994 1.622-2.994 4.322v15.618z" opacity=".746"/>
            <g fill="#FFF">
                <path d="M27.073 32.55c-4.185-2.62-7.581-.692-7.581 4.303 0 2.576.897 5.457 2.348 8.011v.012c1.359 2.395 3.204 4.506 5.233 5.777 2.03 1.271 3.877 1.473 5.236.766 1.45-.736 2.347-2.495 2.347-5.072 0-4.995-3.398-11.176-7.583-13.796" opacity=".331"/>
                <path d="M27.073 43.143c1.409.882 2.543.229 2.543-1.44 0-1.67-1.134-3.745-2.543-4.626-1.397-.877-2.54-.228-2.54 1.443 0 1.67 1.143 3.748 2.54 4.623M27.073 43.744c-2.412-1.512-4.462-.961-5.233 1.121v.01c1.359 2.396 3.204 4.507 5.233 5.778 2.03 1.271 3.877 1.472 5.236.766-.77-3.045-2.821-6.164-5.236-7.675"/>
            </g>
            <path fill="#8292C2" fill-opacity=".5" d="M12.248 99.062l14.976 8.958c4.304 2.323 7.794 7.703 7.794 12.016 0 4.314-3.49 5.928-7.794 3.605l-14.976-8.958c-4.304-2.323-7.793-7.703-7.793-12.016 0-4.314 3.489-5.928 7.793-3.605z" filter="url(#c)" transform="translate(13 -29)"/>
        </g>
        <g>
            <path fill="#2645B5" d="M92.339 80.775l28.406-14.089a10 10 0 0 1 9.471.315l52.2 30.365a3 3 0 0 1 1.491 2.684l-.464 15.393a3 3 0 0 1-1.545 2.534l-29.173 16.167a5 5 0 0 1-5.058-.124l-55.02-34.104a3 3 0 0 1-1.42-2.55v-14.8a2 2 0 0 1 1.112-1.791z" opacity=".26"/>
            <path fill="#2645B5" d="M130.488 66.99l52.577 30.64a3 3 0 0 1-.186 5.283l-29.988 14.752a5 5 0 0 1-4.762-.189L92.18 84.221a2 2 0 0 1 .144-3.515l28.735-14.059a10 10 0 0 1 9.43.343z" opacity=".746"/>
            <g transform="translate(109.005 73.53)">
                <mask id="e" fill="#fff">
                    <use xlink:href="#d"/>
                </mask>
                <use fill="#C3CEED" opacity=".568" xlink:href="#d"/>
                <path fill="#FFF" d="M-3.802 9.757c-1.09 1.55-.949 3.261.172 4.76l-.005.008c1.046 1.406 2.952 2.628 5.492 3.339 2.54.712 5.256.784 7.615.323 2.511-.481 4.616-1.564 5.706-3.116 2.113-3.006-.425-6.638-5.663-8.105C4.277 5.5-1.689 6.75-3.802 9.756zM13.37 5.501c-.424.665-.369 1.398.067 2.04l-.002.004c.407.602 1.148 1.126 2.136 1.43a5.962 5.962 0 0 0 2.961.14c.977-.207 1.795-.671 2.219-1.336.822-1.289-.165-2.845-2.202-3.474-2.037-.628-4.357-.093-5.18 1.196z" mask="url(#e)"/>
            </g>
            <path fill="#FFF" d="M141.647 87.405l24.698 14.686a1.192 1.192 0 0 1 .011 2.043 3.264 3.264 0 0 1-3.386.006l-24.496-14.806a1.12 1.12 0 0 1 0-1.916 3.083 3.083 0 0 1 3.173-.013zM136.944 91.844l17.2 10.457a1.102 1.102 0 0 1-.011 1.89 3.03 3.03 0 0 1-3.142-.034l-17.014-10.559a1.037 1.037 0 0 1 .02-1.775 2.87 2.87 0 0 1 2.947.021z"/>
        </g>
        <g>
            <path fill="#FC9E99" d="M147.795 50.932l29.848-14.59a10 10 0 0 1 9.403.33l51.934 30.074a3 3 0 0 1 1.495 2.687l-.464 15.389a3 3 0 0 1-1.544 2.534l-29.174 16.167a5 5 0 0 1-5.058-.124l-55.02-34.104a3 3 0 0 1-1.42-2.55V50.932z" opacity=".26"/>
            <path fill="#FE7F79" d="M187.056 36.694l52.577 30.64a3 3 0 0 1-.186 5.284l-29.988 14.751a5 5 0 0 1-4.762-.188l-55.949-33.255a2 2 0 0 1 .143-3.516l28.735-14.058a10 10 0 0 1 9.43.342z" opacity=".746"/>
            <g transform="translate(165.573 43.235)">
                <mask id="g" fill="#fff">
                    <use xlink:href="#f"/>
                </mask>
                <use fill="#FFF" opacity=".331" xlink:href="#f"/>
                <path fill="#FFF" d="M-3.802 9.757c-1.09 1.55-.949 3.261.172 4.76l-.005.008c1.046 1.406 2.952 2.628 5.492 3.339 2.54.712 5.256.784 7.615.323 2.511-.481 4.616-1.564 5.706-3.116 2.113-3.006-.425-6.638-5.663-8.105C4.277 5.5-1.689 6.75-3.802 9.756zM13.37 5.501c-.424.665-.369 1.398.067 2.04l-.002.004c.407.602 1.148 1.126 2.136 1.43a5.962 5.962 0 0 0 2.961.14c.977-.207 1.795-.671 2.219-1.336.822-1.289-.165-2.845-2.202-3.474-2.037-.628-4.357-.093-5.18 1.196z" mask="url(#g)"/>
            </g>
            <path fill="#FFF" d="M198.215 57.11l24.698 14.685a1.192 1.192 0 0 1 .012 2.044 3.264 3.264 0 0 1-3.387.006l-24.496-14.806a1.12 1.12 0 0 1 0-1.916 3.083 3.083 0 0 1 3.173-.013zM193.512 61.549l17.2 10.456a1.102 1.102 0 0 1-.011 1.89 3.03 3.03 0 0 1-3.142-.033l-17.014-10.56a1.037 1.037 0 0 1 .021-1.774 2.87 2.87 0 0 1 2.946.021z"/>
        </g>
        <path stroke="#FD9994" d="M41.955 36.686L98.01 3.633a16 16 0 0 1 16.254 0l50.182 29.592"/>
        <path stroke="#4E67C2" d="M169.76 125.932l49.45 28.667a17 17 0 0 0 16.153.486l84.845-42.586"/>
    </g>
</svg>
