<svg xmlns="http://www.w3.org/2000/svg" xmlns:xlink="http://www.w3.org/1999/xlink" width="333" height="272" viewBox="0 0 333 272">
    <defs>
        <filter id="a" width="139.5%" height="158.1%" x="-19.8%" y="-29.1%" filterUnits="objectBoundingBox">
            <feGaussianBlur in="SourceGraphic" stdDeviation="8.4"/>
        </filter>
        <filter id="b" width="129.4%" height="151%" x="-14.7%" y="-25.5%" filterUnits="objectBoundingBox">
            <feGaussianBlur in="SourceGraphic" stdDeviation="10.5"/>
        </filter>
        <linearGradient id="c" x1="4.648%" x2="65.983%" y1="32.003%" y2="63.452%">
            <stop offset="0%" stop-color="#D3DAED"/>
            <stop offset="100%" stop-color="#99A7D8"/>
        </linearGradient>
        <linearGradient id="e" x1="5.291%" x2="96.119%" y1="54.314%" y2="44.85%">
            <stop offset="0%" stop-color="#FFF"/>
            <stop offset="100%" stop-color="#F4F7FD"/>
        </linearGradient>
        <path id="d" d="M65.211 1.34L2.324 37.623c-2.81 1.62-3.114 4.07-.682 5.475l137.842 79.496c2.434 1.403 6.683 1.227 9.492-.393l62.888-36.284c2.809-1.62 3.114-4.07.68-5.473L74.704.947C73.6.311 72.126 0 70.58 0c-1.865 0-3.832.454-5.369 1.34"/>
        <linearGradient id="f" x1="0%" x2="95.848%" y1="42.876%" y2="57.362%">
            <stop offset="0%" stop-color="#D9E0F2"/>
            <stop offset="100%" stop-color="#C0C9E9"/>
        </linearGradient>
        <filter id="g" width="215.3%" height="300.2%" x="-57.7%" y="-100.1%" filterUnits="objectBoundingBox">
            <feGaussianBlur in="SourceGraphic" stdDeviation="7"/>
        </filter>
        <linearGradient id="h" x1="26.348%" x2="58.336%" y1="-4.095%" y2="90.434%">
            <stop offset="0%" stop-color="#D3DAED"/>
            <stop offset="100%" stop-color="#99A7D8"/>
        </linearGradient>
        <linearGradient id="i" x1="4.648%" x2="65.983%" y1="48.402%" y2="51.195%">
            <stop offset="0%" stop-color="#D3DAED"/>
            <stop offset="100%" stop-color="#99A7D8"/>
        </linearGradient>
        <linearGradient id="j" x1="23.925%" x2="76.075%" y1="30.623%" y2="72.273%">
            <stop offset="0%" stop-color="#C7CFE9"/>
            <stop offset="100%" stop-color="#99A7D8"/>
        </linearGradient>
        <filter id="k" width="136.6%" height="172.4%" x="-18.3%" y="-36.2%" filterUnits="objectBoundingBox">
            <feGaussianBlur in="SourceGraphic" stdDeviation="4.9"/>
        </filter>
        <path id="l" d="M0 .695h37.868v21.84H0z"/>
    </defs>
    <g fill="none" fill-rule="evenodd">
        <path fill="#2645B5" d="M203.882 81.49c-4.245-2.324-7.722-8.618-7.722-13.985v-61.1c0-5.368 3.477-7.858 7.722-5.534l105.77 60.645c4.248 2.324 7.725 8.619 7.725 13.986v61.1c0 5.367-3.477 7.858-7.724 5.533L203.882 81.49z" opacity=".2"/>
        <path fill="#2645B5" d="M299.573 150.529L193.655 89.185c-4.013-2.325-7.298-8.62-7.298-13.986v-61.1c0-5.367 3.285-7.858 7.298-5.534L299.573 69.91c4.015 2.325 7.3 8.62 7.3 13.986v61.1c0 5.368-3.285 7.858-7.3 5.534" opacity=".2"/>
        <path fill="#2645B5" d="M182.451 100.464c-4.012-2.324-7.298-8.619-7.298-13.986V31.674c0-5.368 3.286-7.858 7.298-5.534L288.37 87.484c4.014 2.325 7.3 8.619 7.3 13.986v54.805c0 5.367-3.286 7.858-7.3 5.534L182.45 100.464z" opacity=".746"/>
        <path fill="#FFF" fill-rule="nonzero" d="M285.44 147.894v3.793l-21.636-12.433-.21-3.793zM285.44 137.78v4.003l-41.803-23.812v-3.793z"/>
        <path fill="#224384" d="M181.437 14.106l106.64 60.889a14.7 14.7 0 0 1 7.41 12.765v12.452L175.156 31.504v-13.75a4.2 4.2 0 0 1 6.282-3.648z"/>
        <path fill="#FFF" fill-rule="nonzero" d="M285.44 127.875v4.004l-32.77-18.755v-3.793zM234.5 97.127v3.055l-53.043-30.766v-3.055zM199.838 62.252v3.055l-18.381-10.641.105-3.056zM224.31 83.64v3.056l-42.853-24.76V58.88zM253.72 86.064v3.055l-72.158-41.723v-3.161z"/>
        <path fill="#FF584F" d="M184.42 31.064c1.648 1.184 2.984.51 2.984-1.507s-1.336-4.613-2.985-5.798c-1.648-1.184-2.985-.51-2.985 1.507s1.337 4.613 2.985 5.798z"/>
        <path fill="#F7B500" d="M194.446 37.06c1.649 1.184 2.985.51 2.985-1.508 0-2.017-1.336-4.612-2.985-5.797-1.648-1.185-2.985-.51-2.985 1.507s1.337 4.613 2.985 5.797z"/>
        <path fill="#23B685" d="M204.473 43.055c1.649 1.185 2.986.51 2.986-1.507s-1.337-4.613-2.986-5.797c-1.648-1.185-2.985-.51-2.985 1.507s1.337 4.613 2.985 5.797z"/>
        <path fill="#8292C2" fill-opacity=".5" d="M24.822 115.668l103.006 59.093c6.748 3.618 12.218 11.998 12.218 18.717 0 6.72-5.47 9.233-12.218 5.615L24.822 140c-6.748-3.618-12.218-11.998-12.218-18.717 0-6.72 5.47-9.233 12.218-5.615z" filter="url(#a)" opacity=".4" transform="translate(175.153)"/>
        <g>
            <path fill="#8292C2" d="M211.863 159.05l-62.888 36.284c-2.808 1.62-7.058 1.796-9.49.393L1.641 116.23c-2.432-1.403-2.127-3.854.682-5.474L65.21 74.474c2.81-1.621 7.06-1.797 9.492-.394l137.842 79.497c2.432 1.403 2.128 3.854-.682 5.473" filter="url(#b)" opacity=".299" transform="translate(63.117 51.061)"/>
            <path fill="url(#c)" fill-rule="nonzero" d="M65.21 1.86L6.6 35.679 0 34.531v6.696l.006.001c-.006.895.529 1.752 1.636 2.39l137.842 79.497c2.433 1.402 6.683 1.227 9.492-.393l62.888-36.284c1.56-.9 2.344-2.055 2.32-3.145h.003v-6.6l-12.956-2.253L74.703 1.468C73.6.832 72.126.52 70.58.52c-1.865 0-3.833.455-5.37 1.34" transform="translate(65.217 117.288)"/>
            <g transform="translate(65.217 111.158)">
                <use fill="url(#e)" xlink:href="#d"/>
                <path fill="url(#f)" fill-rule="nonzero" d="M212.537 80.122l-72.239 42.134L3.63 43.436l73.06-42.15z"/>
            </g>
            <path fill="#FFF" d="M277.081 196.22l-62.888 36.282c-2.809 1.62-7.059 1.797-9.491.394L66.86 153.4c-.92-.53-1.446-1.21-1.597-1.938-.192 1.038.324 2.06 1.597 2.795l137.842 79.496c2.432 1.403 6.682 1.227 9.49-.393l62.889-36.283c1.747-1.008 2.524-2.337 2.278-3.536-.176.946-.94 1.907-2.278 2.68"/>
            <path fill="#D1D9EE" d="M108.41 128.943l-9.704 5.598c-.421.242-1.06.269-1.424.058l-.099-.056c-.365-.21-.318-.579.102-.821l9.706-5.598c.421-.243 1.058-.269 1.423-.058l.099.056c.365.21.32.578-.102.821"/>
            <path fill="#041860" d="M105.238 43.074c-7.11 4.098-18.637 4.098-25.747 0-7.11-4.097-7.11-10.74 0-14.837 7.109-4.098 18.636-4.098 25.747 0 7.11 4.097 7.11 10.74 0 14.837" filter="url(#g)" opacity=".247" transform="translate(65.217 127.78)"/>
            <path fill="#788DD9" d="M157.58 142.036c-9.59 0-19.179 2.105-26.48 6.315-7.01 4.044-10.872 9.4-10.872 15.084 0 5.683 3.862 11.04 10.874 15.084 14.6 8.422 38.36 8.422 52.96 0 7.011-4.043 10.873-9.4 10.873-15.083s-3.862-11.04-10.874-15.084c-7.3-4.21-16.891-6.316-26.481-6.316m.002 43.44c-9.707 0-19.416-2.13-26.805-6.393-7.223-4.165-11.2-9.723-11.2-15.648 0-5.926 3.977-11.483 11.198-15.647 14.78-8.525 38.831-8.523 53.612 0 7.223 4.166 11.2 9.722 11.2 15.648 0 5.925-3.977 11.483-11.2 15.647-7.39 4.263-17.098 6.393-26.805 6.393"/>
            <path fill="url(#h)" fill-rule="nonzero" d="M34.74 95.783c39.609-3.326 34.125-55.86 34.125-55.86L34.74 3.32.617.564s-5.484 46.208 34.123 95.22" transform="translate(127.538 51.538)"/>
            <g fill="url(#i)" fill-rule="nonzero" transform="translate(119.835 51.538)">
                <path d="M.641 4.99L34.766 7.75l7.677-4.428L8.319.564z"/>
            </g>
            <g fill="url(#j)" transform="translate(119.835 56.434)">
                <path d="M34.766 95.315c39.607-3.326 34.123-55.86 34.123-55.86L34.766 2.852 20.734 1.436.64.094s-5.484 46.21 34.125 95.221"/>
            </g>
            <g>
                <path fill="#FFF" d="M188.724 95.89l-34.123-36.603-34.124-2.758.964-.556 34.578 2.795 34.123 36.601s4.578 43.917-24.917 53.98c27.928-10.966 23.5-53.46 23.5-53.46"/>
                <path fill="#788DD9" d="M208.884 210.943a.477.477 0 0 1-.037-.951c7.204-.574 14.41-2.757 20.29-6.148 6.387-3.684 10.212-7.352 11.37-10.901a.477.477 0 1 1 .907.295c-1.233 3.78-5.203 7.627-11.8 11.43-6.001 3.463-13.349 5.69-20.69 6.274l-.04.001zm32.455-19.935a.477.477 0 0 1-.477-.46c-.102-2.825-2.161-5.474-5.955-7.662-8.386-4.837-19.324-4.812-30.798.072a.478.478 0 0 1-.374-.877c11.757-5.003 22.997-5.011 31.65-.02 4.092 2.36 6.316 5.283 6.43 8.453a.479.479 0 0 1-.46.494h-.016zm-39.726 19.914l-.044-.001c-4.008-.375-7.537-1.385-10.204-2.924-2.956-1.704-4.799-4.01-5.327-6.666-.075-.37.035-.746.304-1.058.47-.54 1.362-.842 2.338-.79 1.112.059 1.995.572 2.195 1.275.527 1.843 1.883 3.407 4.033 4.647 7.449 4.295 21.792 3.012 31.975-2.86 6.571-3.79 10.045-7.653 10.045-11.171 0-2.477-1.76-4.801-5.086-6.72-8.584-4.95-20.238-3.909-31.975 2.86-4.235 2.441-7.271 5.433-8.549 8.423-.264.617-1.067 1.033-2.045 1.06-.959.013-1.794-.321-2.154-.883a1.08 1.08 0 0 1-.065-1.084c1.729-3.5 5.215-6.833 10.082-9.64a.478.478 0 0 1 .478.825c-4.704 2.712-8.06 5.907-9.705 9.237-.023.047-.028.084.013.147.147.23.653.453 1.326.445.688-.02 1.112-.292 1.192-.48 1.36-3.18 4.537-6.331 8.95-8.876 12.04-6.943 24.041-7.986 32.929-2.859 3.639 2.099 5.562 4.708 5.562 7.545 0 3.934-3.54 7.969-10.52 11.996-10.446 6.024-25.219 7.307-32.93 2.86-2.338-1.349-3.885-3.15-4.473-5.21-.072-.252-.6-.547-1.329-.587-.766-.043-1.347.213-1.565.464-.113.13-.097.216-.09.247.473 2.38 2.157 4.464 4.869 6.029 2.548 1.47 5.942 2.437 9.814 2.798a.477.477 0 0 1-.044.95zm12.015-4.919c-.765 0-1.502-.26-1.903-.701-.298-.33-.394-.74-.267-1.127.171-.518.72-.918 1.47-1.071 3.24-.656 6.376-1.824 9.069-3.377 4.41-2.543 6.907-5.085 7.224-7.349.156-1.125-.236-2.18-1.167-3.138-.319-.328-.441-.728-.348-1.129.118-.504.57-.928 1.24-1.164 1.16-.41 2.604-.165 3.288.558 1.303 1.375 1.898 2.894 1.772 4.515-.184 2.354-1.889 4.79-5.069 7.24a.476.476 0 1 1-.582-.754c2.957-2.28 4.539-4.486 4.7-6.56.105-1.342-.404-2.615-1.514-3.786-.375-.396-1.429-.614-2.277-.315-.415.147-.598.352-.628.483-.007.029-.027.115.102.249 1.147 1.179 1.626 2.502 1.428 3.933-.363 2.602-2.951 5.308-7.692 8.042-2.781 1.604-6.016 2.81-9.356 3.486-.45.092-.705.29-.754.435-.008.026-.027.083.07.19.253.28.97.492 1.682.336 3.697-.793 7.254-2.136 10.286-3.885a.476.476 0 1 1 .477.825c-3.117 1.798-6.77 3.178-10.562 3.992a3.263 3.263 0 0 1-.689.072zm5.682-22.18c-5.265 0-11.102 1.742-16.962 5.122-5.007 2.887-7.997 6.562-7.997 9.831 0 2.02 1.158 3.756 3.347 5.019 2.08 1.199 4.947 1.888 8.292 1.99.625.023 1.098-.18 1.302-.387.048-.05.105-.124.102-.196-.011-.244-.488-.562-1.238-.604-2.448-.14-4.568-.691-6.133-1.594-1.66-.957-2.663-2.283-2.898-3.834-.286-1.876.58-4.014 2.437-6.023.633-.685 2.056-.9 3.106-.463.551.229.907.596 1.004 1.036.078.358-.029.717-.302 1.013-1.28 1.384-1.889 2.77-1.717 3.903.123.81.638 1.48 1.53 1.996 3.386 1.953 10.713.905 16.333-2.336 3.863-2.228 5.99-4.444 5.99-6.241 0-1.002-.652-1.885-1.94-2.629-3.634-2.095-9.153-1.483-15.143 1.68-.835.44-2.073.422-2.88-.043-.485-.28-.758-.697-.75-1.145.008-.46.312-.882.831-1.158 6.543-3.466 12.971-4.529 18.105-2.989.876.263 1.857.024 2.187-.354.12-.138.095-.222.086-.254-.047-.161-.298-.383-.752-.516-1.867-.551-3.86-.824-5.94-.824zm-13.238 22.916l-.112-.001c-3.502-.108-6.524-.84-8.738-2.118-2.502-1.442-3.824-3.463-3.824-5.844 0-3.613 3.167-7.597 8.472-10.656 8.407-4.85 16.806-6.407 23.65-4.388.736.217 1.245.641 1.398 1.165.116.397.015.804-.282 1.145-.619.71-2.015.991-3.181.642-4.89-1.466-11.064-.43-17.383 2.918-.238.126-.324.258-.325.333-.002.087.106.206.274.303.52.3 1.416.312 1.956.025 6.286-3.32 12.142-3.924 16.067-1.662 1.58.913 2.417 2.106 2.417 3.454 0 2.214-2.177 4.591-6.468 7.066-5.883 3.392-13.637 4.442-17.287 2.336-1.14-.657-1.83-1.583-1.997-2.678-.22-1.446.458-3.068 1.96-4.692.086-.094.075-.146.071-.163-.022-.098-.165-.247-.438-.36-.73-.3-1.714-.121-2.04.23-1.656 1.791-2.435 3.649-2.194 5.232.193 1.273 1.011 2.334 2.432 3.154 1.437.828 3.412 1.335 5.71 1.466 1.218.07 2.097.675 2.135 1.475a1.22 1.22 0 0 1-.374.945c-.418.426-1.121.673-1.899.673zm2.268-6.3c-1.16 0-2.127-.2-2.824-.602-.764-.441-1.168-1.098-1.168-1.899 0-1.704 1.838-3.78 4.915-5.556 4.994-2.88 9.357-3.667 11.97-2.16 1.124.647 1.378 1.459 1.393 2.026.037 1.39-1.26 2.952-3.854 4.642-.81.527-2.168.552-3.032.054-.466-.27-.74-.67-.75-1.099-.012-.423.221-.809.652-1.089 2.083-1.35 2.081-1.909 2.08-1.913-.58-.33-2.336-.045-5.514 1.788-2.205 1.272-3.116 2.362-3.114 2.663a.476.476 0 0 1-.474.48h-.003a.475.475 0 0 1-.476-.474c-.01-1.315 2.746-3.007 3.59-3.494 2.182-1.258 5.068-2.596 6.427-1.81.324.187.51.48.518.823.012.467-.234 1.258-2.514 2.737-.137.089-.22.19-.219.264.002.066.075.183.274.298.553.318 1.524.306 2.034-.026 3.014-1.962 3.437-3.235 3.421-3.818-.013-.472-.32-.884-.916-1.227-1.092-.63-4.354-1.68-11.016 2.16-2.696 1.556-4.438 3.413-4.438 4.731 0 .454.226.805.691 1.073 1.16.668 3.437.631 6.093-.1a.476.476 0 1 1 .253.919c-1.474.405-2.834.609-4 .609zm-7.902-16.393a.307.307 0 0 1-.152-.04l-12.567-7.248a.303.303 0 0 1 .304-.525l12.567 7.248a.303.303 0 0 1-.152.565z"/>
            </g>
        </g>
        <g fill="#FFF" fill-rule="nonzero">
            <path d="M164.56 105.597l-.532-.298v-2.869c0-5.306-3.659-11.787-8.231-14.442a24.21 24.21 0 0 0-.5-.28c-4.572-2.465-8.23-.08-8.23 5.226v2.869l-.533-.299c-.821-.46-1.49.14-1.49 1.345v14.39c0 1.202.669 2.56 1.49 3.02l18.026 10.093c.82.46 1.49-.15 1.49-1.352v-14.39c0-1.203-.67-2.553-1.49-3.013zm-7.324 5.258v4.348c0 .498-.362.717-.795.474l-1.788-1c-.433-.243-.795-.867-.795-1.365v-4.348c-.42-.71-.664-1.505-.664-2.233 0-1.379.926-2.045 2.103-1.44.125.063.375.203.5.279 1.177.714 2.103 2.417 2.103 3.796 0 .728-.244 1.249-.664 1.49zm-1.44-10.164l-.499-.28-4.72-2.643v-2.87c0-3.16 2.231-4.524 4.97-2.99 2.739 1.533 4.97 5.396 4.97 8.557v2.869l-4.72-2.643z"/>
        </g>
        <path fill="#8292C2" d="M36.338 171.908l44.015 25.385H63.495l-4.586-2.646 1.433-2.848-1.423-.82-1.802 1.04-3.033-1.75 1.803-1.04-4.72-2.722-3.186 1.838-2.556-1.475-2.636-1.52 3.586-2.068-3.57-2.059-2.202 1.27-2.043-1.177 1.102-.635-2.698-1.557-5.455-.28-3.098-1.786c-7.242 2.417-16.667 1.839-22.865-1.736-7.394-4.265-7.394-11.178 0-15.443 7.394-4.264 19.382-4.264 26.777 0 5.638 3.253 6.977 8.045 4.015 12.029zm-17.863-4.162c1.902-1.096 1.902-2.874 0-3.971-1.902-1.096-4.985-1.096-6.886 0-1.902 1.097-1.902 2.875 0 3.971 1.901 1.097 4.985 1.097 6.886 0z" filter="url(#k)" opacity=".501" transform="translate(12)"/>
        <g>
            <g transform="translate(12 152.015)">
                <mask id="m" fill="#fff">
                    <use xlink:href="#l"/>
                </mask>
                <path fill="#958EEC" d="M18.41 8.274c-1.9 1.096-4.985 1.096-6.886 0-1.902-1.097-1.902-2.875 0-3.972 1.901-1.096 4.985-1.096 6.886 0 1.902 1.097 1.902 2.875 0 3.972m19.458 3.333V6.493l-1.509.85c-.923-1.253-2.265-2.428-4.037-3.45C24.928-.37 12.94-.37 5.545 3.893c-2.05 1.183-3.53 2.57-4.443 4.047L0 6.493v5.113c-.003 2.798 1.845 5.596 5.546 7.73 7.394 4.265 19.383 4.265 26.776 0 3.701-2.134 5.55-4.932 5.546-7.73" mask="url(#m)"/>
            </g>
            <path fill="#B0AAF7" d="M30.475 158.653c-1.901 1.097-4.985 1.097-6.886 0-1.902-1.096-1.902-2.874 0-3.971 1.901-1.096 4.984-1.096 6.886 0 1.902 1.097 1.902 2.875 0 3.971m13.848-7.867c-7.395-4.264-19.383-4.264-26.778 0-7.393 4.264-7.393 11.178.001 15.442 7.394 4.266 19.382 4.266 26.777.001 7.393-4.265 7.393-11.178 0-15.443"/>
            <path fill="#958EEC" d="M30.41 160.288c-1.9 1.097-4.985 1.097-6.886 0-1.902-1.096-1.902-2.874 0-3.971 1.901-1.097 4.985-1.097 6.886 0 1.902 1.097 1.902 2.875 0 3.971zm3.78-6.802H23.913c-.94.216-1.854.477-2.735.784v8.699h13.01v-9.483z"/>
            <path fill="#B9B3FC" d="M30.475 158.653c-1.901 1.097-4.985 1.097-6.886 0-1.902-1.096-1.902-2.874 0-3.971 1.901-1.096 4.984-1.096 6.886 0 1.902 1.097 1.902 2.875 0 3.971m12.26-6.951c-6.517-3.759-17.085-3.76-23.602 0-6.517 3.759-6.517 9.852 0 13.61 6.518 3.76 17.085 3.76 23.602 0 6.517-3.757 6.517-9.851 0-13.61"/>
            <path fill="#958EEC" d="M19.133 153.113c6.517-3.758 17.084-3.758 23.602 0 2.947 1.7 4.557 3.878 4.839 6.101.34-2.693-1.27-5.453-4.839-7.513-6.518-3.758-17.085-3.759-23.602 0-3.57 2.06-5.18 4.82-4.838 7.513.282-2.223 1.891-4.4 4.838-6.1"/>
            <path fill="#928BE9" d="M48.318 167.887c-.989.981-2.208 1.907-3.665 2.748-1.457.84-3.062 1.543-4.764 2.113l3.62 2.088 5.455.28 2.698 1.556-1.102.635 2.043 1.178 2.203-1.27 3.569 2.058-3.586 2.068 2.636 1.52 2.556 1.475 3.186-1.838 4.72 2.722-1.803 1.04 3.033 1.749 1.802-1.04 1.423.82-1.433 2.848 4.586 2.646h16.858l-44.035-25.396z"/>
            <path fill="#B0AAF7" d="M48.318 164.192c-.989.981-2.208 1.906-3.665 2.747-1.457.84-3.062 1.544-4.764 2.113l3.62 2.088 5.455.28 2.698 1.556-1.102.635 2.043 1.178 2.203-1.27 3.569 2.058-3.586 2.068 2.636 1.52 2.556 1.475 3.186-1.837 4.72 2.721-1.803 1.04 3.033 1.75 1.802-1.04 1.423.82-1.433 2.848 4.586 2.646h16.858l-44.035-25.396z"/>
            <path fill="#958EEC" d="M75.496 193.283h16.857v-3.696H75.496zM69.117 188.008v-3.695l1.802-1.04v3.697zM66.084 182.564v3.696l3.033 1.748v-3.695zM63.167 178.803v3.695l-3.186 1.837v-3.696zM54.79 177.645v3.696l5.19 2.994v-3.696z"/>
            <path fill="#958EEC" d="M70.919 186.97l-.01 3.667 4.587 2.646v-3.696z"/>
            <path fill="#B0AAF7" d="M52.603 174.79v3.695l-2.043-1.178v-3.696z"/>
            <path fill="#958EEC" d="M43.509 171.14v3.695l5.455.28v-3.695zM80.85 186.97l-32.24-18.61 1.791-1.034 34.012 19.631zM43.509 174.835v-3.695l-3.62-2.088v3.696zM54.806 173.519v3.695l-2.203 1.271v-3.696z"/>
        </g>
    </g>
</svg>
