<svg xmlns="http://www.w3.org/2000/svg" xmlns:xlink="http://www.w3.org/1999/xlink" width="323" height="230" viewBox="0 0 323 230">
    <defs>
        <linearGradient id="a" x1="21.912%" x2="65.983%" y1="25.958%" y2="63.452%">
            <stop offset="0%" stop-color="#D3DAED"/>
            <stop offset="100%" stop-color="#99A7D8"/>
        </linearGradient>
        <linearGradient id="b" x1="4.437%" x2="85.037%" y1="51.604%" y2="47.086%">
            <stop offset="0%" stop-color="#EBF0FD"/>
            <stop offset="100%" stop-color="#FFF"/>
        </linearGradient>
        <linearGradient id="c" x1="0%" x2="95.848%" y1="42.933%" y2="57.303%">
            <stop offset="0%" stop-color="#D9E0F2"/>
            <stop offset="100%" stop-color="#C0C9E9"/>
        </linearGradient>
        <filter id="d" width="198.1%" height="240.8%" x="-49%" y="-70.4%" filterUnits="objectBoundingBox">
            <feGaussianBlur in="SourceGraphic" stdDeviation="4.5"/>
        </filter>
        <filter id="e" width="198.1%" height="240.8%" x="-49%" y="-70.4%" filterUnits="objectBoundingBox">
            <feGaussianBlur in="SourceGraphic" stdDeviation="4.5"/>
        </filter>
        <filter id="f" width="198.1%" height="240.8%" x="-49%" y="-70.4%" filterUnits="objectBoundingBox">
            <feGaussianBlur in="SourceGraphic" stdDeviation="4.5"/>
        </filter>
        <filter id="g" width="198.1%" height="240.8%" x="-49%" y="-70.4%" filterUnits="objectBoundingBox">
            <feGaussianBlur in="SourceGraphic" stdDeviation="4.5"/>
        </filter>
        <filter id="h" width="198.1%" height="240.8%" x="-49%" y="-70.4%" filterUnits="objectBoundingBox">
            <feGaussianBlur in="SourceGraphic" stdDeviation="4.5"/>
        </filter>
        <path id="i" d="M1.198 4.537c-1.402 2.066-1.22 4.345.221 6.343l-.006.01c1.347 1.873 3.799 3.501 7.067 4.45 3.267.948 6.763 1.044 9.798.43 3.23-.642 5.938-2.085 7.341-4.152 2.719-4.006-.546-8.845-7.286-10.8C11.593-1.135 3.917.53 1.198 4.538z"/>
        <path id="k" d="M1.198 4.537c-1.402 2.066-1.22 4.345.221 6.343l-.006.01c1.347 1.873 3.799 3.501 7.067 4.45 3.267.948 6.763 1.044 9.798.43 3.23-.642 5.938-2.085 7.341-4.152 2.719-4.006-.546-8.845-7.286-10.8C11.593-1.135 3.917.53 1.198 4.538z"/>
        <path id="m" d="M1.198 4.537c-1.402 2.066-1.22 4.345.221 6.343l-.006.01c1.347 1.873 3.799 3.501 7.067 4.45 3.267.948 6.763 1.044 9.798.43 3.23-.642 5.938-2.085 7.341-4.152 2.719-4.006-.546-8.845-7.286-10.8C11.593-1.135 3.917.53 1.198 4.538z"/>
    </defs>
    <g fill="none" fill-rule="evenodd">
        <path fill="url(#a)" fill-rule="nonzero" d="M208.046 225.537v.013a26.043 26.043 0 0 1-7.233-1.107c-1.756-.51-3.426-1.196-4.925-2.055L27.475 125.456c-3.782-2.206-5.655-4.971-5.53-7.61l-.022-5.855-.022-5.854 5.088 5.593 81.171-47.007c5.782-3.35 15.887-2.945 22.57.9l77.154 44.432v.031l91.303 52.55c.306.19.603.388.9.586l4.576-5.404v11.943c.09 2.198-1.171 4.305-3.873 5.873l-82.333 47.637c-2.764 1.602-6.517 2.345-10.41 2.266z"/>
        <path fill="url(#b)" d="M25.8 100.39l82.324-47.682c5.782-3.341 15.887-2.945 22.578.9l168.413 96.932c6.683 3.846 7.421 9.683 1.64 13.033l-82.325 47.674c-5.782 3.35-15.896 2.945-22.578-.901L27.439 113.423c-6.691-3.846-7.42-9.682-1.639-13.033z"/>
        <path fill="url(#c)" fill-rule="nonzero" d="M32.14 102.273l79.11-45.818c4.295-2.486 11.806-2.189 16.778.675l166.017 95.554c4.971 2.855 5.52 7.206 1.224 9.682l-79.108 45.818c-4.296 2.486-11.807 2.189-16.779-.675L33.356 111.955c-4.971-2.864-5.511-7.196-1.216-9.682z"/>
        <path fill="#2645B5" fill-rule="nonzero" d="M32.14 102.273l79.11-45.818c4.295-2.486 11.806-2.189 16.778.675l38.304 21.92c4.971 2.856 5.52 7.206 1.225 9.683L88.448 134.55c-4.296 2.486-11.807 2.188-16.778-.676l-38.314-21.92c-4.971-2.864-5.511-7.196-1.216-9.682z" opacity=".3"/>
        <path fill="#FFF" fill-rule="nonzero" d="M139.517 137.29l55.795-31.877c4.296-2.486 10.58.508 6.284 2.985l-55.795 31.877c-4.296 2.486-10.58-.499-6.284-2.985zM148.523 141.957l26.459-14.928c4.296-2.486 10.58.508 6.283 2.985l-26.458 14.928c-4.296 2.486-10.58-.5-6.284-2.985z"/>
        <path fill="#6682E4" fill-rule="nonzero" d="M87.285 129.11l37.284-21.474c2.205 1.394 12.774 7.2 15.264 8.695l-37.284 21.474c-2.138 1.236-5.874 1.088-8.347-.337l-6.312-3.541c-2.473-1.425-2.742-3.58-.605-4.817z"/>
        <path fill="#FFF" fill-rule="nonzero" d="M176.647 95.098l-36.814 21.233c-2.205-1.395-12.774-7.2-15.264-8.695l36.815-21.233c2.137-1.236 5.873-1.088 8.346.337l6.312 3.541c2.473 1.425 2.742 3.58.605 4.817z"/>
        <path fill="#A0ADD5" fill-opacity=".7" d="M147.428 38.74l16.29 8.718c3.672 1.992 5.08 2.74 5.08 6.439 0 3.698-3.209 2.64-6.88.648l-16.29-8.719c-3.673-1.99-4.355-2.232-4.355-5.93 0-3.698 2.484-3.148 6.155-1.157z" filter="url(#d)" opacity=".602"/>
        <path fill="#A0ADD5" fill-opacity=".7" d="M183.452 57.654l16.29 8.719c3.672 1.991 5.08 2.74 5.08 6.438 0 3.698-3.209 2.64-6.88.649l-16.29-8.72c-3.672-1.99-4.355-2.232-4.355-5.93 0-3.698 2.484-3.148 6.155-1.156z" filter="url(#e)" opacity=".602"/>
        <path fill="#A0ADD5" fill-opacity=".7" d="M220.377 78.37l16.29 8.718c3.672 1.992 5.08 2.741 5.08 6.44 0 3.697-3.21 2.639-6.88.648l-16.291-8.72c-3.672-1.99-4.355-2.232-4.355-5.93 0-3.698 2.484-3.148 6.156-1.157z" filter="url(#f)" opacity=".602"/>
        <path fill="#A0ADD5" fill-opacity=".7" d="M255.5 98.185l16.29 8.719c3.672 1.99 5.08 2.74 5.08 6.438 0 3.698-3.209 2.64-6.88.649l-16.29-8.72c-3.672-1.99-4.355-2.232-4.355-5.93 0-3.698 2.484-3.148 6.156-1.156z" filter="url(#g)" opacity=".602"/>
        <path fill="#A0ADD5" fill-opacity=".7" d="M291.933 119.551l16.29 8.72c3.672 1.99 5.08 2.74 5.08 6.438 0 3.698-3.21 2.64-6.881.648l-16.29-8.719c-3.672-1.991-4.355-2.232-4.355-5.93 0-3.698 2.484-3.148 6.156-1.157z" filter="url(#h)" opacity=".602"/>
        <g fill-rule="nonzero">
            <path fill="#F9B951" d="M144.986 6.872l5.08-2.918 7.826 3.666v5.404c-1.143.166-2.295.26-3.45.28-.207-.01-9.456-6.432-9.456-6.432zM174.544 38.63l-5.08 2.91-2.467-13.835s2.458-2.594 2.45-2.594l2.764.468 2.333 13.051z"/>
            <path fill="#FECC7B" d="M160.116 2.918l4.25 13.934 10.88 7.494-8.258 3.36 2.476 13.843-9.348-12.043-9.348 1.243 2.467-10.979-8.25-12.898 10.88 5.08z"/>
            <path fill="#F9B951" d="M165.195 0l4.242 13.943v.262l-5.07 2.647-4.25-13.934z"/>
            <path fill="#F9B951" d="M180.326 21.427l-5.08 2.919-10.88-7.494 5.071-2.91zM179.66 26.723l5.079-2.918 7.844 3.657v5.404c-1.146.166-2.301.26-3.459.28-.216 0-9.465-6.423-9.465-6.423zM209.226 58.481l-5.08 2.91-2.476-13.835s2.458-2.594 2.45-2.594l2.764.469 2.342 13.05z"/>
            <path fill="#FECC7B" d="M194.79 22.76l4.25 13.943 10.88 7.494-8.25 3.36 2.468 13.834-9.349-12.033-9.348 1.233 2.477-10.979-8.259-12.889 10.88 5.071z"/>
            <path fill="#F9B951" d="M199.869 19.851l4.25 13.943v.239l-5.079 2.67-4.25-13.943z"/>
            <path fill="#F9B951" d="M214.999 41.278l-5.08 2.919-10.879-7.494 5.08-2.91zM214.332 46.574l5.08-2.918 7.826 3.657v5.404a29.23 29.23 0 0 1-3.458.28c-.198 0-9.448-6.423-9.448-6.423zM243.89 78.36l-5.08 2.909-2.467-13.835s2.459-2.585 2.45-2.585l2.765.469 2.332 13.042z"/>
            <path fill="#FECC7B" d="M229.462 42.611l4.251 13.943 10.88 7.485-8.25 3.368 2.468 13.835-9.349-12.033-9.348 1.234 2.477-10.98-8.259-12.889 10.88 5.071z"/>
            <path fill="#F9B951" d="M234.542 39.702l4.25 13.943v.407l-5.079 2.502-4.25-13.943z"/>
            <path fill="#F9B951" d="M249.672 61.13l-5.08 2.909-10.879-7.485 5.08-2.91z"/>
            <path fill="#BEBBBB" d="M249.015 66.426l5.07-2.919 7.844 3.657v5.404a27.33 27.33 0 0 1-3.45.288c-.224-.009-9.464-6.43-9.464-6.43zM278.572 98.175l-5.07 2.918-2.477-13.835s2.45-2.594 2.44-2.594l2.766.478 2.341 13.033z"/>
            <path fill="#D9D9D9" d="M264.136 62.462l4.25 13.943 10.88 7.485-8.25 3.368 2.477 13.835-9.357-12.033-9.349 1.234 2.477-10.98-8.25-12.888 10.87 5.07z"/>
            <path fill="#BEBBBB" d="M269.215 59.553l4.25 13.934v.469l-5.079 2.45-4.25-13.944z"/>
            <path fill="#BEBBBB" d="M284.345 80.98l-5.08 2.91-10.879-7.485 5.08-2.918zM283.688 86.268l5.07-2.91 7.826 3.657v5.404a27.33 27.33 0 0 1-3.449.288c-.207-.009-9.447-6.44-9.447-6.44zM313.236 117.99l-5.07 2.918-2.477-13.835s2.46-2.603 2.45-2.603l2.765.478 2.332 13.042z"/>
            <path fill="#D9D9D9" d="M298.818 82.314l4.242 13.942 10.879 7.485-8.25 3.368 2.477 13.835-9.348-12.042-9.357 1.243 2.476-10.98-8.25-12.897 10.88 5.08z"/>
            <path fill="#BEBBBB" d="M303.888 79.395l4.251 13.943.508 1.629-5.587 1.29-4.242-13.943z"/>
            <path fill="#BEBBBB" d="M319.018 100.832l-5.08 2.909-10.878-7.485 5.08-2.918z"/>
        </g>
        <path fill="#5BB437" fill-rule="nonzero" d="M58.611 182.156v-8.232h-1.558a18.706 18.706 0 0 0-7.025-6.575c-11.446-6.611-30.008-6.611-41.427 0a18.67 18.67 0 0 0-7.034 6.575H.018v8.187c0 4.341 2.837 8.692 8.583 12.006 11.446 6.611 29.999 6.611 41.427 0 5.72-3.296 8.583-7.629 8.583-11.96z"/>
        <ellipse cx="29.306" cy="173.924" fill="#94D34B" rx="29.306" ry="16.924"/>
        <path fill="#FFF" fill-rule="nonzero" d="M15.175 179.526a1.315 1.315 0 0 1-.765-1.08V167.42c0-.838 1.18-1.522 2.638-1.522 1.46 0 2.64.684 2.63 1.53v9.143l26.523-3.252c1.432-.17 2.828.352 3.134 1.171.306.82-.612 1.63-2.035 1.802l-29.72 3.602a4.142 4.142 0 0 1-2.207-.306l-.198-.063z"/>
        <path fill="#FF584F" fill-rule="nonzero" d="M125.611 212.156v-8.232h-1.558a18.706 18.706 0 0 0-7.025-6.575c-11.446-6.611-30.008-6.611-41.427 0a18.67 18.67 0 0 0-7.034 6.575h-1.549v8.187c0 4.341 2.837 8.692 8.583 12.006 11.446 6.611 29.999 6.611 41.427 0 5.72-3.296 8.583-7.629 8.583-11.96z"/>
        <ellipse cx="96.306" cy="203.924" fill="#FF7C75" rx="29.306" ry="16.924"/>
        <g transform="matrix(-1 0 0 1 146.184 143.209)">
            <mask id="j" fill="#fff">
                <use xlink:href="#i"/>
            </mask>
            <use fill="#FFF" xlink:href="#i"/>
            <path fill="#B1BCDD" d="M-3.527 10.146c-1.078 1.612-.938 3.39.17 4.95l-.004.008c1.036 1.462 2.922 2.732 5.436 3.472 2.514.74 5.203.816 7.538.336 2.485-.5 4.568-1.627 5.647-3.24 2.092-3.127-.42-6.903-5.605-8.428-5.184-1.525-11.09-.226-13.182 2.902zM13.47 4.82c-.419.69-.364 1.453.067 2.122l-.002.003c.403.626 1.136 1.171 2.114 1.488.978.317 2.023.35 2.932.144.966-.215 1.776-.697 2.196-1.389.813-1.34-.164-2.958-2.18-3.612-2.016-.653-4.313-.096-5.126 1.244z" mask="url(#j)"/>
        </g>
        <path fill="#FFF" fill-rule="nonzero" d="M171.939 157.105l55.795-31.877c4.296-2.486 10.58.508 6.284 2.985l-55.796 31.877c-4.295 2.486-10.579-.499-6.283-2.985zM180.945 161.772l26.459-14.928c4.295-2.485 10.579.508 6.283 2.985l-26.458 14.928c-4.296 2.486-10.58-.499-6.284-2.985z"/>
        <g transform="matrix(-1 0 0 1 178.605 163.024)">
            <mask id="l" fill="#fff">
                <use xlink:href="#k"/>
            </mask>
            <use fill="#FFF" xlink:href="#k"/>
            <path fill="#B1BCDD" d="M-3.527 10.146c-1.078 1.612-.938 3.39.17 4.95l-.004.008c1.036 1.462 2.922 2.732 5.436 3.472 2.514.74 5.203.816 7.538.336 2.485-.5 4.568-1.627 5.647-3.24 2.092-3.127-.42-6.903-5.605-8.428-5.184-1.525-11.09-.226-13.182 2.902zM13.47 4.82c-.419.69-.364 1.453.067 2.122l-.002.003c.403.626 1.136 1.171 2.114 1.488.978.317 2.023.35 2.932.144.966-.215 1.776-.697 2.196-1.389.813-1.34-.164-2.958-2.18-3.612-2.016-.653-4.313-.096-5.126 1.244z" mask="url(#l)"/>
        </g>
        <path fill="#FFF" fill-rule="nonzero" d="M207.963 176.92l55.795-31.877c4.296-2.486 10.58.508 6.284 2.985l-55.795 31.877c-4.296 2.486-10.58-.499-6.284-2.985zM216.97 181.587l26.458-14.928c4.296-2.485 10.58.508 6.283 2.985l-26.458 14.928c-4.296 2.486-10.58-.499-6.284-2.985z"/>
        <g transform="matrix(-1 0 0 1 214.63 182.839)">
            <mask id="n" fill="#fff">
                <use xlink:href="#m"/>
            </mask>
            <use fill="#FFF" xlink:href="#m"/>
            <path fill="#B1BCDD" d="M-3.527 10.146c-1.078 1.612-.938 3.39.17 4.95l-.004.008c1.036 1.462 2.922 2.732 5.436 3.472 2.514.74 5.203.816 7.538.336 2.485-.5 4.568-1.627 5.647-3.24 2.092-3.127-.42-6.903-5.605-8.428-5.184-1.525-11.09-.226-13.182 2.902zM13.47 4.82c-.419.69-.364 1.453.067 2.122l-.002.003c.403.626 1.136 1.171 2.114 1.488.978.317 2.023.35 2.932.144.966-.215 1.776-.697 2.196-1.389.813-1.34-.164-2.958-2.18-3.612-2.016-.653-4.313-.096-5.126 1.244z" mask="url(#n)"/>
        </g>
        <path fill="#FFF" d="M85.165 202.455l23.09-2.635a2.4 2.4 0 0 1 2.655 2.093 2.36 2.36 0 0 1-2.075 2.632l-23.09 2.635a2.4 2.4 0 0 1-2.655-2.093 2.36 2.36 0 0 1 2.075-2.632z"/>
        <path fill="#FFF" d="M92.428 195.43l4.547 16.868a2.588 2.588 0 0 0 2.904 1.883 2.092 2.092 0 0 0 1.693-2.61l-4.547-16.87a2.588 2.588 0 0 0-2.904-1.882 2.092 2.092 0 0 0-1.693 2.61z"/>
    </g>
</svg>
