<svg xmlns="http://www.w3.org/2000/svg" xmlns:xlink="http://www.w3.org/1999/xlink" width="237" height="233" viewBox="0 0 237 233">
    <defs>
        <linearGradient id="a" x1="20.535%" x2="60.384%" y1="-4.095%" y2="90.434%">
            <stop offset="0%" stop-color="#D3DAED"/>
            <stop offset="100%" stop-color="#99A7D8"/>
        </linearGradient>
        <linearGradient id="b" x1="21.317%" x2="72.057%" y1="54.821%" y2="41.241%">
            <stop offset="0%" stop-color="#EBF0FD"/>
            <stop offset="100%" stop-color="#FFF"/>
        </linearGradient>
        <linearGradient id="c" x1="16.79%" x2="80.452%" y1="28.755%" y2="71.955%">
            <stop offset="0%" stop-color="#D9E0F2"/>
            <stop offset="100%" stop-color="#C0C9E9"/>
        </linearGradient>
        <filter id="d" width="125.4%" height="156.4%" x="-12.7%" y="-28.2%" filterUnits="objectBoundingBox">
            <feGaussianBlur in="SourceGraphic" stdDeviation="8"/>
        </filter>
        <linearGradient id="e" x1="4.648%" x2="65.983%" y1="40.781%" y2="56.891%">
            <stop offset="0%" stop-color="#D3DAED"/>
            <stop offset="100%" stop-color="#99A7D8"/>
        </linearGradient>
        <linearGradient id="g" x1="5.291%" x2="96.119%" y1="54.42%" y2="44.724%">
            <stop offset="0%" stop-color="#FFF"/>
            <stop offset="100%" stop-color="#F4F7FD"/>
        </linearGradient>
        <path id="f" d="M2.688 162.247c-3.985-2.325-3.48-6.426 1.121-9.112L113.562 90.82c4.601-2.685 11.627-2.98 15.612-.654l57.34 33.47c3.985 2.326 3.481 6.426-1.12 9.112l-109.79 64.084c-4.602 2.685-11.627 2.98-15.613.653L2.688 162.247z"/>
        <path id="h" d="M36.814 161.181c-3.406-1.99-2.974-5.497.959-7.795l93.809-53.31c3.932-2.297 9.937-2.55 13.343-.56l24.444 13.855c3.405 1.99 2.974 5.497-.959 7.795l-95.759 54.185c-3.933 2.297-9.936 2.55-13.343.56l-22.494-14.73z"/>
        <path id="i" d="M49.373 159.225c-3.072-1.78-2.683-4.917.864-6.972l14.282-7.96c3.546-2.054 9.108-2.861 12.18-1.082l10.659 6.054c3.07 1.779 2.816 4.83-.73 6.885l-15.106 8.641c-3.547 2.055-8.961 2.28-12.034.5l-10.115-6.066z"/>
        <filter id="j" width="165.1%" height="196.2%" x="-32.6%" y="-48.1%" filterUnits="objectBoundingBox">
            <feGaussianBlur in="SourceGraphic" stdDeviation="7.2"/>
        </filter>
        <linearGradient id="k" x1="5.748%" x2="91.217%" y1="32.094%" y2="66.174%">
            <stop offset="0%" stop-color="#BECAE8"/>
            <stop offset="100%" stop-color="#8999CD"/>
        </linearGradient>
    </defs>
    <g fill="none" fill-rule="evenodd">
        <g transform="translate(18)">
            <path fill="url(#a)" fill-rule="nonzero" d="M74.416 1.648c1.67-1.545 3.137-2.004 4.4-1.376 1.538.835 40.25 22.534 116.14 65.096 2.053.996 3.08 3.29 3.08 6.883v69.217a977.876 977.876 0 0 0 0 8.19c-.166 1.235-1.22 1.915-1.49 2.188-2.604 1.704-2.686 1.796-4.147 1.153-.853-7.028-2.812-13.575-5.878-19.64l-46.902-67.497-33.536-22.796-22.348-22.36-9.32-19.058z"/>
            <path fill="url(#b)" d="M76.704 1.512l115.695 65.93c1.412.804 2.556 2.6 2.556 4.01v80.45c0 1.41-1.144 1.901-2.556 1.097L76.704 87.069c-1.412-.805-2.557-2.6-2.557-4.011V2.608c0-1.41 1.145-1.901 2.557-1.096z"/>
            <path fill="url(#c)" fill-rule="nonzero" d="M84.648 15.502l99.167 56.4c1.21.688 2.192 2.225 2.192 3.431v65.627c0 1.207-.981 1.627-2.192.939l-99.167-56.4c-1.21-.688-2.191-2.224-2.191-3.43V16.44c0-1.207.98-1.627 2.191-.939z"/>
            <path fill="#8292C2" fill-opacity=".5" fill-rule="nonzero" d="M0 130.359v8.007c.052 5.743 1.314 9.186 3.786 10.33 2.355 1.33 38.622 22.374 108.802 63.131 7.147 3.93 12.595 4.657 16.342 2.183 3.748-2.475 22.421-13.96 56.021-34.456 2.835-1.727 4.252-3.431 4.252-5.114v-14.677c.215-1.315-.46-2.838-2.025-4.571-1.564-1.733-29.21-.085-82.937 4.946L12.712 138.96 0 130.359z" filter="url(#d)" opacity=".5"/>
            <path fill="url(#e)" fill-rule="nonzero" d="M0 127.546v7.435c.052 1.487 1.314 2.802 3.786 3.945 2.355 1.33 38.622 22.374 108.802 63.132 7.147 3.93 12.595 4.657 16.342 2.182 3.748-2.475 22.421-13.96 56.021-34.456 2.835-1.726 4.252-3.43 4.252-5.114 0-1.683.013-3.602.039-5.757.096-1.295-.598-2.78-2.083-4.452-1.485-1.673-29.124-3.038-82.918-4.093l-91.529-17.346L0 127.546z"/>
            <use fill="url(#g)" transform="matrix(-1 0 0 1 189.203 0)" xlink:href="#f"/>
            <use fill="#E0E7F8" fill-rule="nonzero" transform="matrix(-1 0 0 1 206.183 0)" xlink:href="#h"/>
            <use fill="#D1D9EE" fill-rule="nonzero" transform="matrix(-1 0 0 1 136.788 0)" xlink:href="#i"/>
        </g>
        <path fill="#2645B5" d="M132.473 112.671c-1.91-1.103-3.474-4.09-3.474-6.637V67.04c0-2.547 1.564-3.729 3.474-2.626l50.421 29.111c1.911 1.103 3.475 4.09 3.475 6.637v38.995c0 2.547-1.564 3.73-3.475 2.626l-50.42-29.11zM100.474 94.94C98.564 93.835 97 90.85 97 88.301V48.04c0-2.547 1.564-3.729 3.474-2.626l21.351 12.013c1.911 1.103 3.643 4.068 3.643 6.615l.15 40.108c0 2.547-1.347 3.756-3.258 2.653l-21.886-11.863z" opacity=".746"/>
        <path fill="#2645B5" d="M110.474 72.94c-1.91-1.104-3.474-4.09-3.474-6.638V34.04c0-2.547 1.564-3.729 3.474-2.626l21.351 12.013c1.911 1.103 3.643 4.068 3.643 6.615l.15 32.108c0 2.547-1.347 3.756-3.258 2.653l-21.886-11.863zM142.474 87.671c-1.91-1.103-3.474-4.09-3.474-6.637l-.006-28.584c0-2.547 1.242-3.592 3.152-2.49l50.246 28.446c1.911 1.103 3.527 4.05 3.527 6.597l.004 29.081c0 2.547-1.117 3.801-3.028 2.698l-50.421-29.11z" opacity=".2"/>
        <path fill="#C78BBC" d="M146.508 66.018c-1.04-.828-1.605-1.724-1.694-2.689 0-1.273.739-1.492 1.694-.94l25.417 14.42c.955.552 1.737 1.045 1.737 2.319 0 1.27-.782 1.862-1.737 1.31l-25.417-14.42z"/>
        <g>
            <path fill="#52BBBD" d="M137.694 87.413c-1.04-.828-1.605-1.724-1.694-2.688 0-1.273.739-1.492 1.694-.94l25.21 14.555c.956.551 1.738 1.045 1.738 2.318 0 1.271-.782 1.862-1.738 1.31l-25.21-14.555z"/>
            <path fill="#C78BBC" d="M137.694 80.913c-1.04-.828-1.605-1.724-1.694-2.688 0-1.273.739-1.492 1.694-.94l25.21 14.555c.956.551 1.738 1.045 1.738 2.318 0 1.271-.782 1.862-1.738 1.31l-25.21-14.555z"/>
            <path fill="#FFF" d="M102.01 78.321c-1.04-.828-1.605-1.724-1.694-2.688 0-1.274.739-1.492 1.694-.94l17.133 9.608c.956.552 1.738 1.045 1.738 2.319 0 1.27-.782 1.862-1.738 1.31l-17.133-9.609zM101.694 84.913c-1.04-.828-1.605-1.724-1.694-2.688 0-1.273.739-1.492 1.694-.94l10.012 5.663c.955.552 1.737 1.045 1.737 2.319 0 1.27-.782 1.862-1.737 1.31l-10.012-5.664z"/>
            <path fill="#52BBBD" d="M137.694 103.99c-1.04-.827-1.605-1.723-1.694-2.687 0-1.274.739-1.493 1.694-.941l25.21 14.555c.956.552 1.738 1.045 1.738 2.319 0 1.27-.782 1.862-1.738 1.31l-25.21-14.555z"/>
            <path fill="#53CFE8" d="M137.694 93.913c-1.04-.828-1.605-1.724-1.694-2.688 0-1.273.739-1.492 1.694-.94l13.705 8.037c.955.552 1.737 1.045 1.737 2.319 0 1.27-.782 1.862-1.737 1.31l-13.705-8.038z"/>
            <path fill="#F3D65D" d="M137.694 109.49c-1.04-.827-1.605-1.723-1.694-2.687 0-1.274.739-1.493 1.694-.941l13.705 8.038c.955.551 1.737 1.045 1.737 2.318 0 1.271-.782 1.862-1.737 1.31l-13.705-8.037z"/>
        </g>
        <g>
            <path fill="#93A1D1" d="M110.169 59.126c-3.619-2.157-6.556-.57-6.556 3.541 0 2.12.776 4.492 2.03 6.595v.01c1.175 1.97 2.771 3.708 4.526 4.754 1.754 1.047 3.352 1.213 4.527.631 1.254-.606 2.03-2.054 2.03-4.175 0-4.111-2.938-9.2-6.557-11.356"/>
            <path fill="#FFF" d="M110.169 67.845c1.218.725 2.199.188 2.199-1.186 0-1.375-.981-3.082-2.2-3.808-1.208-.721-2.196-.187-2.196 1.188 0 1.374.988 3.085 2.197 3.806M110.169 68.34c-2.086-1.245-3.859-.792-4.525.922v.009c1.174 1.971 2.77 3.709 4.525 4.756 1.754 1.046 3.352 1.211 4.527.63-.666-2.507-2.44-5.074-4.527-6.317"/>
        </g>
        <g>
            <path fill="#8292C2" fill-opacity=".5" d="M13.6 42.114l53.632 30.597c3.513 1.873 6.362 6.212 6.362 9.691 0 3.48-2.849 4.78-6.362 2.907L13.6 54.713c-3.514-1.873-6.362-6.212-6.362-9.691 0-3.48 2.848-4.781 6.362-2.908z" filter="url(#j)" opacity=".7" transform="translate(148 116)"/>
            <path fill="#8699CC" d="M158.294 123.65c-4.455 5.62-4.652 13.353-.594 23.201 5.567 10.389 13.435 15.728 23.603 16.017l-7.4 5.23-10.084-4.844-10.656-13.072-3.51-12.583 1.233-8.924 6.035-5.542 1.373.518z"/>
            <path fill="#98A9D5" fill-rule="nonzero" d="M157.557 120.08c4.487-2.926 8.314-4.278 11.482-4.057 4.751.332 11.541 2.997 19.331 12.118 5.193 6.081 7.77 13.698 7.728 22.85-.487 8.186-4.405 13.131-11.752 14.837-.531-3.078.352-6.12 2.65-9.125l.69-6.533-2.939-11.145-6.781-8.918-7.345-5.955-7.753-2.459h-5.311v-1.613z"/>
            <path fill="#8699CC" fill-rule="nonzero" d="M168.736 167.56c12.204 4.47 19.797-1.918 20.173-13.807.376-11.91-8.068-26.718-20.204-32.257-12.29-5.511-21.07 1.713-20.693 14.283.376 12.596 8.519 27.312 20.724 31.781zm-17.841-31.072c-.302-10.09 7.426-16.144 16.503-12.073 10.209 4.66 18.07 18.293 17.73 29.05-.3 9.503-8.224 14.27-16.538 10.791-9.787-4.171-17.356-16.413-17.695-27.768z"/>
            <path fill="#FFF" fill-rule="nonzero" d="M150.895 136.488c-.302-10.09 7.426-16.144 16.503-12.073 10.209 4.66 18.07 18.293 17.73 29.05-.3 9.503-8.224 14.27-16.538 10.791-9.787-4.171-17.356-16.413-17.695-27.768z" opacity=".5"/>
            <path fill="url(#k)" d="M46.38 34.88l28.517 15.872c.649.541.69 2.023.122 4.446-.77 2.045-2.253 3.777-4.424 4.51-2.085-.95-4.342-2.2-6.77-3.749L42.4 43.586c-1.373-1.312-1.313-3.396.18-6.252 1.048-1.95 2.315-2.768 3.8-2.453z" transform="translate(148 116)"/>
            <path fill="#93A2D6" stroke="#7D8EC8" stroke-width=".9" d="M220.137 175.126c1.763-.865 3.413-3.553 3.413-5.641 0-2.078-1.191-3.144-2.678-2.414-1.697.832-3.248 3.597-3.248 5.764 0 2.084 1.031 3.018 2.513 2.291z"/>
            <g fill="#F34C43" fill-rule="nonzero">
                <path d="M175.828 149.658a.95.95 0 0 1 .167.498c0 .155-.056.256-.167.304-.11.048-.242.028-.393-.06l-1.96-1.143c0 1.015-.195 1.761-.585 2.24l1.819 2.921c.11.177.166.343.166.498 0 .154-.056.255-.166.303-.105.052-.236.032-.394-.06a1.118 1.118 0 0 1-.393-.399l-1.732-2.763a.813.813 0 0 1-.132.039c-.058.013-.18.026-.367.04a3.61 3.61 0 0 1-.568-.007 3.551 3.551 0 0 1-.718-.16 4.131 4.131 0 0 1-.848-.38v-7.976l-1.12-.653v7.977a6.094 6.094 0 0 1-.887-.639 7.758 7.758 0 0 1-.761-.737c-.213-.24-.405-.468-.578-.684a7.29 7.29 0 0 1-.38-.511l-.131-.202-1.6.91c-.117.057-.257.037-.42-.058a1.2 1.2 0 0 1-.377-.362 1.028 1.028 0 0 1-.179-.5c-.009-.163.036-.274.136-.335l1.766-.99a7.513 7.513 0 0 1-.507-2.736l-1.96-1.142a1.158 1.158 0 0 1-.393-.4.95.95 0 0 1-.166-.497c0-.154.055-.255.166-.303.111-.049.242-.028.394.06l1.959 1.143v-2.618l-1.513-2.422a.95.95 0 0 1-.166-.498c0-.154.055-.255.166-.304.11-.048.242-.028.393.06.152.09.283.222.394.4l1.513 2.422 7.382 4.305 1.513-.657c.111-.048.242-.028.394.06.151.088.283.221.393.399.111.177.167.343.167.497 0 .155-.056.256-.167.304l-1.513.658v2.617l1.96 1.142c.151.089.282.222.393.4zm-4.85-9.571c.546.872.818 1.704.818 2.493l-5.597-3.265c0-.789.272-1.302.817-1.54.546-.236 1.206-.129 1.981.324.776.452 1.436 1.115 1.981 1.988z"/>
            </g>
        </g>
    </g>
</svg>
