<svg xmlns="http://www.w3.org/2000/svg" xmlns:xlink="http://www.w3.org/1999/xlink" width="363" height="273" viewBox="0 0 363 273">
    <defs>
        <linearGradient id="a" x1="20.535%" x2="60.384%" y1="-4.095%" y2="90.434%">
            <stop offset="0%" stop-color="#D3DAED"/>
            <stop offset="100%" stop-color="#99A7D8"/>
        </linearGradient>
        <linearGradient id="b" x1="21.317%" x2="72.057%" y1="54.821%" y2="41.241%">
            <stop offset="0%" stop-color="#EBF0FD"/>
            <stop offset="100%" stop-color="#FFF"/>
        </linearGradient>
        <linearGradient id="c" x1="16.79%" x2="80.452%" y1="28.755%" y2="71.955%">
            <stop offset="0%" stop-color="#D9E0F2"/>
            <stop offset="100%" stop-color="#C0C9E9"/>
        </linearGradient>
        <filter id="d" width="125.4%" height="156.4%" x="-12.7%" y="-28.2%" filterUnits="objectBoundingBox">
            <feGaussianBlur in="SourceGraphic" stdDeviation="8"/>
        </filter>
        <linearGradient id="e" x1="4.648%" x2="65.983%" y1="40.781%" y2="56.891%">
            <stop offset="0%" stop-color="#D3DAED"/>
            <stop offset="100%" stop-color="#99A7D8"/>
        </linearGradient>
        <linearGradient id="g" x1="5.291%" x2="96.119%" y1="54.42%" y2="44.724%">
            <stop offset="0%" stop-color="#FFF"/>
            <stop offset="100%" stop-color="#F4F7FD"/>
        </linearGradient>
        <path id="f" d="M2.688 162.247c-3.985-2.325-3.48-6.426 1.121-9.112L113.562 90.82c4.601-2.685 11.627-2.98 15.612-.654l57.34 33.47c3.985 2.326 3.481 6.426-1.12 9.112l-109.79 64.084c-4.602 2.685-11.627 2.98-15.613.653L2.688 162.247z"/>
        <path id="h" d="M36.814 161.181c-3.406-1.99-2.974-5.497.959-7.795l93.809-53.31c3.932-2.297 9.937-2.55 13.343-.56l24.444 13.855c3.405 1.99 2.974 5.497-.959 7.795l-95.759 54.185c-3.933 2.297-9.936 2.55-13.343.56l-22.494-14.73z"/>
        <path id="i" d="M49.373 159.225c-3.072-1.78-2.683-4.917.864-6.972l14.282-7.96c3.546-2.054 9.108-2.861 12.18-1.082l10.659 6.054c3.07 1.779 2.816 4.83-.73 6.885l-15.106 8.641c-3.547 2.055-8.961 2.28-12.034.5l-10.115-6.066z"/>
        <linearGradient id="k" x1="4.648%" x2="65.983%" y1="42.782%" y2="55.395%">
            <stop offset="0%" stop-color="#D3DAED"/>
            <stop offset="100%" stop-color="#99A7D8"/>
        </linearGradient>
        <linearGradient id="l" x1="5.291%" x2="96.119%" y1="54.323%" y2="44.84%">
            <stop offset="0%" stop-color="#FFF"/>
            <stop offset="100%" stop-color="#F4F7FD"/>
        </linearGradient>
        <linearGradient id="m" x1="0%" x2="95.848%" y1="42.918%" y2="57.319%">
            <stop offset="0%" stop-color="#D9E0F2"/>
            <stop offset="100%" stop-color="#C0C9E9"/>
        </linearGradient>
        <path id="n" d="M5.471 140.585C2.618 138.94.282 134.48.282 130.678L0 4.537C0 .735 2.336-1.03 5.189.617l74.833 42.665c2.854 1.646 5.19 6.105 5.19 9.907l.48 126.604c0 3.802-2.337 5.566-5.191 3.92l-75.03-43.128z"/>
        <path id="p" d="M2.745 35.19C1.314 34.37.142 32.148.142 30.253L0 2.262C0 .366 1.172-.513 2.604.308l37.551 21.27c1.432.821 2.605 3.044 2.605 4.94l.24 28.22c0 1.896-1.172 2.775-2.604 1.954L2.746 35.191z"/>
        <linearGradient id="q" x1="41.691%" x2="57.619%" y1="28.755%" y2="71.955%">
            <stop offset="0%" stop-color="#D9E0F2"/>
            <stop offset="100%" stop-color="#C0C9E9"/>
        </linearGradient>
        <linearGradient id="r" x1="41.557%" x2="58.709%" y1="62.968%" y2="34.52%">
            <stop offset="0%" stop-color="#FFF"/>
            <stop offset="100%" stop-color="#F4F7FD"/>
        </linearGradient>
        <linearGradient id="s" x1="40.852%" x2="53.224%" y1="-4.095%" y2="90.434%">
            <stop offset="0%" stop-color="#D3DAED"/>
            <stop offset="100%" stop-color="#99A7D8"/>
        </linearGradient>
        <filter id="t" width="199.7%" height="245%" x="-49.8%" y="-72.5%" filterUnits="objectBoundingBox">
            <feGaussianBlur in="SourceGraphic" stdDeviation="7.973"/>
        </filter>
    </defs>
    <g fill="none" fill-rule="evenodd">
        <g transform="translate(93 37)">
            <path fill="url(#a)" fill-rule="nonzero" d="M74.416 1.648c1.67-1.545 3.137-2.004 4.4-1.376 1.538.835 40.25 22.534 116.14 65.096 2.053.996 3.08 3.29 3.08 6.883v69.217a977.876 977.876 0 0 0 0 8.19c-.166 1.235-1.22 1.915-1.49 2.188-2.604 1.704-2.686 1.796-4.147 1.153-.853-7.028-2.812-13.575-5.878-19.64l-46.902-67.497-33.536-22.796-22.348-22.36-9.32-19.058z"/>
            <path fill="url(#b)" d="M76.704 1.512l115.695 65.93c1.412.804 2.556 2.6 2.556 4.01v80.45c0 1.41-1.144 1.901-2.556 1.097L76.704 87.069c-1.412-.805-2.557-2.6-2.557-4.011V2.608c0-1.41 1.145-1.901 2.557-1.096z"/>
            <path fill="url(#c)" fill-rule="nonzero" d="M84.648 15.502l99.167 56.4c1.21.688 2.192 2.225 2.192 3.431v65.627c0 1.207-.981 1.627-2.192.939l-99.167-56.4c-1.21-.688-2.191-2.224-2.191-3.43V16.44c0-1.207.98-1.627 2.191-.939z"/>
            <path fill="#8292C2" fill-opacity=".5" fill-rule="nonzero" d="M0 130.359v8.007c.052 5.743 1.314 9.186 3.786 10.33 2.355 1.33 38.622 22.374 108.802 63.131 7.147 3.93 12.595 4.657 16.342 2.183 3.748-2.475 22.421-13.96 56.021-34.456 2.835-1.727 4.252-3.431 4.252-5.114v-14.677c.215-1.315-.46-2.838-2.025-4.571-1.564-1.733-29.21-.085-82.937 4.946L12.712 138.96 0 130.359z" filter="url(#d)" opacity=".5"/>
            <path fill="url(#e)" fill-rule="nonzero" d="M0 127.546v7.435c.052 1.487 1.314 2.802 3.786 3.945 2.355 1.33 38.622 22.374 108.802 63.132 7.147 3.93 12.595 4.657 16.342 2.182 3.748-2.475 22.421-13.96 56.021-34.456 2.835-1.726 4.252-3.43 4.252-5.114 0-1.683.013-3.602.039-5.757.096-1.295-.598-2.78-2.083-4.452-1.485-1.673-29.124-3.038-82.918-4.093l-91.529-17.346L0 127.546z"/>
            <use fill="url(#g)" transform="matrix(-1 0 0 1 189.203 0)" xlink:href="#f"/>
            <use fill="#E0E7F8" fill-rule="nonzero" transform="matrix(-1 0 0 1 206.183 0)" xlink:href="#h"/>
            <mask id="j" fill="#fff">
                <use xlink:href="#i"/>
            </mask>
            <use fill="#D1D9EE" fill-rule="nonzero" transform="matrix(-1 0 0 1 136.788 0)" xlink:href="#i"/>
            <path fill="#B7C2E5" d="M134.551 41.884c1.236 1.13 2.237.95 2.237-.403s-1.001-3.366-2.237-4.497c-1.235-1.13-2.237-.95-2.237.403s1.002 3.366 2.237 4.497z" mask="url(#j)"/>
            <g fill="#FFF" mask="url(#j)">
                <path d="M124.341 77.458c-2.567-1.512-4.649-5-4.649-7.789 0-2.79 2.082-3.825 4.649-2.313s4.649 5 4.649 7.789c0 2.79-2.082 3.825-4.649 2.313zm0-11.145c-1.284-.756-2.324-2.5-2.324-3.894 0-1.395 1.04-1.913 2.324-1.157 1.284.756 2.324 2.5 2.324 3.894 0 1.395-1.04 1.913-2.324 1.157z"/>
            </g>
        </g>
        <path fill="url(#k)" fill-rule="nonzero" d="M134.247 31.026c1.625 1.457 1.1 3.556-1.41 5.003L62.748 76.492c-2.83 1.635-7.11 1.81-9.56.396L2.005 47.333c-2.169-1.253-2.186-3.342-.187-4.93-2.7 1.846-2.186 6.261.187 7.634L53.196 79.59c2.45 1.416 6.73 1.236 9.56-.396l70.08-40.462c2.798-1.615 3.758-6.233 1.411-7.707" transform="translate(0 86)"/>
        <path fill="url(#l)" d="M53.196 76.888L2.006 47.333c-2.451-1.416-2.153-3.886.684-5.52l70.083-40.46c2.83-1.635 7.11-1.813 9.56-.399l51.19 29.557c2.451 1.414 2.145 3.886-.684 5.518l-70.09 40.463c-2.83 1.635-7.11 1.812-9.56.396" transform="translate(0 86)"/>
        <path fill="url(#m)" fill-rule="nonzero" d="M8.427 40.807L74.118 2.88c.361-.202.797-.22 1.174-.048l54.98 31.745c.3.172.262.486-.086.678L64.498 73.179a1.31 1.31 0 0 1-1.176.05L8.342 41.483c-.299-.172-.262-.486.085-.675" transform="translate(0 86)"/>
        <path fill="#96A3D1" fill-rule="nonzero" d="M104.02 123.073l-4.64-2.679a2 2 0 0 1-.006-3.461l4.085-2.373a7 7 0 0 1 7.016-.01l4.14 2.389a2 2 0 0 1 .004 3.461l-4.585 2.665a6 6 0 0 1-6.014.008zm-14.86-8.577l-4.641-2.68a2 2 0 0 1-.005-3.462l4.085-2.373a7 7 0 0 1 7.016-.01l4.14 2.39a2 2 0 0 1 .005 3.46l-4.585 2.666a6 6 0 0 1-6.016.009zm-4.263-14.712a2 2 0 0 1 .005 3.461l-4.585 2.664a6 6 0 0 1-6.014.009l-4.644-2.681a2 2 0 0 1-.004-3.461l4.585-2.665a6 6 0 0 1 6.014-.008l4.643 2.68zm-25.83 50.711l-36.36-20.993a1.123 1.123 0 0 1-.002-1.943 3.346 3.346 0 0 1 3.354-.005l36.36 20.993a1.123 1.123 0 0 1 .003 1.943 3.346 3.346 0 0 1-3.355.005zm-1.5-26.437l-12.055-6.67a2 2 0 0 1-.037-3.48l13.062-7.59a7 7 0 0 1 6.906-.073l9.52 5.267a3 3 0 0 1 .055 5.219L62.5 124.006a5 5 0 0 1-4.933.052zm8.51 22.364l-36.36-20.993a1.123 1.123 0 0 1-.004-1.943 3.343 3.343 0 0 1 3.353-.005l36.363 20.993a1.123 1.123 0 0 1 .002 1.943 3.346 3.346 0 0 1-3.354.005zm7.01-4.073l-36.362-20.993a1.123 1.123 0 0 1-.003-1.943 3.346 3.346 0 0 1 3.354-.005l36.361 20.996a1.122 1.122 0 0 1 .003 1.941 3.344 3.344 0 0 1-3.352.004zm4.805-6.1l-10.567-5.846a2 2 0 0 1-.037-3.479l13.062-7.59a7 7 0 0 1 6.906-.073l11.063 6.12a2 2 0 0 1 .036 3.48l-12.57 7.305a8 8 0 0 1-7.893.084z"/>
        <path fill="#D1D9EE" fill-rule="nonzero" d="M30.153 146.51a4.586 4.586 0 0 1-2.257-.538c-.578-.336-.896-.77-.896-1.215 0-.444.313-.88.882-1.214a4.532 4.532 0 0 1 2.22-.542 4.595 4.595 0 0 1 2.259.54c.578.332.896.77.896 1.214 0 .444-.314.879-.882 1.214a4.542 4.542 0 0 1-2.232.532"/>
        <g>
            <g transform="translate(184)">
                <mask id="o" fill="#fff">
                    <use xlink:href="#n"/>
                </mask>
                <use fill="#7885B2" opacity=".499" xlink:href="#n"/>
                <path fill="#828BAF" d="M-2.158 10.72c-2.853-1.647-.894 2.047-.894-1.755l-.006-13.107c0-3.802 3.171-4.092 6.024-2.446l77.056 42.429c2.854 1.646 5.19 6.105 5.19 9.907l1.48 9.045c0 3.802 2.642 8.62-.213 6.973L-2.158 10.72z" mask="url(#o)"/>
            </g>
            <path fill="#23B685" fill-rule="nonzero" d="M200.534 17.07c.971.56 1.753.11 1.756-1a3.845 3.845 0 0 0-1.747-3.024c-.971-.559-1.753-.11-1.756 1a3.845 3.845 0 0 0 1.747 3.025"/>
            <path fill="#FF584F" fill-rule="nonzero" d="M188.746 10.265c.972.558 1.754.11 1.756-1a3.845 3.845 0 0 0-1.743-3.025c-.972-.558-1.754-.11-1.759 1a3.85 3.85 0 0 0 1.746 3.025"/>
            <path fill="#F7B500" fill-rule="nonzero" d="M194.639 13.668c.971.558 1.753.109 1.758-1.001a3.85 3.85 0 0 0-1.746-3.024c-.972-.559-1.754-.11-1.756 1a3.842 3.842 0 0 0 1.744 3.025"/>
            <path fill="#F3F5FC" d="M194.311 99.517l60.307 32.979c1.83 1.061 3.312 3.41 3.312 5.246 0 1.835-1.483 2.463-3.312 1.4l-60.307-32.978c-1.828-1.062-3.311-3.41-3.311-5.246 0-1.836 1.483-2.463 3.311-1.401zM194.311 112.517l60.307 32.979c1.83 1.061 3.312 3.41 3.312 5.246 0 1.835-1.483 2.463-3.312 1.4l-60.307-32.978c-1.828-1.062-3.311-3.41-3.311-5.246 0-1.836 1.483-2.463 3.311-1.401zM194.311 127.517l60.307 32.979c1.83 1.061 3.312 3.41 3.312 5.246 0 1.835-1.483 2.463-3.312 1.4l-60.307-32.978c-1.828-1.062-3.311-3.41-3.311-5.246 0-1.836 1.483-2.463 3.311-1.401zM192.15 53.982c-.6-.34-1.09-1.259-1.09-2.042L191 28.935c0-.784.49-1.147 1.09-.808l15.72 8.796c.599.34 1.09 1.258 1.09 2.042l.1 23.1c0 .784-.49 1.147-1.09.808l-15.76-8.891zM217.15 67.982c-.6-.34-1.09-1.259-1.09-2.042L216 42.935c0-.784.49-1.147 1.09-.808l15.72 8.796c.599.34 1.09 1.258 1.09 2.042l.1 23.1c0 .784-.49 1.147-1.09.808l-15.76-8.891zM192.049 89.94c-.6-.34-1.09-1.259-1.09-2.042L191 63.935c0-.784.49-1.147 1.09-.808l28.709 16.054c.6.34 1.09 1.258 1.09 2.042v24.058c0 .784-.49 1.147-1.09.808l-28.75-16.149zM229.049 110.94c-.6-.34-1.09-1.259-1.09-2.042L228 84.935c0-.784.49-1.147 1.09-.808l28.709 16.054c.6.34 1.09 1.258 1.09 2.042v24.058c0 .784-.49 1.147-1.09.808l-28.75-16.149zM243.15 81.982c-.6-.34-1.09-1.259-1.09-2.042L242 56.935c0-.784.49-1.147 1.09-.808l15.72 8.796c.599.34 1.09 1.258 1.09 2.042l.1 23.1c0 .784-.49 1.147-1.09.808l-15.76-8.891z" opacity=".617"/>
        </g>
        <g>
            <use fill="#F57972" opacity=".696" transform="translate(211 182)" xlink:href="#p"/>
            <path fill="#FFF" fill-rule="nonzero" d="M225.398 213.18a2.648 2.648 0 0 1-.973-.749l-5.874-7.115c-.35-.423-.551-.914-.551-1.34 0-.427.202-.744.551-.866l5.874-2.055c.647-.227 1.608.27 2.146 1.112.537.84.448 1.706-.2 1.932l-4.46 1.561 4.46 5.404c.648.785.737 1.727.2 2.105-.302.21-.736.2-1.173.012zm14.205 8.677a2.723 2.723 0 0 1-1.174-1.023c-.537-.841-.448-1.707.2-1.933l4.46-1.562-4.46-5.403c-.648-.784-.737-1.727-.2-2.104.538-.378 1.499-.048 2.147.737l5.873 7.115c.35.423.551.914.551 1.34 0 .426-.202.743-.551.866l-5.873 2.055c-.285.1-.63.06-.973-.088zm-9.902-1.034c-.14-.06-.283-.14-.425-.24-.808-.568-1.274-1.563-1.04-2.223l5.6-15.778c.233-.66 1.078-.734 1.887-.165.809.568 1.274 1.563 1.04 2.224l-5.598 15.777c-.194.544-.803.69-1.464.405zM316.5 209.98l-.37 2.44 16.66 10.47.35-3.68z"/>
            <path fill="url(#q)" fill-rule="nonzero" d="M3.69 6.84l-.12 45.41 24.04 13.88.13-45.41z" transform="translate(309 154)"/>
            <path fill="url(#r)" d="M29.82 17.64a3.38 3.38 0 0 1 1.53 2.66l-.15 51.91c0 1-.69 1.36-1.54.87L1.48 56.81A3.38 3.38 0 0 1 0 54.16L.15 2.25c0-1 .69-1.37 1.54-.88l28.13 16.27zM3.57 52.25l24 13.88.13-45.41-24-13.88-.13 45.41z" transform="translate(309 154)"/>
            <path fill="#D1D9EE" fill-rule="nonzero" d="M324.64 217.63c.75.43 1.36.08 1.36-.78a3 3 0 0 0-1.35-2.34c-.75-.43-1.36-.08-1.36.78a3 3 0 0 0 1.35 2.34z"/>
            <path fill="url(#s)" fill-rule="nonzero" d="M1 1.16a.85.85 0 0 0-.48.1L1.83.49 2.68 0H3.37l.18.06.21.11L32 16.36c.19.109.366.244.52.4l.07.07a.6.6 0 0 1 .08.08l.12.15c.04.045.076.091.11.14l.1.16.08.13.06.11.06.13.06.13.06.14s0 .1.05.14v.15c.005.06.005.12 0 .18.005.07.005.14 0 .21v.31l-.15 51.91a1.08 1.08 0 0 1-.44 1l-2.17 1.25a1 1 0 0 0 .44-1l.15-51.91a2.56 2.56 0 0 0-.12-.76 3.49 3.49 0 0 0-.33-.74 3.3 3.3 0 0 0-.47-.64 2.78 2.78 0 0 0-.58-.47L1.64 1.36a1.55 1.55 0 0 0-.6-.21L1 1.16z" transform="translate(309 154)"/>
            <path fill="#8292C2" fill-opacity=".5" d="M91.602 69.63l38.796 22.483c2.542 1.376 4.602 4.565 4.602 7.121 0 2.557-2.06 3.513-4.602 2.137L91.602 78.887C89.06 77.511 87 74.322 87 71.766c0-2.557 2.06-3.513 4.602-2.137z" filter="url(#t)" transform="translate(211 154)"/>
        </g>
        <path fill="#96A3D1" d="M295.575 168.362c-.3-.174-.545-.647-.545-1.05L295 155.48c0-.403.245-.59.545-.416l7.86 4.524c.3.174.545.647.545 1.05l.05 11.88c0 .403-.245.59-.545.416l-7.88-4.573zm-.617 26.908c-.5-.29-.909-1.079-.909-1.75L294 173.802c0-.672.409-.984.908-.693l13.1 7.539c.5.29.908 1.079.908 1.75l.084 19.8c0 .672-.409.984-.909.693l-13.133-7.62zm0 8c-.5-.29-.909-1.079-.909-1.75l-.049-1.718c0-.672.409-.984.908-.693l34.008 18.417c.5.29.909 1.078.909 1.75l.084 1.8c0 .672-.41.983-.909.693l-34.042-18.499zm0 8c-.5-.29-.909-1.079-.909-1.75l-.049-1.718c0-.672.409-.984.908-.693l34.008 18.417c.5.29.909 1.078.909 1.75l.084 1.8c0 .672-.41.983-.909.693l-34.042-18.499zm0 7c-.5-.29-.909-1.079-.909-1.75l-.049-1.718c0-.672.409-.984.908-.693l34.008 18.417c.5.29.909 1.078.909 1.75l.084 1.8c0 .672-.41.983-.909.693l-34.042-18.499zm19-12c-.5-.29-.909-1.079-.909-1.75L313 184.802c0-.672.409-.984.908-.693l15.1 8.539c.5.29.908 1.079.908 1.75l.084 19.8c0 .672-.409.984-.909.693l-15.133-8.62zm-5.383-29.908c-.3-.174-.545-.647-.545-1.05L308 163.48c0-.403.245-.59.545-.416l7.86 4.524c.3.174.545.647.545 1.05l.05 11.88c0 .403-.245.59-.545.416l-7.88-4.573zm13 7c-.3-.174-.545-.647-.545-1.05L321 170.48c0-.403.245-.59.545-.416l7.86 4.524c.3.174.545.647.545 1.05l.05 11.88c0 .403-.245.59-.545.416l-7.88-4.573z" opacity=".5"/>
    </g>
</svg>
