<svg xmlns="http://www.w3.org/2000/svg" xmlns:xlink="http://www.w3.org/1999/xlink" width="272" height="263" viewBox="0 0 272 263">
    <defs>
        <linearGradient id="a" x1="20.535%" x2="60.384%" y1="-4.095%" y2="90.434%">
            <stop offset="0%" stop-color="#D3DAED"/>
            <stop offset="100%" stop-color="#99A7D8"/>
        </linearGradient>
        <linearGradient id="b" x1="31.907%" x2="68.586%" y1="2.052%" y2="98.499%">
            <stop offset="1%" stop-color="#EFF1F8"/>
            <stop offset="18%" stop-color="#DBDFF0"/>
            <stop offset="53%" stop-color="#B7C1E3"/>
            <stop offset="82%" stop-color="#A1AEDB"/>
            <stop offset="100%" stop-color="#99A7D8"/>
        </linearGradient>
        <linearGradient id="c" x1="0%" y1="50.002%" y2="50.002%">
            <stop offset="0%" stop-color="#FFF"/>
            <stop offset="100%" stop-color="#5C629E"/>
        </linearGradient>
        <linearGradient id="d" x1="21.317%" x2="72.057%" y1="54.821%" y2="41.241%">
            <stop offset="0%" stop-color="#EBF0FD"/>
            <stop offset="100%" stop-color="#FFF"/>
        </linearGradient>
        <linearGradient id="e" x1="16.79%" x2="80.452%" y1="28.755%" y2="71.955%">
            <stop offset="0%" stop-color="#D9E0F2"/>
            <stop offset="100%" stop-color="#C0C9E9"/>
        </linearGradient>
        <filter id="f" width="125.4%" height="156.4%" x="-12.7%" y="-28.2%" filterUnits="objectBoundingBox">
            <feGaussianBlur in="SourceGraphic" stdDeviation="8"/>
        </filter>
        <linearGradient id="g" x1="4.648%" x2="65.983%" y1="40.781%" y2="56.891%">
            <stop offset="0%" stop-color="#D3DAED"/>
            <stop offset="100%" stop-color="#99A7D8"/>
        </linearGradient>
        <linearGradient id="i" x1="5.291%" x2="96.119%" y1="54.42%" y2="44.724%">
            <stop offset="0%" stop-color="#FFF"/>
            <stop offset="100%" stop-color="#F4F7FD"/>
        </linearGradient>
        <path id="h" d="M2.688 162.247c-3.985-2.325-3.48-6.426 1.121-9.112L113.562 90.82c4.601-2.685 11.627-2.98 15.612-.654l57.34 33.47c3.985 2.326 3.481 6.426-1.12 9.112l-109.79 64.084c-4.602 2.685-11.627 2.98-15.613.653L2.688 162.247z"/>
        <path id="j" d="M36.814 161.181c-3.406-1.99-2.974-5.497.959-7.795l93.809-53.31c3.932-2.297 9.937-2.55 13.343-.56l24.444 13.855c3.405 1.99 2.974 5.497-.959 7.795l-95.759 54.185c-3.933 2.297-9.936 2.55-13.343.56l-22.494-14.73z"/>
        <path id="k" d="M49.373 159.225c-3.072-1.78-2.683-4.917.864-6.972l14.282-7.96c3.546-2.054 9.108-2.861 12.18-1.082l10.659 6.054c3.07 1.779 2.816 4.83-.73 6.885l-15.106 8.641c-3.547 2.055-8.961 2.28-12.034.5l-10.115-6.066z"/>
        <path id="m" d="M5.471 102.585C2.618 100.94.282 96.48.282 92.678L0 4.537C0 .735 2.336-1.03 5.189.617l74.833 42.665c2.854 1.646 5.19 6.105 5.19 9.907l.48 88.604c0 3.802-2.337 5.566-5.191 3.92l-75.03-43.128z"/>
        <path id="o" d="M4.02 31.274C1.924 30.064.207 26.79.207 23.998L0 4.8C0 2.008 1.716.713 3.812 1.922l25.592 14.441c2.097 1.21 3.813 4.484 3.813 7.276l.352 19.537c0 2.792-1.716 4.088-3.813 2.879L4.02 31.274z"/>
        <filter id="q" width="236.7%" height="308%" x="-68.3%" y="-104%" filterUnits="objectBoundingBox">
            <feGaussianBlur in="SourceGraphic" stdDeviation="7.973"/>
        </filter>
        <linearGradient id="r" x1="12.035%" x2="85.754%" y1="18.496%" y2="91.285%">
            <stop offset="0%" stop-color="#A6A1D6"/>
            <stop offset="100%" stop-color="#8077E4"/>
        </linearGradient>
        <linearGradient id="s" x1="0%" y1="50%" y2="50%">
            <stop offset="0%" stop-color="#FFF"/>
            <stop offset="100%" stop-color="#48486A"/>
        </linearGradient>
        <linearGradient id="t" x1="31.882%" x2="67.063%" y1="18.496%" y2="91.285%">
            <stop offset="0%" stop-color="#A6A1D6"/>
            <stop offset="100%" stop-color="#8077E4"/>
        </linearGradient>
    </defs>
    <g fill="none" fill-rule="evenodd">
        <g transform="translate(18 30)">
            <path fill="url(#a)" fill-rule="nonzero" d="M74.416 1.648c1.67-1.545 3.137-2.004 4.4-1.376 1.538.835 40.25 22.534 116.14 65.096 2.053.996 3.08 3.29 3.08 6.883v69.217a977.876 977.876 0 0 0 0 8.19c-.166 1.235-1.22 1.915-1.49 2.188-2.604 1.704-2.686 1.796-4.147 1.153-.853-7.028-2.812-13.575-5.878-19.64l-46.902-67.497-33.536-22.796-22.348-22.36-9.32-19.058z"/>
            <g fill-rule="nonzero">
                <path fill="url(#b)" d="M2.37.604l-.87.62v30.31a11.1 11.1 0 0 0 5 8.66l25.99 15.09 2-1a2.24 2.24 0 0 0 1.25-2v-29a11 11 0 0 0-5-8.63L5.74.404a3.1 3.1 0 0 0-3.37.2z" transform="translate(204 78)"/>
                <path fill="#F9F7F9" d="M209 79.664c-2.77-1.57-5-.26-5 2.92v27.66a11.1 11.1 0 0 0 5 8.66l24.24 14c2.75 1.59 5 .29 5-2.88v-28a11 11 0 0 0-5-8.63L209 79.664z"/>
                <path fill="#99A7D8" d="M230.43 107.304l1.58-.81c.32-.17.34-.76.06-1.32l-1.82-3.55c-.29-.56-.79-.88-1.1-.72l-1.24.63c-.2.11-.5 0-.74-.33s-.3-.36-.45-.53a1.56 1.56 0 0 1-.41-1l.09-2a1.82 1.82 0 0 0-.74-1.44l-2.71-1.78c-.43-.28-.8-.09-.82.42l-.08 2c0 .32-.19.5-.44.45l-.52-.08a1.11 1.11 0 0 1-.7-.62l-1.13-2.2c-.28-.57-.78-.89-1.1-.73l-2 1c-.32.17-.34.76-.06 1.32l1.12 2.18c.19.3.22.674.08 1a4.71 4.71 0 0 0-.22.45c-.11.24-.35.3-.63.12l-1.67-1.11c-.43-.28-.8-.09-.82.43l-.13 3.24a1.82 1.82 0 0 0 .74 1.44l1.68 1.1c.288.214.493.522.58.87.06.25.12.52.19.75.07.23 0 .66-.17.76l-1.25.64c-.32.17-.34.76 0 1.32l1.82 3.55c.29.56.78.88 1.1.72l1.23-.64c.21-.1.5 0 .75.34s.29.36.45.53c.252.273.394.63.4 1l-.08 2c.006.57.28 1.104.74 1.44l2.71 1.78c.43.28.8.09.82-.43l.08-2c0-.32.18-.49.43-.45l.52.08c.317.087.575.316.7.62l1.13 2.2c.29.57.78.89 1.1.72l2-1c.32-.17.35-.76.06-1.32l-1.12-2.18a1.12 1.12 0 0 1-.09-1c.08-.14.15-.28.22-.42.07-.14.35-.31.63-.13l1.66 1.09c.43.29.8.1.82-.42l.13-3.24a1.82 1.82 0 0 0-.74-1.44l-1.67-1.1a1.5 1.5 0 0 1-.58-.88c-.18-.57-.33-1.28-.39-1.32zm-9.9.41c-1.27-3.31-.33-6 1.9-5.75 1.7.21 3.69 2.22 4.64 4.68 1.27 3.31.34 6-1.9 5.75-1.68-.21-3.68-2.22-4.68-4.68h.04z" opacity=".47"/>
                <path fill="#48486A" d="M227.38 111.834l-1.67-1.1a1.45 1.45 0 0 1-.58-.88c-.15-.59-.34-1.29-.35-1.33l1.58-.81c.32-.17.34-.76 0-1.32l-1.82-3.55a1.47 1.47 0 0 0-.73-.73.47.47 0 0 0-.33 0h-1.72v.54a1.12 1.12 0 0 1-.25-.24c-.14-.18-.29-.35-.45-.52a1.6 1.6 0 0 1-.4-1l.08-2a1.82 1.82 0 0 0-.74-1.44l-2.7-1.78a.83.83 0 0 0-.36-.13h-2.15v2.3l1.66.09v.12c0 .32-.18.49-.43.45l-.53-.05a1.06 1.06 0 0 1-.7-.62l-1.13-2.2a1.26 1.26 0 0 0-.88-.76h-2.16v1l-.12.06c-.32.17-.35.75-.06 1.32l1.12 2.18c.19.3.22.674.08 1a4.71 4.71 0 0 0-.22.45c-.11.24-.36.3-.63.12l-1.66-1.09a.7.7 0 0 0-.41-.12h-2.1v2.5h1.61v1.3a1.82 1.82 0 0 0 .74 1.44l1.68 1.1c.29.21.493.52.57.87.06.25.13.52.19.75.06.23 0 .66-.17.76l-1.24.64c-.32.17-.34.76-.06 1.32l4.11 3.58c.2-.1.5 0 .74.34l.45.53c.255.272.4.628.41 1l-.08 2a1.82 1.82 0 0 0 .74 1.44l1.08.71v1.18h1.91a.31.31 0 0 0 .19 0c.2 0 .33-.23.34-.54l.09-2c0-.32.18-.49.43-.45l.52.08c.315.09.573.318.7.62l.6 1.17h-.86v1.8h2.31a.39.39 0 0 0 .18 0l2-1c.32-.17.34-.76.06-1.32l-1.12-2.18a1.09 1.09 0 0 1-.09-1c.08-.138.15-.282.21-.43.11-.24.36-.3.64-.12v1.17h2.1c.22 0 .36-.23.37-.55l.14-3.24a1.82 1.82 0 0 0-.73-1.43zm-7.89 1.78c-1.7-.21-3.69-2.22-4.64-4.68-1.27-3.31-.34-6 1.9-5.75 1.69.21 3.69 2.22 4.64 4.68 1.3 3.31.36 6.03-1.9 5.75z"/>
                <path fill="#5C629E" d="M222.68 108.524l1.57-.81c.32-.17.35-.76.06-1.32l-1.82-3.55c-.29-.56-.78-.89-1.1-.72l-1.24.63c-.2.11-.5 0-.74-.34l-.45-.52a1.62 1.62 0 0 1-.41-1l.09-2a1.82 1.82 0 0 0-.74-1.44l-2.71-1.79c-.43-.28-.79-.09-.82.42l-.08 2c0 .32-.19.49-.44.45l-.51-.08a1.1 1.1 0 0 1-.71-.62l-1.14-2.2c-.29-.57-.78-.89-1.1-.73l-2 1c-.32.17-.34.75-.05 1.32l1.15 2.21c.19.3.224.672.09 1a4.73 4.73 0 0 0-.23.45c-.1.24-.35.3-.63.12l-1.66-1.09c-.43-.28-.79-.09-.81.42l-.14 3.25c.012.571.29 1.104.75 1.44l1.63 1.03c.293.21.5.52.58.87.06.25.13.52.19.75.06.23 0 .66-.17.76l-1.25.64c-.32.17-.34.76 0 1.32l1.82 3.55c.29.56.78.88 1.1.72l1.24-.64c.2-.1.49 0 .74.34l.45.53c.25.275.396.63.41 1l-.09 2c.012.571.29 1.104.75 1.44l2.7 1.78c.43.28.8.09.82-.43l.08-2c0-.32.19-.49.44-.45l.51.08a1.1 1.1 0 0 1 .71.62l1.13 2.2c.28.57.78.89 1.1.72l2-1c.32-.17.34-.76 0-1.32l-1.12-2.18a1.08 1.08 0 0 1-.08-1l.21-.43c.11-.24.36-.3.63-.12l1.66 1.09c.43.28.8.1.82-.42l.14-3.24a1.82 1.82 0 0 0-.74-1.44l-1.68-1.1a1.55 1.55 0 0 1-.58-.88c-.13-.55-.32-1.25-.33-1.29zm-9.9.41c-1.28-3.31-.34-6 1.89-5.75 1.7.21 3.7 2.22 4.64 4.68 1.28 3.31.34 6-1.89 5.75-1.7-.21-3.7-2.22-4.64-4.68z"/>
            </g>
            <g fill-rule="nonzero">
                <path fill="url(#c)" d="M2.18.582l-.8.56v27.55a10.09 10.09 0 0 0 4.55 7.88l23.58 13.67 1.87-.91a2 2 0 0 0 1.13-1.82v-26.34a10 10 0 0 0-4.56-7.84L5.23.332a2.83 2.83 0 0 0-3.05.25z" transform="translate(204 31)"/>
                <path fill="#5C629E" d="M208.56 32.402c-2.51-1.43-4.56-.23-4.56 2.66v25.14a10.08 10.08 0 0 0 4.51 7.88l22 12.72c2.5 1.44 4.55.26 4.55-2.63v-25.44a10 10 0 0 0-4.57-7.84l-21.93-12.49z"/>
                <path fill="#FFF" d="M212.9 50.072v-1.85l5.11 2.92v6.31c0 1.16-.3 1.85-.9 2.07a2.81 2.81 0 0 1-2.33-.47 8.9 8.9 0 0 1-3.08-3.11l1.13-.9a5.52 5.52 0 0 0 1.86 2 .84.84 0 0 0 .79.11c.22-.106.33-.396.33-.87v-4.55l-2.91-1.66zM222.64 55.722c-.21.05-.32.22-.32.5.021.334.16.649.39.89a14.72 14.72 0 0 0 1.78 1.61 11.33 11.33 0 0 1 2.17 2.26c.5.708.769 1.554.77 2.42 0 .87-.33 1.38-1 1.55a3.74 3.74 0 0 1-2.6-.69 12.74 12.74 0 0 1-4.2-4.1l1.31-.83a10.1 10.1 0 0 0 2.93 3.05c.277.196.611.294.95.28.23 0 .34-.2.34-.49a1.48 1.48 0 0 0-.36-.9 10.9 10.9 0 0 0-1.45-1.35 14 14 0 0 1-2.51-2.48 4.18 4.18 0 0 1-.79-2.47c0-.92.34-1.44 1-1.56a4 4 0 0 1 2.51.69 11.35 11.35 0 0 1 2 1.46 12.79 12.79 0 0 1 1.71 1.92l-1.11.94a9.08 9.08 0 0 0-2.64-2.46 1.27 1.27 0 0 0-.88-.24z"/>
            </g>
            <path fill="url(#d)" d="M76.704 1.512l115.695 65.93c1.412.804 2.556 2.6 2.556 4.01v80.45c0 1.41-1.144 1.901-2.556 1.097L76.704 87.069c-1.412-.805-2.557-2.6-2.557-4.011V2.608c0-1.41 1.145-1.901 2.557-1.096z"/>
            <path fill="url(#e)" fill-rule="nonzero" d="M84.648 15.502l99.167 56.4c1.21.688 2.192 2.225 2.192 3.431v65.627c0 1.207-.981 1.627-2.192.939l-99.167-56.4c-1.21-.688-2.191-2.224-2.191-3.43V16.44c0-1.207.98-1.627 2.191-.939z"/>
            <path fill="#8292C2" fill-opacity=".5" fill-rule="nonzero" d="M0 130.359v8.007c.052 5.743 1.314 9.186 3.786 10.33 2.355 1.33 38.622 22.374 108.802 63.131 7.147 3.93 12.595 4.657 16.342 2.183 3.748-2.475 22.421-13.96 56.021-34.456 2.835-1.727 4.252-3.431 4.252-5.114v-14.677c.215-1.315-.46-2.838-2.025-4.571-1.564-1.733-29.21-.085-82.937 4.946L12.712 138.96 0 130.359z" filter="url(#f)" opacity=".5"/>
            <path fill="url(#g)" fill-rule="nonzero" d="M0 127.546v7.435c.052 1.487 1.314 2.802 3.786 3.945 2.355 1.33 38.622 22.374 108.802 63.132 7.147 3.93 12.595 4.657 16.342 2.182 3.748-2.475 22.421-13.96 56.021-34.456 2.835-1.726 4.252-3.43 4.252-5.114 0-1.683.013-3.602.039-5.757.096-1.295-.598-2.78-2.083-4.452-1.485-1.673-29.124-3.038-82.918-4.093l-91.529-17.346L0 127.546z"/>
            <use fill="url(#i)" transform="matrix(-1 0 0 1 189.203 0)" xlink:href="#h"/>
            <use fill="#E0E7F8" fill-rule="nonzero" transform="matrix(-1 0 0 1 206.183 0)" xlink:href="#j"/>
            <mask id="l" fill="#fff">
                <use xlink:href="#k"/>
            </mask>
            <use fill="#D1D9EE" fill-rule="nonzero" transform="matrix(-1 0 0 1 136.788 0)" xlink:href="#k"/>
            <path fill="#B7C2E5" d="M134.551 41.884c1.236 1.13 2.237.95 2.237-.403s-1.001-3.366-2.237-4.497c-1.235-1.13-2.237-.95-2.237.403s1.002 3.366 2.237 4.497z" mask="url(#l)"/>
            <g fill="#FFF" mask="url(#l)">
                <path d="M124.341 77.458c-2.567-1.512-4.649-5-4.649-7.789 0-2.79 2.082-3.825 4.649-2.313s4.649 5 4.649 7.789c0 2.79-2.082 3.825-4.649 2.313zm0-11.145c-1.284-.756-2.324-2.5-2.324-3.894 0-1.395 1.04-1.913 2.324-1.157 1.284.756 2.324 2.5 2.324 3.894 0 1.395-1.04 1.913-2.324 1.157z"/>
            </g>
        </g>
        <g transform="translate(113 29)">
            <mask id="n" fill="#fff">
                <use xlink:href="#m"/>
            </mask>
            <use fill="#2645B5" opacity=".746" xlink:href="#m"/>
            <path fill="#2645B5" d="M-2.158 10.72c-2.853-1.647-.894 2.047-.894-1.755l-.006-13.107c0-3.802 3.171-4.092 6.024-2.446l77.056 42.429c2.854 1.646 5.19 6.105 5.19 9.907l1.48 9.045c0 3.802 2.642 8.62-.213 6.973L-2.158 10.72z" mask="url(#n)"/>
        </g>
        <path fill="#23B685" fill-rule="nonzero" d="M129.534 46.07c.971.56 1.753.11 1.756-1a3.845 3.845 0 0 0-1.747-3.024c-.971-.559-1.753-.11-1.756 1a3.845 3.845 0 0 0 1.747 3.025"/>
        <path fill="#FF584F" fill-rule="nonzero" d="M117.746 39.265c.972.558 1.754.11 1.756-1a3.845 3.845 0 0 0-1.743-3.025c-.972-.558-1.754-.11-1.759 1a3.85 3.85 0 0 0 1.746 3.025"/>
        <path fill="#F7B500" fill-rule="nonzero" d="M123.639 42.668c.971.558 1.753.109 1.758-1.001a3.85 3.85 0 0 0-1.746-3.024c-.972-.559-1.754-.11-1.756 1a3.842 3.842 0 0 0 1.744 3.025"/>
        <path fill="#FDFDFF" d="M146.598 72.517l40.307 22.979c1.829 1.061 3.311 3.41 3.311 5.246 0 1.835-1.482 2.463-3.311 1.4l-40.307-22.978c-1.83-1.062-3.312-3.41-3.312-5.246 0-1.836 1.483-2.463 3.312-1.401zM146.311 86.32l22.028 12.632c1.829 1.062 3.311 3.41 3.311 5.246 0 1.836-1.482 2.463-3.31 1.401L146.31 92.967C144.483 91.905 143 89.556 143 87.72c0-1.835 1.483-2.462 3.311-1.4z"/>
        <g>
            <path fill="#93A1D1" d="M128.302 61.46C122.615 58.191 118 60.595 118 66.828c0 3.214 1.219 6.809 3.19 9.996v.015c1.847 2.988 4.354 5.622 7.112 7.207 2.757 1.587 5.268 1.838 7.114.956 1.97-.919 3.189-3.113 3.189-6.329 0-6.231-4.617-13.944-10.303-17.213"/>
            <path fill="#FFF" d="M128.302 74.676c1.914 1.1 3.455.286 3.455-1.797 0-2.084-1.541-4.672-3.455-5.772-1.9-1.093-3.453-.283-3.453 1.8s1.554 4.677 3.453 5.77M128.302 75.426c-3.278-1.887-6.064-1.2-7.111 1.399v.013c1.846 2.988 4.353 5.622 7.11 7.209 2.758 1.585 5.269 1.836 7.115.955-1.047-3.8-3.834-7.69-7.114-9.576"/>
        </g>
        <path fill="#58E9E2" d="M121.15 119.982c-.6-.34-1.09-1.259-1.09-2.042L120 94.935c0-.784.49-1.147 1.09-.808l15.72 8.796c.599.34 1.09 1.258 1.09 2.042l.1 23.1c0 .784-.49 1.147-1.09.808l-15.76-8.891zM146.15 133.982c-.6-.34-1.09-1.259-1.09-2.042l-.06-23.005c0-.784.49-1.147 1.09-.808l15.72 8.796c.599.34 1.09 1.258 1.09 2.042l.1 23.1c0 .784-.49 1.147-1.09.808l-15.76-8.891zM172.15 147.982c-.6-.34-1.09-1.259-1.09-2.042l-.06-23.005c0-.784.49-1.147 1.09-.808l15.72 8.796c.599.34 1.09 1.258 1.09 2.042l.1 23.1c0 .784-.49 1.147-1.09.808l-15.76-8.891z" opacity=".746"/>
        <g>
            <g transform="translate(222 161)">
                <path fill="#47C8C1" d="M3.453 1.96l-.261.005c-1.149-.274-1.24-.106-1.73.055l1.67-.965c.578-.337 1.7-.85 2.583-.342l26.85 15.506c1.753 1.012 2.894 3.337 2.888 5.349l.15 21.395c-.004.999-.361 1.705-.934 2.037l-1.86 1.154c.573-.333.899-1.837.903-2.838l-.626-21.501c-.792-2.25-1.613-3.627-2.735-4.622L3.453 1.96z" opacity=".746"/>
                <mask id="p" fill="#fff">
                    <use xlink:href="#o"/>
                </mask>
                <use fill="#58E9E2" opacity=".746" xlink:href="#o"/>
                <path fill="#FFF" fill-rule="nonzero" d="M10.938 25.41a1.816 1.816 0 0 1-.666-.524l-4.018-4.977c-.238-.296-.376-.639-.376-.937 0-.298.138-.52.376-.606l4.018-1.437c.443-.159 1.1.19 1.468.778.368.588.307 1.193-.136 1.351L8.553 20.15l3.05 3.78c.444.548.505 1.207.137 1.471-.206.148-.503.14-.802.009zm9.716 6.068a1.875 1.875 0 0 1-.802-.716c-.368-.588-.307-1.193.136-1.352l3.051-1.092-3.051-3.779c-.443-.548-.504-1.207-.136-1.471.367-.264 1.025-.034 1.468.515l4.017 4.976c.24.296.377.64.377.938 0 .298-.138.52-.377.605L21.32 31.54c-.195.07-.431.041-.666-.062zm-6.773-.723a1.618 1.618 0 0 1-.29-.168c-.553-.397-.872-1.093-.711-1.555l3.83-11.035c.16-.461.737-.513 1.29-.116.554.398.872 1.094.712 1.556l-3.83 11.035c-.132.38-.548.482-1 .283z" mask="url(#p)"/>
            </g>
            <path fill="#8292C2" fill-opacity=".5" d="M5.208 36.687l24.584 11.529C32.668 49.717 35 53.195 35 55.983c0 2.789-2.332 3.832-5.208 2.33L5.208 46.784C2.332 45.283 0 41.805 0 39.017c0-2.789 2.332-3.832 5.208-2.33z" filter="url(#q)" transform="translate(220 161)"/>
        </g>
        <g>
            <path fill="url(#r)" fill-rule="nonzero" d="M4.544.311L30.53 15.172c1.254.729 2.279 2.5 2.274 3.945l-2.266 1.316c.002-1.445-1.02-3.218-2.276-3.942L2.276 1.627c-.632-.364-1.205-.395-1.62-.155L2.922.156c.415-.243.99-.21 1.622.155zm25.981 23.767l.013-3.645 2.266-1.316-.01 3.648-.01.006c.002 1.443.827 3.79 1.844 5.218l-2.269 1.317c-1.008-1.428-1.843-3.78-1.843-5.222l.01-.006zm-.036 12.944c.002-.83.34-1.457.86-1.758l2.266-1.319c-.52.304-.855.93-.858 1.759l-.012 4.131-2.266 1.319.01-4.132zm1.588 4.275l-2.266 1.317c.408-.243.666-.744.668-1.458l2.266-1.319c-.002.715-.257 1.22-.668 1.46zm2.56-13.308L38.201 33l-2.269 1.32-3.563-5.014 2.268-1.317zm4.032 6.884c-.757.437-1.514.876-2.268 1.316.364-.211.22-.9-.469-1.87l2.269-1.316c.69.966.83 1.659.468 1.87z" transform="translate(58 48)"/>
            <path fill="#B0AAF7" d="M86.262 64.491c1.255.729 2.278 2.497 2.276 3.942l-.013 3.644c0 1.442.826 3.793 1.844 5.222l3.563 5.02c1.018 1.43.843 2.254-.391 1.824l-2.803-.971c-1.231-.425-2.244.403-2.25 1.846v4.129c0 1.442-1.036 2.028-2.29 1.304L60.277 75.627c-1.256-.728-2.28-2.499-2.276-3.942l.058-20.718c0-1.457 1.035-2.033 2.29-1.309l25.914 14.833z"/>
            <path fill="#FDFDFF" d="M66.375 59.638l17.022 9.777c1.828 1.061 2.434 1.992 2.434 3.827 0 1.836-1.606 1.882-3.434.82l-17.022-9.777C63.546 63.223 63 62.466 63 60.631c0-1.836 1.546-2.055 3.375-.993zM74.608 73.148l7.756 4.346c1.828 1.061 2.434 1.992 2.434 3.827 0 1.836-1.606 1.882-3.434.82l-7.756-4.346c-1.828-1.062-2.374-1.819-2.374-3.654 0-1.836 1.546-2.055 3.374-.993z"/>
            <g fill-rule="nonzero">
                <path fill="url(#s)" d="M2.05.5l-.75.53v25.89a9.5 9.5 0 0 0 4.28 7.41l22.16 12.89 1.75-.86a1.91 1.91 0 0 0 1.07-1.71V19.9a9.39 9.39 0 0 0-4.29-7.37L4.92.35A2.66 2.66 0 0 0 2.05.5z" transform="translate(58 87)"/>
                <path fill="#5C629E" d="M62.29 88.3c-2.36-1.34-4.29-.22-4.29 2.5v23.62a9.49 9.49 0 0 0 4.27 7.41l20.71 11.95c2.35 1.36 4.28.25 4.28-2.47v-23.89a9.41 9.41 0 0 0-4.3-7.37L62.29 88.3z"/>
                <g fill="#231F20" opacity=".32">
                    <path d="M68.64 103.85l-.34-.21c-.47-.28-.71-.2-.71.23v3.43c0 .58-.2.9-.59.94a2.59 2.59 0 0 1 .59 1.63v3.61c0 .37.35.75 1 1.16v2l-.88-.51a4.28 4.28 0 0 1-2.4-3.79v-3.4a.93.93 0 0 0-.37-.89l-.74-.44v-2l.74.43c.25.15.37 0 .37-.48v-3.26c0-1.58.803-1.914 2.41-1l.88.52.04 2.03zM75.5 118.72l.34.21c.47.28.7.2.7-.23v-3.46c0-.59.2-.9.6-.95a2.53 2.53 0 0 1-.59-1.62v-3.62c0-.36-.35-.75-1-1.16v-2l.88.52a4.25 4.25 0 0 1 2.4 3.78v3.4a1 1 0 0 0 .37.9l.73.43v2l-.73-.43c-.25-.14-.37 0-.37.48v3.33c0 1.58-.8 1.913-2.4 1l-.88-.52-.05-2.06z"/>
                </g>
                <path fill="#EBE9EC" d="M66.32 103.3l-1.16.58.12 2.91c0 .58-.2.9-.6.94a2.55 2.55 0 0 1 .6 1.63v3.61c0 .37.35.75 1 1.16v2l-1.16.57c-1.6-.94-2.12-3.3-2.12-4.88v-3.4a.93.93 0 0 0-.37-.89l-.73-.44v-2l.74.43c.24.153.36-.007.36-.48v-3.33c0-1.58.8-1.914 2.4-1l.88.52.04 2.07zM73.14 118.14l.34.21c.47.28.71.2.71-.23v-3.46c0-.59.2-.9.59-1a2.59 2.59 0 0 1-.59-1.62v-3.62c0-.36-.35-.75-1-1.16l-1.16-1.44 1.16-.58.88.52a4.25 4.25 0 0 1 2.4 3.78v3.4a1 1 0 0 0 .37.9l.74.43v2l-1.16.58c-.25-.14.05 2.8.05 2.8 0 1.58-2.12 2.07-2.12 2.07l-1.17-1.63-.04-1.95z"/>
                <path fill="#EBE9EC" d="M60.77 105.65h1.74v1.18l-1.43-.29z"/>
                <path fill="#FFF" d="M65.16 103.85l-.33-.21c-.47-.28-.71-.2-.71.23v3.43c0 .58-.2.9-.6.94a2.55 2.55 0 0 1 .6 1.63v3.61c0 .37.34.75 1 1.16v2l-.88-.51a4.28 4.28 0 0 1-2.4-3.79v-3.4a1 1 0 0 0-.36-.89l-.74-.44v-2l.74.43c.24.15.37 0 .37-.48v-3.26c0-1.58.8-1.914 2.4-1l.88.52.03 2.03zM71.99 118.72l.33.21c.47.28.71.2.71-.23v-3.46c0-.59.2-.9.59-.95a2.59 2.59 0 0 1-.59-1.62v-3.62c0-.36-.34-.75-1-1.16v-2l.88.52a4.25 4.25 0 0 1 2.41 3.78v3.4a1 1 0 0 0 .37.9l.74.43v2l-.74-.43c-.25-.14-.37 0-.37.48v3.33c0 1.58-.8 1.913-2.4 1l-.88-.52-.05-2.06z"/>
            </g>
            <g>
                <path fill="url(#t)" fill-rule="nonzero" d="M2.18.534l-.79.56v27.55a10.08 10.08 0 0 0 4.54 7.88l23.58 13.72 1.87-.91a2 2 0 0 0 1.13-1.82v-26.34a10 10 0 0 0-4.51-7.84L5.24.374a2.83 2.83 0 0 0-3.06.16z" transform="translate(58)"/>
                <path fill="#B0AAF7" d="M62.57 1.404C60.05.004 58 1.174 58 4.064v25.14a10.07 10.07 0 0 0 4.55 7.87l22 12.73c2.5 1.44 4.55.26 4.55-2.63v-25.44a10 10 0 0 0-4.57-7.84L62.57 1.404z"/>
                <path fill="#FFF" fill-rule="nonzero" d="M64.88 17.904c-.16.07-.25.23-.25.5a1.3 1.3 0 0 0 .29.81c.423.493.888.948 1.39 1.36a8.63 8.63 0 0 1 1.69 1.94c.4.67.602 1.44.58 2.22 0 .81-.28 1.33-.8 1.53a2.41 2.41 0 0 1-2-.41 9.47 9.47 0 0 1-3.26-3.51l1-.9a7.56 7.56 0 0 0 2.27 2.63 1 1 0 0 0 .75.18c.18-.05.27-.22.27-.49a1.41 1.41 0 0 0-.27-.82 7.68 7.68 0 0 0-1.14-1.14 10 10 0 0 1-1.94-2.12 4.06 4.06 0 0 1-.6-2.27c0-.86.28-1.38.81-1.54a2.51 2.51 0 0 1 2 .43 7.71 7.71 0 0 1 1.53 1.21 9.23 9.23 0 0 1 1.33 1.66l-.89 1a6.59 6.59 0 0 0-2-2.09.83.83 0 0 0-.76-.18zM70 28.224l.12-9.11 1.71 1-.09 7.29 3.26 1.9v1.81zM83.9 31.654a3.53 3.53 0 0 1-.65 2.2 1.89 1.89 0 0 1-1.66.74c.08.187.183.361.31.52.123.154.272.286.44.39.14.082.292.143.45.18a.72.72 0 0 0 .36 0 .78.78 0 0 0 .41-.3l.87 1.78a2.15 2.15 0 0 1-2.37-.16 4.7 4.7 0 0 1-1.29-1.19 5.84 5.84 0 0 1-1-1.77 7.94 7.94 0 0 1-2.77-3.04 8 8 0 0 1-1.12-4 2.86 2.86 0 0 1 1.21-2.68 2.79 2.79 0 0 1 2.88.32 7.91 7.91 0 0 1 2.85 3 8 8 0 0 1 1.08 4.01zm-1.75-1a5.17 5.17 0 0 0-.63-2.46 4.27 4.27 0 0 0-1.61-1.8 1.42 1.42 0 0 0-1.63-.08 2 2 0 0 0-.68 1.69 5.11 5.11 0 0 0 .63 2.45 4.33 4.33 0 0 0 1.61 1.8 1.42 1.42 0 0 0 1.63.08 2 2 0 0 0 .68-1.69v.01z"/>
            </g>
        </g>
    </g>
</svg>
