<svg xmlns="http://www.w3.org/2000/svg" xmlns:xlink="http://www.w3.org/1999/xlink" width="290" height="233" viewBox="0 0 290 233">
    <defs>
        <linearGradient id="a" x1="20.535%" x2="60.384%" y1="-4.095%" y2="90.434%">
            <stop offset="0%" stop-color="#D3DAED"/>
            <stop offset="100%" stop-color="#99A7D8"/>
        </linearGradient>
        <filter id="b" width="211.6%" height="260%" x="-55.8%" y="-80%" filterUnits="objectBoundingBox">
            <feGaussianBlur in="SourceGraphic" stdDeviation="8"/>
        </filter>
        <linearGradient id="c" x1="21.317%" x2="72.057%" y1="54.821%" y2="41.241%">
            <stop offset="0%" stop-color="#EBF0FD"/>
            <stop offset="100%" stop-color="#FFF"/>
        </linearGradient>
        <linearGradient id="d" x1="16.79%" x2="80.452%" y1="28.755%" y2="71.955%">
            <stop offset="0%" stop-color="#D9E0F2"/>
            <stop offset="100%" stop-color="#C0C9E9"/>
        </linearGradient>
        <filter id="e" width="125.4%" height="156.4%" x="-12.7%" y="-28.2%" filterUnits="objectBoundingBox">
            <feGaussianBlur in="SourceGraphic" stdDeviation="8"/>
        </filter>
        <linearGradient id="f" x1="4.648%" x2="65.983%" y1="40.781%" y2="56.891%">
            <stop offset="0%" stop-color="#D3DAED"/>
            <stop offset="100%" stop-color="#99A7D8"/>
        </linearGradient>
        <linearGradient id="h" x1="5.291%" x2="96.119%" y1="54.42%" y2="44.724%">
            <stop offset="0%" stop-color="#FFF"/>
            <stop offset="100%" stop-color="#F4F7FD"/>
        </linearGradient>
        <path id="g" d="M2.688 162.247c-3.985-2.325-3.48-6.426 1.121-9.112L113.562 90.82c4.601-2.685 11.627-2.98 15.612-.654l57.34 33.47c3.985 2.326 3.481 6.426-1.12 9.112l-109.79 64.084c-4.602 2.685-11.627 2.98-15.613.653L2.688 162.247z"/>
        <path id="i" d="M36.814 161.181c-3.406-1.99-2.974-5.497.959-7.795l93.809-53.31c3.932-2.297 9.937-2.55 13.343-.56l24.444 13.855c3.405 1.99 2.974 5.497-.959 7.795l-95.759 54.185c-3.933 2.297-9.936 2.55-13.343.56l-22.494-14.73z"/>
        <path id="j" d="M49.373 159.225c-3.072-1.78-2.683-4.917.864-6.972l14.282-7.96c3.546-2.054 9.108-2.861 12.18-1.082l10.659 6.054c3.07 1.779 2.816 4.83-.73 6.885l-15.106 8.641c-3.547 2.055-8.961 2.28-12.034.5l-10.115-6.066z"/>
        <filter id="k" width="165.4%" height="195.9%" x="-32.7%" y="-47.9%" filterUnits="objectBoundingBox">
            <feGaussianBlur in="SourceGraphic" stdDeviation="8"/>
        </filter>
        <path id="l" d="M.001 2.406L0 47.488c-.004 1.3.905 2.873 2.033 3.523l56.409 32.531c1.126.65 2.042.13 2.046-1.17V37.29c.003-1.292-.906-2.872-2.032-3.522L2.046 1.236C1.72 1.047 1.41.958 1.134.958.465.958.003 1.49.001 2.406"/>
        <linearGradient id="n" x1="40.849%" x2="70.293%" y1="59.217%" y2="-30.983%">
            <stop offset="0%" stop-color="#FF645D"/>
            <stop offset="13.63%" stop-color="#FF584F"/>
            <stop offset="42.43%" stop-color="#FE7F79"/>
            <stop offset="62.97%" stop-color="#FAA6A2"/>
            <stop offset="79.73%" stop-color="#FE7F79"/>
            <stop offset="100%" stop-color="#FE7F79"/>
        </linearGradient>
        <linearGradient id="o" x1="49.707%" x2="43.845%" y1="55.211%" y2="253.466%">
            <stop offset="0%" stop-color="#FF584F"/>
            <stop offset="18.309%" stop-color="#FE7F79"/>
            <stop offset="27.3%" stop-color="#FE7F79"/>
            <stop offset="75.86%" stop-color="#201255"/>
            <stop offset="100%" stop-color="#13002A"/>
        </linearGradient>
    </defs>
    <g fill="none" fill-rule="evenodd">
        <g transform="translate(18)">
            <path fill="url(#a)" fill-rule="nonzero" d="M74.416 1.648c1.67-1.545 3.137-2.004 4.4-1.376 1.538.835 40.25 22.534 116.14 65.096 2.053.996 3.08 3.29 3.08 6.883v69.217a977.876 977.876 0 0 0 0 8.19c-.166 1.235-1.22 1.915-1.49 2.188-2.604 1.704-2.686 1.796-4.147 1.153-.853-7.028-2.812-13.575-5.878-19.64l-46.902-67.497-33.536-22.796-22.348-22.36-9.32-19.058z"/>
            <g transform="translate(138 24)">
                <path fill="#8292C2" fill-opacity=".5" fill-rule="nonzero" d="M115.655 158v19.09c0 6.028-9.621 10.91-21.5 10.91s-21.5-4.882-21.5-10.91V158c0 6.027 9.621 10.91 21.5 10.91s21.5-4.883 21.5-10.91z" filter="url(#b)" opacity=".5"/>
                <path fill="#D1D9EE" fill-rule="nonzero" d="M115.655 156v19.09c0 6.028-9.621 10.91-21.5 10.91s-21.5-4.882-21.5-10.91V156c0 6.027 9.621 10.91 21.5 10.91s21.5-4.883 21.5-10.91z"/>
                <path fill="#6F83CD" d="M94.155 148.91c11.879 0 21.5-4.883 21.5-10.91v19.09c0 6.028-9.621 10.91-21.5 10.91s-21.5-4.882-21.5-10.91V138c0 6.027 9.621 10.91 21.5 10.91z" opacity=".9"/>
                <ellipse cx="94.155" cy="138" fill="#E0E7F8" fill-rule="nonzero" rx="21.5" ry="11"/>
                <path stroke="#FF635A" d="M93.341 135.638V9.173a9 9 0 0 0-9-9H9.153a9 9 0 0 0-9 9v.85"/>
                <circle cx="93" cy="137" r="2" fill="#FF635A"/>
            </g>
            <path fill="url(#c)" d="M76.704 1.512l115.695 65.93c1.412.804 2.556 2.6 2.556 4.01v80.45c0 1.41-1.144 1.901-2.556 1.097L76.704 87.069c-1.412-.805-2.557-2.6-2.557-4.011V2.608c0-1.41 1.145-1.901 2.557-1.096z"/>
            <path fill="url(#d)" fill-rule="nonzero" d="M84.648 15.502l99.167 56.4c1.21.688 2.192 2.225 2.192 3.431v65.627c0 1.207-.981 1.627-2.192.939l-99.167-56.4c-1.21-.688-2.191-2.224-2.191-3.43V16.44c0-1.207.98-1.627 2.191-.939z"/>
            <path fill="#8292C2" fill-opacity=".5" fill-rule="nonzero" d="M0 130.359v8.007c.052 5.743 1.314 9.186 3.786 10.33 2.355 1.33 38.622 22.374 108.802 63.131 7.147 3.93 12.595 4.657 16.342 2.183 3.748-2.475 22.421-13.96 56.021-34.456 2.835-1.727 4.252-3.431 4.252-5.114v-14.677c.215-1.315-.46-2.838-2.025-4.571-1.564-1.733-29.21-.085-82.937 4.946L12.712 138.96 0 130.359z" filter="url(#e)" opacity=".5"/>
            <path fill="url(#f)" fill-rule="nonzero" d="M0 127.546v7.435c.052 1.487 1.314 2.802 3.786 3.945 2.355 1.33 38.622 22.374 108.802 63.132 7.147 3.93 12.595 4.657 16.342 2.182 3.748-2.475 22.421-13.96 56.021-34.456 2.835-1.726 4.252-3.43 4.252-5.114 0-1.683.013-3.602.039-5.757.096-1.295-.598-2.78-2.083-4.452-1.485-1.673-29.124-3.038-82.918-4.093l-91.529-17.346L0 127.546z"/>
            <use fill="url(#h)" transform="matrix(-1 0 0 1 189.203 0)" xlink:href="#g"/>
            <use fill="#E0E7F8" fill-rule="nonzero" transform="matrix(-1 0 0 1 206.183 0)" xlink:href="#i"/>
            <use fill="#D1D9EE" fill-rule="nonzero" transform="matrix(-1 0 0 1 136.788 0)" xlink:href="#j"/>
        </g>
        <path fill="#8292C2" fill-opacity=".5" d="M13.031 65.955l59.278 34.113c3.883 2.089 7.031 6.927 7.031 10.806 0 3.878-3.148 5.33-7.03 3.24L13.03 80.003C9.148 77.913 6 73.075 6 69.196c0-3.878 3.148-5.33 7.031-3.24z" filter="url(#k)" opacity=".7" transform="translate(114 36)"/>
        <g transform="translate(126 36)">
            <mask id="m" fill="#fff">
                <use xlink:href="#l"/>
            </mask>
            <use fill="#2645B5" opacity=".746" xlink:href="#l"/>
            <g mask="url(#m)">
                <path fill="#52BBBD" d="M28.694 40.413c-1.04-.828-1.605-1.724-1.694-2.688 0-1.273.739-1.492 1.694-.94l25.21 14.555c.956.551 1.738 1.045 1.738 2.318 0 1.271-.782 1.862-1.738 1.31l-25.21-14.555z"/>
                <path fill="#C78BBC" d="M28.694 33.913c-1.04-.828-1.605-1.724-1.694-2.688 0-1.273.739-1.492 1.694-.94l25.21 14.555c.956.551 1.738 1.045 1.738 2.318 0 1.271-.782 1.862-1.738 1.31l-25.21-14.555z"/>
                <path fill="#52BBBD" d="M28.694 56.99c-1.04-.827-1.605-1.723-1.694-2.687 0-1.274.739-1.493 1.694-.941l25.21 14.555c.956.552 1.738 1.045 1.738 2.319 0 1.27-.782 1.862-1.738 1.31l-25.21-14.555z"/>
                <path fill="#53CFE8" d="M28.694 46.913c-1.04-.828-1.605-1.724-1.694-2.688 0-1.273.739-1.492 1.694-.94l13.705 8.037c.955.552 1.737 1.045 1.737 2.319 0 1.27-.782 1.862-1.737 1.31l-13.705-8.038z"/>
                <path fill="#F3D65D" d="M28.694 62.49c-1.04-.827-1.605-1.723-1.694-2.687 0-1.274.739-1.493 1.694-.941L42.399 66.9c.955.551 1.737 1.045 1.737 2.318 0 1.271-.782 1.862-1.737 1.31l-13.705-8.037z"/>
            </g>
            <path fill="#224384" d="M0-.031l60.488 34.75v10L0 9.968z" mask="url(#m)"/>
        </g>
        <path fill="#6F83CD" d="M114 48.153V84.06c-.003 1.035.718 2.289 1.613 2.807l44.763 25.91c.894.518 1.62.103 1.624-.932V75.938c.003-1.03-.719-2.287-1.612-2.805L115.624 47.22c-.26-.15-.506-.221-.724-.221-.531 0-.898.423-.9 1.153" opacity=".9"/>
        <path fill="#FF584F" d="M130.426 45.76c.787.564 1.426.242 1.426-.72 0-.96-.639-2.197-1.426-2.762-.788-.564-1.426-.243-1.426.719 0 .96.638 2.198 1.426 2.762z"/>
        <path fill="#F7B500" d="M135.215 48.616c.788.565 1.426.243 1.426-.718s-.638-2.198-1.426-2.763c-.787-.564-1.426-.243-1.426.719 0 .96.639 2.198 1.426 2.762z"/>
        <path fill="#23B685" d="M140.005 51.473c.787.565 1.426.243 1.426-.718s-.639-2.198-1.426-2.762c-.788-.565-1.426-.243-1.426.718s.638 2.198 1.426 2.762z"/>
        <path fill="#FFF" fill-rule="nonzero" d="M126.887 80.6a2.472 2.472 0 0 1-.905-.713l-5.469-6.776c-.325-.403-.513-.87-.513-1.277 0-.406.188-.708.513-.824l5.469-1.958c.602-.216 1.497.258 1.998 1.06.5.8.417 1.624-.186 1.84l-4.153 1.486 4.153 5.147c.603.747.686 1.644.186 2.004-.281.201-.686.191-1.093.012zm13.226 8.264a2.553 2.553 0 0 1-1.093-.975c-.5-.8-.417-1.625.186-1.84l4.153-1.488-4.153-5.146c-.603-.747-.686-1.644-.186-2.004.501-.36 1.396-.045 1.999.702l5.468 6.776c.325.403.513.87.513 1.277 0 .406-.188.708-.513.824l-5.468 1.958c-.265.095-.587.056-.906-.084zm-9.219-.985a2.202 2.202 0 0 1-.395-.228c-.753-.542-1.187-1.49-.968-2.118l5.212-15.027c.218-.628 1.005-.698 1.758-.157.753.542 1.186 1.49.969 2.118l-5.213 15.027c-.18.518-.747.656-1.363.385z"/>
        <g transform="translate(233 25)">
            <circle cx="16" cy="16" r="16" fill="#E0E7F8"/>
            <g fill-rule="nonzero">
                <path fill="#FF584F" d="M22 24.41v-9.092c-.115-.403-.325-.634-.612-.788-2.41-1.364-4.821-2.748-7.231-4.132-.21-.115-.364-.154-.46-.058l-2.506 1.403c-.134.039-.191.212-.191.52v8.399c0 .365.077.691.344.999l7.461 4.267a.57.57 0 0 0 .555 0L22 24.41z"/>
                <path fill="#FFF" d="M15.775 19.174v.69c0 .353-.156.512-.374.37-.218-.141-.374-.495-.39-.848v-1.15c0-.247-.03-.459-.155-.742-.265-.565-.25-1.202.031-1.414.28-.23.717.053.997.619.296.583.343 1.273.062 1.485-.155.123-.187.318-.17.618.015.106 0 .248 0 .372z"/>
                <path fill="#FE7F79" d="M19.067 16.757c-.11-.404-.312-.635-.587-.79-2.31-1.366-4.62-2.753-6.93-4.14-.385-.23-.55-.115-.55.405v8.415c0 .366.073.693.33 1.001 1.998 1.194 5.628 3.37 6.93 4.14.312.193.348.212.532.212.091-.02.275-6.2.275-9.243z"/>
                <path fill="#FFF" d="M15.775 19.174v.69c0 .353-.156.512-.374.37-.218-.141-.374-.495-.39-.848v-1.15c0-.247-.03-.459-.155-.742-.265-.565-.25-1.202.031-1.414.28-.23.717.053.997.619.296.583.343 1.273.062 1.485-.155.123-.187.318-.17.618.015.106 0 .248 0 .372z"/>
                <path fill="#FFC5C2" d="M15.736 19.178v.687c0 .352-.173.51-.415.37-.242-.141-.414-.493-.432-.845v-1.144c0-.247-.034-.458-.172-.74-.196-.375.184-.64 1.14-.792.328.581.38 1.268.069 1.479-.173.123-.207.317-.19.616.017.105 0 .246 0 .37z"/>
                <path fill="url(#n)" d="M2.792 8.874c.092-.243.184-.486.313-.73a5.344 5.344 0 0 1 0-1.084c.018-.318.092-.635.183-.935v-.093c.092-1.42 1.03-2.935 2.114-3.795.827-.655 1.672-.935 2.591-1.047l.074-.112c-.809-.71-1.03-.767-1.25-.88-.9-.504-2.26-.036-3.437 1.272C2.333 2.63 1.414 4.48 1.47 6.275c.018.73 0 1.458 0 2.187v.206l.055.037.662.45.202.13c-.018.019.35-.3.404-.411z" transform="matrix(-1 0 0 1 22 6)"/>
                <path fill="url(#o)" d="M7.333 2.143c.053 1.808.105 3.67.105 3.67L8.8 6.43v-3.87c-.498-.308-1.021-.398-1.467-.416z" transform="matrix(-1 0 0 1 22 6)"/>
                <path fill="#FE7F79" d="M17.996 14.694c.382.203.726.388 1.07.592v-.204c0-.72-.02-1.46 0-2.163.038-1.794-.898-3.606-1.987-4.752-1.51-1.59-3.286-1.923-4.145-.758-.287.388-.459.906-.459 1.553-.019.869 0 1.738 0 2.607v.093c.344.203.707.388 1.07.591v-.222c0-.72.019-1.423 0-2.163-.038-1.387.726-1.812 1.49-1.664.879.166 1.68.795 2.35 1.923.4.665.61 1.368.592 2.052v2.275c.019.074.019.148.019.24z"/>
            </g>
        </g>
    </g>
</svg>
