<svg xmlns="http://www.w3.org/2000/svg" xmlns:xlink="http://www.w3.org/1999/xlink" width="262" height="245" viewBox="0 0 262 245">
    <defs>
        <path id="a" d="M65.134 74.773L30.15 54.424c-2.432-1.413-2.124-3.907.684-5.54l66.986-38.96c2.807-1.632 7.094-1.811 9.525-.398l34.985 20.35c2.431 1.413 2.124 3.906-.684 5.539L74.66 74.375c-2.807 1.633-7.093 1.812-9.525.398"/>
        <filter id="b" width="137.8%" height="192.3%" x="-18.9%" y="-46.2%" filterUnits="objectBoundingBox">
            <feGaussianBlur in="SourceGraphic" stdDeviation="10"/>
        </filter>
        <path id="c" d="M0 15.404h158.687v91.972H0z"/>
        <linearGradient id="d" x1="38.088%" x2="69.881%" y1="42.625%" y2="55.151%">
            <stop offset="0%" stop-color="#F0F1F4"/>
            <stop offset="100%" stop-color="#F3F6F9"/>
        </linearGradient>
        <linearGradient id="g" x1="66.707%" x2="32.363%" y1="33.076%" y2="66.924%">
            <stop offset="0%" stop-color="#D9E0F2"/>
            <stop offset="100%" stop-color="#C0C9E9"/>
        </linearGradient>
        <path id="f" d="M36.625 66.22L1.64 45.865c-2.431-1.414-2.123-3.908.684-5.541L69.31 1.352C72.117-.28 76.404-.46 78.835.954l34.985 20.355c2.431 1.414 2.124 3.907-.683 5.541L46.15 65.822c-2.807 1.633-7.093 1.812-9.525.398"/>
        <linearGradient id="h" x1="21.912%" x2="65.983%" y1="37.648%" y2="56.911%">
            <stop offset="0%" stop-color="#D3DAED"/>
            <stop offset="100%" stop-color="#99A7D8"/>
        </linearGradient>
        <filter id="i" width="165.5%" height="195.7%" x="-32.8%" y="-47.8%" filterUnits="objectBoundingBox">
            <feGaussianBlur in="SourceGraphic" stdDeviation="7.973"/>
        </filter>
    </defs>
    <g fill="none" fill-rule="evenodd">
        <g stroke="#F3574F" transform="translate(1 34)">
            <path d="M50.337 91.042L2.254 63.182c-3.342-1.935-2.918-5.35.94-7.585L95.26 2.254c3.858-2.235 9.75-2.48 13.091-.545l48.083 27.861c3.341 1.936 2.919 5.349-.94 7.585L63.43 90.498c-3.859 2.236-9.75 2.481-13.092.544"/>
            <use xlink:href="#a"/>
            <path d="M30.332 72.604c2.911 1.592 7.695 1.592 10.608 0 2.715-1.484 2.715-3.7 0-5.185-2.913-1.592-7.697-1.592-10.608 0-2.715 1.485-2.715 3.701 0 5.185z"/>
        </g>
        <path fill="#8292C2" fill-opacity=".5" d="M199.73 124c.193 5.27-.6 8.382-2.38 9.337-2.286 1.347-33.193 19.239-92.72 53.673-4.769 2.347-9.464 2.618-14.086.812-4.621-1.805-19.865-10.961-45.73-27.468-1.692-1.154-2.765-2.19-3.218-3.11-.453-.92-.624-2.74-.513-5.461L188.2 124.268 199.73 124z" filter="url(#b)" transform="translate(1 34)"/>
        <path stroke="#F35850" d="M43.48 120.244L23.38 131.696c-9.431 5.343-9.431 11.532 0 18.568 7.432 5.692 23.131 16.27 47.097 31.736"/>
        <g transform="translate(42.064 104.617)">
            <mask id="e" fill="#fff">
                <use xlink:href="#c"/>
            </mask>
            <path fill="url(#d)" d="M50.337 106.07L2.254 78.2c-3.342-1.936-2.918-5.35.94-7.587L95.26 17.255c3.858-2.236 9.75-2.481 13.091-.545l48.083 27.87c3.341 1.935 2.919 5.35-.94 7.586l-92.064 53.36c-3.859 2.235-9.75 2.48-13.092.544" mask="url(#e)"/>
            <use fill="url(#g)" fill-rule="nonzero" transform="translate(28.509 23.575)" xlink:href="#f"/>
            <path fill="#5A6FBE" d="M89.022 1.746l38.829 22.134a1.62 1.62 0 0 1-.014 2.823l-21.255 11.845a4.05 4.05 0 0 1-3.945-.001l-39.564-22.08a1.62 1.62 0 0 1-.005-2.827L84.232 1.733a4.86 4.86 0 0 1 4.79.013z"/>
            <path fill="#2645B5" d="M56.415 21.72l39.081 22.286a1.62 1.62 0 0 1 .029 2.798l-12.817 7.658a4.05 4.05 0 0 1-4.112.026L39.462 31.75a1.62 1.62 0 0 1-.015-2.792l12.073-7.193a4.86 4.86 0 0 1 4.895-.046z" opacity=".5"/>
            <path fill="#2645B5" d="M32.432 36.18l38.314 22.658a1.62 1.62 0 0 1-.014 2.797l-15.844 9.153a4.05 4.05 0 0 1-4.056-.002L11.74 48.146a1.62 1.62 0 0 1-.003-2.802l15.777-9.182a4.86 4.86 0 0 1 4.918.017z" opacity=".399"/>
        </g>
        <path fill="url(#h)" fill-rule="nonzero" d="M58.33 111.836l.034-4.56c2.39-.092 4.051-.713 5.996-1.84l92.066-53.36c2.073-1.2 3.151-2.743 3.188-4.212v6.02c.071 1.535-1.011 3.173-3.188 4.435l-92.066 53.36c-1.945 1.127-3.65 1.518-6.04 1.61l.01-1.453-.01 1.45c-2.352.091-5.393-.103-7.05-1.063L3.185 84.355c-1.48-.859-2.219-2.008-2.25-3.214v-6.18c.054 1.184.795 2.308 2.25 3.151l48.083 27.869c1.658.96 4.741 1.383 7.093 1.293l-.032 4.562zm101.284-63.972a2.657 2.657 0 0 0 0-.16v.16z" transform="translate(41.064 104.617)"/>
        <path fill="#A0ADDA" d="M72.156 192.682c-3.062-1.674-3.062-4.39 0-6.065 3.06-1.674 8.025-1.674 11.087 0 3.062 1.676 3.062 4.39 0 6.065-3.062 1.674-8.027 1.674-11.087 0z"/>
        <path fill="#3851AE" d="M181 72.905c0 3.254 1.998 7.067 4.44 8.477l54.46 31.172c2.44 1.41 4.44-.1 4.44-3.353V40.177c0-3.254-2-7.068-4.44-8.477L185.44.528c-.621-.36-1.213-.528-1.752-.528C182.111 0 181 1.456 181 3.88v69.025z"/>
        <path fill="#6F83CD" d="M173 64.905c0 3.254 1.998 6.067 4.44 7.477l53.46 31.172c2.44 1.41 4.44-.1 4.44-3.353V43.177c0-3.254-2-7.068-4.44-8.477L177.44 3.528c-.621-.36-1.213-.53-1.752-.528C174.111 3 173 4.456 173 6.88v58.025z" opacity=".9"/>
        <path fill="#A2AFDB" d="M185.637 16.27c-3.758-2.353-6.808-.622-6.808 3.864 0 2.312.806 4.9 2.11 7.193v.01c1.219 2.151 2.876 4.047 4.698 5.188 1.822 1.142 3.482 1.323 4.701.688 1.303-.661 2.108-2.24 2.108-4.555 0-4.485-3.05-10.035-6.809-12.388"/>
        <path fill="#FFF" d="M185.637 25.782c1.265.791 2.284.205 2.284-1.294 0-1.5-1.019-3.362-2.284-4.154-1.255-.787-2.281-.204-2.281 1.296 0 1.499 1.026 3.366 2.281 4.152M185.637 26.321c-2.166-1.358-4.007-.863-4.699 1.007v.01c1.22 2.15 2.877 4.046 4.7 5.188 1.821 1.14 3.48 1.321 4.7.687-.692-2.735-2.533-5.535-4.7-6.892"/>
        <path fill="#A2AFDB" d="M196.166 28.47l15.05 8.742v-2.997l-15.05-8.742zM196 35.241l26.864 15.61v-2.997L196 32.244zM185.637 36.27c-3.758-2.353-6.808-.622-6.808 3.864 0 2.312.806 4.9 2.11 7.193v.01c1.219 2.151 2.876 4.047 4.698 5.188 1.822 1.142 3.482 1.323 4.701.688 1.303-.661 2.108-2.24 2.108-4.555 0-4.485-3.05-10.035-6.809-12.388"/>
        <path fill="#FFF" d="M185.637 45.782c1.265.791 2.284.205 2.284-1.294 0-1.5-1.019-3.362-2.284-4.154-1.255-.787-2.281-.204-2.281 1.296 0 1.499 1.026 3.366 2.281 4.152M185.637 46.321c-2.166-1.358-4.007-.863-4.699 1.007v.01c1.22 2.15 2.877 4.046 4.7 5.188 1.821 1.14 3.48 1.321 4.7.687-.692-2.735-2.533-5.535-4.7-6.892"/>
        <path fill="#A2AFDB" d="M196.166 48.47l15.05 8.742v-2.997l-15.05-8.742zM196 55.241l26.864 15.61v-2.997L196 52.244z"/>
        <g>
            <path fill="#A2AFDB" d="M185.637 56.27c-3.758-2.353-6.808-.622-6.808 3.864 0 2.312.806 4.9 2.11 7.193v.01c1.219 2.151 2.876 4.047 4.698 5.188 1.822 1.142 3.482 1.323 4.701.688 1.303-.661 2.108-2.24 2.108-4.555 0-4.485-3.05-10.035-6.809-12.388"/>
            <path fill="#FFF" d="M185.637 65.782c1.265.791 2.284.205 2.284-1.294 0-1.5-1.019-3.362-2.284-4.154-1.255-.787-2.281-.204-2.281 1.296 0 1.499 1.026 3.366 2.281 4.152M185.637 66.321c-2.166-1.358-4.007-.863-4.699 1.007v.01c1.22 2.15 2.877 4.046 4.7 5.188 1.821 1.14 3.48 1.321 4.7.687-.692-2.735-2.533-5.535-4.7-6.892"/>
        </g>
        <path fill="#A2AFDB" d="M196.166 68.47l15.05 8.742v-2.997l-15.05-8.742zM196 75.241l26.864 15.61v-2.997L196 72.244z"/>
        <path fill="#8292C2" fill-opacity=".5" d="M6.999 93.954L66 128.019c3.866 2.086 6.999 6.917 6.999 10.79 0 3.874-3.133 5.323-6.999 3.237L7 107.981C3.133 105.895 0 101.064 0 97.19c0-3.874 3.133-5.323 6.999-3.237z" filter="url(#i)" transform="translate(172)"/>
        <path fill="#FFB8B4" d="M132.49 56.335v18.218l-9.483 5.43L70.095 45.03V28.313l4.838-1.995 54.927 29.594z" opacity=".898"/>
        <path fill="#FF8E88" d="M81.73 25.658l49.012 28.101a3.467 3.467 0 0 1 .002 6.015 10.437 10.437 0 0 1-10.46-.04l-48.546-28.36a3.308 3.308 0 0 1 .032-5.731 10.04 10.04 0 0 1 9.96.015z"/>
        <path fill="#5F7CE2" d="M113.6 64.458v21.309l-36.892 21.469c-4.174 2.57-8.09 2.679-11.747.326-3.961-2.317-19.235-11.177-45.822-26.58l.568-19.824L58.473 41.05l42.819 20.107 12.309 3.3z" opacity=".602"/>
        <path fill="#4966CE" d="M73.534 39.846l37.773 22.013a5 5 0 0 1-.06 8.675L76.008 90.41a14 14 0 0 1-14.031-.159l-39.304-23.36a6 6 0 0 1 .122-10.387l29.861-16.813a21 21 0 0 1 20.877.155z"/>
        <path fill="#FFF" d="M61.33 45.997L95.956 65.52a2.752 2.752 0 0 1 .08 4.747 7.898 7.898 0 0 1-8.067.092L53.806 50.584a2.597 2.597 0 0 1-.045-4.468 7.498 7.498 0 0 1 7.569-.119zM48.843 55.642l18.013 10.512a2.8 2.8 0 0 1 .046 4.807 7.702 7.702 0 0 1-8.015.003L41.302 60.257a2.663 2.663 0 0 1 .005-4.552 7.372 7.372 0 0 1 7.536-.063z"/>
    </g>
</svg>
