<?xml version="1.0" encoding="UTF-8"?>
<svg width="216px" height="208px" viewBox="0 0 216 208" version="1.1" xmlns="http://www.w3.org/2000/svg" xmlns:xlink="http://www.w3.org/1999/xlink">
    <!-- Generator: Sketch 55.2 (78181) - https://sketchapp.com -->
    <title>Group 98</title>
    <desc>Created with Sketch.</desc>
    <defs>
        <filter x="-18.9%" y="-46.2%" width="137.8%" height="192.3%" filterUnits="objectBoundingBox" id="filter-1">
            <feGaussianBlur stdDeviation="10" in="SourceGraphic"></feGaussianBlur>
        </filter>
        <polygon id="path-2" points="0 0.97928373 158.687205 0.97928373 158.687205 92.9519342 0 92.9519342"></polygon>
        <linearGradient x1="38.0881964%" y1="42.6248937%" x2="69.8810248%" y2="55.1510176%" id="linearGradient-4">
            <stop stop-color="#F0F1F4" offset="0%"></stop>
            <stop stop-color="#F3F6F9" offset="100%"></stop>
        </linearGradient>
        <linearGradient x1="66.7067576%" y1="33.0759029%" x2="32.3628208%" y2="66.9240971%" id="linearGradient-5">
            <stop stop-color="#D9E0F2" offset="0%"></stop>
            <stop stop-color="#C0C9E9" offset="100%"></stop>
        </linearGradient>
        <path d="M36.6254405,66.7950209 L1.64012324,46.4407295 C-0.791252874,45.0265457 -0.48326307,42.5325463 2.32409305,40.8993543 L69.3101321,1.9276117 C72.1174883,0.294419756 76.4037765,0.115231253 78.8351527,1.52941503 L113.82047,21.884292 C116.251265,23.2984758 115.943856,25.7918897 113.1365,27.4256672 L46.1504611,66.3974098 C43.343105,68.0306018 39.0573978,68.2097903 36.6254405,66.7950209" id="path-6"></path>
        <linearGradient x1="21.9116725%" y1="37.6482445%" x2="65.9832526%" y2="56.9108919%" id="linearGradient-8">
            <stop stop-color="#D3DAED" offset="0%"></stop>
            <stop stop-color="#99A7D8" offset="100%"></stop>
        </linearGradient>
        <path d="M36.6254405,66.1997329 L1.64012324,45.8515219 C-0.791252874,44.4377606 -0.48326307,41.9445062 2.32409305,40.3118021 L69.3101321,1.35170152 C72.1174883,-0.281002543 76.4037765,-0.460137517 78.8351527,0.953623797 L113.82047,21.3024202 C116.251265,22.7161815 115.943856,25.2088505 113.1365,26.84214 L46.1504611,65.8022406 C43.343105,67.4349446 39.0573978,67.6140796 36.6254405,66.1997329" id="path-9"></path>
        <path d="M42.3283422,19.403884 C41.8492823,20.0432603 41.9114704,20.7486674 42.4040351,21.3668908 L42.4018079,21.3698632 C42.8620245,21.9495649 43.6998028,22.4535152 44.8163723,22.7467991 C45.9327191,23.0403802 47.1272211,23.0701987 48.1642694,22.8800331 C49.2681081,22.6814366 50.1933166,22.2350154 50.6725992,21.5953419 C51.6015433,20.3555287 50.4859618,18.858139 48.1831543,18.2533308 C45.8803468,17.6485227 43.257509,18.1637736 42.3283422,19.403884 Z" id="path-11"></path>
        <path d="M43.3283422,19.403884 C42.8492823,20.0432603 42.9114704,20.7486674 43.4040351,21.3668908 L43.4018079,21.3698632 C43.8620245,21.9495649 44.6998028,22.4535152 45.8163723,22.7467991 C46.9327191,23.0403802 48.1272211,23.0701987 49.1642694,22.8800331 C50.2681081,22.6814366 51.1933166,22.2350154 51.6725992,21.5953419 C52.6015433,20.3555287 51.4859618,18.858139 49.1831543,18.2533308 C46.8803468,17.6485227 44.257509,18.1637736 43.3283422,19.403884 Z" id="path-13"></path>
        <path d="M36.6254405,66.1997329 L1.64012324,45.8515219 C-0.791252874,44.4377606 -0.48326307,41.9445062 2.32409305,40.3118021 L69.3101321,1.35170152 C72.1174883,-0.281002543 76.4037765,-0.460137517 78.8351527,0.953623797 L113.82047,21.3024202 C116.251265,22.7161815 115.943856,25.2088505 113.1365,26.84214 L46.1504611,65.8022406 C43.343105,67.4349446 39.0573978,67.6140796 36.6254405,66.1997329" id="path-15"></path>
        <path d="M36.6254405,66.1997329 L1.64012324,45.8515219 C-0.791252874,44.4377606 -0.48326307,41.9445062 2.32409305,40.3118021 L69.3101321,1.35170152 C72.1174883,-0.281002543 76.4037765,-0.460137517 78.8351527,0.953623797 L113.82047,21.3024202 C116.251265,22.7161815 115.943856,25.2088505 113.1365,26.84214 L46.1504611,65.8022406 C43.343105,67.4349446 39.0573978,67.6140796 36.6254405,66.1997329" id="path-17"></path>
        <path d="M2.20722978,20.5553161 C-0.283663204,23.9962622 0.0396863596,27.7925686 2.60079816,31.1196759 L2.589218,31.1356728 C4.9821343,34.255467 9.33820015,36.9675883 15.1438526,38.5459611 C20.9483471,40.1259337 27.159213,40.2864086 32.5513914,39.2629901 C38.2908498,38.1941983 43.1015124,35.7916828 45.5935634,32.349137 C50.4236492,25.6768049 44.623134,17.6182672 32.6495844,14.3633566 C20.6760349,11.1084461 7.03847362,13.8813843 2.20722978,20.5553161 Z" id="path-19"></path>
        <path d="M2.20722978,7.55531608 C-0.283663204,10.9962622 0.0396863596,14.7925686 2.60079816,18.1196759 L2.589218,18.1356728 C4.9821343,21.255467 9.33820015,23.9675883 15.1438526,25.5459611 C20.9483471,27.1259337 27.159213,27.2864086 32.5513914,26.2629901 C38.2908498,25.1941983 43.1015124,22.7916828 45.5935634,19.349137 C50.4236492,12.6768049 44.623134,4.61826716 32.6495844,1.36335662 C20.6760349,-1.89155392 7.03847362,0.881384341 2.20722978,7.55531608 Z" id="path-21"></path>
        <path d="M130.899997,13.8423304 C130.633853,14.2259562 130.668402,14.6492005 130.942049,15.0201345 L130.940811,15.0219179 C131.196487,15.3697389 131.66192,15.6721091 132.282236,15.8480794 C132.902429,16.0242281 133.566041,16.0421192 134.142179,15.9280199 C134.755423,15.808862 135.269427,15.5410092 135.535695,15.1572052 C136.051775,14.4133172 135.432008,13.5148834 134.15267,13.1519985 C132.873333,12.7891136 131.416201,13.0982642 130.899997,13.8423304 Z" id="path-23"></path>
        <path d="M59.8999971,63.8423304 C59.6338527,64.2259562 59.6684016,64.6492005 59.9420487,65.0201345 L59.9408114,65.0219179 C60.1964872,65.3697389 60.6619197,65.6721091 61.2822361,65.8480794 C61.9024287,66.0242281 62.5660409,66.0421192 63.1421789,65.9280199 C63.7554226,65.808862 64.2694273,65.5410092 64.5356954,65.1572052 C65.0517755,64.4133172 64.432008,63.5148834 63.1526705,63.1519985 C61.873333,62.7891136 60.4162009,63.0982642 59.8999971,63.8423304 Z" id="path-25"></path>
        <path d="M53.8999971,106.84233 C53.6338527,107.225956 53.6684016,107.6492 53.9420487,108.020134 L53.9408114,108.021918 C54.1964872,108.369739 54.6619197,108.672109 55.2822361,108.848079 C55.9024287,109.024228 56.5660409,109.042119 57.1421789,108.92802 C57.7554226,108.808862 58.2694273,108.541009 58.5356954,108.157205 C59.0517755,107.413317 58.432008,106.514883 57.1526705,106.151999 C55.873333,105.789114 54.4162009,106.098264 53.8999971,106.84233 Z" id="path-27"></path>
        <path d="M129.182412,73.8423304 C128.916268,74.2259562 128.950817,74.6492005 129.224464,75.0201345 C129.478902,75.3697389 129.944335,75.6721091 130.564651,75.8480794 C131.184844,76.0242281 131.848456,76.0421192 132.424594,75.9280199 C133.037838,75.808862 133.551843,75.5410092 133.818111,75.1572052 C134.334191,74.4133172 133.714423,73.5148834 132.435086,73.1519985 C131.155748,72.7891136 129.698616,73.0982642 129.182412,73.8423304 Z" id="path-29"></path>
    </defs>
    <g id="Page-1" stroke="none" stroke-width="1" fill="none" fill-rule="evenodd">
        <g id="Benefit-Software-Testing" transform="translate(-701.000000, -554.000000)">
            <g id="Group-98" transform="translate(702.000000, 554.000000)">
                <path d="M183.448209,120.575506 C183.64098,125.845715 182.847456,128.957886 181.067638,129.912019 C178.78197,131.259906 147.87507,149.151224 88.3469386,183.585972 C83.5785446,185.932778 78.8835238,186.203408 74.2618762,184.397861 C69.6402287,182.592313 54.3969493,173.436034 28.5320379,156.929022 C26.839798,155.775556 25.7669948,154.738879 25.3136283,153.818991 C24.8602617,152.899103 24.6892788,151.078784 24.8006795,148.358034 L171.916317,120.84328 L183.448209,120.575506 Z" id="Path-13" fill-opacity="0.5" fill="#8292C2" filter="url(#filter-1)"></path>
                <g id="Group-40-Copy-8" transform="translate(23.781415, 81.617021)">
                    <g id="Group-6">
                        <g id="Group-40">
                            <g id="Group-6">
                                <g id="Group-3" transform="translate(1.000000, 0.000000)">
                                    <mask id="mask-3" fill="white">
                                        <use xlink:href="#path-2"></use>
                                    </mask>
                                    <g id="Clip-2"></g>
                                    <path d="M50.3374811,91.6451985 L2.25409826,63.7766697 C-1.08755469,61.8404087 -0.664257351,58.4256941 3.19413782,56.1895732 L95.2589128,2.83054882 C99.1173079,0.594427908 105.008329,0.349088001 108.349982,2.28534903 L156.433365,30.1546796 C159.774219,32.0909406 159.35172,35.5048534 155.493325,37.7417761 L63.4285503,91.1008005 C59.5701551,93.3369214 53.6799327,93.5822613 50.3374811,91.6451985" id="Fill-1" fill="url(#linearGradient-4)" mask="url(#mask-3)"></path>
                                    <g id="Path-8" transform="translate(28.508730, 8.575393)">
                                        <mask id="mask-7" fill="white">
                                            <use xlink:href="#path-6"></use>
                                        </mask>
                                        <use id="Mask" fill="url(#linearGradient-5)" fill-rule="nonzero" xlink:href="#path-6"></use>
                                    </g>
                                </g>
                                <path d="M58.3302916,97.4118709 L58.3641249,92.850699 C60.7545569,92.7592978 62.4154762,92.1387198 64.3602479,91.0122408 L156.425822,37.6524147 C158.49918,36.4505698 159.57739,34.9087769 159.614129,33.4391427 L159.614129,39.4595916 C159.685211,40.9949705 158.603007,42.6321734 156.425822,43.8941505 L64.3602479,97.2539767 C62.4154762,98.3812574 60.7099554,98.772161 58.3195235,98.8635621 L58.3302916,97.4118709 L58.3200728,98.8618837 C55.9679772,98.952483 52.9266674,98.7585678 51.2694184,97.7988558 L3.1860355,69.930327 C1.70529349,69.0716373 0.967318507,67.9227089 0.936170213,66.7160535 L0.936170213,60.5360535 C0.99048006,61.7202595 1.73085106,62.8443332 3.1860355,63.6877894 L51.2694184,91.5563182 C52.9266674,92.5168319 56.0103486,92.9393617 58.3624441,92.8495641 L58.3302916,97.4118709 Z M159.614129,33.4391427 C159.615726,33.3854245 159.615726,33.3325081 159.614129,33.2795916 L159.614129,33.4391427 Z" id="Combined-Shape" fill="url(#linearGradient-8)" fill-rule="nonzero"></path>
                            </g>
                            <path d="M31.0924095,73.6400489 C28.0305459,71.9660071 28.0305459,69.2513887 31.0924095,67.5757185 C34.1525539,65.9016767 39.1175522,65.9016767 42.1794157,67.5757185 C45.2412793,69.2513887 45.2412793,71.9660071 42.1794157,73.6400489 C39.1175522,75.3140907 34.1525539,75.3140907 31.0924095,73.6400489 Z" id="Fill-33" fill="#A0ADDA"></path>
                        </g>
                    </g>
                </g>
                <g id="Group-97" transform="translate(52.717585, 68.000000)">
                    <g id="Group-93">
                        <mask id="mask-10" fill="white">
                            <use xlink:href="#path-9"></use>
                        </mask>
                        <use id="Mask" fill="#8F9DCD" fill-rule="nonzero" opacity="0.669999957" xlink:href="#path-9"></use>
                        <polygon id="Path-47" fill="#8592C1" mask="url(#mask-10)" points="119.778021 24.7327862 73.5 -2 62.1231218 4 107.038828 31.5024414"></polygon>
                        <path d="M106.154843,22.2232715 L110.654205,24.6477778 C110.808248,24.7307848 110.865834,24.9229521 110.782827,25.0769953 C110.745876,25.1455679 110.68496,25.1981257 110.611713,25.2246299 L110.368124,25.3127721 C110.099525,25.4099638 109.802185,25.3876536 109.551098,25.2514685 L105.083793,22.828486 C104.929207,22.7446414 104.87186,22.5513552 104.955704,22.3967692 C104.990881,22.3319138 105.047487,22.2812864 105.115851,22.2535382 L105.304384,22.1770148 C105.580595,22.0649036 105.892421,22.0818639 106.154843,22.2232715 Z" id="Rectangle" fill="#FFFFFF" mask="url(#mask-10)"></path>
                        <path d="M104.154843,23.2232715 L108.654205,25.6477778 C108.808248,25.7307848 108.865834,25.9229521 108.782827,26.0769953 C108.745876,26.1455679 108.68496,26.1981257 108.611713,26.2246299 L108.368124,26.3127721 C108.099525,26.4099638 107.802185,26.3876536 107.551098,26.2514685 L103.083793,23.828486 C102.929207,23.7446414 102.87186,23.5513552 102.955704,23.3967692 C102.990881,23.3319138 103.047487,23.2812864 103.115851,23.2535382 L103.304384,23.1770148 C103.580595,23.0649036 103.892421,23.0818639 104.154843,23.2232715 Z" id="Rectangle" fill="#FFFFFF" mask="url(#mask-10)"></path>
                    </g>
                    <g id="Group-96" transform="translate(46.000000, 10.000000)">
                        <mask id="mask-12" fill="white">
                            <use xlink:href="#path-11"></use>
                        </mask>
                        <use id="Mask" fill="#4F61A0" opacity="0.5" xlink:href="#path-11"></use>
                        <path d="M19.0662034,0.806129779 L40.733212,13.5182011 C41.229883,13.8095989 41.3962899,14.4484549 41.1048921,14.9451259 C41.0212726,15.0876508 40.9049751,15.2082601 40.7655876,15.2970106 C39.883666,15.8585459 38.7605221,15.8749461 37.8625809,15.3394004 L16.3681668,2.51980598 C15.9038443,2.24287702 15.7519318,1.64197403 16.0288608,1.17765157 C16.1075739,1.0456746 16.216252,0.934082322 16.3461003,0.851905294 C17.1727662,0.328734032 18.2224022,0.311070132 19.0662034,0.806129779 Z" id="Path-9-Copy-9" fill="#FFFFFF"></path>
                        <path d="M14.0735578,4.79346163 L27.2546363,12.3647697 C27.7488219,12.6486335 27.9193213,13.2793671 27.6354575,13.7735527 C27.5524018,13.9181464 27.4355425,14.0404589 27.2948844,14.1300184 C26.4121777,14.6920537 25.2888165,14.7114705 24.3872137,14.1802763 L11.3725238,6.51245578 C10.9095187,6.23966859 10.7553165,5.64319102 11.0281037,5.18018583 C11.106535,5.04706337 11.2155407,4.93453244 11.3461003,4.85190529 C12.1740095,4.32794716 13.2239642,4.30544884 14.0735578,4.79346163 Z" id="Path-9-Copy-9" fill="#FFFFFF"></path>
                        <path d="M4.97379915e-14,6 L41.4075373,31.5461426" id="Path-24" stroke="#7989BB" opacity="0.398065476"></path>
                    </g>
                    <g id="Group-96" transform="translate(26.000000, 22.000000)">
                        <mask id="mask-14" fill="white">
                            <use xlink:href="#path-13"></use>
                        </mask>
                        <use id="Mask" fill="#4F61A0" opacity="0.5" xlink:href="#path-13"></use>
                        <path d="M20.0662034,0.806129779 L41.733212,13.5182011 C42.229883,13.8095989 42.3962899,14.4484549 42.1048921,14.9451259 C42.0212726,15.0876508 41.9049751,15.2082601 41.7655876,15.2970106 C40.883666,15.8585459 39.7605221,15.8749461 38.8625809,15.3394004 L17.3681668,2.51980598 C16.9038443,2.24287702 16.7519318,1.64197403 17.0288608,1.17765157 C17.1075739,1.0456746 17.216252,0.934082322 17.3461003,0.851905294 C18.1727662,0.328734032 19.2224022,0.311070132 20.0662034,0.806129779 Z" id="Path-9-Copy-9" fill="#FFFFFF"></path>
                        <path d="M15.0735578,4.79346163 L28.2546363,12.3647697 C28.7488219,12.6486335 28.9193213,13.2793671 28.6354575,13.7735527 C28.5524018,13.9181464 28.4355425,14.0404589 28.2948844,14.1300184 C27.4121777,14.6920537 26.2888165,14.7114705 25.3872137,14.1802763 L12.3725238,6.51245578 C11.9095187,6.23966859 11.7553165,5.64319102 12.0281037,5.18018583 C12.106535,5.04706337 12.2155407,4.93453244 12.3461003,4.85190529 C13.1740095,4.32794716 14.2239642,4.30544884 15.0735578,4.79346163 Z" id="Path-9-Copy-9" fill="#FFFFFF"></path>
                        <path d="M4.97379915e-14,5 L41.7460937,30.8974609" id="Path-24" stroke="#7989BB" opacity="0.398065476"></path>
                    </g>
                    <path d="M11.3825553,38.4451815 C11.4009472,40.4118156 11.3614371,38.9140536 11.382067,40.7281405 C11.4026969,42.5422274 11.6807918,42.6397379 13.8159863,43.9239413 C15.3836386,44.9009878 23.9220816,50.0352274 39.4313151,59.3266602 L42.7413006,61.120611 C43.7172121,61.5991266 44.7738527,61.4916233 45.9112225,60.7981012 C47.6225297,59.7546152 49.7783457,58.3962711 52.3786704,56.7230687 L52.3633709,52.3256077 L22.3286133,38.8847656 C16.2312713,38.4441129 12.5825853,38.2975849 11.3825553,38.4451815 Z" id="Path-23-Copy" fill="#FF635A"></path>
                    <path d="M21.462487,34.0281119 L51.9632098,51.6796357 C52.4412177,51.9562707 52.6044626,52.5680296 52.3278276,53.0460375 C52.2499368,53.180628 52.1417309,53.2951985 52.011807,53.3806464 L45.8771282,57.4152792 C44.9155824,58.0476651 43.6770209,58.0742427 42.6892327,57.4836865 L11.8628352,39.0539064 C11.3888074,38.7705055 11.2342738,38.1564882 11.5176747,37.6824603 C11.6032331,37.5393518 11.7232169,37.4199077 11.8667097,37.3349952 L17.421846,34.0477199 C18.66619,33.3113741 20.2110552,33.3038773 21.462487,34.0281119 Z" id="Path-9-Copy-8" fill="#FD817A"></path>
                </g>
                <g id="Group-95" transform="translate(52.717585, 28.000000)">
                    <g id="Group-93">
                        <mask id="mask-16" fill="white">
                            <use xlink:href="#path-15"></use>
                        </mask>
                        <use id="Mask" fill="#8F9DCD" fill-rule="nonzero" opacity="0.8" xlink:href="#path-15"></use>
                        <polygon id="Path-47" fill="#8592C1" mask="url(#mask-16)" points="119.778021 24.7327862 75.1494235 -1 64.2824152 5.6519082 107.038828 31.5024414"></polygon>
                        <path d="M106.154843,22.2232715 L110.654205,24.6477778 C110.808248,24.7307848 110.865834,24.9229521 110.782827,25.0769953 C110.745876,25.1455679 110.68496,25.1981257 110.611713,25.2246299 L110.368124,25.3127721 C110.099525,25.4099638 109.802185,25.3876536 109.551098,25.2514685 L105.083793,22.828486 C104.929207,22.7446414 104.87186,22.5513552 104.955704,22.3967692 C104.990881,22.3319138 105.047487,22.2812864 105.115851,22.2535382 L105.304384,22.1770148 C105.580595,22.0649036 105.892421,22.0818639 106.154843,22.2232715 Z" id="Rectangle" fill="#FFFFFF" mask="url(#mask-16)"></path>
                        <path d="M104.154843,23.2232715 L108.654205,25.6477778 C108.808248,25.7307848 108.865834,25.9229521 108.782827,26.0769953 C108.745876,26.1455679 108.68496,26.1981257 108.611713,26.2246299 L108.368124,26.3127721 C108.099525,26.4099638 107.802185,26.3876536 107.551098,26.2514685 L103.083793,23.828486 C102.929207,23.7446414 102.87186,23.5513552 102.955704,23.3967692 C102.990881,23.3319138 103.047487,23.2812864 103.115851,23.2535382 L103.304384,23.1770148 C103.580595,23.0649036 103.892421,23.0818639 104.154843,23.2232715 Z" id="Rectangle" fill="#FFFFFF" mask="url(#mask-16)"></path>
                    </g>
                    <g id="Group-94" transform="translate(23.000000, 17.000000)">
                        <path d="M29.3183421,3.6539352 L54.8960289,18.7608398 C55.9043925,19.3564078 56.2390294,20.6566512 55.6434614,21.6650148 C55.4713227,21.956465 55.2319135,22.2024713 54.945249,22.3824669 C53.1378895,23.5173017 50.844918,23.5353309 49.0199371,22.4290565 L23.7811703,7.12971807 C22.8363676,6.55699372 22.5347385,5.326795 23.1074629,4.38199231 C23.2699398,4.11395995 23.4931242,3.88785556 23.759022,3.72190845 C25.4543268,2.66386703 27.5976749,2.63766052 29.3183421,3.6539352 Z" id="Path-9-Copy-4" fill="#FFFFFF"></path>
                        <path d="M20.4513975,10.6900465 L43.4017903,24.194519 C44.4587784,24.816472 44.811444,26.1775228 44.189491,27.2345109 C44.0170777,27.5275215 43.7796878,27.7770317 43.4956185,27.9638101 C41.6746172,29.1611369 39.3273502,29.2044198 37.4634451,28.0750416 L14.8501366,14.3731755 C13.8592921,13.7728026 13.5427523,12.482866 14.1431253,11.4920215 C14.3058419,11.2234769 14.5267687,10.9948862 14.7896104,10.8231097 C16.4982471,9.70645487 18.6921891,9.65489286 20.4513975,10.6900465 Z" id="Path-9-Copy-5" fill="#FFFFFF"></path>
                        <path d="M1.83044434,24.3563843 C1.82527669,26.0673218 1.84446208,27.3036499 1.88800049,28.0653687 C1.98352051,28.5734253 2.15026855,29.0177002 3.56433105,29.8851318 C4.50703939,30.4634196 8.13781738,32.6456299 14.456665,36.4317627 C15.752955,37.2141625 17.1227873,37.3912051 18.5661621,36.9628906 C20.0095369,36.5345761 20.8325756,35.8289031 21.0352783,34.8458716 L21,31.8627274 L8.55353976,26 L1.83044434,24.3563843 Z" id="Path-23" fill="#FF635A"></path>
                        <path d="M8.43090961,22.7243918 L19.9784111,29.7070671 C21.0419485,30.3501791 21.3827706,31.7336918 20.7396587,32.7972292 C20.5660977,33.0842532 20.3305706,33.3288497 20.050306,33.5131265 C18.2357588,34.7062096 15.8905046,34.7254225 14.0566543,33.5622279 L2.81415338,26.4312115 C1.81343986,25.796468 1.51676256,24.4706681 2.15150606,23.4699546 C2.31559341,23.2112604 2.53317244,22.9907011 2.78961044,22.8231097 C4.49478528,21.7087173 6.68778886,21.6703416 8.43090961,22.7243918 Z" id="Path-9-Copy-5" fill="#FD817A"></path>
                        <path d="M28.0588554,16.8185252 L40.537051,24.2920417 C41.0361002,24.5909353 41.1983584,25.2377958 40.8994648,25.736845 C40.8153487,25.87729 40.6996529,25.9961943 40.5615609,26.08412 C39.681618,26.6443954 38.559069,26.6532765 37.6703716,26.1069938 L25.3571273,18.5380373 C24.8896155,18.2506576 24.7435896,17.6386971 25.0309693,17.1711853 C25.110301,17.0421278 25.2180915,16.9329181 25.3461003,16.8519053 C26.1715307,16.3295159 27.220821,16.3166045 28.0588554,16.8185252 Z" id="Path-9-Copy-4" fill="#A6B1D8"></path>
                        <path d="M40.0588554,11.8185252 L52.537051,19.2920417 C53.0361002,19.5909353 53.1983584,20.2377958 52.8994648,20.736845 C52.8153487,20.87729 52.6996529,20.9961943 52.5615609,21.08412 C51.681618,21.6443954 50.559069,21.6532765 49.6703716,21.1069938 L37.3571273,13.5380373 C36.8896155,13.2506576 36.7435896,12.6386971 37.0309693,12.1711853 C37.110301,12.0421278 37.2180915,11.9329181 37.3461003,11.8519053 C38.1715307,11.3295159 39.220821,11.3166045 40.0588554,11.8185252 Z" id="Path-9-Copy-6" fill="#A6B1D8"></path>
                        <path d="M47.0588554,0.81852517 L59.537051,8.29204173 C60.0361002,8.59093532 60.1983584,9.23779578 59.8994648,9.73684501 C59.8153487,9.87729002 59.6996529,9.99619434 59.5615609,10.08412 C58.681618,10.6443954 57.559069,10.6532765 56.6703716,10.1069938 L44.3571273,2.53803732 C43.8896155,2.2506576 43.7435896,1.6386971 44.0309693,1.17118528 C44.110301,1.04212779 44.2180915,0.932918149 44.3461003,0.851905294 C45.1715307,0.329515902 46.220821,0.316604512 47.0588554,0.81852517 Z" id="Path-9-Copy-7" fill="#FFFFFF"></path>
                    </g>
                </g>
                <g id="Group-92" transform="translate(51.717585, 0.000000)">
                    <g id="Rectangle" transform="translate(0.508797, 0.000000)">
                        <mask id="mask-18" fill="white">
                            <use xlink:href="#path-17"></use>
                        </mask>
                        <use id="Mask" fill="#8F9DCD" fill-rule="nonzero" opacity="0.9" xlink:href="#path-17"></use>
                        <polygon id="Path-47" fill="#8592C1" mask="url(#mask-18)" points="119.269224 23.7327862 74.6406268 -2 63.7736185 4.6519082 106.530031 30.5024414"></polygon>
                    </g>
                    <path d="M28.3183421,34.6539352 L53.8960289,49.7608398 C54.9043925,50.3564078 55.2390294,51.6566512 54.6434614,52.6650148 C54.4713227,52.956465 54.2319135,53.2024713 53.945249,53.3824669 C52.1378895,54.5173017 49.844918,54.5353309 48.0199371,53.4290565 L22.7811703,38.1297181 C21.8363676,37.5569937 21.5347385,36.326795 22.1074629,35.3819923 C22.2699398,35.1139599 22.4931242,34.8878556 22.759022,34.7219085 C24.4543268,33.663867 26.5976749,33.6376605 28.3183421,34.6539352 Z" id="Path-9-Copy-2" fill="#FFFFFF"></path>
                    <path d="M19.4299875,41.7259158 L32.9707592,49.9237919 C34.0345825,50.5678535 34.3748665,51.9523678 33.7308049,53.0161911 C33.557198,53.3029448 33.3217581,53.5473199 33.0416669,53.7314827 C31.2265866,54.9249164 28.8811536,54.9460962 27.0448171,53.7856355 L13.8171407,45.4264929 C12.8172081,44.7945921 12.5188593,43.4717297 13.1507602,42.471797 C13.3147591,42.2122817 13.5326312,41.9910548 13.7896104,41.8231097 C15.49463,40.7088187 17.687589,40.6710301 19.4299875,41.7259158 Z" id="Path-9-Copy-3" fill="#FFFFFF"></path>
                    <path d="M106.66364,22.2232715 L111.163001,24.6477778 C111.317044,24.7307848 111.374631,24.9229521 111.291624,25.0769953 C111.254673,25.1455679 111.193756,25.1981257 111.12051,25.2246299 L110.87692,25.3127721 C110.608322,25.4099638 110.310982,25.3876536 110.059894,25.2514685 L105.59259,22.828486 C105.438004,22.7446414 105.380656,22.5513552 105.464501,22.3967692 C105.499677,22.3319138 105.556284,22.2812864 105.624648,22.2535382 L105.813181,22.1770148 C106.089392,22.0649036 106.401218,22.0818639 106.66364,22.2232715 Z" id="Rectangle" fill="#FFFFFF"></path>
                    <path d="M104.66364,23.2232715 L109.163001,25.6477778 C109.317044,25.7307848 109.374631,25.9229521 109.291624,26.0769953 C109.254673,26.1455679 109.193756,26.1981257 109.12051,26.2246299 L108.87692,26.3127721 C108.608322,26.4099638 108.310982,26.3876536 108.059894,26.2514685 L103.59259,23.828486 C103.438004,23.7446414 103.380656,23.5513552 103.464501,23.3967692 C103.499677,23.3319138 103.556284,23.2812864 103.624648,23.2535382 L103.813181,23.1770148 C104.089392,23.0649036 104.401218,23.0818639 104.66364,23.2232715 Z" id="Rectangle" fill="#FFFFFF"></path>
                    <g id="Group-11-Copy" transform="translate(39.000000, 3.000000)">
                        <g id="Fill-4" transform="translate(0.500000, 0.000000)">
                            <mask id="mask-20" fill="white">
                                <use xlink:href="#path-19"></use>
                            </mask>
                            <use id="Mask" fill="#5B72C6" opacity="0.5" xlink:href="#path-19"></use>
                            <mask id="mask-22" fill="white">
                                <use xlink:href="#path-21"></use>
                            </mask>
                            <use id="Mask" fill="#5B72C6" xlink:href="#path-21"></use>
                            <path d="M-6.18663122,16.896313 C-8.10287069,19.5816931 -7.85411845,22.5444032 -5.88385978,25.1409412 L-5.89276837,25.1534255 C-4.0519022,27.5881725 -0.700788618,29.7047637 3.76548932,30.9365561 C8.2308764,32.1695969 13.0088843,32.2948345 17.1570774,31.4961392 C21.5724324,30.6620337 25.2732664,28.7870646 27.1903967,26.1004361 C30.906173,20.8932207 26.4438472,14.6041839 17.2326171,12.0639895 C8.02138712,9.52379518 -2.46996407,11.6878492 -6.18663122,16.896313 Z" fill="#FFFFFF" mask="url(#mask-22)"></path>
                            <path d="M24.0107545,9.52699129 C23.2655503,10.6778685 23.3622873,11.9476014 24.128499,13.0604034 L24.1250345,13.0657538 C24.8409269,14.1092168 26.1441378,15.0163273 27.8810236,15.5442383 C29.617563,16.0726844 31.4756772,16.1263577 33.0888634,15.7840597 C34.8059459,15.4265859 36.2451592,14.6230277 36.9907098,13.4716155 C38.435734,11.2399517 36.700385,8.54465025 33.11824,7.45599552 C29.536095,6.36734079 25.4561251,7.2947925 24.0107545,9.52699129 Z" id="Fill-4-Copy" fill="#FFFFFF" mask="url(#mask-22)"></path>
                        </g>
                    </g>
                </g>
                <path d="M132.951471,14.4394531 L191.92071,49.7734375 C205.51446,57.1328125 212.765111,67.1966146 213.672663,79.9648437 C213.43308,92.6731771 213.557166,97.8658854 214.044922,95.5429688 C214.16862,112.78125 208.278646,118.671224 196.375,113.212891 C183.696615,106.113932 162.027018,93.195638 131.366211,74.4580078" id="Path-25" stroke="#FF584F" stroke-linecap="round" stroke-linejoin="round" stroke-dasharray="3,4"></path>
                <mask id="mask-24" fill="white">
                    <use xlink:href="#path-23"></use>
                </mask>
                <use id="Mask" fill="#FF584F" xlink:href="#path-23"></use>
                <mask id="mask-26" fill="white">
                    <use xlink:href="#path-25"></use>
                </mask>
                <use id="Mask" fill="#FF584F" xlink:href="#path-25"></use>
                <mask id="mask-28" fill="white">
                    <use xlink:href="#path-27"></use>
                </mask>
                <use id="Mask" fill="#FF584F" xlink:href="#path-27"></use>
                <mask id="mask-30" fill="white">
                    <use xlink:href="#path-29"></use>
                </mask>
                <use id="Mask" fill="#FF584F" xlink:href="#path-29"></use>
                <path d="M57.033991,107.572266 L9.39283602,80.2945531 C-1.81514398,71.7218823 -2.99270169,64.5299479 5.86016289,58.71875 C14.7130275,52.9075521 18.8800197,50.1888021 18.3611395,50.5625 C23.8559311,47.2005208 30.1918686,47.1067708 37.368952,50.28125 C44.7250717,54.2460938 53.0619858,58.9703776 62.3796941,64.4541016" id="Path-26" stroke="#FF584F" stroke-linecap="round" stroke-linejoin="round" stroke-dasharray="3,4"></path>
            </g>
        </g>
    </g>
</svg>