<svg xmlns="http://www.w3.org/2000/svg" xmlns:xlink="http://www.w3.org/1999/xlink" width="226" height="233" viewBox="0 0 226 233">
    <defs>
        <linearGradient id="a" x1="20.535%" x2="60.384%" y1="-4.095%" y2="90.434%">
            <stop offset="0%" stop-color="#D3DAED"/>
            <stop offset="100%" stop-color="#99A7D8"/>
        </linearGradient>
        <linearGradient id="b" x1="21.317%" x2="72.057%" y1="54.821%" y2="41.241%">
            <stop offset="0%" stop-color="#EBF0FD"/>
            <stop offset="100%" stop-color="#FFF"/>
        </linearGradient>
        <linearGradient id="c" x1="16.79%" x2="80.452%" y1="28.755%" y2="71.955%">
            <stop offset="0%" stop-color="#D9E0F2"/>
            <stop offset="100%" stop-color="#C0C9E9"/>
        </linearGradient>
        <filter id="d" width="125.4%" height="156.4%" x="-12.7%" y="-28.2%" filterUnits="objectBoundingBox">
            <feGaussianBlur in="SourceGraphic" stdDeviation="8"/>
        </filter>
        <linearGradient id="e" x1="4.648%" x2="65.983%" y1="40.781%" y2="56.891%">
            <stop offset="0%" stop-color="#D3DAED"/>
            <stop offset="100%" stop-color="#99A7D8"/>
        </linearGradient>
        <linearGradient id="g" x1="5.291%" x2="96.119%" y1="54.42%" y2="44.724%">
            <stop offset="0%" stop-color="#FFF"/>
            <stop offset="100%" stop-color="#F4F7FD"/>
        </linearGradient>
        <path id="f" d="M2.688 162.247c-3.985-2.325-3.48-6.426 1.121-9.112L113.562 90.82c4.601-2.685 11.627-2.98 15.612-.654l57.34 33.47c3.985 2.326 3.481 6.426-1.12 9.112l-109.79 64.084c-4.602 2.685-11.627 2.98-15.613.653L2.688 162.247z"/>
        <path id="h" d="M36.814 161.181c-3.406-1.99-2.974-5.497.959-7.795l93.809-53.31c3.932-2.297 9.937-2.55 13.343-.56l24.444 13.855c3.405 1.99 2.974 5.497-.959 7.795l-95.759 54.185c-3.933 2.297-9.936 2.55-13.343.56l-22.494-14.73z"/>
        <path id="i" d="M49.373 159.225c-3.072-1.78-2.683-4.917.864-6.972l14.282-7.96c3.546-2.054 9.108-2.861 12.18-1.082l10.659 6.054c3.07 1.779 2.816 4.83-.73 6.885l-15.106 8.641c-3.547 2.055-8.961 2.28-12.034.5l-10.115-6.066z"/>
    </defs>
    <g fill="none" fill-rule="evenodd">
        <g transform="translate(18)">
            <path fill="url(#a)" fill-rule="nonzero" d="M74.416 1.648c1.67-1.545 3.137-2.004 4.4-1.376 1.538.835 40.25 22.534 116.14 65.096 2.053.996 3.08 3.29 3.08 6.883v69.217a977.876 977.876 0 0 0 0 8.19c-.166 1.235-1.22 1.915-1.49 2.188-2.604 1.704-2.686 1.796-4.147 1.153-.853-7.028-2.812-13.575-5.878-19.64l-46.902-67.497-33.536-22.796-22.348-22.36-9.32-19.058z"/>
            <path fill="url(#b)" d="M76.704 1.512l115.695 65.93c1.412.804 2.556 2.6 2.556 4.01v80.45c0 1.41-1.144 1.901-2.556 1.097L76.704 87.069c-1.412-.805-2.557-2.6-2.557-4.011V2.608c0-1.41 1.145-1.901 2.557-1.096z"/>
            <path fill="url(#c)" fill-rule="nonzero" d="M84.648 15.502l99.167 56.4c1.21.688 2.192 2.225 2.192 3.431v65.627c0 1.207-.981 1.627-2.192.939l-99.167-56.4c-1.21-.688-2.191-2.224-2.191-3.43V16.44c0-1.207.98-1.627 2.191-.939z"/>
            <path fill="#8292C2" fill-opacity=".5" fill-rule="nonzero" d="M0 130.359v8.007c.052 5.743 1.314 9.186 3.786 10.33 2.355 1.33 38.622 22.374 108.802 63.131 7.147 3.93 12.595 4.657 16.342 2.183 3.748-2.475 22.421-13.96 56.021-34.456 2.835-1.727 4.252-3.431 4.252-5.114v-14.677c.215-1.315-.46-2.838-2.025-4.571-1.564-1.733-29.21-.085-82.937 4.946L12.712 138.96 0 130.359z" filter="url(#d)" opacity=".5"/>
            <path fill="url(#e)" fill-rule="nonzero" d="M0 127.546v7.435c.052 1.487 1.314 2.802 3.786 3.945 2.355 1.33 38.622 22.374 108.802 63.132 7.147 3.93 12.595 4.657 16.342 2.182 3.748-2.475 22.421-13.96 56.021-34.456 2.835-1.726 4.252-3.43 4.252-5.114 0-1.683.013-3.602.039-5.757.096-1.295-.598-2.78-2.083-4.452-1.485-1.673-29.124-3.038-82.918-4.093l-91.529-17.346L0 127.546z"/>
            <use fill="url(#g)" transform="matrix(-1 0 0 1 189.203 0)" xlink:href="#f"/>
            <use fill="#E0E7F8" fill-rule="nonzero" transform="matrix(-1 0 0 1 206.183 0)" xlink:href="#h"/>
            <mask id="j" fill="#fff">
                <use xlink:href="#i"/>
            </mask>
            <use fill="#D1D9EE" fill-rule="nonzero" transform="matrix(-1 0 0 1 136.788 0)" xlink:href="#i"/>
            <path fill="#B7C2E5" d="M134.551 41.884c1.236 1.13 2.237.95 2.237-.403s-1.001-3.366-2.237-4.497c-1.235-1.13-2.237-.95-2.237.403s1.002 3.366 2.237 4.497z" mask="url(#j)"/>
            <g fill="#FFF" mask="url(#j)">
                <path d="M124.341 77.458c-2.567-1.512-4.649-5-4.649-7.789 0-2.79 2.082-3.825 4.649-2.313s4.649 5 4.649 7.789c0 2.79-2.082 3.825-4.649 2.313zm0-11.145c-1.284-.756-2.324-2.5-2.324-3.894 0-1.395 1.04-1.913 2.324-1.157 1.284.756 2.324 2.5 2.324 3.894 0 1.395-1.04 1.913-2.324 1.157z"/>
            </g>
        </g>
        <path fill="#2645B5" d="M82.471 92.585c-2.853-1.646-5.189-6.105-5.189-9.907L77 26.537c0-3.802 2.336-5.567 5.189-3.92l92.833 52.665c2.854 1.646 5.19 6.105 5.19 9.907l.48 56.604c0 3.802-2.337 5.566-5.191 3.92l-93.03-53.128z" opacity=".746"/>
        <path fill="#53A8D6" d="M133 111.62l14.61-7.62 15.39 7.635L147.967 121z"/>
        <path fill="#62B6E4" d="M133 106.62L147.61 99l15.39 7.635L147.967 116z"/>
        <path fill="#BB0177" d="M132 100.62L146.61 93l15.39 7.635L146.967 110z"/>
        <path fill="#E0028C" d="M133 94.62L147.61 87 163 94.635 147.967 104z"/>
        <path fill="#04D0C8" d="M133 89.62L147.61 82 163 89.635 147.967 99z"/>
        <path fill="#08FDF3" d="M132 83.62L146.61 76 162 83.635 146.967 93z"/>
        <path fill="#FDFDFF" d="M95.311 44.517l22.028 12.632c1.829 1.062 3.311 3.41 3.311 5.246 0 1.836-1.482 2.463-3.31 1.402L95.31 51.164C93.483 50.102 92 47.754 92 45.918c0-1.836 1.483-2.463 3.311-1.401zM95.311 56.517l22.028 12.632c1.829 1.062 3.311 3.41 3.311 5.246 0 1.836-1.482 2.463-3.31 1.402L95.31 63.164C93.483 62.102 92 59.754 92 57.918c0-1.836 1.483-2.463 3.311-1.401zM95.311 68.517l22.028 12.632c1.829 1.062 3.311 3.41 3.311 5.246 0 1.836-1.482 2.463-3.31 1.402L95.31 75.164C93.483 74.102 92 71.754 92 69.918c0-1.836 1.483-2.463 3.311-1.401zM95.311 80.517l10.782 6.258c1.829 1.062 3.311 3.41 3.311 5.246 0 1.836-1.482 2.463-3.311 1.402l-10.782-6.26C93.483 86.103 92 83.754 92 81.919c0-1.836 1.483-2.463 3.311-1.401z"/>
        <g>
            <path fill="#2645B5" fill-rule="nonzero" d="M52.471 126.585c-2.853-1.646-5.189-6.105-5.189-9.907L47 60.537c0-3.802 2.336-5.567 5.189-3.92l92.833 52.665c2.854 1.646 5.19 6.105 5.19 9.907l.48 56.604c0 3.802-2.337 5.566-5.191 3.92l-93.03-53.128z" opacity=".6"/>
            <path fill="#67DBF2" d="M57.02 86.524l7.23 4.32v30.128l-7.253-4.142z"/>
            <path fill="#52CEE7" d="M71.481 86.524l-7.23 4.32v30.128l7.23-4.32z"/>
            <path fill="#76E8FF" d="M57 86.532L64.068 83l7.446 3.538-7.273 4.34z"/>
            <path fill="#DE028B" d="M69.02 100.48l7.23 4.32v22.64l-7.253-4.142z"/>
            <path fill="#B60177" d="M83.481 100.48l-7.23 4.32v22.64l7.23-4.32z"/>
            <path fill="#FC03AF" d="M69 100.532L76.068 97l7.446 3.538-7.273 4.34z"/>
            <g>
                <path fill="#00DFD5" d="M82.02 116.48l7.23 4.32v14.204l-7.253-4.142z"/>
                <path fill="#00D3C5" d="M96.481 116.48l-7.23 4.32v14.204l7.23-4.32z"/>
                <path fill="#08FDF3" d="M82 116.532L89.068 113l7.446 3.538-7.273 4.34z"/>
            </g>
            <path fill="#FDFDFF" d="M110.311 104.517l22.028 12.632c1.829 1.062 3.311 3.41 3.311 5.246 0 1.836-1.482 2.463-3.31 1.402l-22.029-12.633c-1.828-1.062-3.311-3.41-3.311-5.246 0-1.836 1.483-2.463 3.311-1.401zM110.311 116.517l22.028 12.632c1.829 1.062 3.311 3.41 3.311 5.246 0 1.836-1.482 2.463-3.31 1.402l-22.029-12.633c-1.828-1.062-3.311-3.41-3.311-5.246 0-1.836 1.483-2.463 3.311-1.401zM110.311 128.517l22.028 12.632c1.829 1.062 3.311 3.41 3.311 5.246 0 1.836-1.482 2.463-3.31 1.402l-22.029-12.633c-1.828-1.062-3.311-3.41-3.311-5.246 0-1.836 1.483-2.463 3.311-1.401zM110.311 140.517l10.782 6.258c1.829 1.062 3.311 3.41 3.311 5.246 0 1.836-1.482 2.463-3.311 1.402l-10.782-6.26c-1.828-1.061-3.311-3.41-3.311-5.245 0-1.836 1.483-2.463 3.311-1.401z"/>
        </g>
    </g>
</svg>
