<svg xmlns="http://www.w3.org/2000/svg" width="305" height="226" viewBox="0 0 305 226">
    <defs>
        <filter id="a" width="123%" height="156.3%" x="-11.5%" y="-28.1%" filterUnits="objectBoundingBox">
            <feGaussianBlur in="SourceGraphic" stdDeviation="8"/>
        </filter>
        <linearGradient id="b" x1="36.727%" x2="68.727%" y1="48.654%" y2="52.685%">
            <stop offset="0%" stop-color="#F0F1F4"/>
            <stop offset="100%" stop-color="#F3F6F9"/>
        </linearGradient>
        <linearGradient id="c" x1="66.947%" x2="32.959%" y1="44.921%" y2="56.426%">
            <stop offset="0%" stop-color="#D9E0F2"/>
            <stop offset="100%" stop-color="#C0C9E9"/>
        </linearGradient>
        <linearGradient id="d" x1="25.069%" x2="69.068%" y1="46.927%" y2="50.33%">
            <stop offset="0%" stop-color="#D3DAED"/>
            <stop offset="100%" stop-color="#99A7D8"/>
        </linearGradient>
        <filter id="e" width="170.4%" height="334.5%" x="-35.2%" y="-117.2%" filterUnits="objectBoundingBox">
            <feGaussianBlur in="SourceGraphic" stdDeviation="8"/>
        </filter>
        <linearGradient id="f" x1="-.022%" y1="49.983%" y2="49.983%">
            <stop offset="0%" stop-color="#F2F4FA"/>
            <stop offset="92%" stop-color="#D6DCEE"/>
            <stop offset="100%" stop-color="#D3DAED"/>
        </linearGradient>
        <filter id="g" width="176%" height="231.6%" x="-38%" y="-65.8%" filterUnits="objectBoundingBox">
            <feGaussianBlur in="SourceGraphic" stdDeviation="8"/>
        </filter>
        <linearGradient id="h" x1="0%" y1="49.964%" y2="49.964%">
            <stop offset="0%" stop-color="#F2F4FA"/>
            <stop offset="92%" stop-color="#D6DCEE"/>
            <stop offset="100%" stop-color="#D3DAED"/>
        </linearGradient>
    </defs>
    <g fill="none" fill-rule="evenodd">
        <path fill="#FF584F" fill-rule="nonzero" d="M204.454 49.4l-66.465-38.377a8.295 8.295 0 0 0-7.52 0l-98.215 57.08c-5.132 2.98-5.106 7.875.065 10.802l22.116 12.77.919-.537L33.238 78.38c-4.646-2.625-4.672-7.061 0-9.739l98.149-57.067a6.287 6.287 0 0 1 5.683 0l66.452 38.377.932-.538M124.313 138.4l66.465 38.378a8.295 8.295 0 0 0 7.52 0l98.215-57.08c5.131-2.98 5.105-7.876-.066-10.802L274.33 96.125l-.919.538 22.116 12.758c4.646 2.625 4.673 7.06 0 9.738l-98.149 57.068a6.287 6.287 0 0 1-5.683 0l-66.452-38.378-.932.538"/>
        <path fill="#8292C2" fill-opacity=".5" fill-rule="nonzero" d="M208.333 123.716c.245 6.913-.796 10.995-3.124 12.246-3 1.75-43.566 25.235-121.695 70.455a22.037 22.037 0 0 1-18.493 1.063c-6.063-2.38-26.07-14.398-60.02-36.054a12.324 12.324 0 0 1-4.214-4.082c-.603-1.208-.83-3.614-.682-7.219L193.2 124.071l15.133-.355z" filter="url(#a)" opacity=".5" transform="translate(18 -1)"/>
        <path fill="url(#b)" d="M66.15 119.359L3.045 82.793c-4.384-2.547-3.833-7.022 1.234-9.962L125.108 2.796c5.066-2.94 12.796-3.255 17.18-.722l63.118 36.58c4.384 2.545 3.833 7.021-1.233 9.961L83.33 118.65c-5.067 2.94-12.797 3.255-17.181.709" transform="translate(18 72.5)"/>
        <path fill="url(#c)" fill-rule="nonzero" d="M48.825 87.504L2.887 60.795c-3.189-1.864-2.782-5.132.906-7.284L91.731 2.323c3.688-2.14 9.318-2.376 12.508-.525l45.937 26.723c3.19 1.85 2.796 5.132-.892 7.27L61.346 86.98c-3.675 2.153-9.305 2.376-12.495.525" transform="translate(54.75 83)"/>
        <path fill="url(#d)" fill-rule="nonzero" d="M75.324 126.932v-5.985a15.527 15.527 0 0 0 7.875-2.415l120.882-69.97c2.717-1.575 4.134-3.596 4.187-5.525v7.875c.091 2.008-1.313 4.16-4.187 5.814L83.239 126.722a15.527 15.527 0 0 1-7.875 2.113c-3.085.118-7.075-.131-9.253-1.391L2.953 90.864A5.158 5.158 0 0 1 0 86.625v-8.111a5.171 5.171 0 0 0 2.953 4.174l63.105 36.579c2.179 1.312 6.221 1.811 9.319 1.693l-.053 5.972z" transform="translate(18 72.5)"/>
        <path fill="#A0ADDA" d="M57.585 168.234c-4.03-2.192-4.03-5.762 0-7.954a16.813 16.813 0 0 1 14.542 0c4.03 2.192 4.03 5.762 0 7.954a16.905 16.905 0 0 1-14.542 0z"/>
        <g opacity=".75">
            <path fill="#FF584F" d="M110.531 63.208l64.313 36.88a4.554 4.554 0 0 1 1.68 6.209c-.401.684-.976 1.25-1.667 1.64a13.69 13.69 0 0 1-13.729 0L97.406 70.703a4.331 4.331 0 0 1-1.549-5.933 4.226 4.226 0 0 1 1.602-1.588 13.125 13.125 0 0 1 13.072.027z"/>
            <path fill="#2645B5" d="M99.769 81.819l49.573 28.875a6.563 6.563 0 0 1 2.376 9.056 6.47 6.47 0 0 1-2.468 2.35l-46.24 26.092a18.375 18.375 0 0 1-18.374-.21l-51.621-30.66a7.877 7.877 0 0 1 .158-13.637l39.19-21.998a27.563 27.563 0 0 1 27.406.132z"/>
        </g>
        <path fill="#8292C2" fill-opacity=".5" fill-rule="nonzero" d="M36.448 4.843a3.006 3.006 0 0 0-2.717 0L1.55.906a.827.827 0 0 0 0 1.575L33.73 21a3.006 3.006 0 0 0 2.717 0l32.17-18.572a.827.827 0 0 0 0-1.575l-32.17 3.99z" filter="url(#e)" opacity=".5" transform="translate(221.438 88.25)"/>
        <path fill="url(#f)" fill-rule="nonzero" d="M268.367 82.937h-59.68v7.744a.814.814 0 0 0 .486.669l28.166 16.275c.747.379 1.63.379 2.376 0l28.153-16.249a.853.853 0 0 0 .499-.682v-7.757z" transform="translate(18 -1)"/>
        <path fill="#F6F8FB" fill-rule="nonzero" d="M257.715 64.993a2.704 2.704 0 0 0-2.376 0L227.173 81.24a.735.735 0 0 0 0 1.378l28.166 16.262c.747.38 1.63.38 2.376 0l28.153-16.249a.735.735 0 0 0 0-1.312l-28.153-16.327z"/>
        <g fill="#2645B5" fill-rule="nonzero" opacity=".75">
            <path d="M268.688 83.433l-.394-.262-.197-.092a6.93 6.93 0 0 1-.761-.394l-.539-.341-.157-.105c-.3-.171-.656-.21-.984-.105-2.31.551-4.634 1.063-6.97 1.588l-.709.144.302-.354 3.36-3.74c.171-.171.197-.303 0-.447l-.393-.223c-.263-.158-.512-.302-.749-.473h-.078a.945.945 0 0 0-.827 0l-5.63 1.641-1.523.42 1.194-2.231c-.499 0 .092-.105-1.47.892a4.87 4.87 0 0 1-3.071.407.499.499 0 0 0-.473.302c-.236.486-.42.997-.656 1.483-.079.17 0 .302.197.42l.367.17a4.108 4.108 0 0 1 1.129.656l.276.198c.285.16.627.185.932.066l5.775-1.667.485-.119c-.13.158-.21.263-.302.355a339.873 339.873 0 0 1-2.848 3.281c-.144.158-.092.341.132.46l.813.446.867.525c.247.141.543.17.813.078l11.577-2.769.512-.21zM249.092 78.249c1.706-.499 3.412-.985 5.105-1.496.132 0 .29-.119.315-.21a1.312 1.312 0 0 0-.721-1.602c-1.379-.866-2.835-1.693-4.253-2.533l-.38-.197-8.755 5.093 2.258 1.312 3.07-1.785 1.523.893.762.433c.329.184.72.217 1.076.092zm-1.575-2.258c-.066 0 0-.197 0-.236.709-.433 1.43-.84 2.244-1.312.512.306 1.007.639 1.483.997.447.38.25.788-.367 1.142a2.231 2.231 0 0 1-1.956.157c-.405-.177-.8-.379-1.181-.603l-.223-.145zM265.76 85.625a.761.761 0 0 0-.354.25c-.407.511-.814 1.036-1.234 1.548a3.15 3.15 0 0 1-.288.315l-.893-.512-.656-.367a1.549 1.549 0 0 0-.67-.263c-.747.145-1.456.341-2.31.538l.368.21.131.08 2.625 1.43c.21.118.25.223.105.393-.29.331-.56.677-.813 1.037l2.467 1.431c1.772-2.35 3.53-4.686 5.329-7.048-1.326.289-2.573.577-3.806.958z"/>
        </g>
        <path fill="#8292C2" fill-opacity=".5" fill-rule="nonzero" d="M33.98 1.024a2.809 2.809 0 0 0-2.506 0L1.654 18.218a.774.774 0 0 0 0 1.456L31.5 36.894c.79.394 1.718.394 2.507 0l29.78-17.206a.774.774 0 0 0 0-1.457L33.981 1.024z" filter="url(#g)" opacity=".5" transform="translate(162.375 22.625)"/>
        <path fill="url(#h)" fill-rule="nonzero" d="M201.193 15.186h-48.077v27.103c.025.24.174.45.394.551l22.693 13.125a2.14 2.14 0 0 0 1.916 0L200.8 42.84a.643.643 0 0 0 .394-.551V15.186z" transform="translate(18 -1)"/>
        <path fill="#F6F8FB" fill-rule="nonzero" d="M196.12.536a2.14 2.14 0 0 0-1.917 0l-22.64 13.085a.59.59 0 0 0 0 1.116l22.693 13.125a2.14 2.14 0 0 0 1.916 0l22.64-13.112a.577.577 0 0 0 0-1.102L196.12.536z"/>
        <g fill-rule="nonzero">
            <path fill="#A4B0C0" d="M193.376 17.73l-4.331-2.508-2.152 1.247 4.33 2.507 2.153-1.247"/>
            <path fill="#D0D7DF" d="M202.012 18.556l-14.437-8.321-2.14 1.312a.88.88 0 0 0 0 1.667l3.61 2.074 4.331 2.507 3.61 2.087a3.255 3.255 0 0 0 2.874 0l2.152-1.313"/>
            <path fill="#FF584F" d="M208.457 13.149l-11.55-6.668a3.176 3.176 0 0 0-2.875 0l-6.457 3.754 14.438 8.321 6.444-3.74a.88.88 0 0 0 0-1.667" opacity=".75"/>
            <path fill="#D0D7DF" d="M191.946 19.396l-.722-.42-4.331-2.493-.722-.42a1.562 1.562 0 0 0-1.444 0 .433.433 0 0 0 0 .826l5.775 3.334c.448.236.983.236 1.43 0 .394-.223.394-.59 0-.827"/>
        </g>
        <path fill="#FFF" fill-rule="nonzero" d="M120.769 108.66a29.033 29.033 0 0 0-10.29-9.359c-9.083-5.25-22.168-8.163-37.091-7.494l-.578 4.475c12.784-.55 24.019 1.943 31.815 6.406a26.513 26.513 0 0 1 7.586 6.313l-8.925.393a24.754 24.754 0 0 0-4.528-3.32c-6.457-3.728-15.75-5.802-26.5-5.25l-.59 4.489c8.466-.381 15.973 1.312 21.17 4.252l.605.354-13.257.644a34.23 34.23 0 0 0-9.187-.71l-.145 1.116-13.846.552-.315 2.44 76.807-3.398.315-2.442-13.046.538zM75.225 119.75a9.923 9.923 0 0 0-5.329-1.05l-.564 4.476 7.73-.315a3.045 3.045 0 0 0-1.837-3.111zM78.953 115.419c.734.27 1.445.599 2.126.984 2.625 1.496 4.055 3.688 3.74 6.156l7.718-.341a8.269 8.269 0 0 0-2.914-7.232l-10.67.433zM98.496 114.5a10.5 10.5 0 0 1 1.824 7.284l7.718-.354c.358-2.5-.068-5.05-1.221-7.298l-8.321.368zM115.007 113.817a15.225 15.225 0 0 1 .88 7.324l7.704-.341c.27-2.46.07-4.95-.591-7.337l-7.993.355z"/>
    </g>
</svg>
