<svg xmlns="http://www.w3.org/2000/svg" xmlns:xlink="http://www.w3.org/1999/xlink" width="178" height="204" viewBox="0 0 178 204">
    <defs>
        <path id="a" d="M102.915 139.543L1.566 80.877C.834 80.453.24 79.42.24 78.574L.239 1.372C.239.525.832.181 1.564.604l101.354 58.669c.732.424 1.326 1.455 1.326 2.302l-.003 77.2"/>
        <path id="c" d="M1.235.574c.173.004.367.063.571.18l101.353 58.67c.732.423 1.326 1.454 1.326 2.302l-.002 77.2c0 .848-.594 1.191-1.326.767L1.808 81.027c-.732-.424-1.326-1.455-1.326-2.303L.479 1.523c0-.592.29-.938.713-.95h.043"/>
        <linearGradient id="e" x1="29.508%" x2="57.222%" y1="-4.095%" y2="90.434%">
            <stop offset="0%" stop-color="#D3DAED"/>
            <stop offset="100%" stop-color="#99A7D8"/>
        </linearGradient>
        <path id="f" d="M.396 1.071v77.202c0 .847.595 1.878 1.327 2.302l101.35 58.667c.732.424 1.326.08 1.326-.768l.002-77.2c0-.847-.594-1.879-1.326-2.302L1.72.303a1.204 1.204 0 0 0-.592-.18C.694.122.396.47.396 1.07"/>
        <linearGradient id="h" x1="44.296%" x2="59.519%" y1="28.045%" y2="65.334%">
            <stop offset="0%" stop-color="#F0F1F4"/>
            <stop offset="100%" stop-color="#F3F6F9"/>
        </linearGradient>
        <linearGradient id="i" x1="4.648%" x2="65.983%" y1="25.617%" y2="68.226%">
            <stop offset="0%" stop-color="#D3DAED"/>
            <stop offset="100%" stop-color="#99A7D8"/>
        </linearGradient>
        <linearGradient id="j" x1="38.088%" x2="69.881%" y1="39.992%" y2="56.99%">
            <stop offset="0%" stop-color="#F0F1F4"/>
            <stop offset="100%" stop-color="#F3F6F9"/>
        </linearGradient>
        <linearGradient id="k" x1="39.489%" x2="53.704%" y1="-4.095%" y2="90.434%">
            <stop offset="0%" stop-color="#D3DAED"/>
            <stop offset="100%" stop-color="#99A7D8"/>
        </linearGradient>
        <linearGradient id="l" x1="47.476%" x2="54.212%" y1="28.045%" y2="65.334%">
            <stop offset="0%" stop-color="#F0F1F4"/>
            <stop offset="100%" stop-color="#F3F6F9"/>
        </linearGradient>
    </defs>
    <g fill="none" fill-rule="evenodd">
        <path fill="#9BA9DA" d="M94.416 1.988l19.52 10.55c1.759 1.02 3.184 3.276 3.184 5.04 0 1.764-1.425 2.367-3.183 1.346l-19.52-10.55c-1.759-1.02-3.184-3.276-3.184-5.04 0-1.764 1.425-2.366 3.183-1.346zm29.444 17.614l34.37 19.315c1.757 1.02 3.182 3.277 3.182 5.04 0 1.764-1.425 2.367-3.183 1.347l-34.37-19.315c-1.757-1.02-3.182-3.277-3.182-5.04 0-1.765 1.425-2.367 3.183-1.347zM94.416 15.44l25.754 14.232c1.758 1.02 3.183 3.278 3.183 5.041 0 1.764-1.425 2.367-3.183 1.347L94.416 21.827c-1.758-1.02-3.183-3.277-3.183-5.04 0-1.764 1.425-2.367 3.183-1.347zm34.82 19.77l28.993 17.16c1.758 1.02 3.183 3.276 3.183 5.04 0 1.764-1.425 2.366-3.183 1.346l-28.994-17.16c-1.758-1.02-3.183-3.276-3.183-5.04 0-1.764 1.425-2.367 3.183-1.346zm-34.82-7.278l38.746 22.08c1.758 1.02 3.183 3.277 3.183 5.04 0 1.764-1.425 2.367-3.183 1.347l-38.746-22.08c-1.758-1.02-3.183-3.277-3.183-5.041 0-1.764 1.425-2.367 3.183-1.346zm0 12.49l19.52 10.55c1.759 1.02 3.184 3.277 3.184 5.041 0 1.764-1.425 2.367-3.183 1.347l-19.52-10.55c-1.759-1.02-3.184-3.277-3.184-5.04 0-1.765 1.425-2.367 3.183-1.347zm48.064 15.375l15.75 9.064c1.757 1.02 3.182 3.277 3.182 5.04 0 1.764-1.425 2.367-3.183 1.347l-15.75-9.064c-1.757-1.02-3.182-3.277-3.182-5.04 0-1.764 1.425-2.367 3.183-1.347zm-18.62 2.24l34.37 19.315c1.757 1.02 3.182 3.277 3.182 5.04 0 1.765-1.425 2.367-3.183 1.347l-34.37-19.315c-1.757-1.02-3.182-3.277-3.182-5.04 0-1.764 1.425-2.367 3.183-1.347zm-29.444-4.162l25.754 14.233c1.758 1.02 3.183 3.277 3.183 5.04 0 1.764-1.425 2.367-3.183 1.347L94.416 60.262c-1.758-1.02-3.183-3.277-3.183-5.04 0-1.764 1.425-2.367 3.183-1.347zm34.82 19.77l28.993 17.16c1.758 1.02 3.183 3.276 3.183 5.04 0 1.764-1.425 2.367-3.183 1.346l-28.994-17.16c-1.758-1.02-3.183-3.276-3.183-5.04 0-1.764 1.425-2.366 3.183-1.346zm-34.82-7.278l38.746 22.08c1.758 1.02 3.183 3.277 3.183 5.04 0 1.764-1.425 2.367-3.183 1.347l-38.746-22.08c-1.758-1.02-3.183-3.277-3.183-5.041 0-1.764 1.425-2.367 3.183-1.346zm0 12.491l19.52 10.55c1.759 1.02 3.184 3.277 3.184 5.04 0 1.764-1.425 2.367-3.183 1.347l-19.52-10.55c-1.759-1.02-3.184-3.277-3.184-5.04 0-1.764 1.425-2.367 3.183-1.347zm48.064 15.374l15.75 9.064c1.757 1.02 3.182 3.277 3.182 5.04 0 1.764-1.425 2.367-3.183 1.347l-15.75-9.064c-1.757-1.02-3.182-3.277-3.182-5.04 0-1.764 1.425-2.367 3.183-1.347zm-18.62 2.24l34.37 19.315c1.757 1.02 3.182 3.277 3.182 5.04 0 1.765-1.425 2.367-3.183 1.347l-34.37-19.315c-1.757-1.02-3.182-3.277-3.182-5.04 0-1.764 1.425-2.367 3.183-1.347zM94.416 92.31l25.754 14.233c1.758 1.02 3.183 3.277 3.183 5.04 0 1.764-1.425 2.367-3.183 1.347L94.416 98.697c-1.758-1.02-3.183-3.277-3.183-5.04 0-1.764 1.425-2.367 3.183-1.347zm34.82 19.77l28.993 17.16c1.758 1.02 3.183 3.276 3.183 5.04 0 1.764-1.425 2.367-3.183 1.347l-28.994-17.16c-1.758-1.02-3.183-3.277-3.183-5.04 0-1.765 1.425-2.367 3.183-1.347z"/>
        <g transform="translate(60.61 7.41)">
            <mask id="b" fill="#fff">
                <use xlink:href="#a"/>
            </mask>
            <path fill="#3851AE" d="M102.915 139.543L1.566 80.877C.834 80.453.24 79.42.24 78.574L.239 1.372C.239.525.832.181 1.564.604l101.354 58.669c.732.424 1.326 1.455 1.326 2.302l-.003 77.2c0 .848-.593 1.192-1.326.768" mask="url(#b)" opacity=".7"/>
        </g>
        <g transform="translate(73.37 -.267)">
            <mask id="d" fill="#fff">
                <use xlink:href="#c"/>
            </mask>
            <path fill="#3851AE" d="M103.157 139.693L1.808 81.027c-.732-.424-1.326-1.455-1.326-2.303L.479 1.523c0-.848.594-1.192 1.327-.768L103.16 59.424c.732.423 1.326 1.454 1.326 2.302l-.002 77.2c0 .848-.594 1.191-1.326.767" mask="url(#d)" opacity=".5"/>
        </g>
        <path fill="#D0D7EC" fill-rule="nonzero" d="M40.079 11.331l-8.647 5.006 8.817 5.48z"/>
        <path fill="#B3B3B3" d="M150.868 173.776l-.067.04-8.507 4.93-.466-9.233-.056-1.1z"/>
        <path fill="url(#e)" fill-rule="nonzero" d="M113.193 73.237v-.267c0-1.98-1.383-4.385-3.093-5.373L9.19 9.183V2.73c0-1.98 1.384-2.784 3.093-1.791l106.484 61.638c1.71.988 3.092 3.393 3.092 5.373h.003l.005 93.176c0 1.07-.408 1.797-1.05 2.083l-8.51 4.928.886-94.9z" transform="translate(29.986 10.608)"/>
        <path fill="#CCC" d="M143.183 170.296v6.453c0 1.98-1.388 2.779-3.097 1.791l-106.48-61.638c-1.71-.988-3.093-3.393-3.093-5.373v-6.448l112.67 65.215z"/>
        <path fill="#9D9D9C" d="M90.149 147.06l-17.417-10.082c-1.382-.8-2.502-2.57-2.502-3.956 0-1.385 1.12-1.86 2.502-1.06l17.417 10.081c1.38.8 2.501 2.572 2.501 3.957 0 1.386-1.12 1.86-2.501 1.06"/>
        <g transform="translate(34.452 22.761)">
            <mask id="g" fill="#fff">
                <use xlink:href="#f"/>
            </mask>
            <path fill="#56C8DA" d="M.396 1.071v77.202c0 .847.595 1.878 1.327 2.302l101.35 58.667c.732.424 1.326.08 1.326-.768l.002-77.2c0-.847-.594-1.879-1.326-2.302L1.72.303a1.204 1.204 0 0 0-.592-.18C.694.122.396.47.396 1.07" mask="url(#g)"/>
        </g>
        <g>
            <path fill="url(#h)" d="M138.85 145.508c0 .85-.592 1.193-1.327.768L36.173 87.61c-.73-.425-1.326-1.453-1.326-2.303v-77.2c0-.85.592-1.192 1.327-.767l101.354 58.665c.73.424 1.322 1.458 1.322 2.302v77.2zm1.24-83.028L33.606.837c-1.71-.988-3.093-.185-3.093 1.79v93.177c0 1.98 1.389 4.385 3.093 5.373l106.484 61.638c1.71.988 3.093.19 3.093-1.791V67.853c0-1.98-1.383-4.386-3.093-5.373z" transform="translate(0 15.725)"/>
            <path fill="#2645B5" d="M121.52 97.553l-.005 73.721c0 .849-.592 1.192-1.327.767l-101.35-58.665c-.73-.425-1.326-1.458-1.326-2.303V37.348L121.52 97.553z" opacity=".696"/>
            <path fill="#224384" d="M121.52 100.112L17.512 39.907v-6.034c0-.849.592-1.192 1.327-.767L120.193 91.77c.73.425 1.327 1.453 1.327 2.303v6.038z"/>
            <path fill="#FF584F" d="M21.692 37.662c.701.416 1.276 1.39 1.276 2.167 0 .775-.575 1.07-1.276.654-.702-.415-1.276-1.39-1.276-2.166 0-.775.574-1.07 1.276-.655"/>
            <path fill="#F7B500" d="M25.52 39.581c.701.416 1.276 1.39 1.276 2.167 0 .775-.575 1.07-1.276.654-.702-.415-1.276-1.39-1.276-2.166 0-.775.574-1.07 1.276-.655"/>
            <path fill="#23B685" d="M29.348 42.14c.701.416 1.276 1.391 1.276 2.166 0 .777-.575 1.07-1.276.655-.702-.416-1.276-1.39-1.276-2.166s.574-1.07 1.276-.655"/>
            <path fill="url(#i)" fill-rule="nonzero" d="M112.85 89.016v9.78l-4.324 2.508.002-5.009L8.843 38.592V28.56l104.008 60.205v.25zM8.844 28.56v10.032L4.5 41.1V31.067l4.343-2.507z" transform="translate(0 15.725)"/>
            <path fill="url(#j)" d="M.034.363l104.03 60.206-.004 10.03L.034 10.397z" transform="translate(4.466 46.429)"/>
            <path fill="#5D92E1" d="M86.624 125.302c-1.546-.89-2.797-.363-2.797 1.182 0 1.55 1.25 3.526 2.797 4.417 1.541.894 2.792.362 2.792-1.183s-1.25-3.52-2.792-4.416m4.68 6.156c-.311 2.134-2.291 2.769-4.68 1.387-2.613-1.515-4.731-4.861-4.731-7.481 0-1.976 1.204-2.968 2.92-2.687.091.015.183.03.28.056.087.02.173.046.265.072.108.03.22.067.327.107.097.041.199.082.301.128.102.041.21.093.317.149a9.9 9.9 0 0 1 .321.174c.128.077.255.158.383.245h.005c2.072 1.362 3.767 3.854 4.216 6.105.02.098.036.19.05.287.037.19.057.379.063.563.004.092.01.184.01.276 0 .22-.016.424-.047.62m5.59-.292l.014.005-.005-.026.031.01-.005-.026.036.011-.01-.025.035.01-.005-.026.03.01-.004-.025.035.01-.005-.026.03.01-.004-.025.035.01-.01-.025.036.01-.005-.026.03.006-.005-.02.036.004-.01-.02.036.004-.005-.02.03.005-.005-.025.036.01-.01-.026.035.01-.005-.025.03.01-.004-.025.035.01-.005-.026.031.01-.005-.025.036.01-.01-.025.036.01-.006-.026.031.01-.005-.026.035.006-.01-.02.036.005-.005-.02.03.004-.005-.02.036.005-.01-.025.035.01-.004-.026.03.01-.005-.025.036.01-.01-.026.035.01-.005-.025.036.01-.01-.025.035.01-.005-.026.03.01-.004-.025.035.01-.01-.025.036.004-.005-.02.03.005-.005-.02.036.005-.01-.026.036.01-.006-.025.031.01-.005-.025.036.01-.01-.026.035.01-.005-.025.036.01-.01-.026.035.011-.005-.026.03.01-.004-.025.036.01-.01-.025.035.005-.005-.02.03.004-.005-.02.036.005-.01-.02.036.005-.005-.026.03.01-.005-.025.036.01-.01-.025.035.01-.005-.026.036.01-.01-.025.036.01-.006-.026.032.01-.006-.025.036.01-.01-.025.035.01-.005-.026.031.006-.005-.021.035.005-.01-.02.036.005-.005-.02.03.004-.005-.025.036.01-.01-.025.035.01-.004-.026.035.01-.01-.025.036.01-.005-.026.03.01-.005-.025.036.01-.01-.025.035.01-.005-.026.03.01-.004-.025.035.005-.01-.02.036.005-.005-.02.03.004-.005-.025.036.01-.01-.025.036.01-.005-.026.035.01-.648-2.369-2.118-.537a15.911 15.911 0 0 0-1.536-3.004l1.311-1.05-1.694-2.215-.026.02-.025.016h-.005l-.026.015-.025.02v-.004l-.026.02-.005-.005-.026.02v-.005l-.025.02-.005-.004-.02.02-.006-.005-.025.02v-.005l-.026.02-.005-.004-.02.02-.005-.005-.026.02v-.005l-.025.02h-.005l-.025.016-.026.016-.026.02-.005-.005-.025.02v-.005l-.026.02-.005-.004-.02.02-.006-.005-.025.02v-.005l-.026.02-.005-.004-.02.02-.005-.005-.026.02v-.005l-.025.02h-.006l-.02.016h-.005l-.026.016-.025.02-.005-.005-.026.02v-.005l-.025.02-.005-.004-.02.02-.006-.005-.025.02v-.005l-.026.02-.005-.004-.02.02-.006-.005-.025.02v-.005l-.026.02-.005-.004-.02.02h-.005l-.026.016-.025.015h-.005l-.026.02v-.005l-.025.02-.006-.004-.02.02-.005-.005-.026.02v-.005l-.025.02-.005-.004-.02.02-.006-.005-.025.02v-.005l-.026.02-.004-.004-.021.02-.005-.005-.026.02-.025.016h-.006l-.024.015-.026.02-.006-.004-.02.02-.005-.005-.026.02v-.005l-.025.02-.005-.004-.005.005a15.571 15.571 0 0 0-2.307-2.057v-2.232l-2.093-1.207v.03l-.026-.015v.03l-.03-.015v.031l-.025-.015v.03l-.026-.015v.03l-.03-.014v.03l-.026-.015v.03l-.025-.015v.03l-.031-.014v.03l-.026-.015v.03l-.026-.015v.036l-.03-.02v.035l-.026-.015v.03l-.03-.015v.031l-.026-.015v.03l-.025-.015v.03l-.031-.014v.03l-.025-.015v.03l-.026-.015v.03l-.03-.014v.03l-.026-.015v.03l-.026-.015v.036l-.03-.02v.035l-.026-.02v.036l-.03-.016v.031l-.026-.015v.03l-.025-.015v.03l-.031-.014v.03l-.026-.015v.03l-.025-.015v.03l-.03-.014v.03l-.026-.015v.03l-.026-.015v.031l-.03-.015v.035l-.026-.02v.036l-.03-.016v.031l-.025-.015v.03l-.027-.015v.03l-.03-.015v.031l-.026-.015v.03l-.025-.015v.03l-.03-.014v.03l-.026-.015v.03l-.026-.015v.031l-.03-.015v.03l-.026-.015v.036l-.03-.02v.035l-.026-.015v.03l-.026-.015v.03l-.03-.015v.031l-.026-.015v.03l-.025-.015v.03l-.031-.014v.03l-.026-.015v.03l-.025-.015v.03l-.03-.014v.03l-.026-.015v.036l-.03-.02v.035l-.026-.02v.035l-.026-.015v.03l-.03-.015v.031l-.026-.015v.03l-.026-.015v.03l-.03-.014v.03l-.026-.015v.03l-.025-.015v.03l-.03-.014v.03l-.026-.015v.03l-.03-.015v.036l-.026-.02v.035l-.026-.015v.03l-.03-.015v.031l-.026-.015v.03l-.025-.015v.03l-.031-.014v.03l-.026-.015v.03l-.025-.015v.03l-.031-.014v.03l-.025-.015v.03l-.031-.015v.031l-.026-.015v.035l-.025-.02v.036l-.03-.016v.031l-.026-.015v.03l-.026-.015v.03l-.03-.014v.03l-.026-.015v.03l-.025-.015v.03l-.031-.014v.03l-.026-.015v.03l-.03-.015v.031l-.026-.015v.035l-.025-.02v.036l-.03-.02v.015l-1.246-2.441-1.69.256.005.01-.035.005.005.01-.03.005.004.01-.03.006.005.01-.036.005.005.01-.03.005.005.01-.031.006.005.01-.036.005.005.01-.03.005.005.01-.036.006.005.01-.03.005.005.01-.03.005.004.016-.035.005.005.01-.03.005.004.01-.03.006.005.01-.036.005.005.01-.03.005.005.01-.031.006.005.01-.036.005.005.01-.03.005.005.01-.036.006.01.01-.035.005.005.01-.03.005.004.016h-.036l.006.015-.031.005.005.01-.03.006.005.01-.036.005.005.01-.03.005.004.01-.03.006.005.01-.036.005.005.01-.03.005.005.01-.036.006.01.01-.036.005.006.01-.031.005.005.01-.036.006.005.015-.03.005.005.01-.03.006.005.01-.036.005.005.01-.03.005.004.01-.03.006.005.01-.036.005.005.01-.03.005.005.01-.036.006.01.01-.036.005.005.01-.03.005.005.01-.036.006.005.01-.03.005.005.015-.03.006.004.01-.035.005.005.01-.031.005.005.01-.03.006.005.01-.036.005.005.01-.03.005.004.01-.035.006.01.01-.036.005.005.01-.03.005.005.01-.036.006.005.01-.03.005.005.015h-.031l.005.016-.035.005.004.01-.03.005.005.01-.03.006.004.01-.035.005.005.01-.03.005.004.01-.035.006.01.01-.036.005.005.01-.03.005.005.01-.036.006.005.01-.03.005.005.01-.031.005.006.016-.037.005.005.01-.03.005.005.01-.03.006.004.01-.035.005.005.01-.03.005.004.01-.036.006.01.01-.035.005.005.01-.03.005.005.01-.036.006.005.01-.03.005.004.01-.03.005.005.01-.036.006.005.015-.03.005.005.01-.03.006.004.01-.036.005.006.01-.031.005.005.01-.036.006.01.01-.035.005.005.01-.03.005.004.01-.035.006.005.01-.03.005.004.01-.03.005.005.01-.035.006.004.015h-.03l.005.015-.031.006.005.01-.036.005.005.01-.03.005.005.01-.036.006.01.01-.035.005.005.01-.03.005.004.01-.035.006.005.01-.031.005.214.42-.01-.01-.015.03-.015-.015-.01.03-.016-.015-.01.03-.016-.014-.015.03-.015-.015-.01.03-.016-.015-.01.03-.015-.01-.015.026-.016-.01-.01.026-.015-.01-.016.03-.015-.015-.01.03-.015-.015-.01.03-.016-.015-.015.031-.015-.015-.01.03-.015-.015-.011.03-.016-.015-.015.031-.015-.015-.01.03-.015-.015-.011.03-.015-.014-.016.03-.015-.01-.01.026-.015-.01-.016.025-.015-.01-.01.03-.016-.015-.01.03-.015-.015-.015.031-.016-.015-.01.03-.015-.015-.01.03-.016-.015-.015.031-.015-.015-.01.03-.016-.015-.01.03-.015-.014-.016.03-.015-.015-.01.03-.016-.01-.014.026-.016-.01-.01.025-.016-.01-.01.03-.015-.015-.016.031-.015-.015-.01.03-.015-.015-.01.03-.016-.015-.015.031-.016-.015-.01.03-.015-.015-.01.03-.016-.014-.015.03-.015-.015-.01.03-.016-.01-.015.026-.015-.01-.01.025-.016-.01-.01.03-.015-.015-.016.031-.014-.015-.011.03-.016-.015-.01.03-.015-.015-.015.031-.016-.015-.01.03-.015-.015-.01.03-.015-.014-.016.03-.015-.015-.01.03-.016-.015-.015.03-.015-.01-.01.026-.016-.01-.01.026-.016-.01-.015.03-.015-.015-.01.03-.016-.015-.01.03-.015-.015-.015.031-.016-.015-.01.03-.015-.015-.01.03-.016-.014-.015.03-.015-.015-.01.03-.016-.015-.015.03-.016-.014-.01.03-.015-.01-.01.026-.016-.01-.015.025-.015-.01-.01.03-.016-.015-.01.03-.015-.015-.016.031-.015-.015-.01.03-.015-.015-.01.03-.016-.015-.015.031-.016-.015-.01.03-.015-.015-.015.03-.016-.014-.01.03-.015-.01-.01.026-.016-.01-.015.025-.015-.01-.01.03-.016-.015-.01.03-.015-.015-.016.031-.015-.015-.01.03-.015-.015-.01.03-.015-.015-.016.031-.016-.015-.01.03-.015-.015-.016.03-.015-.014-.01.03-.015-.015-.01.03-.016-.01-.015.026-.016-.01-.01.025-.015-.01-.01.03-.016-.015-.015.031-.015-.015-.01.03-.016-.015-.648 1.622 2.119 1.914a6.487 6.487 0 0 0-.103.932h-.015l.005.02-.036-.005.01.02-.035-.005.005.02-.03-.004.004.025-.035-.01.01.026-.036-.01.005.025-.03-.01.005.025-.036-.01.005.026-.03-.01.004.025-.035-.01.01.025-.036-.01.005.026-.03-.01.005.025-.036-.005.01.02-.035-.005.005.02-.031-.004.005.025-.035-.01.01.026-.035-.01.004.025-.03-.01.004.025-.035-.01.005.026-.03-.01.004.025-.035-.01.01.025-.036-.01.005.026-.03-.01.005.025-.036-.005.01.02-.036-.005.006.02-.031-.004.006.02-.037-.005.01.026-.035-.01.005.025-.03-.01.004.025-.035-.01.005.026-.03-.01.004.025-.036-.01.01.025-.035-.01.005.026-.03-.01.005.025-.036-.01.01.025-.036-.005.005.02-.03-.004.005.02-.036-.005.01.02-.035-.005.005.026-.03-.01.004.025-.036-.01.01.026-.035-.01.005.025-.036-.01.01.025-.035-.01.005.026-.03-.01.004.025-.035-.01.01.025-.036-.01.005.026-.03-.005.005.02-.035-.005.01.02-.036-.005.005.026-.031-.01.005.025-.036-.01.01.026-.035-.01.005.025-.036-.01.01.025-.035-.01.005.026-.03-.01.004.025-.035-.01.01.025-.036-.01.006.026-.031-.005.005.02-.036-.005.01.02-.036-.005.005.02-.03-.004.005.025-.036-.01.011.026-.036-.01.005.025-.036-.01.01.025-.035-.01.005.026-.031-.01.005.025-.036-.01.01.025-.035-.01.005.026-.03-.01.004.025-.035-.005.01.02-.036-.005.005.02-.03-.004.005.02-.036-.005.648 2.37 2.113.537a16.705 16.705 0 0 0 1.537 3.003l-1.307 1.05 1.695 2.21.025-.015.026-.02v.004l.025-.02.005.004.026-.02v.006l.025-.02.005.004.02-.02.006.005.025-.02v.005l.026-.021.005.005.02-.02.006.005.025-.02.026-.016h.005l.025-.015.026-.016.025-.02.005.005.026-.02v.004l.025-.02.005.005.02-.02.007.005.025-.021v.006l.025-.02.005.004.02-.02.006.004.026-.02v.006l.025-.02h.005l.02-.016h.005l.026-.016.025-.02.005.004.026-.02v.006l.025-.02.006.004.02-.02.005.005.026-.02v.005l.025-.021.005.005.02-.02.006.005.025-.02v.004l.026-.02.005.005.02-.02h.005l.026-.016.025-.015h.006l.025-.02v.005l.026-.02.005.004.02-.02.005.005.026-.021v.006l.025-.02.005.004.02-.02.006.004.025-.02v.006l.026-.02.005.004.02-.02h.006l.05-.031h.006l.025-.02v.005l.026-.02.005.004.02-.02.006.005.025-.02v.005l.025-.02.006.004.02-.02.005.005.026-.02v.005l.01-.005c.178.189.357.378.546.562.153.154.311.302.47.446.04.036.076.071.117.107.168.149.342.292.515.435.215.174.434.343.654.502v2.236l2.097 1.207v-.03l.026.015v-.03l.025.015v-.03l.032.015v-.032l.025.016v-.03l.025.014v-.03l.03.015v-.03l.027.015v-.03l.025.015v-.037l.03.021v-.035l.026.014v-.03l.03.016v-.031l.026.015v-.03l.026.015v-.031l.03.016v-.031l.026.015v-.031l.025.016v-.03l.03.014v-.03l.026.015v-.03l.026.015v-.036l.03.02v-.035l.026.015v-.03l.03.015v-.031l.026.015v-.03l.026.015v-.03l.03.015v-.032l.026.016v-.03l.025.014v-.03l.031.015v-.03l.025.015v-.03l.026.015v-.03l.03.014v-.035l.026.02v-.036l.03.016v-.031l.026.015v-.03l.026.015v-.031l.031.016v-.031l.025.015v-.03l.025.015v-.03l.032.015v-.031l.025.015v-.03l.026.015v-.03l.03.014v-.03l.025.015v-.036l.03.02v-.035l.026.015v-.031l.026.016v-.03l.03.014v-.03l.026.015v-.03l.026.014v-.03l.03.016v-.031l.026.015v-.03l.025.015v-.032l.03.016v-.03l.026.014v-.035l.031.02v-.035l.026.015v-.03l.025.015v-.031l.03.016v-.031l.026.015v-.03l.026.015v-.03l.03.015v-.031l.026.015v-.031l.025.016v-.03l.031.014v-.03l.026.015v-.03l.03.014v-.035l.026.02v-.036l.025.016v-.03l.03.014v-.03l.026.015v-.03l.026.015v-.03l.031.015v-.031l.026.015v-.03l.025.015v-.032l.03.016v-.03l.026.014v-.03l.03.016v-.03l.026.014v-.035l.025.02v-.036l.031.016v-.031l.025.015v-.03l.026.015v-.03l.03.015v-.031l.026.015v-.031l.026.016v-.03l.03.014v-.03l.026.015v-.03l.03.015v-.03l.026.014v-.036l.025.021v-.036l.031.015v-.03l.026.015v-.03l.025.015v-.01l1.245 2.44 1.695-.255-.005-.011.03-.005-.005-.01.036-.005-.004-.01.03-.005-.005-.01.03-.006-.004-.01.035-.005-.005-.01.03-.006-.005-.01.036-.005-.005-.01.03-.005-.005-.015h.031l-.005-.016.036-.005-.005-.01.03-.005-.005-.01.03-.006-.004-.01.035-.005-.005-.01.03-.005-.004-.01.03-.006-.005-.01.036-.006-.005-.01.03-.004-.005-.011.036-.005-.01-.01.036-.005-.006-.01.031-.005-.005-.016h.036l-.005-.015.03-.005-.005-.011.03-.005-.004-.01.035-.005-.005-.01.03-.005-.004-.01.03-.006-.005-.01.037-.005-.006-.01.03-.005-.005-.01.036-.006-.01-.01.036-.005-.005-.01.03-.005-.005-.01.036-.006-.005-.016.03-.004-.005-.01.03-.006-.004-.01.036-.005-.005-.01.03-.005-.004-.01.03-.006-.006-.01.036-.006-.005-.01.03-.004-.004-.011.035-.005-.01-.01.036-.005-.005-.01.03-.005-.005-.01.036-.006-.005-.015h.03l-.005-.016.031-.005-.005-.01.036-.005-.005-.01.03-.005-.005-.01.03-.006-.004-.01.035-.005-.005-.01.03-.005-.004-.01.035-.006-.01-.01.036-.005-.005-.01.03-.005-.005-.01.036-.006-.005-.01.03-.006-.004-.014h.03l-.005-.016.036-.005-.005-.01.03-.006-.005-.01.03-.005-.004-.01.035-.005-.005-.01.031-.005-.005-.011.036-.005-.01-.01.036-.005-.006-.01.031-.005-.005-.01.035-.006-.005-.01.03-.005-.004-.01.03-.005-.005-.016.036-.006-.005-.01.03-.004-.004-.01.03-.006-.005-.01.036-.005-.006-.01.031-.005-.004-.01.035-.006-.01-.01.035-.005-.005-.01.03-.006-.004-.01.035-.005-.005-.01.03-.006-.004-.01.03-.004-.005-.016h.036l-.005-.015.03-.006-.005-.01.031-.005-.005-.01.036-.005-.005-.01.03-.005-.005-.01.036-.006-.01-.01.035-.005-.005-.01.03-.005-.004-.01.036-.006-.006-.01.031-.005-.005-.01.03-.005-.005-.01.036-.006-.005-.015.03-.005-.004-.011.03-.005-.005-.01.036-.005-.005-.01.03-.005-.005-.01.037-.006-.011-.01.036-.005-.006-.01.032-.006-.006-.01.036-.005-.005-.01.03-.005-.005-.01.031-.005-.005-.01.035-.006-.214-.42.01.01.01-.03.016.016.016-.031.014.015.011-.031.015.016.01-.03.015.01.016-.026.015.01.01-.026.015.01.016-.03.015.015.01-.031.016.016.01-.03.015.014.015-.03.016.015.01-.03.015.015.01-.03.016.015.015-.032.015.016.01-.03.016.014.01-.03.015.016.016-.031.016.01.01-.026.015.01.015-.025.015.01.01-.03.016.014.01-.03.015.016.016-.031.015.015.01-.03.015.015.01-.03.016.015.015-.031.016.015.01-.031.015.016.01-.03.016.014.015-.03.015.01.01-.026.016.01.015-.025.015.01.01-.031.016.016.01-.03.015.014.016-.03.015.015.01-.03.016.015.01-.03.015.015.016-.032.015.016.01-.03.015.014.01-.03.016.016.015-.031.015.015.01-.03.016.01.015-.026.016.01.01-.025.015.01.01-.03.016.015.015-.031.015.015.01-.03.016.015.01-.031.015.016.016-.031.015.015.01-.031.015.016.01-.03.016.014.015-.03.016.015.01-.03.016.015.014-.03.016.009.01-.026.015.011.01-.026.016.01.015-.03.015.015.01-.03.016.015.01-.03.015.015.016-.032.015.016.01-.03.015.014.01-.03.016.016.015-.031.016.015.01-.03.015.015.015-.032.016.011.01-.025.015.01.01-.026.016.01.015-.03.015.015.01-.03.016.015.01-.031.015.016.016-.031.015.015.011-.03.015.015.01-.03.015.015.015-.031.016.015.01-.03.015.015.016-.03.015.015.01-.032.015.011.01-.026.016.01.015-.025.016.01.01-.031.015.016.01-.03.016.014.015-.03.015.015.01-.03.016.014.01-.03.015.016.016-.031.016.015.01-.03.014.015.016-.031.015.016.01-.031.016.015.01-.03.016.01.014-.026.016.01.01-.025.015.01.01-.031.016.016.015-.031.015.015.01-.03.016.015.01-.03.015.015.016-.031.015.015.648-1.622-2.117-1.914c.055-.292.086-.609.101-.936"/>
            <path fill="#4378E9" d="M98.26 127.65l-2.764 1.595-2.115-.535 2.764-1.595zM98.907 134.017l-2.765 1.595-2.117-1.915 2.765-1.595zM91.843 125.704l2.765-1.594 1.31-1.05-2.766 1.595zM87.668 121.244l2.765-1.595v-2.231l-2.765 1.595zM83.092 119.403l2.484-1.433v-.169l.217-.117-1.244-2.437-2.765 1.595zM80.513 117.377l-2.765 1.595 2.115 1.914 2.765-1.595zM79.866 122.995L77.1 124.59l2.117.536 2.765-1.596zM82.856 129.955l-2.765 1.594 1.309-1.048 1.702-.982.12.142zM81.784 133.763l2.765-1.595.5-.4-.126-.109-1.83 1.056zM87.668 138.404l2.765-1.595v-2.231l-2.765 1.594zM93.152 139.11l-1.309-2.564 2.765-1.595 1.31 2.564z"/>
            <path fill="#63B1F0" d="M91.304 131.458c-.311 2.134-2.291 2.769-4.68 1.387-2.613-1.515-4.731-4.861-4.731-7.481 0-1.976 1.204-2.968 2.92-2.687.091.015.183.03.28.056.087.02.173.046.265.072a3.975 3.975 0 0 1 .628.235c.107.046.21.093.316.149a9.9 9.9 0 0 1 .322.174c.133.077.26.153.388.245 2.073 1.362 3.767 3.854 4.216 6.105.025.098.04.19.05.287.037.19.057.379.063.563.004.092.01.184.01.276 0 .22-.016.424-.047.62m2.838.997c0-.45-.04-.91-.117-1.376l2.118.537-.648-2.37-2.113-.537a16.41 16.41 0 0 0-1.536-3.003l1.306-1.05-1.695-2.215-1.306 1.049a16 16 0 0 0-2.48-2.247v-2.23l-2.098-1.214v2.231c-.883-.389-1.72-.593-2.48-.629l-1.308-2.559-1.663.246-.031.005.214.42 1.093 2.144a3.311 3.311 0 0 0-1.537 1.228l-2.097-1.899-.016-.015-.648 1.622 2.119 1.914a6.456 6.456 0 0 0-.113.932v.02c-.005.097-.005.194-.005.292 0 .445.041.905.118 1.376l-2.119-.537.648 2.37 2.113.537a16.705 16.705 0 0 0 1.537 3.003l-1.307 1.05 1.694 2.21 1.307-1.044c.056.067.117.128.179.19.178.189.357.378.546.562.153.154.311.302.47.446.04.036.076.071.117.107.168.149.342.292.515.434.215.175.434.344.654.503v2.236l2.097 1.207v-2.23c.883.388 1.72.598 2.48.629l.062.123 1.245 2.44 1.695-.255-.005-.011-1.301-2.553a3.306 3.306 0 0 0 1.536-1.223l2.113 1.908.648-1.616-2.118-1.92c.076-.379.117-.793.117-1.238"/>
            <path fill="#4378E9" d="M86.624 130.9c-1.546-.89-2.797-2.865-2.797-4.416 0-1.545 1.25-2.072 2.797-1.182 1.541.896 2.792 2.871 2.792 4.416 0 1.545-1.25 2.077-2.792 1.183m4.568 1.033c-.556-.092-1.164-.317-1.807-.685a6.178 6.178 0 0 1-.388-.246l.006-.006 2.225-1.284c-.45-2.251-2.144-4.743-4.216-6.105h-.005l-2.215 1.28c-.005.005-.01.005-.01.005a5.746 5.746 0 0 1-.123-1.12c0-.41.056-.774.153-1.096-1.715-.281-2.92.711-2.92 2.687 0 2.62 2.119 5.966 4.732 7.481 2.389 1.382 4.369.747 4.68-1.387a3.247 3.247 0 0 1-.112.476"/>
            <path fill="#63B1F0" d="M89.416 129.718c0 1.546-1.25 2.078-2.792 1.182-1.546-.89-2.797-2.865-2.797-4.416 0-1.545 1.25-2.072 2.797-1.182 1.541.896 2.792 2.87 2.792 4.416"/>
            <path fill="#5D92E1" d="M101.714 147.549c-2.092-1.714-3.383-4.569-2.882-6.376.02-.07.046-.131.07-.194.776.076 1.681.48 2.584 1.22 2.093 1.713 3.383 4.568 2.882 6.376-.019.07-.044.13-.068.195-.778-.078-1.682-.482-2.586-1.221zm-6.951-10.961l-.005-.005-.016.018-.004-.006-.016.017-.005-.005-.015.017-.005-.005-.015.017-.005-.005-.016.017-.004-.006-.016.018-.005-.005-.015.016-.005-.005-.016.017-.003-.005-.017.017-.004-.005-.016.017-.004-.005-.016.017-.005-.005-.015.017-.004-.005-.017.016-.004-.004-.016.016-.004-.005-.016.018-.005-.006-.015.017-.004-.005-.017.017-.003-.005-.017.017-.004-.005-.016.017-.004-.005-.016.016-.004-.004-.016.017-.004-.006-.017.017-.004-.004-.016.016-.004-.005-.016.017-.004-.005-.016.017-.004-.005-.017.017-.004-.005-.9.954 1.334 1.59-.057-.028.002.023-.022-.011.002.022-.022-.01.002.022-.022-.01.001.022-.022-.01.002.022-.022-.01.002.022-.022-.01.002.022-.022-.011.002.022-.023-.01.002.022-.021-.01v.023l-.02-.011.001.022-.022-.01.002.022-.023-.01.002.022-.021-.01.001.022-.022-.011.002.022-.022-.01.002.023-.022-.011.001.022-.021-.01.001.022-.021-.01.001.022-.022-.01.002.022-.022-.01.002.022-.022-.01.001.022-.021-.01.002.022-.023-.011.002.022-.021-.01v.022l-.02-.011v.023l-.021-.01.002.022-.022-.011.001.023-.021-.01v.022l-.02-.011.001.023-.022-.012.002.023-.022-.01.002.023-.023-.012.002.023-.022-.01.002.022-.022-.011.002.023-.022-.011.002.023-.022-.012.001.024-.022-.012.002.024-.022-.011.002.023-.022-.012.002.023-.022-.01.002.022-.022-.011v.023l-.02-.011.001.023-.022-.012.002.024-.022-.011.002.023-.022-.012v.024l-.02-.012.001.023-.022-.01.002.022-.022-.011.002.023-.022-.01.002.022-.023-.011.002.023-.022-.011.002.023-.021-.012v.023l-.02-.01v.023l-.021-.012.001.024-.022-.012.002.023-.021-.01.002.022-.023-.011.002.023-.022-.011.002.023-.022-.012.001.024-.021-.011.002.023-.022-.012.001.023-.022-.01.002.022-.022-.011.001.023-.021-.011.001.023-.021-.01.002.022-.023-.011.002.023-.022-.011.002.023-.022-.012.001.023-.021-.01.002.022-.023-.011.002.023-.022-.01.002.022-.022-.011.001.023-.021-.011.002.023-.022-.011.001.023-.022-.012.002.023-.022-.01.002.023-.022-.012.002.023-.022-.01.002.022-.022-.011v.023l-.02-.011.001.023-.022-.012.002.024-.022-.011.002.022-.022-.01.001.023-.022-.012.002.023-.022-.01.002.022-.022-.011.002.022-.023-.01.002.022-.021-.01.001.022-.022-.01.002.022-.021-.01.001.022-.023-.01.002.022-.021-.011.002.023-.023-.01.002.021-.022-.01.002.023-.022-.011.001.022-.021-.01.002.022-.022-.01.001.022-.022-.01.002.022-.021-.01.001.022-.022-.01.002.022-.022-.011.136 1.802 1.827.913c.137.693.371 1.412.68 2.13l-.015.005.004.005-.024.006.003.006-.023.006.003.005-.024.007.004.006-.024.006.004.006-.023.006.003.005-.024.007.003.005-.023.006.003.005-.024.007.004.006-.023.007.003.005-.024.006.003.005-.023.007.003.005-.023.007.003.005-.023.007.003.005-.023.006.003.006-.024.007.003.005-.023.006.003.005-.024.007.004.005-.023.007.003.005-.024.007.003.005-.023.007.003.005-.023.007.003.005-.023.007.003.005-.023.006.003.005-.024.007.003.005-.023.007.003.005-.023.007.003.005-.023.007.003.005-.024.007.003.005-.023.007.003.004-.023.007.003.005-.023.008.003.005-.023.006.003.005-.024.007.003.005-.023.007.003.005-.023.007.003.005-.023.007.003.004-.024.008.003.005-.023.007.003.004-.023.007.004.005-.024.007.003.005-.023.007.003.005-.024.007.003.005-.023.007.004.005-.024.007.003.005-.023.006.003.005-.024.007.003.005-.023.008.004.004-.023.007.002.005-.023.007.003.005-.023.007.003.005-.024.007.004.005-.023.006.003.005-.024.008.003.005-.023.006.003.005-.024.007.004.005-.023.007.003.005-.023.006.002.006-.023.006.003.006-.023.006.003.006-.023.006.003.006-.023.006 1.12 1.963 1.393-.389c.531.78 1.15 1.52 1.836 2.188l-.427 1.541 1.677 1.374.007-.023.013.01.007-.022.013.011.007-.023.014.011.006-.023.014.012.007-.023.013.01.007-.023.013.012.007-.024.014.012.006-.023.014.01.006-.022.014.011.007-.023.013.011.006-.023.014.012.007-.024.014.011.006-.023.014.012.007-.023.013.01.006-.022.014.011.006-.023.015.011.006-.023.014.01.006-.022.014.011.006-.023.014.011.006-.023.014.012.007-.023.014.01.006-.023.013.012.007-.023.014.01.006-.022.014.011.007-.023.014.011.006-.023.014.011.006-.023.014.012.006-.024.014.011.006-.023.014.012.007-.023.014.01.006-.022.013.011.007-.023.014.011.006-.023.014.012.007-.024.014.011.006-.023.013.011.007-.023.014.012.006-.023.014.01.007-.022.013.011.007-.023.013.01.007-.022.014.011.006-.023.014.011.006-.023.014.012.007-.024.013.012.007-.023.013.01.007-.023.014.012.006-.023.014.01.006-.022.014.011.007-.023.013.011.007-.023.014.012.006-.023.014.01.006-.023.014.012.007-.024.013.012.007-.023.014.01.005-.022.014.011.007-.023.014.01.006-.022.014.011.007-.023.014.011.005-.023.014.012.007-.023.014.01.006-.022.014.011.006-.024.015.012.005-.023.014.01.007-.022.014.011.006-.023.014.011.006-.023.014.012.006-.023.014.01.006-.023.014.012.007-.023.014.01.006-.022.013.011.007-.023.015.011.005-.023.014.01.007-.022.013.011.007-.023.013.011.007-.023.014.012.006-.023.014.01.003-.01c.358.179.71.323 1.053.43l.703 2.106 1.592.259-.005-.017.025.005-.005-.016.025.004-.005-.016.026.004-.005-.016.025.005-.005-.017.025.005-.005-.016.025.003-.005-.016.026.005-.005-.016.025.004-.006-.016.026.004-.005-.016.025.004-.005-.016.025.005-.004-.017.025.004-.006-.016.026.005-.005-.017.025.005-.005-.016.025.004-.004-.016.025.004-.006-.016.026.004-.006-.016.026.004-.005-.016.025.004-.005-.016.026.005-.006-.017.026.005-.006-.016.026.004-.005-.017.025.005-.005-.016.026.004-.006-.016.025.004-.005-.016.026.004-.006-.016.026.005-.006-.017.027.004-.006-.016.025.005-.005-.017.026.005-.006-.016.026.004-.006-.016.026.004-.005-.016.025.005-.005-.017.025.004-.005-.016.026.004-.006-.016.025.005-.004-.017.025.005-.005-.016.025.004-.005-.017.026.005-.006-.016.025.004-.004-.016.025.004-.005-.016.025.005-.006-.017.027.005-.006-.016.025.003-.005-.016.026.005-.005-.017.025.005-.006-.016.026.004-.005-.016.025.004-.005-.016.026.005-.006-.017.026.004-.005-.016.025.005-.006-.017.026.005-.005-.016.026.004-.006-.016.026.004-.005-.017.025.005-.006-.016.026.004-.005-.016.025.004-.005-.016.026.005-.005-.016.025.004-.006-.016.026.004-.006-.017.026.005-.005-.015.026.003-.006-.016.025.004-.005-.016.026.004-.006-.015.026.004-.005-.016.026.003-.006-.015.026.004-.006-.016.026.004-.006-.016.026.004-.005-.016.025.004-.005-.015.026.003-.006-.015.025.003-.005-.016.026.004-.005-.015.025.004-.005-.016.026.004-.006-.016.025.004-.005-.016.026.004-.006-.015.026.003-.006-.016.026.004-.005-.015.025.003-.005-.015.025.004-.005-.016.026.003-.006-.015.026.004-.005-.016.025.004-.005-.016.025.004-.005-.016.026.004-.006-.015.026.004-.006-.016.026.003-.005-.015.025.003-.006-.015.026.004-.005-.016.026.004-.006-.016.026.004-.005-.016.025.004-.006-.015.026.004-.005-.017.026.004-.006-.015.026.004-.006-.016.026.004-.006-.016.026.004-.005-.016.025.005-.005-.017.026.004-.006-.016.026.005-.022-.066.477.568.015-.017.004.005.017-.017.004.005.016-.017.004.005.016-.016.005.005.015-.018.004.006.017-.017.004.005.016-.017.004.005.016-.017.005.005.015-.017.004.005.016-.016.004.004.017-.017.004.006.015-.018.005.005.016-.016.004.005.016-.017.004.005.017-.017.004.005.016-.017.004.005.016-.017.004.005.016-.017.004.005.017-.016.003.004.017-.016.004.005.015-.017.005.005.016-.017.004.005.016-.017.004.005.017-.017.004.005.015-.017.005.005.016-.016.004.005.016-.018.004.006.017-.017.003.004.016-.016.005.005.015-.017.005.005.016-.017.004.005.016-.017.004.005.016-.017.005.006.015-.018.005.005.016-.016.003.005.017-.017.004.005.016-.017.004.005.016-.017.005.005.015-.017.004.005.017-.017.004.005.016-.017.004.005.016-.016.005.005.015-.017.004.005.017-.017.003.005.017-.017.004.006.016-.018.004.005.016-.017.004.006.016-.017.004.005.017-.017.004.005.016-.018.004.006.016-.017.005.006.015-.018.004.005.017-.017.004.006.016-.017.004.005.015-.017.005.005.016-.017.004.005.016-.017.005.005.016-.017.004.005.015-.017.005.005.016-.016.004.005.016-.017.005.005.016-.017.004.005.015-.017.005.005.015-.017.005.005.016-.017.004.005.016-.017.005.005.016-.016.004.005.015-.018.005.005.016-.016.004.005.016-.017.005.005.016-.017.003.005.016-.017.005.005.016-.016.004.004.016-.017.005.005.015-.017.004.005.016-.016.005.005.016-.017.004.005.016-.017.005.005.015-.017.004.005.016-.017.004.005.016-.017.005.005.016-.016.004.004.016-.016.004.005.016-.018.004.005.016-.016.005.005.016-.017.004.005.016-.017.004.005.016-.017.004.005.016-.016.004.005.017-.018.003.005.016-.016.005.004.016-.016.004.005.016-.017.004.005.017-.017.003.005.016-.017.005.005.016-.017.004.005.016-.017.004.005.017-.016.003.005.016-.017.005.005.016-.017.004.005.016-.017.004.005.9-.954-1.334-1.59.057.028-.002-.023.022.011-.001-.022.021.01-.001-.023.022.011-.002-.023.021.012v-.023l.021.01-.001-.022.021.011-.001-.023.022.011-.002-.023.021.012-.001-.024.022.011-.001-.023.021.012-.002-.023.023.01-.002-.022.021.011-.001-.023.021.011-.001-.023.022.01-.002-.022.022.011-.002-.023.022.011-.001-.023.021.012-.002-.023.023.01-.002-.022.022.011-.002-.023.022.01-.001-.022.021.011-.002-.023.023.011-.002-.023.022.012-.002-.024.022.012-.001-.023.021.01-.002-.023.023.012-.002-.023.022.01-.002-.022.022.011-.002-.023.022.011-.002-.023.022.012-.001-.024.022.011-.002-.023.022.012-.002-.024.022.012-.002-.023.022.01-.001-.022.022.011-.002-.023.022.01-.002-.022.022.011-.002-.023.022.011-.002-.023.023.012-.002-.024.021.012v-.023l.02.011-.001-.024.022.012-.002-.023.023.01-.002-.022.021.011-.002-.023.023.011-.002-.023.022.012-.002-.023.022.01-.001-.023.021.012-.001-.023.021.01-.001-.022.022.011-.002-.023.022.011-.002-.023.022.01-.001-.022.021.011-.002-.023.023.011-.002-.023.021.012v-.023l.02.01v-.022l.021.011-.002-.023.022.01-.001-.021.021.01v-.023l.02.011v-.022l.021.01-.002-.022.022.01-.002-.022.022.01-.001-.022.022.01-.002-.021.022.01-.002-.023.022.011-.002-.023.022.011-.001-.022.022.01-.002-.022.022.01-.002-.022.022.01-.002-.022.022.01-.002-.022.022.01-.001-.022.022.011-.002-.022.021.01v-.022l.02.01-.001-.022.022.01-.001-.022.022.01-.002-.022.022.01-.002-.022.022.01-.002-.022.022.01-.002-.021.023.01-.002-.023.022.011-.002-.022.021.01-.001-.022.022.01-.002-.022.022.01-.001-.022.022.01-.002-.022.021.01-.002-.022.023.01-.002-.022.022.011-.002-.022.022.01-.001-.022.021.01-.002-.022.022.01-.001-.022.022.01-.002-.022.022.01-.001-.022.021.011-.002-.023.022.011-.002-.022.023.01-.002-.023.022.011-.002-.022.022.01-.001-.022.021.01-.002-.022.023.01-.137-1.801-1.827-.913a10.632 10.632 0 0 0-.68-2.13l.014-.005-.002-.005.023-.006-.003-.005.023-.008-.003-.005.024-.006-.003-.005.022-.007-.003-.005.025-.007-.004-.005.023-.007-.003-.005.023-.007-.002-.005.022-.007-.003-.005.024-.007-.003-.005.023-.006-.003-.005.023-.007-.003-.005.024-.007-.004-.005.024-.007-.003-.005.023-.007-.003-.005.023-.007-.003-.005.024-.007-.004-.005.023-.006-.002-.005.023-.007-.003-.006.023-.006-.003-.005.023-.007-.003-.005.023-.007-.002-.005.023-.007-.003-.005.023-.007-.003-.004.023-.007-.003-.006.023-.007-.003-.004.024-.007-.003-.005.023-.007-.004-.005.024-.006-.003-.006.023-.006-.003-.006.024-.006-.003-.006.023-.006-.004-.006.024-.007-.003-.004.023-.007-.003-.005.024-.007-.004-.005.024-.006-.004-.006.023-.006-.003-.006.024-.006-.003-.006.023-.006-.003-.006.024-.006-.004-.005.023-.007-.003-.006.024-.006-.003-.005.023-.006-.003-.006.023-.007-.003-.005.023-.006-.003-.006.023-.006-.003-.006.024-.006-.003-.006.023-.006-.003-.006.023-.005-.003-.006.023-.007-.003-.005.024-.007-.004-.005.024-.006-.003-.006.023-.006-.003-.006.023-.006-.003-.006.023-.006-.003-.006.024-.006-.003-.005.023-.007-.003-.006.023-.005-.003-.006.023-.006-.003-.006.024-.007-.003-.005.023-.006-.003-.006.023-.006-1.121-1.963-1.393.388a14.308 14.308 0 0 0-1.836-2.188l.427-1.54-1.676-1.373-.007.023-.014-.012-.006.024-.014-.012-.007.023-.014-.011-.006.023-.013-.011-.007.023-.014-.012-.006.024-.014-.011-.007.023-.013-.012-.007.024-.013-.012-.007.023-.014-.011-.006.023-.014-.011-.006.024-.014-.013-.007.024-.013-.011-.007.023-.013-.012-.007.024-.014-.012-.006.024-.014-.012-.006.023-.014-.011-.007.024-.013-.013-.007.023-.014-.01-.006.023-.014-.012-.006.024-.014-.012-.006.023-.014-.011-.007.023-.014-.011-.005.023-.014-.011-.007.023-.014-.011-.006.023-.014-.011-.007.023-.014-.012-.005.023-.014-.01-.007.022-.014-.011-.006.024-.014-.012-.007.023-.014-.011-.005.023-.014-.011-.007.023-.014-.011-.006.023-.014-.012-.006.023-.014-.01-.006.023-.015-.012-.005.023-.014-.01-.007.022-.014-.011-.006.023-.013-.011-.007.023-.015-.012-.005.024-.014-.011-.007.023-.013-.011-.007.023-.014-.012-.006.023-.014-.01-.006.022-.014-.011-.007.023-.013-.011-.007.023-.014-.011-.006.023-.014-.011-.006.023-.014-.012-.007.024-.013-.012-.007.023-.013-.01-.007.023-.014-.012-.006.023-.014-.01-.007.022-.013-.011-.007.023-.013-.011-.007.023-.014-.012-.006.023-.014-.01-.006.023-.014-.012-.007.024-.013-.012-.006.023-.014-.01-.007.022-.014-.011-.006.023-.014-.011-.007.023-.013-.012-.006.024-.014-.011-.007.023-.014-.012-.006.023-.014-.01-.006.022-.014-.011-.006.023-.014-.011-.006.023-.015-.01-.006.022-.014-.011-.006.023-.013-.011-.007.023-.014-.012-.006.023-.014-.01-.006.023-.015-.012-.006.023-.013-.01-.007.022-.014-.011-.002.01a7.51 7.51 0 0 0-1.054-.43l-.702-2.104-1.593-.26.006.016-.026-.004.005.016-.025-.004.005.015-.025-.003.005.016-.026-.004.006.016-.025-.004.004.015-.025-.004.005.016-.025-.003.005.015-.026-.004.006.016-.025-.004.004.016-.025-.004.005.016-.025-.005.005.016-.026-.003.006.015-.025-.004.005.017-.026-.004.005.015-.025-.004.005.016-.025-.004.005.016-.025-.005.005.017-.026-.004.006.015-.026-.004.005.017-.025-.005.005.016-.025-.004.005.016-.026-.004.006.016-.026-.004.005.016-.025-.005.006.017-.026-.004.005.016-.025-.005.005.017-.026-.005.005.016-.025-.004.006.016-.026-.004.006.016-.026-.004.005.016-.026-.004.006.016-.026-.004.006.016-.026-.005.006.017-.026-.005.005.016-.026-.004.006.017-.026-.005.006.016-.026-.004.006.016-.026-.004.005.016-.025-.004.005.016-.026-.005.006.016-.025-.003.005.016-.026-.005.005.017-.025-.005.005.016-.026-.004.006.016-.025-.004.005.016-.025-.005.005.017-.026-.004.006.016-.026-.004.005.016-.025-.005.005.016-.025-.004.005.016-.026-.004.006.017-.026-.005.005.016-.025-.004.005.016-.025-.004.006.016-.027-.005.005.017-.025-.005.006.016-.026-.003.005.016-.025-.005.006.016-.026-.004.004.016-.025-.004.006.016-.026-.004.005.016-.025-.005.005.017-.025-.004.005.016-.026-.005.006.017-.026-.005.006.016-.026-.004.005.016-.025-.004.005.016-.025-.004.005.016-.026-.004.006.016-.026-.004.005.016-.025-.005.006.017-.026-.005.005.016-.026-.004.006.017-.026-.005.006.016-.025-.004.005.016-.026-.004.005.016-.025-.004.005.016-.026-.005.006.017-.025-.004.005.015-.026-.004.005.017-.025-.005.005.016-.026-.004.006.016-.026-.004.006.016-.025-.004.004.015-.025-.003.005.015-.025-.003.005.015-.026-.004.006.016-.025-.004.004.016-.025-.004.005.016-.025-.004.005.015-.025-.003.005.016-.025-.004.005.015-.026-.004.005.016-.025-.004.006.016-.026-.003.005.015-.025-.004.005.016-.025-.004.004.016-.025-.004.006.016-.026-.004.006.015-.026-.004.005.016-.025-.003.022.065-1.256.968-.732-.642z"/>
            <path fill="#4378E9" d="M101.866 141.427c-.128-.048-4.048-1.753-4.048-1.753l-2.29 2.85 1.83 5.612 5.018 3.094 3.488-2.047-1.148-4.436-2.85-3.32z"/>
            <path fill="#2448BC" d="M101.59 141.355l-2.776 1.606 3.505 5.033 2.995-1.733z"/>
            <path fill="#63B1F0" d="M98.342 143.64c.296-1.067 1.537-1.112 2.773-.1 1.236 1.012 1.998 2.698 1.702 3.765-.296 1.067-1.537 1.113-2.773.101-1.236-1.012-1.998-2.697-1.702-3.765"/>
            <path fill="#4378E9" d="M102.846 141.005l2.041-1.198.427-1.541-2.041 1.198zM101.066 137.362l-2.042 1.198-.703-2.104 2.041-1.198zM95.796 138.756l2.041-1.198-1.086-1.294-1.256.966-.724-.654-.538.316zM92.568 140.606l1.828.913 2.042-1.198-1.829-.913zM93.963 146.179l2.042-1.198 1.395-.389-2.042 1.199zM99.563 152.856l2.041-1.198.428-1.542-2.042 1.198zM104.43 154.75l2.041-1.198-.703-2.107-2.042 1.198zM107.826 153.1l2.042-1.198-1.565-1.865-2.041 1.198zM108.455 148.538l2.04-1.199-1.826-.912-2.041 1.198zM106.075 142.804l2.04-1.198-1.392.388-2.042 1.198z"/>
            <path fill="#63B1F0" d="M106.604 150.407c.086-.309.137-.638.159-.98l1.828.913-.136-1.803-1.828-.912a10.92 10.92 0 0 0-.827-2.47l1.396-.388-1.121-1.963-1.394.388a14.281 14.281 0 0 0-1.836-2.187l.428-1.541-1.678-1.374-.426 1.541c-.735-.495-1.459-.853-2.145-1.072l-.703-2.103-1.592-.26.022.068.68 2.039c-.618.008-1.174.158-1.635.453l-1.564-1.864-.9.953 1.565 1.866c-.14.245-.258.52-.343.828a4.86 4.86 0 0 0-.158.98l-1.828-.913.136 1.802 1.827.913c.158.802.44 1.638.827 2.47l-1.394.388 1.12 1.963 1.393-.388c.531.778 1.15 1.52 1.836 2.187l-.427 1.542 1.677 1.373.427-1.542c.734.497 1.459.854 2.145 1.072l.703 2.105 1.592.259-.704-2.107c.62-.008 1.175-.158 1.637-.453l1.564 1.864.9-.954-1.565-1.865c.14-.245.257-.52.342-.828m-6.931-1.66c-2.093-1.713-3.383-4.568-2.882-6.377.5-1.807 2.603-1.884 4.695-.17 2.093 1.713 3.382 4.568 2.882 6.375-.5 1.809-2.603 1.885-4.695.172"/>
            <path fill="#5D92E1" d="M95.695 137.074l-.2.156.13-.321z"/>
            <path fill="#FF584F" d="M107.225 203.92l-40.142-24.978c-.296-.172-.537-.59-.537-.933l-1.257-30.301c0-.344 1.913-1.036 2.21-.865l40.616 23.352c.296.172.536.589.536.932v31.255c0 .343-.087 1.305-1.426 1.538z"/>
            <g fill="#FE7F79">
                <path d="M106.857 203.846l-41.03-23.75c-.297-.172-.537-.59-.537-.933l-.001-31.254c0-.344.24-.483.537-.312l41.032 23.752c.297.172.537.59.537.932v31.254c0 .344-.24.483-.538.311"/>
            </g>
            <path fill="#FFF" d="M82.047 169.301l9.773 10.061c.749.772.493 1.285-.572 1.149l-8.63-1.107c-1.064-.137-1.927-1.12-1.927-2.197v-7.353c0-1.076.607-1.324 1.356-.553"/>
            <path fill="url(#k)" fill-rule="nonzero" d="M.56 57.89l2.301 67.307c0 .847.594 1.878 1.326 2.302l38.542 24.114c.732.424 3.47.424 3.47-1.332V83.112c0-.847-.594-1.878-1.326-2.302L4.19 57.26c-.733-.424-3.63-.219-3.63.63z" transform="translate(0 15.725)"/>
            <g fill="#99A7D8">
                <path d="M43.518 99.22v67.17c0 .844-.586 1.187-1.316.773l-40.74-23.586c-.668-.41-1.21-1.315-1.276-2.109v-.005c-.005-.056-.005-.107-.005-.158v-67.17c0-.783.515-1.136 1.174-.85l.03.016c.042.02.082.04.123.066l38.127 22.071 2.556 1.48c.736.424 1.327 1.458 1.327 2.302"/>
            </g>
            <path fill="#7989C1" d="M39.187 150.365l-7.846-40.856a1.28 1.28 0 0 0-2.446-.232l-7.87 19.739a1.28 1.28 0 0 1-2.418-.117l-4.433-15.253a1.28 1.28 0 0 0-2.404-.15l-7.253 16.8 34.67 20.07zM11.877 97.618c0-2.76 2.232-3.707 4.986-2.112 2.755 1.594 4.987 5.124 4.987 7.885s-2.232 3.707-4.987 2.113c-2.754-1.594-4.986-5.125-4.986-7.886"/>
            <g fill="url(#l)" transform="translate(0 72.655)">
                <path d="M39.185 77.713L4.52 57.643 4.514 7.472l34.67 20.07v50.17zm3.006-53.451l-2.556-1.48L1.385.646 1.355.63C.696.344.181.697.181 1.48l.005 67.328v.005c.066.793.608 1.7 1.276 2.109l40.74 23.585c.73.415 1.316.072 1.316-.772v-67.17c0-.845-.591-1.878-1.327-2.303z"/>
            </g>
        </g>
    </g>
</svg>
