<?xml version="1.0" encoding="UTF-8"?>
<svg width="370px" height="185px" viewBox="0 0 370 185" version="1.1" xmlns="http://www.w3.org/2000/svg" xmlns:xlink="http://www.w3.org/1999/xlink">
    <!-- Generator: Sketch 55.2 (78181) - https://sketchapp.com -->
    <title>Group 131</title>
    <desc>Created with Sketch.</desc>
    <defs>
        <path d="M65.1341706,74.7725643 L30.1488533,54.4243533 C27.7174772,53.010592 28.025467,50.5173376 30.8328231,48.8846335 L97.8188622,9.92453294 C100.626218,8.29182888 104.912507,8.11269391 107.343883,9.52645522 L142.3292,29.8752516 C144.759995,31.2890129 144.452586,33.7816819 141.64523,35.4149714 L74.6591912,74.375072 C71.851835,76.0077761 67.5661279,76.186911 65.1341706,74.7725643" id="path-1"></path>
        <filter x="-18.9%" y="-46.2%" width="137.8%" height="192.3%" filterUnits="objectBoundingBox" id="filter-3">
            <feGaussianBlur stdDeviation="10" in="SourceGraphic"></feGaussianBlur>
        </filter>
        <polygon id="path-4" points="0 0.403777462 158.687205 0.403777462 158.687205 92.3764279 0 92.3764279"></polygon>
        <linearGradient x1="38.0881964%" y1="42.6248937%" x2="69.8810248%" y2="55.1510176%" id="linearGradient-6">
            <stop stop-color="#F0F1F4" offset="0%"></stop>
            <stop stop-color="#F3F6F9" offset="100%"></stop>
        </linearGradient>
        <linearGradient x1="66.7067576%" y1="33.0759029%" x2="32.3628208%" y2="66.9240971%" id="linearGradient-7">
            <stop stop-color="#D9E0F2" offset="0%"></stop>
            <stop stop-color="#C0C9E9" offset="100%"></stop>
        </linearGradient>
        <path d="M36.6254405,66.2195147 L1.64012324,45.8652232 C-0.791252874,44.4510395 -0.48326307,41.95704 2.32409305,40.3238481 L69.3101321,1.35210543 C72.1174883,-0.281086512 76.4037765,-0.460275015 78.8351527,0.953908759 L113.82047,21.3087858 C116.251265,22.7229695 115.943856,25.2163834 113.1365,26.8501609 L46.1504611,65.8219036 C43.343105,67.4550955 39.0573978,67.634284 36.6254405,66.2195147" id="path-8"></path>
        <linearGradient x1="21.9116725%" y1="37.6482445%" x2="65.9832526%" y2="56.9108919%" id="linearGradient-10">
            <stop stop-color="#D3DAED" offset="0%"></stop>
            <stop stop-color="#99A7D8" offset="100%"></stop>
        </linearGradient>
        <path d="M36.6254405,66.1997329 L1.64012324,45.8515219 C-0.791252874,44.4377606 -0.48326307,41.9445062 2.32409305,40.3118021 L69.3101321,1.35170152 C72.1174883,-0.281002543 76.4037765,-0.460137517 78.8351527,0.953623797 L113.82047,21.3024202 C116.251265,22.7161815 115.943856,25.2088505 113.1365,26.84214 L46.1504611,65.8022406 C43.343105,67.4349446 39.0573978,67.6140796 36.6254405,66.1997329" id="path-11"></path>
        <path d="M65.1341706,74.7725643 L30.1488533,54.4243533 C27.7174772,53.010592 28.025467,50.5173376 30.8328231,48.8846335 L97.8188622,9.92453294 C100.626218,8.29182888 104.912507,8.11269391 107.343883,9.52645522 L142.3292,29.8752516 C144.759995,31.2890129 144.452586,33.7816819 141.64523,35.4149714 L74.6591912,74.375072 C71.851835,76.0077761 67.5661279,76.186911 65.1341706,74.7725643" id="path-13"></path>
        <path d="M36.6254405,66.1997329 L1.64012324,45.8515219 C-0.791252874,44.4377606 -0.48326307,41.9445062 2.32409305,40.3118021 L69.3101321,1.35170152 C72.1174883,-0.281002543 76.4037765,-0.460137517 78.8351527,0.953623797 L113.82047,21.3024202 C116.251265,22.7161815 115.943856,25.2088505 113.1365,26.84214 L46.1504611,65.8022406 C43.343105,67.4349446 39.0573978,67.6140796 36.6254405,66.1997329" id="path-15"></path>
        <path d="M2.20722978,20.5553161 C-0.283663204,23.9962622 0.0396863596,27.7925686 2.60079816,31.1196759 L2.589218,31.1356728 C4.9821343,34.255467 9.33820015,36.9675883 15.1438526,38.5459611 C20.9483471,40.1259337 27.159213,40.2864086 32.5513914,39.2629901 C38.2908498,38.1941983 43.1015124,35.7916828 45.5935634,32.349137 C50.4236492,25.6768049 44.623134,17.6182672 32.6495844,14.3633566 C20.6760349,11.1084461 7.03847362,13.8813843 2.20722978,20.5553161 Z" id="path-17"></path>
        <path d="M2.20722978,7.55531608 C-0.283663204,10.9962622 0.0396863596,14.7925686 2.60079816,18.1196759 L2.589218,18.1356728 C4.9821343,21.255467 9.33820015,23.9675883 15.1438526,25.5459611 C20.9483471,27.1259337 27.159213,27.2864086 32.5513914,26.2629901 C38.2908498,25.1941983 43.1015124,22.7916828 45.5935634,19.349137 C50.4236492,12.6768049 44.623134,4.61826716 32.6495844,1.36335662 C20.6760349,-1.89155392 7.03847362,0.881384341 2.20722978,7.55531608 Z" id="path-19"></path>
        <path d="M36.6254405,66.1997329 L1.64012324,45.8515219 C-0.791252874,44.4377606 -0.48326307,41.9445062 2.32409305,40.3118021 L69.3101321,1.35170152 C72.1174883,-0.281002543 76.4037765,-0.460137517 78.8351527,0.953623797 L113.82047,21.3024202 C116.251265,22.7161815 115.943856,25.2088505 113.1365,26.84214 L46.1504611,65.8022406 C43.343105,67.4349446 39.0573978,67.6140796 36.6254405,66.1997329" id="path-21"></path>
        <path d="M42.3283422,19.403884 C41.8492823,20.0432603 41.9114704,20.7486674 42.4040351,21.3668908 L42.4018079,21.3698632 C42.8620245,21.9495649 43.6998028,22.4535152 44.8163723,22.7467991 C45.9327191,23.0403802 47.1272211,23.0701987 48.1642694,22.8800331 C49.2681081,22.6814366 50.1933166,22.2350154 50.6725992,21.5953419 C51.6015433,20.3555287 50.4859618,18.858139 48.1831543,18.2533308 C45.8803468,17.6485227 43.257509,18.1637736 42.3283422,19.403884 Z" id="path-23"></path>
        <path d="M43.3283422,19.403884 C42.8492823,20.0432603 42.9114704,20.7486674 43.4040351,21.3668908 L43.4018079,21.3698632 C43.8620245,21.9495649 44.6998028,22.4535152 45.8163723,22.7467991 C46.9327191,23.0403802 48.1272211,23.0701987 49.1642694,22.8800331 C50.2681081,22.6814366 51.1933166,22.2350154 51.6725992,21.5953419 C52.6015433,20.3555287 51.4859618,18.858139 49.1831543,18.2533308 C46.8803468,17.6485227 44.257509,18.1637736 43.3283422,19.403884 Z" id="path-25"></path>
        <path d="M264.899997,32.8423304 C264.633853,33.2259562 264.668402,33.6492005 264.942049,34.0201345 C265.196487,34.3697389 265.66192,34.6721091 266.282236,34.8480794 C266.902429,35.0242281 267.566041,35.0421192 268.142179,34.9280199 C268.755423,34.808862 269.269427,34.5410092 269.535695,34.1572052 C270.051775,33.4133172 269.432008,32.5148834 268.15267,32.1519985 C266.873333,31.7891136 265.416201,32.0982642 264.899997,32.8423304 Z" id="path-27"></path>
        <path d="M319.182412,127.84233 C318.916268,128.225956 318.950817,128.6492 319.224464,129.020134 C319.478902,129.369739 319.944335,129.672109 320.564651,129.848079 C321.184844,130.024228 321.848456,130.042119 322.424594,129.92802 C323.037838,129.808862 323.551843,129.541009 323.818111,129.157205 C324.334191,128.413317 323.714423,127.514883 322.435086,127.151999 C321.155748,126.789114 319.698616,127.098264 319.182412,127.84233 Z" id="path-29"></path>
    </defs>
    <g id="Page-1" stroke="none" stroke-width="1" fill="none" fill-rule="evenodd">
        <g id="Benefit-Customer-Software-Development" transform="translate(-3151.000000, -495.000000)">
            <g id="Group-131" transform="translate(3152.000000, 495.000000)">
                <g id="Group-111" transform="translate(0.000000, 5.000000)">
                    <path d="M112.638672,182.699511 L160.559858,152.553282 C168.324158,147.668921 178.139817,147.428884 186.133582,151.927889 L215.428223,168.415332" id="Path-11" stroke="#F34C43" transform="translate(164.033447, 163.662988) scale(1, -1) translate(-164.033447, -163.662988) "></path>
                    <path d="M164.033447,79.7504868 L132.34375,98.2929688" id="Path-27" stroke="#F34C43"></path>
                    <g id="Group-40-Copy-7" transform="translate(191.489362, 82.744681)">
                        <path d="M50.3374811,91.042487 L2.25409826,63.1822834 C-1.08755469,61.2466008 -0.664257351,57.8329062 3.19413782,55.5974533 L95.2589128,2.2543689 C99.1173079,0.0189159874 105.008329,-0.226350629 108.349982,1.70933198 L156.433365,29.5703371 C159.774219,31.5060197 159.35172,34.9189127 155.493325,37.1551672 L63.4285503,90.4982516 C59.5701551,92.7337045 53.6799327,92.9789711 50.3374811,91.042487" id="Fill-1" stroke="#978FF7"></path>
                        <mask id="mask-2" fill="white">
                            <use xlink:href="#path-1"></use>
                        </mask>
                        <use id="Mask" stroke="#978FF7" xlink:href="#path-1"></use>
                        <path d="M30.3322147,72.6039753 L30.3323185,72.604032 C33.2429882,74.1958286 38.0272017,74.1958286 40.9396105,72.6039753 C43.6545776,71.1200389 43.6545776,68.9043179 40.9396105,67.418938 C38.0272017,65.8270847 33.2429882,65.8270847 30.3323943,67.4188398 C27.6172476,68.9043179 27.6172476,71.1200389 30.3322147,72.6039753 Z" id="Fill-33" stroke="#978FF7"></path>
                    </g>
                    <g id="Group-125" transform="translate(140.000000, -0.000000)">
                        <path d="M159.730624,39 C159.923395,44.2702087 159.129871,47.3823794 157.350053,48.3365123 C155.064385,49.6843998 124.157485,67.5757177 64.6293539,102.010466 C59.8609598,104.357272 55.165939,104.627901 50.5442915,102.822354 C45.9226439,101.016807 30.6793645,91.8605276 4.81445312,75.3535156 C3.12221324,74.2000499 2.04941003,73.163373 1.59604349,72.2434848 C1.14267695,71.3235967 0.97169403,69.5032778 1.08309471,66.7825281 L148.198733,39.267774 L159.730624,39 Z" id="Path-13" fill-opacity="0.5" fill="#8292C2" filter="url(#filter-3)"></path>
                        <g id="Group-40" transform="translate(0.063830, 0.617021)">
                            <g id="Group-6">
                                <g id="Group-3" transform="translate(1.000000, 0.000000)">
                                    <mask id="mask-5" fill="white">
                                        <use xlink:href="#path-4"></use>
                                    </mask>
                                    <g id="Clip-2"></g>
                                    <path d="M50.3374811,91.0696923 L2.25409826,63.2011635 C-1.08755469,61.2649024 -0.664257351,57.8501879 3.19413782,55.6140669 L95.2589128,2.25504255 C99.1173079,0.0189216399 105.008329,-0.226418267 108.349982,1.70984276 L156.433365,29.5791733 C159.774219,31.5154344 159.35172,34.9293472 155.493325,37.1662698 L63.4285503,90.5252942 C59.5701551,92.7614152 53.6799327,93.0067551 50.3374811,91.0696923" id="Fill-1" fill="url(#linearGradient-6)" mask="url(#mask-5)"></path>
                                    <g id="Path-8" transform="translate(28.508730, 8.575393)">
                                        <mask id="mask-9" fill="white">
                                            <use xlink:href="#path-8"></use>
                                        </mask>
                                        <use id="Mask" fill="url(#linearGradient-7)" fill-rule="nonzero" xlink:href="#path-8"></use>
                                    </g>
                                </g>
                                <path d="M58.3302916,96.8363646 L58.3641249,92.2751927 C60.7545569,92.1837916 62.4154762,91.5632135 64.3602479,90.4367346 L156.425822,37.0769084 C158.49918,35.8750636 159.57739,34.3332706 159.614129,32.8636365 L159.614129,38.8840854 C159.685211,40.4194642 158.603007,42.0566671 156.425822,43.3186443 L64.3602479,96.6784704 C62.4154762,97.8057512 60.7099554,98.1966547 58.3195235,98.2880559 L58.3302916,96.8363646 L58.3200728,98.2863774 C55.9679772,98.3769768 52.9266674,98.1830615 51.2694184,97.2233495 L3.1860355,69.3548207 C1.70529349,68.496131 0.967318507,67.3472026 0.936170213,66.1405472 L0.936170213,59.9605472 C0.99048006,61.1447532 1.73085106,62.2688269 3.1860355,63.1122831 L51.2694184,90.9808119 C52.9266674,91.9413256 56.0103486,92.3638555 58.3624441,92.2740579 L58.3302916,96.8363646 Z M159.614129,32.8636365 C159.615726,32.8099183 159.615726,32.7570018 159.614129,32.7040854 L159.614129,32.8636365 Z" id="Combined-Shape" fill="url(#linearGradient-10)" fill-rule="nonzero"></path>
                            </g>
                            <path d="M31.0924095,73.0645426 C28.0305459,71.3905008 28.0305459,68.6758825 31.0924095,67.0002122 C34.1525539,65.3261704 39.1175522,65.3261704 42.1794157,67.0002122 C45.2412793,68.6758825 45.2412793,71.3905008 42.1794157,73.0645426 C39.1175522,74.7385845 34.1525539,74.7385845 31.0924095,73.0645426 Z" id="Fill-33" fill="#A0ADDA"></path>
                        </g>
                    </g>
                    <path d="M284.969154,18 L284.969154,33 L284.236816,35 L215.475586,74.9370953 C212.287438,76.6269034 209.19491,76.7851813 206.198,75.4119291 C203.057211,73.6041066 191.395439,66.8193428 171.212683,55.0576377 C170.039647,54.1031969 169.539799,53.0839844 169.713137,52 C169.579184,50.2421875 169.51107,45.5755208 169.508797,38 L208,21.4655725 L245.218262,11 L267.17627,11 L284.969154,18 Z" id="Path-28" fill="#8F9DCD" opacity="0.39562407"></path>
                    <g id="Group-95" transform="translate(29.000000, 91.000000)">
                        <g id="Group-93">
                            <mask id="mask-12" fill="white">
                                <use xlink:href="#path-11"></use>
                            </mask>
                            <use id="Mask" fill="#8F9DCD" fill-rule="nonzero" opacity="0.8" xlink:href="#path-11"></use>
                            <polygon id="Path-47" fill="#8592C1" mask="url(#mask-12)" points="118.495605 24.7327862 73.8670083 -1 63 5.6519082 105.756413 31.5024414"></polygon>
                            <path d="M106.154843,22.2232715 L110.654205,24.6477778 C110.808248,24.7307848 110.865834,24.9229521 110.782827,25.0769953 C110.745876,25.1455679 110.68496,25.1981257 110.611713,25.2246299 L110.368124,25.3127721 C110.099525,25.4099638 109.802185,25.3876536 109.551098,25.2514685 L105.083793,22.828486 C104.929207,22.7446414 104.87186,22.5513552 104.955704,22.3967692 C104.990881,22.3319138 105.047487,22.2812864 105.115851,22.2535382 L105.304384,22.1770148 C105.580595,22.0649036 105.892421,22.0818639 106.154843,22.2232715 Z" id="Rectangle" fill="#FFFFFF" mask="url(#mask-12)"></path>
                            <path d="M104.154843,23.2232715 L108.654205,25.6477778 C108.808248,25.7307848 108.865834,25.9229521 108.782827,26.0769953 C108.745876,26.1455679 108.68496,26.1981257 108.611713,26.2246299 L108.368124,26.3127721 C108.099525,26.4099638 107.802185,26.3876536 107.551098,26.2514685 L103.083793,23.828486 C102.929207,23.7446414 102.87186,23.5513552 102.955704,23.3967692 C102.990881,23.3319138 103.047487,23.2812864 103.115851,23.2535382 L103.304384,23.1770148 C103.580595,23.0649036 103.892421,23.0818639 104.154843,23.2232715 Z" id="Rectangle" fill="#FFFFFF" mask="url(#mask-12)"></path>
                        </g>
                        <g id="Group-94" transform="translate(15.000000, 13.000000)">
                            <path d="M37.3183421,7.6539352 L62.8960289,22.7608398 C63.9043925,23.3564078 64.2390294,24.6566512 63.6434614,25.6650148 C63.4713227,25.956465 63.2319135,26.2024713 62.945249,26.3824669 C61.1378895,27.5173017 58.844918,27.5353309 57.0199371,26.4290565 L31.7811703,11.1297181 C30.8363676,10.5569937 30.5347385,9.326795 31.1074629,8.38199231 C31.2699398,8.11395995 31.4931242,7.88785556 31.759022,7.72190845 C33.4543268,6.66386703 35.5976749,6.63766052 37.3183421,7.6539352 Z" id="Path-9-Copy-4" fill="#FFFFFF"></path>
                            <path d="M48.3183421,1.6539352 L73.8960289,16.7608398 C74.9043925,17.3564078 75.2390294,18.6566512 74.6434614,19.6650148 C74.4713227,19.956465 74.2319135,20.2024713 73.945249,20.3824669 C72.1378895,21.5173017 69.844918,21.5353309 68.0199371,20.4290565 L42.7811703,5.12971807 C41.8363676,4.55699372 41.5347385,3.326795 42.1074629,2.38199231 C42.2699398,2.11395995 42.4931242,1.88785556 42.759022,1.72190845 C44.4543268,0.663867029 46.5976749,0.637660525 48.3183421,1.6539352 Z" id="Path-9-Copy-4" fill="#FFFFFF"></path>
                            <path d="M59.0588554,9.81852517 L71.537051,17.2920417 C72.0361002,17.5909353 72.1983584,18.2377958 71.8994648,18.736845 C71.8153487,18.87729 71.6996529,18.9961943 71.5615609,19.08412 C70.681618,19.6443954 69.559069,19.6532765 68.6703716,19.1069938 L56.3571273,11.5380373 C55.8896155,11.2506576 55.7435896,10.6386971 56.0309693,10.1711853 C56.110301,10.0421278 56.2180915,9.93291815 56.3461003,9.85190529 C57.1715307,9.3295159 58.220821,9.31660451 59.0588554,9.81852517 Z" id="Path-9-Copy-6" fill="#A6B1D8"></path>
                            <path d="M28.4513975,14.6900465 L51.4017903,28.194519 C52.4587784,28.816472 52.811444,30.1775228 52.189491,31.2345109 C52.0170777,31.5275215 51.7796878,31.7770317 51.4956185,31.9638101 C49.6746172,33.1611369 47.3273502,33.2044198 45.4634451,32.0750416 L22.8501366,18.3731755 C21.8592921,17.7728026 21.5427523,16.482866 22.1431253,15.4920215 C22.3058419,15.2234769 22.5267687,14.9948862 22.7896104,14.8231097 C24.4982471,13.7064549 26.6921891,13.6548929 28.4513975,14.6900465 Z" id="Path-9-Copy-5" fill="#FFFFFF"></path>
                            <path d="M2.0009849,29 C1.99479632,30.9997254 2.01777204,32.4447324 2.06991207,33.3350211 C2.18430339,33.9288322 2.38399483,34.4480959 4.07742497,35.4619407 C5.2063784,36.1378372 9.55446691,38.6883811 17.1216905,43.1135724 C18.6740805,44.0280329 20.3145422,44.2349584 22.0430757,43.7343491 C23.7716091,43.2337397 24.7572506,42.4089566 25,41.26 L24.957752,37.7733331 L10.052321,30.9210404 L2.0009849,29 Z" id="Path-23" fill="#FF635A"></path>
                            <path d="M10.2460725,27.0232871 L24.2928037,35.2297326 C25.5406102,35.9587318 25.9611866,37.5612496 25.2321874,38.8090562 C25.0217057,39.1693315 24.7281189,39.4740483 24.3759211,39.6977839 C22.1580453,41.1067018 19.3314001,41.1295215 17.0910662,39.7565951 L3.41983597,31.3785617 C2.24489883,30.6585341 1.87612176,29.1223617 2.59614934,27.9474245 C2.7959722,27.6213546 3.06807371,27.3455809 3.39143573,27.1414051 C5.47516669,25.8257051 8.11824823,25.7801599 10.2460725,27.0232871 Z" id="Path-9-Copy-5" fill="#FD817A"></path>
                            <path d="M36.0588554,20.8185252 L48.537051,28.2920417 C49.0361002,28.5909353 49.1983584,29.2377958 48.8994648,29.736845 C48.8153487,29.87729 48.6996529,29.9961943 48.5615609,30.08412 C47.681618,30.6443954 46.559069,30.6532765 45.6703716,30.1069938 L33.3571273,22.5380373 C32.8896155,22.2506576 32.7435896,21.6386971 33.0309693,21.1711853 C33.110301,21.0421278 33.2180915,20.9329181 33.3461003,20.8519053 C34.1715307,20.3295159 35.220821,20.3166045 36.0588554,20.8185252 Z" id="Path-9-Copy-4" fill="#A6B1D8"></path>
                            <path d="M48.0588554,15.8185252 L60.537051,23.2920417 C61.0361002,23.5909353 61.1983584,24.2377958 60.8994648,24.736845 C60.8153487,24.87729 60.6996529,24.9961943 60.5615609,25.08412 C59.681618,25.6443954 58.559069,25.6532765 57.6703716,25.1069938 L45.3571273,17.5380373 C44.8896155,17.2506576 44.7435896,16.6386971 45.0309693,16.1711853 C45.110301,16.0421278 45.2180915,15.9329181 45.3461003,15.8519053 C46.1715307,15.3295159 47.220821,15.3166045 48.0588554,15.8185252 Z" id="Path-9-Copy-6" fill="#A6B1D8"></path>
                        </g>
                    </g>
                    <g id="Group-40-Copy-7" transform="translate(0.000000, 82.744681)">
                        <path d="M50.3374811,91.042487 L2.25409826,63.1822834 C-1.08755469,61.2466008 -0.664257351,57.8329062 3.19413782,55.5974533 L95.2589128,2.2543689 C99.1173079,0.0189159874 105.008329,-0.226350629 108.349982,1.70933198 L156.433365,29.5703371 C159.774219,31.5060197 159.35172,34.9189127 155.493325,37.1551672 L63.4285503,90.4982516 C59.5701551,92.7337045 53.6799327,92.9789711 50.3374811,91.042487" id="Fill-1" stroke="#978FF7"></path>
                        <mask id="mask-14" fill="white">
                            <use xlink:href="#path-13"></use>
                        </mask>
                        <use id="Mask" stroke="#978FF7" xlink:href="#path-13"></use>
                        <path d="M30.3322147,72.6039753 L30.3323185,72.604032 C33.2429882,74.1958286 38.0272017,74.1958286 40.9396105,72.6039753 C43.6545776,71.1200389 43.6545776,68.9043179 40.9396105,67.418938 C38.0272017,65.8270847 33.2429882,65.8270847 30.3323943,67.4188398 C27.6172476,68.9043179 27.6172476,71.1200389 30.3322147,72.6039753 Z" id="Fill-33" stroke="#978FF7"></path>
                    </g>
                    <g id="Group-40-Copy-8" transform="translate(200.063830, 30.617021)">
                        <g id="Group-6"></g>
                    </g>
                </g>
                <g id="Group-92" transform="translate(169.000000, 0.000000)">
                    <g id="Rectangle" transform="translate(0.508797, 0.000000)">
                        <mask id="mask-16" fill="white">
                            <use xlink:href="#path-15"></use>
                        </mask>
                        <use id="Mask" fill="#8F9DCD" fill-rule="nonzero" opacity="0.9" xlink:href="#path-15"></use>
                        <polygon id="Path-47" fill="#8592C1" mask="url(#mask-16)" points="117.986809 23.7327862 73.3582116 -2 62.4912033 4.6519082 105.884392 31.2211914"></polygon>
                    </g>
                    <path d="M28.3183421,34.6539352 L53.8960289,49.7608398 C54.9043925,50.3564078 55.2390294,51.6566512 54.6434614,52.6650148 C54.4713227,52.956465 54.2319135,53.2024713 53.945249,53.3824669 C52.1378895,54.5173017 49.844918,54.5353309 48.0199371,53.4290565 L22.7811703,38.1297181 C21.8363676,37.5569937 21.5347385,36.326795 22.1074629,35.3819923 C22.2699398,35.1139599 22.4931242,34.8878556 22.759022,34.7219085 C24.4543268,33.663867 26.5976749,33.6376605 28.3183421,34.6539352 Z" id="Path-9-Copy-2" fill="#FFFFFF"></path>
                    <path d="M19.4299875,41.7259158 L32.9707592,49.9237919 C34.0345825,50.5678535 34.3748665,51.9523678 33.7308049,53.0161911 C33.557198,53.3029448 33.3217581,53.5473199 33.0416669,53.7314827 C31.2265866,54.9249164 28.8811536,54.9460962 27.0448171,53.7856355 L13.8171407,45.4264929 C12.8172081,44.7945921 12.5188593,43.4717297 13.1507602,42.471797 C13.3147591,42.2122817 13.5326312,41.9910548 13.7896104,41.8231097 C15.49463,40.7088187 17.687589,40.6710301 19.4299875,41.7259158 Z" id="Path-9-Copy-3" fill="#FFFFFF"></path>
                    <path d="M106.66364,22.2232715 L111.163001,24.6477778 C111.317044,24.7307848 111.374631,24.9229521 111.291624,25.0769953 C111.254673,25.1455679 111.193756,25.1981257 111.12051,25.2246299 L110.87692,25.3127721 C110.608322,25.4099638 110.310982,25.3876536 110.059894,25.2514685 L105.59259,22.828486 C105.438004,22.7446414 105.380656,22.5513552 105.464501,22.3967692 C105.499677,22.3319138 105.556284,22.2812864 105.624648,22.2535382 L105.813181,22.1770148 C106.089392,22.0649036 106.401218,22.0818639 106.66364,22.2232715 Z" id="Rectangle" fill="#FFFFFF"></path>
                    <path d="M104.66364,23.2232715 L109.163001,25.6477778 C109.317044,25.7307848 109.374631,25.9229521 109.291624,26.0769953 C109.254673,26.1455679 109.193756,26.1981257 109.12051,26.2246299 L108.87692,26.3127721 C108.608322,26.4099638 108.310982,26.3876536 108.059894,26.2514685 L103.59259,23.828486 C103.438004,23.7446414 103.380656,23.5513552 103.464501,23.3967692 C103.499677,23.3319138 103.556284,23.2812864 103.624648,23.2535382 L103.813181,23.1770148 C104.089392,23.0649036 104.401218,23.0818639 104.66364,23.2232715 Z" id="Rectangle" fill="#FFFFFF"></path>
                    <g id="Group-11-Copy" transform="translate(39.000000, 3.000000)">
                        <g id="Fill-4" transform="translate(0.500000, 0.000000)">
                            <mask id="mask-18" fill="white">
                                <use xlink:href="#path-17"></use>
                            </mask>
                            <use id="Mask" fill="#5B72C6" opacity="0.5" xlink:href="#path-17"></use>
                            <mask id="mask-20" fill="white">
                                <use xlink:href="#path-19"></use>
                            </mask>
                            <use id="Mask" fill="#5B72C6" xlink:href="#path-19"></use>
                            <path d="M-6.18663122,16.896313 C-8.10287069,19.5816931 -7.85411845,22.5444032 -5.88385978,25.1409412 L-5.89276837,25.1534255 C-4.0519022,27.5881725 -0.700788618,29.7047637 3.76548932,30.9365561 C8.2308764,32.1695969 13.0088843,32.2948345 17.1570774,31.4961392 C21.5724324,30.6620337 25.2732664,28.7870646 27.1903967,26.1004361 C30.906173,20.8932207 26.4438472,14.6041839 17.2326171,12.0639895 C8.02138712,9.52379518 -2.46996407,11.6878492 -6.18663122,16.896313 Z" fill="#FFFFFF" mask="url(#mask-20)"></path>
                            <path d="M24.0107545,9.52699129 C23.2655503,10.6778685 23.3622873,11.9476014 24.128499,13.0604034 L24.1250345,13.0657538 C24.8409269,14.1092168 26.1441378,15.0163273 27.8810236,15.5442383 C29.617563,16.0726844 31.4756772,16.1263577 33.0888634,15.7840597 C34.8059459,15.4265859 36.2451592,14.6230277 36.9907098,13.4716155 C38.435734,11.2399517 36.700385,8.54465025 33.11824,7.45599552 C29.536095,6.36734079 25.4561251,7.2947925 24.0107545,9.52699129 Z" id="Fill-4-Copy" fill="#FFFFFF" mask="url(#mask-20)"></path>
                        </g>
                    </g>
                </g>
                <g id="Group-97" transform="translate(220.000000, 96.000000)">
                    <g id="Group-93">
                        <mask id="mask-22" fill="white">
                            <use xlink:href="#path-21"></use>
                        </mask>
                        <use id="Mask" fill="#8F9DCD" fill-rule="nonzero" opacity="0.669999957" xlink:href="#path-21"></use>
                        <polygon id="Path-47" fill="#8592C1" mask="url(#mask-22)" points="118.495605 24.7327862 73.8670083 -1 63 5.6519082 105.756413 31.5024414"></polygon>
                        <path d="M106.154843,22.2232715 L110.654205,24.6477778 C110.808248,24.7307848 110.865834,24.9229521 110.782827,25.0769953 C110.745876,25.1455679 110.68496,25.1981257 110.611713,25.2246299 L110.368124,25.3127721 C110.099525,25.4099638 109.802185,25.3876536 109.551098,25.2514685 L105.083793,22.828486 C104.929207,22.7446414 104.87186,22.5513552 104.955704,22.3967692 C104.990881,22.3319138 105.047487,22.2812864 105.115851,22.2535382 L105.304384,22.1770148 C105.580595,22.0649036 105.892421,22.0818639 106.154843,22.2232715 Z" id="Rectangle" fill="#FFFFFF" mask="url(#mask-22)"></path>
                        <path d="M104.154843,23.2232715 L108.654205,25.6477778 C108.808248,25.7307848 108.865834,25.9229521 108.782827,26.0769953 C108.745876,26.1455679 108.68496,26.1981257 108.611713,26.2246299 L108.368124,26.3127721 C108.099525,26.4099638 107.802185,26.3876536 107.551098,26.2514685 L103.083793,23.828486 C102.929207,23.7446414 102.87186,23.5513552 102.955704,23.3967692 C102.990881,23.3319138 103.047487,23.2812864 103.115851,23.2535382 L103.304384,23.1770148 C103.580595,23.0649036 103.892421,23.0818639 104.154843,23.2232715 Z" id="Rectangle" fill="#FFFFFF" mask="url(#mask-22)"></path>
                    </g>
                    <g id="Group-96" transform="translate(46.000000, 10.000000)">
                        <mask id="mask-24" fill="white">
                            <use xlink:href="#path-23"></use>
                        </mask>
                        <use id="Mask" fill="#4F61A0" opacity="0.5" xlink:href="#path-23"></use>
                        <path d="M19.0662034,0.806129779 L40.733212,13.5182011 C41.229883,13.8095989 41.3962899,14.4484549 41.1048921,14.9451259 C41.0212726,15.0876508 40.9049751,15.2082601 40.7655876,15.2970106 C39.883666,15.8585459 38.7605221,15.8749461 37.8625809,15.3394004 L16.3681668,2.51980598 C15.9038443,2.24287702 15.7519318,1.64197403 16.0288608,1.17765157 C16.1075739,1.0456746 16.216252,0.934082322 16.3461003,0.851905294 C17.1727662,0.328734032 18.2224022,0.311070132 19.0662034,0.806129779 Z" id="Path-9-Copy-9" fill="#FFFFFF"></path>
                        <path d="M14.0735578,4.79346163 L27.2546363,12.3647697 C27.7488219,12.6486335 27.9193213,13.2793671 27.6354575,13.7735527 C27.5524018,13.9181464 27.4355425,14.0404589 27.2948844,14.1300184 C26.4121777,14.6920537 25.2888165,14.7114705 24.3872137,14.1802763 L11.3725238,6.51245578 C10.9095187,6.23966859 10.7553165,5.64319102 11.0281037,5.18018583 C11.106535,5.04706337 11.2155407,4.93453244 11.3461003,4.85190529 C12.1740095,4.32794716 13.2239642,4.30544884 14.0735578,4.79346163 Z" id="Path-9-Copy-9" fill="#FFFFFF"></path>
                        <path d="M4.97379915e-14,6 L41.7460937,31.8974609" id="Path-24" stroke="#7989BB" opacity="0.398065476"></path>
                    </g>
                    <g id="Group-96" transform="translate(26.000000, 22.000000)">
                        <mask id="mask-26" fill="white">
                            <use xlink:href="#path-25"></use>
                        </mask>
                        <use id="Mask" fill="#4F61A0" opacity="0.5" xlink:href="#path-25"></use>
                        <path d="M20.0662034,0.806129779 L41.733212,13.5182011 C42.229883,13.8095989 42.3962899,14.4484549 42.1048921,14.9451259 C42.0212726,15.0876508 41.9049751,15.2082601 41.7655876,15.2970106 C40.883666,15.8585459 39.7605221,15.8749461 38.8625809,15.3394004 L17.3681668,2.51980598 C16.9038443,2.24287702 16.7519318,1.64197403 17.0288608,1.17765157 C17.1075739,1.0456746 17.216252,0.934082322 17.3461003,0.851905294 C18.1727662,0.328734032 19.2224022,0.311070132 20.0662034,0.806129779 Z" id="Path-9-Copy-9" fill="#FFFFFF"></path>
                        <path d="M15.0735578,4.79346163 L28.2546363,12.3647697 C28.7488219,12.6486335 28.9193213,13.2793671 28.6354575,13.7735527 C28.5524018,13.9181464 28.4355425,14.0404589 28.2948844,14.1300184 C27.4121777,14.6920537 26.2888165,14.7114705 25.3872137,14.1802763 L12.3725238,6.51245578 C11.9095187,6.23966859 11.7553165,5.64319102 12.0281037,5.18018583 C12.106535,5.04706337 12.2155407,4.93453244 12.3461003,4.85190529 C13.1740095,4.32794716 14.2239642,4.30544884 15.0735578,4.79346163 Z" id="Path-9-Copy-9" fill="#FFFFFF"></path>
                        <path d="M4.97379915e-14,5 L41.7460937,30.8974609" id="Path-24" stroke="#7989BB" opacity="0.398065476"></path>
                    </g>
                    <path d="M11.3825553,38.4451815 C11.4009472,40.4118156 11.3614371,38.9140536 11.382067,40.7281405 C11.4026969,42.5422274 11.6807918,42.6397379 13.8159863,43.9239413 C15.3836386,44.9009878 23.9220816,50.0352274 39.4313151,59.3266602 L42.7413006,61.120611 C43.7172121,61.5991266 44.7738527,61.4916233 45.9112225,60.7981012 C47.6225297,59.7546152 49.7783457,58.3962711 52.3786704,56.7230687 L52.3633709,52.3256077 L22.3286133,38.8847656 C16.2312713,38.4441129 12.5825853,38.2975849 11.3825553,38.4451815 Z" id="Path-23-Copy" fill="#FF635A"></path>
                    <path d="M21.462487,34.0281119 L51.9632098,51.6796357 C52.4412177,51.9562707 52.6044626,52.5680296 52.3278276,53.0460375 C52.2499368,53.180628 52.1417309,53.2951985 52.011807,53.3806464 L45.8771282,57.4152792 C44.9155824,58.0476651 43.6770209,58.0742427 42.6892327,57.4836865 L11.8628352,39.0539064 C11.3888074,38.7705055 11.2342738,38.1564882 11.5176747,37.6824603 C11.6032331,37.5393518 11.7232169,37.4199077 11.8667097,37.3349952 L17.421846,34.0477199 C18.66619,33.3113741 20.2110552,33.3038773 21.462487,34.0281119 Z" id="Path-9-Copy-8" fill="#FD817A"></path>
                </g>
                <path d="M266.951471,33.4394531 L345.92071,82.7734375 C359.51446,90.1328125 366.765111,100.196615 367.672663,112.964844 C367.43308,125.673177 367.326046,134.026367 367.351563,138.024414 C367.9375,148.941732 362.278646,151.671224 350.375,146.212891 C337.696615,139.113932 328.474609,133.620443 322.708984,129.732422" id="Path-25" stroke="#FF584F" stroke-linecap="round" stroke-linejoin="round" stroke-dasharray="3,4"></path>
                <mask id="mask-28" fill="white">
                    <use xlink:href="#path-27"></use>
                </mask>
                <use id="Mask" fill="#FF584F" xlink:href="#path-27"></use>
                <mask id="mask-30" fill="white">
                    <use xlink:href="#path-29"></use>
                </mask>
                <use id="Mask" fill="#FF584F" xlink:href="#path-29"></use>
            </g>
        </g>
    </g>
</svg>