<?xml version="1.0" encoding="UTF-8"?>
<svg width="324px" height="268px" viewBox="0 0 324 268" version="1.1" xmlns="http://www.w3.org/2000/svg" xmlns:xlink="http://www.w3.org/1999/xlink">
    <!-- Generator: Sketch 55.2 (78181) - https://sketchapp.com -->
    <title>Group 44</title>
    <desc>Created with Sketch.</desc>
    <defs>
        <filter x="-19.8%" y="-29.0%" width="139.7%" height="158.0%" filterUnits="objectBoundingBox" id="filter-1">
            <feGaussianBlur stdDeviation="6.74416476" in="SourceGraphic"></feGaussianBlur>
        </filter>
        <path d="M65.1341706,74.7725643 L30.1488533,54.4243533 C27.7174772,53.010592 28.025467,50.5173376 30.8328231,48.8846335 L97.8188622,9.92453294 C100.626218,8.29182888 104.912507,8.11269391 107.343883,9.52645522 L142.3292,29.8752516 C144.759995,31.2890129 144.452586,33.7816819 141.64523,35.4149714 L74.6591912,74.375072 C71.851835,76.0077761 67.5661279,76.186911 65.1341706,74.7725643" id="path-2"></path>
        <filter x="-18.9%" y="-46.2%" width="137.8%" height="192.3%" filterUnits="objectBoundingBox" id="filter-4">
            <feGaussianBlur stdDeviation="10" in="SourceGraphic"></feGaussianBlur>
        </filter>
        <path d="M65.1341706,85.7725643 L30.1488533,65.4243533 C27.7174772,64.010592 28.025467,61.5173376 30.8328231,59.8846335 L97.8188622,20.9245329 C100.626218,19.2918289 104.912507,19.1126939 107.343883,20.5264552 L142.3292,40.8752516 C144.759995,42.2890129 144.452586,44.7816819 141.64523,46.4149714 L74.6591912,85.375072 C71.851835,87.0077761 67.5661279,87.186911 65.1341706,85.7725643" id="path-5"></path>
        <path d="M36.6254405,66.1997329 L1.64012324,45.8515219 C-0.791252874,44.4377606 -0.48326307,41.9445062 2.32409305,40.3118021 L69.3101321,1.35170152 C72.1174883,-0.281002543 76.4037765,-0.460137517 78.8351527,0.953623797 L113.82047,21.3024202 C116.251265,22.7161815 115.943856,25.2088505 113.1365,26.84214 L46.1504611,65.8022406 C43.343105,67.4349446 39.0573978,67.6140796 36.6254405,66.1997329" id="path-7"></path>
        <polygon id="path-9" points="0 12.4037775 158.687205 12.4037775 158.687205 104.376428 0 104.376428"></polygon>
        <linearGradient x1="38.0881964%" y1="42.6248937%" x2="69.8810248%" y2="55.1510176%" id="linearGradient-11">
            <stop stop-color="#F0F1F4" offset="0%"></stop>
            <stop stop-color="#F3F6F9" offset="100%"></stop>
        </linearGradient>
        <linearGradient x1="66.7067576%" y1="33.0759029%" x2="32.3628208%" y2="66.9240971%" id="linearGradient-12">
            <stop stop-color="#D9E0F2" offset="0%"></stop>
            <stop stop-color="#C0C9E9" offset="100%"></stop>
        </linearGradient>
        <path d="M36.6254405,86.2195147 L1.64012324,65.8652232 C-0.791252874,64.4510395 -0.48326307,61.95704 2.32409305,60.3238481 L69.3101321,21.3521054 C72.1174883,19.7189135 76.4037765,19.539725 78.8351527,20.9539088 L113.82047,41.3087858 C116.251265,42.7229695 115.943856,45.2163834 113.1365,46.8501609 L46.1504611,85.8219036 C43.343105,87.4550955 39.0573978,87.634284 36.6254405,86.2195147" id="path-13"></path>
        <path d="M1.64012324,45.8652232 C-0.791252874,44.4510395 -0.48326307,41.95704 2.32409305,40.3238481 L69.3101321,1.35210543 C72.1174883,-0.281086512 76.4037765,-0.460275015 78.8351527,0.953908759 L113.82047,21.3087858 C116.251265,22.7229695 115.943856,25.2163834 113.1365,26.8501609 L46.1504611,65.8219036 C43.343105,67.4550955 39.0573978,67.634284 36.6254405,66.2195147 L1.64012324,45.8652232 Z" id="path-15"></path>
        <linearGradient x1="21.9116725%" y1="37.6482445%" x2="65.9832526%" y2="56.9108919%" id="linearGradient-17">
            <stop stop-color="#D3DAED" offset="0%"></stop>
            <stop stop-color="#99A7D8" offset="100%"></stop>
        </linearGradient>
        <path d="M1.74739024,6.15618347 C-0.224566704,8.95991734 0.031418368,12.0532041 2.05896521,14.7641803 L2.04979758,14.7772149 C3.94418965,17.3192694 7.39274178,19.529146 11.9888833,20.8152276 C16.5841081,22.1026126 21.5010436,22.2333699 25.7698515,21.3994734 C30.3135894,20.528606 34.1220307,18.5710008 36.0949044,15.7659635 C39.9187223,10.3292485 35.3266478,3.7630325 25.8475877,1.11088317 C16.3685276,-1.54126616 5.57212495,0.718165019 1.74739024,6.15618347 Z" id="path-18"></path>
    </defs>
    <g id="Page-1" stroke="none" stroke-width="1" fill="none" fill-rule="evenodd">
        <g id="Benefit-API-Integration-Services" transform="translate(-2547.000000, -471.000000)">
            <g id="Group-44" transform="translate(2558.000000, 471.000000)">
                <g id="Group-114" transform="translate(142.000000, 0.000000)">
                    <path d="M22.9774199,65.602204 C19.5818861,63.731069 16.8014594,58.6639067 16.8014594,54.3431627 L16.8014594,5.15589418 C16.8014594,0.835150158 19.5818861,-1.17000078 22.9774199,0.701134148 L107.573742,49.5220932 C110.971054,51.3932281 113.751481,56.4603904 113.751481,60.7811344 L113.751481,109.968403 C113.751481,114.289147 110.971054,116.294298 107.573742,114.423163 L22.9774199,65.602204 Z" id="Fill-9-Copy" fill="#2645B5" opacity="0.200000003"></path>
                    <path d="M99.5122438,121.180273 L14.7976054,71.7962212 C11.5885266,69.9250863 8.96077835,64.857924 8.96077835,60.53718 L8.96077835,11.3499115 C8.96077835,7.02916743 11.5885266,5.0240165 14.7976054,6.89515142 L99.5122438,56.2792029 C102.723003,58.1503379 105.350751,63.2175002 105.350751,67.5382442 L105.350751,116.725513 C105.350751,121.046257 102.723003,123.051408 99.5122438,121.180273" id="Fill-9-Copy" fill="#2645B5" opacity="0.200000003"></path>
                    <path d="M5.836827,80.8766293 C2.62774825,79.0054943 0,73.938332 0,69.617588 L0,25.4981518 C0,21.1774078 2.62774825,19.1722568 5.836827,21.0433918 L90.5514655,70.4274433 C93.7622244,72.2985782 96.3899726,77.3657405 96.3899726,81.6864846 L96.3899726,125.805921 C96.3899726,130.126665 93.7622244,132.131816 90.5514655,130.260681 L5.836827,80.8766293 Z" id="Fill-9" fill="#2645B5" opacity="0.745605469"></path>
                    <polygon id="Path" fill="#FFFFFF" fill-rule="nonzero" points="88.208838 119.059133 88.208838 122.112663 70.9033348 112.103872 70.7353202 109.050343"></polygon>
                    <polygon id="Path" fill="#FFFFFF" fill-rule="nonzero" points="88.208838 110.916388 88.208838 114.139558 54.7739338 94.9701797 54.7739338 91.9166504"></polygon>
                    <path d="M5.05350547,11.3713913 L90.3229073,60.3765119 C93.9859718,62.4817093 96.2443311,66.3843612 96.2443311,70.6092751 L96.2443311,80.6732711 L0.00117610216,25.3614321 L0.00117610216,14.2950379 C0.00117610216,12.4326882 1.51090881,10.9229555 3.37325848,10.9229555 C3.96291517,10.9229555 4.54226417,11.0775761 5.05350547,11.3713913 Z" id="Rectangle" fill="#224384"></path>
                    <polygon id="Path" fill="#FFFFFF" fill-rule="nonzero" points="88.208838 102.943284 88.208838 106.166454 61.9985613 91.0684478 61.9985613 88.0149184"></polygon>
                    <polygon id="Path" fill="#FFFFFF" fill-rule="nonzero" points="47.4652989 78.1900238 47.4652989 80.6498113 5.04161393 55.8822955 5.04161393 53.422508"></polygon>
                    <polygon id="Path" fill="#FFFFFF" fill-rule="nonzero" points="19.7428909 50.1145179 19.7428909 52.5743054 5.04161393 44.0074592 5.12562122 41.5476717"></polygon>
                    <polygon id="Path" fill="#FFFFFF" fill-rule="nonzero" points="39.3165911 67.3330306 39.3165911 69.7928181 5.04161393 49.8600571 5.04161393 47.4002696"></polygon>
                    <polygon id="Path" fill="#FFFFFF" fill-rule="nonzero" points="62.8386343 69.2838966 62.8386343 71.7436841 5.12562122 38.1548613 5.12562122 35.6102535"></polygon>
                    <path d="M7.41092389,25.0072235 C8.72954366,25.9609409 9.79849619,25.4177318 9.79849619,23.7939319 C9.79849619,22.1701321 8.72954366,20.0806416 7.41092389,19.1269241 C6.09230412,18.1732067 5.02335159,18.7164159 5.02335159,20.3402157 C5.02335159,21.9640155 6.09230412,24.0535061 7.41092389,25.0072235 Z" id="Oval" fill="#FF584F"></path>
                    <path d="M15.4306606,29.8339839 C16.7492804,30.7877014 17.8182329,30.2444922 17.8182329,28.6206924 C17.8182329,26.9968926 16.7492804,24.907402 15.4306606,23.9536846 C14.1120409,22.9999672 13.0430883,23.5431763 13.0430883,25.1669762 C13.0430883,26.790776 14.1120409,28.8802665 15.4306606,29.8339839 Z" id="Oval" fill="#F7B500"></path>
                    <path d="M23.4503974,34.6607444 C24.7690172,35.6144618 25.8379697,35.0712527 25.8379697,33.4474529 C25.8379697,31.8236531 24.7690172,29.7341625 23.4503974,28.7804451 C22.1317776,27.8267277 21.0628251,28.3699368 21.0628251,29.9937366 C21.0628251,31.6175365 22.1317776,33.707027 23.4503974,34.6607444 Z" id="Oval" fill="#23B685"></path>
                    <path d="M19.8528552,93.115953 L102.23775,140.687383 C107.634665,143.600136 112.009729,150.346374 112.009729,155.755528 C112.009729,161.164682 107.634665,163.188415 102.23775,160.275663 L19.8528552,112.704233 C14.4559399,109.79148 10.0808756,103.045242 10.0808756,97.6360882 C10.0808756,92.2269341 14.4559399,90.2032007 19.8528552,93.115953 Z" id="Rectangle" fill-opacity="0.5" fill="#8292C2" opacity="0.5" filter="url(#filter-1)"></path>
                </g>
                <g id="Group-111" transform="translate(0.000000, 92.000000)">
                    <path d="M72.4257813,169.424552 L104.044997,149.33054 C112.296017,144.087017 122.84641,144.134038 131.050364,149.450897 L178.187864,180" id="Path-11" stroke="#F34C43" transform="translate(125.306823, 160.362520) scale(-1, -1) translate(-125.306823, -160.362520) "></path>
                    <g id="Group-40-Copy-7" transform="translate(0.489362, 54.744681)">
                        <path d="M50.3374811,91.042487 L2.25409826,63.1822834 C-1.08755469,61.2466008 -0.664257351,57.8329062 3.19413782,55.5974533 L95.2589128,2.2543689 C99.1173079,0.0189159874 105.008329,-0.226350629 108.349982,1.70933198 L156.433365,29.5703371 C159.774219,31.5060197 159.35172,34.9189127 155.493325,37.1551672 L63.4285503,90.4982516 C59.5701551,92.7337045 53.6799327,92.9789711 50.3374811,91.042487" id="Fill-1" stroke="#978FF7"></path>
                        <mask id="mask-3" fill="white">
                            <use xlink:href="#path-2"></use>
                        </mask>
                        <use id="Mask" stroke="#978FF7" xlink:href="#path-2"></use>
                        <path d="M30.3322147,72.6039753 L30.3323185,72.604032 C33.2429882,74.1958286 38.0272017,74.1958286 40.9396105,72.6039753 C43.6545776,71.1200389 43.6545776,68.9043179 40.9396105,67.418938 C38.0272017,65.8270847 33.2429882,65.8270847 30.3323943,67.4188398 C27.6172476,68.9043179 27.6172476,71.1200389 30.3322147,72.6039753 Z" id="Fill-33" stroke="#978FF7"></path>
                    </g>
                    <path d="M296.460357,87.7327862 L296.460357,108 L296.460357,109.472168 L225.031276,150.726678 C221.455738,151.031288 218.445312,150.316243 216,148.581543 C212.984701,147.151453 201.758626,140.651453 182.321777,129.081543 L181,126.203125 L181,108 L181,107.351563 L220.522949,84.8007813 L243.446766,74.0805664 L269,74.0805664 L296.460357,87.7327862 Z" id="Path-5" fill="#B9C1DC"></path>
                    <path d="M168.730624,51 C168.923395,56.2702087 168.129871,59.3823794 166.350053,60.3365123 C164.064385,61.6843998 133.157485,79.5757177 73.6293539,114.010466 C68.8609598,116.357272 64.165939,116.627901 59.5442915,114.822354 C54.9226439,113.016807 39.6793645,103.860528 13.8144531,87.3535156 C12.1222132,86.2000499 11.04941,85.163373 10.5960435,84.2434848 C10.142677,83.3235967 9.97169403,81.5032778 10.0830947,78.7825281 L157.198733,51.267774 L168.730624,51 Z" id="Path-13" fill-opacity="0.5" fill="#8292C2" filter="url(#filter-4)"></path>
                    <g id="Group-40-Copy-7" transform="translate(153.000000, 64.000000)">
                        <path d="M50.3374811,102.042487 L2.25409826,74.1822834 C-1.08755469,72.2466008 -0.664257351,68.8329062 3.19413782,66.5974533 L95.2589128,13.2543689 C99.1173079,11.018916 105.008329,10.7736494 108.349982,12.709332 L156.433365,40.5703371 C159.774219,42.5060197 159.35172,45.9189127 155.493325,48.1551672 L63.4285503,101.498252 C59.5701551,103.733704 53.6799327,103.978971 50.3374811,102.042487" id="Fill-1" stroke="#978FF7"></path>
                        <mask id="mask-6" fill="white">
                            <use xlink:href="#path-5"></use>
                        </mask>
                        <use id="Mask" stroke="#978FF7" xlink:href="#path-5"></use>
                        <g id="Group-95" transform="translate(28.000000, 0.000000)">
                            <g id="Group-93">
                                <mask id="mask-8" fill="white">
                                    <use xlink:href="#path-7"></use>
                                </mask>
                                <use id="Mask" fill="#A7B4E0" fill-rule="nonzero" xlink:href="#path-7"></use>
                                <polygon id="Path-47" fill="#8592C1" mask="url(#mask-8)" points="118.495605 23.7327862 73.8670083 -2 63 4.6519082 107.022949 32.2822266"></polygon>
                                <path d="M106.154843,22.2232715 L110.654205,24.6477778 C110.808248,24.7307848 110.865834,24.9229521 110.782827,25.0769953 C110.745876,25.1455679 110.68496,25.1981257 110.611713,25.2246299 L110.368124,25.3127721 C110.099525,25.4099638 109.802185,25.3876536 109.551098,25.2514685 L105.083793,22.828486 C104.929207,22.7446414 104.87186,22.5513552 104.955704,22.3967692 C104.990881,22.3319138 105.047487,22.2812864 105.115851,22.2535382 L105.304384,22.1770148 C105.580595,22.0649036 105.892421,22.0818639 106.154843,22.2232715 Z" id="Rectangle" fill="#FFFFFF" mask="url(#mask-8)"></path>
                                <path d="M104.154843,23.2232715 L108.654205,25.6477778 C108.808248,25.7307848 108.865834,25.9229521 108.782827,26.0769953 C108.745876,26.1455679 108.68496,26.1981257 108.611713,26.2246299 L108.368124,26.3127721 C108.099525,26.4099638 107.802185,26.3876536 107.551098,26.2514685 L103.083793,23.828486 C102.929207,23.7446414 102.87186,23.5513552 102.955704,23.3967692 C102.990881,23.3319138 103.047487,23.2812864 103.115851,23.2535382 L103.304384,23.1770148 C103.580595,23.0649036 103.892421,23.0818639 104.154843,23.2232715 Z" id="Rectangle" fill="#FFFFFF" mask="url(#mask-8)"></path>
                            </g>
                            <g id="Group-94" transform="translate(21.000000, 14.000000)">
                                <path d="M31.3183421,6.6539352 L56.8960289,21.7608398 C57.9043925,22.3564078 58.2390294,23.6566512 57.6434614,24.6650148 C57.4713227,24.956465 57.2319135,25.2024713 56.945249,25.3824669 C55.1378895,26.5173017 52.844918,26.5353309 51.0199371,25.4290565 L25.7811703,10.1297181 C24.8363676,9.55699372 24.5347385,8.326795 25.1074629,7.38199231 C25.2699398,7.11395995 25.4931242,6.88785556 25.759022,6.72190845 C27.4543268,5.66386703 29.5976749,5.63766052 31.3183421,6.6539352 Z" id="Path-9-Copy-4" fill="#FFFFFF"></path>
                                <path d="M22.4513975,13.6900465 L45.4017903,27.194519 C46.4587784,27.816472 46.811444,29.1775228 46.189491,30.2345109 C46.0170777,30.5275215 45.7796878,30.7770317 45.4956185,30.9638101 C43.6746172,32.1611369 41.3273502,32.2044198 39.4634451,31.0750416 L16.8501366,17.3731755 C15.8592921,16.7728026 15.5427523,15.482866 16.1431253,14.4920215 C16.3058419,14.2234769 16.5267687,13.9948862 16.7896104,13.8231097 C18.4982471,12.7064549 20.6921891,12.6548929 22.4513975,13.6900465 Z" id="Path-9-Copy-5" fill="#FFFFFF"></path>
                                <path d="M1.83044434,28.3563843 C1.82527669,30.0673218 1.84446208,31.3036499 1.88800049,32.0653687 C1.98352051,32.5734253 2.15026855,33.0177002 3.56433105,33.8851318 C4.50703939,34.4634196 8.13781738,36.6456299 14.456665,40.4317627 C15.752955,41.2141625 17.1227873,41.3912051 18.5661621,40.9628906 C20.0095369,40.5345761 20.8325756,39.8289031 21.0352783,38.8458716 L21,35.8627274 L8.55353976,30 L1.83044434,28.3563843 Z" id="Path-23" fill="#FF635A"></path>
                                <path d="M8.43090961,26.7243918 L19.9784111,33.7070671 C21.0419485,34.3501791 21.3827706,35.7336918 20.7396587,36.7972292 C20.5660977,37.0842532 20.3305706,37.3288497 20.050306,37.5131265 C18.2357588,38.7062096 15.8905046,38.7254225 14.0566543,37.5622279 L2.81415338,30.4312115 C1.81343986,29.796468 1.51676256,28.4706681 2.15150606,27.4699546 C2.31559341,27.2112604 2.53317244,26.9907011 2.78961044,26.8231097 C4.49478528,25.7087173 6.68778886,25.6703416 8.43090961,26.7243918 Z" id="Path-9-Copy-5" fill="#FD817A"></path>
                                <path d="M30.0588554,19.8185252 L42.537051,27.2920417 C43.0361002,27.5909353 43.1983584,28.2377958 42.8994648,28.736845 C42.8153487,28.87729 42.6996529,28.9961943 42.5615609,29.08412 C41.681618,29.6443954 40.559069,29.6532765 39.6703716,29.1069938 L27.3571273,21.5380373 C26.8896155,21.2506576 26.7435896,20.6386971 27.0309693,20.1711853 C27.110301,20.0421278 27.2180915,19.9329181 27.3461003,19.8519053 C28.1715307,19.3295159 29.220821,19.3166045 30.0588554,19.8185252 Z" id="Path-9-Copy-4" fill="#A6B1D8"></path>
                                <path d="M42.0588554,14.8185252 L54.537051,22.2920417 C55.0361002,22.5909353 55.1983584,23.2377958 54.8994648,23.736845 C54.8153487,23.87729 54.6996529,23.9961943 54.5615609,24.08412 C53.681618,24.6443954 52.559069,24.6532765 51.6703716,24.1069938 L39.3571273,16.5380373 C38.8896155,16.2506576 38.7435896,15.6386971 39.0309693,15.1711853 C39.110301,15.0421278 39.2180915,14.9329181 39.3461003,14.8519053 C40.1715307,14.3295159 41.220821,14.3166045 42.0588554,14.8185252 Z" id="Path-9-Copy-6" fill="#A6B1D8"></path>
                                <path d="M42.3183421,1.6539352 L67.8960289,16.7608398 C68.9043925,17.3564078 69.2390294,18.6566512 68.6434614,19.6650148 C68.4713227,19.956465 68.2319135,20.2024713 67.945249,20.3824669 C66.1378895,21.5173017 63.844918,21.5353309 62.0199371,20.4290565 L36.7811703,5.12971807 C35.8363676,4.55699372 35.5347385,3.326795 36.1074629,2.38199231 C36.2699398,2.11395995 36.4931242,1.88785556 36.759022,1.72190845 C38.4543268,0.663867029 40.5976749,0.637660525 42.3183421,1.6539352 Z" id="Path-9-Copy-4" fill="#FFFFFF"></path>
                                <path d="M53.0588554,9.81852517 L65.537051,17.2920417 C66.0361002,17.5909353 66.1983584,18.2377958 65.8994648,18.736845 C65.8153487,18.87729 65.6996529,18.9961943 65.5615609,19.08412 C64.681618,19.6443954 63.559069,19.6532765 62.6703716,19.1069938 L50.3571273,11.5380373 C49.8896155,11.2506576 49.7435896,10.6386971 50.0309693,10.1711853 C50.110301,10.0421278 50.2180915,9.93291815 50.3461003,9.85190529 C51.1715307,9.3295159 52.220821,9.31660451 53.0588554,9.81852517 Z" id="Path-9-Copy-6" fill="#A6B1D8"></path>
                            </g>
                        </g>
                        <path d="M30.3322147,83.6039753 L30.3323185,83.604032 C33.2429882,85.1958286 38.0272017,85.1958286 40.9396105,83.6039753 C43.6545776,82.1200389 43.6545776,79.9043179 40.9396105,78.418938 C38.0272017,76.8270847 33.2429882,76.8270847 30.3323943,78.4188398 C27.6172476,79.9043179 27.6172476,82.1200389 30.3322147,83.6039753 Z" id="Fill-33" stroke="#978FF7"></path>
                    </g>
                    <g id="Group-40-Copy-8" transform="translate(9.063830, 0.617021)">
                        <g id="Group-6">
                            <g id="Group-40">
                                <g id="Group-6">
                                    <g id="Group-3" transform="translate(1.000000, 0.000000)">
                                        <mask id="mask-10" fill="white">
                                            <use xlink:href="#path-9"></use>
                                        </mask>
                                        <g id="Clip-2"></g>
                                        <path d="M50.3374811,103.069692 L2.25409826,75.2011635 C-1.08755469,73.2649024 -0.664257351,69.8501879 3.19413782,67.6140669 L95.2589128,14.2550426 C99.1173079,12.0189216 105.008329,11.7735817 108.349982,13.7098428 L156.433365,41.5791733 C159.774219,43.5154344 159.35172,46.9293472 155.493325,49.1662698 L63.4285503,102.525294 C59.5701551,104.761415 53.6799327,105.006755 50.3374811,103.069692" id="Fill-1" fill="url(#linearGradient-11)" mask="url(#mask-10)"></path>
                                        <g id="Path-8" transform="translate(28.508730, 0.575393)">
                                            <mask id="mask-14" fill="white">
                                                <use xlink:href="#path-13"></use>
                                            </mask>
                                            <use id="Mask" fill="url(#linearGradient-12)" fill-rule="nonzero" xlink:href="#path-13"></use>
                                            <mask id="mask-16" fill="white">
                                                <use xlink:href="#path-15"></use>
                                            </mask>
                                            <use id="Mask" fill="#2645B5" opacity="0.745605469" xlink:href="#path-15"></use>
                                        </g>
                                        <path d="M61.2545123,31.0369139 L86.8321991,46.1438185 C87.8405627,46.7393865 88.1751996,48.03963 87.5796316,49.0479935 C87.4074929,49.3394437 87.1680837,49.58545 86.8814192,49.7654456 C85.0740597,50.9002804 82.7810882,50.9183096 80.9561073,49.8120353 L55.7173405,34.5126968 C54.7725379,33.9399724 54.4709088,32.7097737 55.0436331,31.764971 C55.2061101,31.4969387 55.4292944,31.2708343 55.6951922,31.1048872 C57.390497,30.0468458 59.5338451,30.0206392 61.2545123,31.0369139 Z" id="Path-9-Copy-4" fill="#FFFFFF"></path>
                                        <path d="M51.3875677,39.0730252 L74.3379605,52.5774977 C75.3949486,53.1994508 75.7476142,54.5605015 75.1256612,55.6174896 C74.9532479,55.9105002 74.715858,56.1600104 74.4317887,56.3467888 C72.6107874,57.5441156 70.2635204,57.5873985 68.3996153,56.4580204 L45.7863068,42.7561542 C44.7954623,42.1557813 44.4789226,40.8658447 45.0792955,39.8750002 C45.2420122,39.6064556 45.4629389,39.3778649 45.7257807,39.2060885 C47.4344173,38.0894336 49.6283593,38.0378716 51.3875677,39.0730252 Z" id="Path-9-Copy-5" fill="#FFFFFF"></path>
                                        <path d="M72.2545123,25.0369139 L97.8321991,40.1438185 C98.8405627,40.7393865 99.1751996,42.03963 98.5796316,43.0479935 C98.4074929,43.3394437 98.1680837,43.58545 97.8814192,43.7654456 C96.0740597,44.9002804 93.7810882,44.9183096 91.9561073,43.8120353 L66.7173405,28.5126968 C65.7725379,27.9399724 65.4709088,26.7097737 66.0436331,25.764971 C66.2061101,25.4969387 66.4292944,25.2708343 66.6951922,25.1048872 C68.390497,24.0468458 70.5338451,24.0206392 72.2545123,25.0369139 Z" id="Path-9-Copy-4" fill="#FFFFFF"></path>
                                    </g>
                                    <path d="M58.3302916,108.836365 L58.3641249,104.275193 C60.7545569,104.183792 62.4154762,103.563214 64.3602479,102.436735 L156.425822,49.0769084 C158.49918,47.8750636 159.57739,46.3332706 159.614129,44.8636365 L159.614129,50.8840854 C159.685211,52.4194642 158.603007,54.0566671 156.425822,55.3186443 L64.3602479,108.67847 C62.4154762,109.805751 60.7099554,110.196655 58.3195235,110.288056 L58.3302916,108.836365 L58.3200728,110.286377 C55.9679772,110.376977 52.9266674,110.183061 51.2694184,109.22335 L3.1860355,81.3548207 C1.70529349,80.496131 0.967318507,79.3472026 0.936170213,78.1405472 L0.936170213,71.9605472 C0.99048006,73.1447532 1.73085106,74.2688269 3.1860355,75.1122831 L51.2694184,102.980812 C52.9266674,103.941326 56.0103486,104.363855 58.3624441,104.274058 L58.3302916,108.836365 Z M159.614129,44.8636365 C159.615726,44.8099183 159.615726,44.7570018 159.614129,44.7040854 L159.614129,44.8636365 Z" id="Combined-Shape" fill="url(#linearGradient-17)" fill-rule="nonzero"></path>
                                </g>
                                <path d="M31.0924095,85.0645426 C28.0305459,83.3905008 28.0305459,80.6758825 31.0924095,79.0002122 C34.1525539,77.3261704 39.1175522,77.3261704 42.1794157,79.0002122 C45.2412793,80.6758825 45.2412793,83.3905008 42.1794157,85.0645426 C39.1175522,86.7385845 34.1525539,86.7385845 31.0924095,85.0645426 Z" id="Fill-33" fill="#A0ADDA"></path>
                            </g>
                        </g>
                    </g>
                </g>
                <g id="Fill-4" transform="translate(97.000000, 104.000000)">
                    <mask id="mask-19" fill="white">
                        <use xlink:href="#path-18"></use>
                    </mask>
                    <use id="Mask" fill="#FFFFFF" xlink:href="#path-18"></use>
                    <path d="M-4.89774972,13.7673661 C-6.41477263,15.9554536 -6.21784377,18.3695137 -4.65805566,20.4852114 L-4.6651083,20.4953838 C-3.20775591,22.4792517 -0.554790989,24.2038816 2.98101238,25.2075642 C6.51611048,26.2122641 10.2987001,26.3143096 13.5826863,25.6635208 C17.0781756,24.9838793 20.0080026,23.4561267 21.5257308,21.267022 C24.467387,17.0241058 20.9347123,11.8997054 13.6424886,9.82991741 C6.35026481,7.76012941 -1.95538822,9.52343266 -4.89774972,13.7673661 Z" fill="#FD817A" mask="url(#mask-19)"></path>
                    <path d="M19.008514,7.76273364 C18.4185606,8.70048541 18.4951441,9.73508259 19.1017284,10.6418102 L19.0989857,10.6461698 C19.6657338,11.4963989 20.6974424,12.235526 22.072477,12.6656757 C23.4472374,13.0962613 24.9182445,13.1399951 26.1953502,12.8610856 C27.5547072,12.5698107 28.6940843,11.9150596 29.284312,10.9768719 C30.4282894,9.1584792 29.0544715,6.96230761 26.2186067,6.07525561 C23.3827419,5.18820361 20.1527657,5.943905 19.008514,7.76273364 Z" id="Fill-4-Copy" fill="#FD817A" mask="url(#mask-19)"></path>
                </g>
            </g>
        </g>
    </g>
</svg>