<svg xmlns="http://www.w3.org/2000/svg" width="50" height="50" viewBox="0 0 50 50">
    <defs>
        <linearGradient id="a" x1="74.145%" x2="23.301%" y1="89.77%" y2="9.764%">
            <stop offset="0%" stop-color="#EEBB97"/>
            <stop offset="100%" stop-color="#FDE8DA"/>
        </linearGradient>
        <filter id="b" width="117.6%" height="130%" x="-8.8%" y="-15%" filterUnits="objectBoundingBox">
            <feGaussianBlur in="SourceGraphic" stdDeviation="1"/>
        </filter>
    </defs>
    <g fill="none" fill-rule="evenodd">
        <circle cx="25" cy="25" r="25" fill="url(#a)"/>
        <path fill="#F6B684" d="M32.222 19H33a1 1 0 0 1 1 1v1a1 1 0 0 1-1 1H1a1 1 0 0 1-1-1v-1a1 1 0 0 1 1-1h1.222V3a1 1 0 0 1 1-1h28a1 1 0 0 1 1 1v16z" filter="url(#b)" transform="translate(8 15)"/>
        <path fill="#FFF" d="M40.222 32H41a1 1 0 0 1 1 1v1a1 1 0 0 1-1 1H9a1 1 0 0 1-1-1v-1a1 1 0 0 1 1-1h1.222V16a1 1 0 0 1 1-1h28a1 1 0 0 1 1 1v16z"/>
        <path fill="#F78761" d="M16.321 29.41h13.822v1.363c0 .061.032.114.095.16.064.045.14.067.227.067a.39.39 0 0 0 .23-.064l3.215-2.273a.193.193 0 0 0 0-.327l-3.204-2.265a.471.471 0 0 0-.242-.071.39.39 0 0 0-.23.064.193.193 0 0 0-.09.163v1.364H16.32a.381.381 0 0 0-.226.067c-.063.045-.095.099-.095.16v1.364c0 .061.032.115.095.16a.381.381 0 0 0 .226.067z" opacity=".704"/>
        <path fill="#F78761" fill-rule="nonzero" d="M19.5 17c-1.93 0-3.5 1.35-3.5 3.01v4.06c0 .513.485.93 1.082.93.598 0 1.082-.417 1.082-.93v-1.764h2.672v1.764c0 .513.484.93 1.082.93.597 0 1.082-.417 1.082-.93v-4.06c0-1.66-1.57-3.01-3.5-3.01zm1.336 3.445h-2.671v-.436c0-.633.599-1.148 1.335-1.148s1.336.515 1.336 1.148v.436zM27.914 17h-2.832c-.597 0-1.082.417-1.082.93v6.14c0 .513.485.93 1.082.93.598 0 1.082-.417 1.082-.93v-1.764h1.75c1.702 0 3.086-1.19 3.086-2.653S29.616 17 27.914 17zm0 3.445h-1.75v-1.584h1.75c.508 0 .922.355.922.792 0 .437-.414.792-.922.792z" opacity=".704"/>
        <path fill="#F78761" d="M33 17c-.552 0-1 .417-1 .93v6.14c0 .513.448.93 1 .93s1-.417 1-.93v-6.14c0-.513-.448-.93-1-.93z" opacity=".704"/>
    </g>
</svg>
