<svg xmlns="http://www.w3.org/2000/svg" width="50" height="50" viewBox="0 0 50 50">
    <defs>
        <linearGradient id="a" x1="75.477%" x2="23.301%" y1="91.865%" y2="9.764%">
            <stop offset="0%" stop-color="#36CFC8"/>
            <stop offset="100%" stop-color="#BAF9F6"/>
        </linearGradient>
        <filter id="b" width="117.6%" height="130%" x="-8.8%" y="-15%" filterUnits="objectBoundingBox">
            <feGaussianBlur in="SourceGraphic" stdDeviation="1"/>
        </filter>
    </defs>
    <g fill="none" fill-rule="evenodd">
        <circle cx="25" cy="25" r="25" fill="url(#a)"/>
        <path fill="#30B8B1" d="M40 34h1a1 1 0 0 1 1 1v1a1 1 0 0 1-1 1H9a1 1 0 0 1-1-1v-1a1 1 0 0 1 1-1h1V18a1 1 0 0 1 1-1h28a1 1 0 0 1 1 1v16z" filter="url(#b)"/>
        <g fill="#FFF">
            <path d="M11 15h28a1 1 0 0 1 1 1v18a1 1 0 0 1-1 1H11a1 1 0 0 1-1-1V16a1 1 0 0 1 1-1z"/>
            <path d="M9 32h32a1 1 0 0 1 1 1v1a1 1 0 0 1-1 1H9a1 1 0 0 1-1-1v-1a1 1 0 0 1 1-1z"/>
        </g>
        <path fill="#00BFB7" fill-rule="nonzero" d="M16 19v10.46c0 .298.25.54.557.54h8.387l1.112-.022c1.288 0 4.869.022 5.719.022.012 0 .265-.007.266 0h2.402a.549.549 0 0 0 .557-.54V19H16zm2.783 1.335H25.5c.307 0 .556.242.556.54 0 .3-.249.541-.556.541h-6.717a.549.549 0 0 1-.556-.54c0-.3.249-.541.556-.541zm0 2.164H25.5c.307 0 .556.242.556.54 0 .3-.249.541-.556.541h-6.717a.549.549 0 0 1-.556-.54c0-.3.249-.541.556-.541zm3.359 5.41h-3.359a.549.549 0 0 1-.556-.542c0-.298.249-.54.556-.54h3.359c.307 0 .556.242.556.54 0 .299-.25.541-.556.541zm10.075-2.165H18.783a.549.549 0 0 1-.556-.54c0-.3.249-.541.556-.541h13.434c.308 0 .557.242.557.54 0 .3-.25.541-.557.541zm0-2.128H27.9a.549.549 0 0 1-.556-.54v-2.392c0-.3.249-.541.556-.541h4.317c.308 0 .557.242.557.54v2.392c0 .299-.25.54-.557.54z" opacity=".699"/>
    </g>
</svg>
