<svg xmlns="http://www.w3.org/2000/svg" width="50" height="50" viewBox="0 0 50 50">
    <defs>
        <linearGradient id="a" x1="75.477%" x2="23.301%" y1="91.865%" y2="9.764%">
            <stop offset="0%" stop-color="#6CBAF7"/>
            <stop offset="100%" stop-color="#C8E7FF"/>
        </linearGradient>
        <filter id="b" width="117.6%" height="130%" x="-8.8%" y="-15%" filterUnits="objectBoundingBox">
            <feGaussianBlur in="SourceGraphic" stdDeviation="1"/>
        </filter>
        <filter id="c" width="147.1%" height="180%" x="-23.5%" y="-40%" filterUnits="objectBoundingBox">
            <feOffset dy="2" in="SourceAlpha" result="shadowOffsetOuter1"/>
            <feGaussianBlur in="shadowOffsetOuter1" result="shadowBlurOuter1" stdDeviation="1"/>
            <feColorMatrix in="shadowBlurOuter1" result="shadowMatrixOuter1" values="0 0 0 0 0.423529412 0 0 0 0 0.729411765 0 0 0 0 0.968627451 0 0 0 1 0"/>
            <feMerge>
                <feMergeNode in="shadowMatrixOuter1"/>
                <feMergeNode in="SourceGraphic"/>
            </feMerge>
        </filter>
    </defs>
    <g fill="none" fill-rule="evenodd">
        <circle cx="25" cy="25" r="25" fill="url(#a)"/>
        <path fill="#6CBAF7" d="M40 34h1a1 1 0 0 1 1 1v1a1 1 0 0 1-1 1H9a1 1 0 0 1-1-1v-1a1 1 0 0 1 1-1h1V18a1 1 0 0 1 1-1h28a1 1 0 0 1 1 1v16z" filter="url(#b)"/>
        <g filter="url(#c)" transform="translate(8 15)">
            <path fill="#FFF" d="M3 0h28a1 1 0 0 1 1 1v18a1 1 0 0 1-1 1H3a1 1 0 0 1-1-1V1a1 1 0 0 1 1-1z"/>
            <path fill="#FFF" d="M1 17h32a1 1 0 0 1 1 1v1a1 1 0 0 1-1 1H1a1 1 0 0 1-1-1v-1a1 1 0 0 1 1-1z"/>
            <g fill="#87C9FD" fill-rule="nonzero">
                <path d="M23.037 6.975c.417-1.575.681-3.912-.806-4.724-1.487-.812-3.497.576-4.731 1.705-1.236-1.131-3.245-2.516-4.731-1.705-1.487.812-1.223 3.148-.806 4.723C10.306 7.418 8 8.371 8 10c0 1.63 2.306 2.582 3.963 3.026-.417 1.574-.681 3.911.806 4.723 1.486.811 3.497-.575 4.731-1.705 1.232 1.128 3.244 2.517 4.731 1.705 1.487-.812 1.223-3.149.806-4.723C24.694 12.582 27 11.63 27 10s-2.306-2.582-3.963-3.025zm-1.362-3.812c.908.496.537 2.596.28 3.562a21.264 21.264 0 0 0-2.263-.315 19.138 19.138 0 0 0-1.421-1.695c.794-.727 2.507-2.041 3.404-1.552zm-.439 8.066c.15.35.287.695.406 1.034-.37.07-.754.132-1.15.183.257-.392.499-.786.744-1.217zm-2.16 1.353c-1.02.065-2.09.068-3.152 0A21.852 21.852 0 0 1 14.348 10a21.85 21.85 0 0 1 1.576-2.581c1.02-.066 2.09-.068 3.152 0 .57.802 1.108 1.678 1.576 2.581-.45.868-.983 1.747-1.576 2.582zm-1.576 1.94c-.25-.267-.498-.55-.743-.848.483.013.965.014 1.486 0-.245.298-.493.58-.743.848zm-2.993-2.076a18.97 18.97 0 0 1-1.149-.183c.12-.34.255-.685.406-1.034.232.407.472.802.743 1.217zm-.743-3.674c-.15-.35-.287-.696-.406-1.034.37-.071.754-.133 1.15-.184-.258.393-.5.787-.744 1.218zM17.5 5.479c.25.266.498.55.743.848a25.785 25.785 0 0 0-1.486 0c.245-.298.493-.582.743-.848zm2.993 2.075c.395.051.779.113 1.149.184-.12.338-.255.684-.406 1.034a22.708 22.708 0 0 0-.743-1.218zm-7.168-4.39c.902-.493 2.626.839 3.404 1.551a19.138 19.138 0 0 0-1.421 1.695c-.79.068-1.55.174-2.264.315-.256-.966-.627-3.066.281-3.562zM9.113 10c0-.994 2.146-1.743 3.16-2.015.227.655.51 1.332.842 2.015-.332.684-.615 1.36-.842 2.015-1.01-.27-3.16-1.02-3.16-2.015zm4.212 6.837c-.908-.495-.537-2.595-.28-3.562.712.141 1.472.247 2.263.316.459.613.936 1.182 1.421 1.694-.758.694-2.496 2.048-3.404 1.552zm8.35 0c-.909.496-2.648-.86-3.404-1.552.485-.512.962-1.081 1.421-1.694.79-.07 1.55-.175 2.264-.316.256.966.627 3.066-.281 3.562zm1.052-4.822A18.318 18.318 0 0 0 21.885 10c.332-.683.615-1.36.842-2.015 1.01.27 3.16 1.02 3.16 2.015 0 .994-2.145 1.743-3.16 2.015z"/>
                <path d="M17.5 10.982c-.573 0-1.04-.44-1.04-.982s.467-.982 1.04-.982 1.04.44 1.04.982-.467.982-1.04.982z"/>
            </g>
        </g>
    </g>
</svg>
