<svg xmlns="http://www.w3.org/2000/svg" width="50" height="50" viewBox="0 0 50 50">
    <defs>
        <linearGradient id="a" x1="75.477%" x2="23.301%" y1="91.865%" y2="9.764%">
            <stop offset="3.534%" stop-color="#FFCD68"/>
            <stop offset="100%" stop-color="#FFF1D6"/>
        </linearGradient>
        <filter id="b" width="117.6%" height="130%" x="-8.8%" y="-15%" filterUnits="objectBoundingBox">
            <feGaussianBlur in="SourceGraphic" stdDeviation="1"/>
        </filter>
    </defs>
    <g fill="none" fill-rule="evenodd">
        <circle cx="25" cy="25" r="25" fill="url(#a)"/>
        <path fill="#EDB94E" d="M40 34h1a1 1 0 0 1 1 1v1a1 1 0 0 1-1 1H9a1 1 0 0 1-1-1v-1a1 1 0 0 1 1-1h1V18a1 1 0 0 1 1-1h28a1 1 0 0 1 1 1v16z" filter="url(#b)"/>
        <path fill="#FFF" d="M11 15h28a1 1 0 0 1 1 1v18a1 1 0 0 1-1 1H11a1 1 0 0 1-1-1V16a1 1 0 0 1 1-1z"/>
        <path fill="#FFF" d="M9 32h32a1 1 0 0 1 1 1v1a1 1 0 0 1-1 1H9a1 1 0 0 1-1-1v-1a1 1 0 0 1 1-1z"/>
        <g fill="#EDB441" opacity=".7">
            <path d="M18.718 27.91L15 24.41l3.718-3.5L20 22.115l-2.437 2.293L20 26.703zM31.52 27.91l-1.282-1.207 2.437-2.294-2.437-2.293 1.282-1.207 3.718 3.5zM26.967 20l1.652.867L24.271 30l-1.652-.868z"/>
        </g>
    </g>
</svg>
