<svg xmlns="http://www.w3.org/2000/svg" width="50" height="50" viewBox="0 0 50 50">
    <defs>
        <linearGradient id="a" x1="75.477%" x2="23.301%" y1="91.865%" y2="9.764%">
            <stop offset="0%" stop-color="#6CBAF7"/>
            <stop offset="100%" stop-color="#C8E7FF"/>
        </linearGradient>
        <filter id="b" width="117.5%" height="130.6%" x="-8.7%" y="-15.3%" filterUnits="objectBoundingBox">
            <feGaussianBlur in="SourceGraphic" stdDeviation="1"/>
        </filter>
    </defs>
    <g fill="none" fill-rule="evenodd">
        <circle cx="25" cy="25" r="25" fill="url(#a)"/>
        <path fill="#6CBAF7" d="M40.342 33.66h.978a1 1 0 0 1 1 1v.94a1 1 0 0 1-1 1H9a1 1 0 0 1-1-1v-.94a1 1 0 0 1 1-1h1.06V18a1 1 0 0 1 1-1h28.282a1 1 0 0 1 1 1v15.66z" filter="url(#b)"/>
        <path fill="#FFF" d="M11 15h28a1 1 0 0 1 1 1v18a1 1 0 0 1-1 1H11a1 1 0 0 1-1-1V16a1 1 0 0 1 1-1z"/>
        <path fill="#FFF" d="M9 32h32a1 1 0 0 1 1 1v1a1 1 0 0 1-1 1H9a1 1 0 0 1-1-1v-1a1 1 0 0 1 1-1z"/>
        <g fill="#87C9FD" fill-rule="nonzero">
            <path d="M23.252 19.74h3.24c.586 0 1.086-.385 1.268-.92.028-.2.042-.35.042-.45 0-.1-.014-.25-.042-.45a1.347 1.347 0 0 0-1.268-.92h-3.24c-.74 0-1.342.615-1.342 1.37 0 .756.602 1.37 1.342 1.37zM23.252 34h3.24c.586 0 1.086-.385 1.268-.92.028-.2.042-.35.042-.45 0-.1-.014-.25-.042-.45a1.347 1.347 0 0 0-1.268-.92h-3.24c-.74 0-1.342.614-1.342 1.37 0 .756.602 1.37 1.342 1.37zM13.342 26.942h3.24c.586 0 1.086-.385 1.268-.92.028-.2.042-.35.042-.45 0-.1-.014-.25-.042-.45a1.347 1.347 0 0 0-1.268-.92h-3.24c-.74 0-1.342.615-1.342 1.37 0 .756.602 1.37 1.342 1.37zM33.45 26.942h3.24c.586 0 1.085-.385 1.268-.92.028-.2.042-.35.042-.45 0-.1-.014-.25-.042-.45a1.347 1.347 0 0 0-1.268-.92h-3.24c-.74 0-1.342.615-1.342 1.37 0 .756.602 1.37 1.342 1.37zM23.396 26.942h3.24c.586 0 1.085-.385 1.268-.92.028-.2.042-.35.042-.45 0-.1-.014-.25-.042-.45a1.347 1.347 0 0 0-1.268-.92h-3.24c-.74 0-1.342.615-1.342 1.37 0 .756.602 1.37 1.342 1.37z"/>
            <path d="M25.37 24.202v-1.403c.058.043.165.22.409.22.39 0 .592-.466.313-.74l-.651-.638c-.165-.142-.255-.324-.513-.324-.23 0-.339.154-.513.324l-.65.638a.428.428 0 0 0 0 .614c.172.17.452.17.625 0l.095-.094v1.403h.885zM22.346 25.058h-2.402c.043-.058.22-.165.22-.409 0-.39-.466-.592-.74-.312l-.638.65c-.142.165-.324.255-.324.513 0 .23.153.339.324.513l.638.65c.17.174.444.174.613 0a.448.448 0 0 0 0-.625l-.094-.095h2.403v-.885zM27.51 25.058h2.403c-.044-.058-.221-.165-.221-.409 0-.39.466-.592.74-.312l.639.65c.141.165.323.255.323.513 0 .23-.153.339-.323.513l-.638.65a.428.428 0 0 1-.614 0 .448.448 0 0 1 0-.625l.094-.095H27.51v-.885zM25.37 26.798v1.403c.058-.043.165-.22.409-.22.39 0 .592.466.313.74l-.651.638c-.165.142-.255.324-.513.324-.23 0-.339-.154-.513-.324l-.65-.638a.428.428 0 0 1 0-.614.448.448 0 0 1 .625 0l.095.094v-1.403h.885z"/>
        </g>
    </g>
</svg>
