<svg xmlns="http://www.w3.org/2000/svg" width="50" height="50" viewBox="0 0 50 50">
    <defs>
        <linearGradient id="a" x1="75.477%" x2="23.301%" y1="91.865%" y2="9.764%">
            <stop offset="0%" stop-color="#EF7C91"/>
            <stop offset="100%" stop-color="#FFB2C0"/>
        </linearGradient>
        <filter id="b" width="117.6%" height="130%" x="-8.8%" y="-15%" filterUnits="objectBoundingBox">
            <feGaussianBlur in="SourceGraphic" stdDeviation="1"/>
        </filter>
    </defs>
    <g fill="none" fill-rule="evenodd">
        <circle cx="25" cy="25" r="25" fill="url(#a)"/>
        <path fill="#EF7C91" d="M40 34h1a1 1 0 0 1 1 1v1a1 1 0 0 1-1 1H9a1 1 0 0 1-1-1v-1a1 1 0 0 1 1-1h1V18a1 1 0 0 1 1-1h28a1 1 0 0 1 1 1v16z" filter="url(#b)"/>
        <path fill="#FFF" d="M11 15h28a1 1 0 0 1 1 1v18a1 1 0 0 1-1 1H11a1 1 0 0 1-1-1V16a1 1 0 0 1 1-1z"/>
        <path fill="#EE7C90" fill-rule="nonzero" d="M23 11c3.295 0 6 2.114 6 4.755 0 2.594-2.705 4.756-6 4.756-.492 0-.984-.048-1.475-.144a.402.402 0 0 0-.443.144c-.59.576-1.475 1.105-2.557 1.489.442-.624.737-1.297.836-1.97.049-.24-.099-.528-.295-.672-1.328-.913-2.066-2.21-2.066-3.555C17 13.113 19.705 11 23 11z" opacity=".7"/>
        <path fill="#FFF" d="M25.534 14h-5.068c-.258 0-.466.224-.466.5s.208.5.466.5h5.068c.258 0 .466-.224.466-.5s-.208-.5-.466-.5zM24.534 16h-4.068c-.258 0-.466.224-.466.5s.208.5.466.5h4.068c.258 0 .466-.224.466-.5s-.208-.5-.466-.5z" opacity=".704"/>
        <path fill="#FFF" d="M9 32h32a1 1 0 0 1 1 1v1a1 1 0 0 1-1 1H9a1 1 0 0 1-1-1v-1a1 1 0 0 1 1-1z"/>
        <g fill="#EF7C91" opacity=".8">
            <path d="M17 23c1.103 0 2 .897 2 2s-.897 2-2 2-2-.897-2-2 .897-2 2-2zm1.161 5C19.727 28 21 29.184 21 30.64c0 .199-.173.36-.387.36h-7.226c-.214 0-.387-.161-.387-.36 0-1.456 1.273-2.64 2.839-2.64h2.322zm13.464-1.549c.239-.43.375-.925.375-1.451s-.136-1.021-.375-1.451c.359-.34.843-.549 1.375-.549 1.103 0 2 .897 2 2s-.897 2-2 2a1.993 1.993 0 0 1-1.375-.549zM33.951 31c.032-.114.049-.235.049-.36 0-1.044-.462-1.98-1.197-2.64h1.358C35.727 28 37 29.184 37 30.64c0 .199-.173.36-.387.36H33.95zM29 23c1.103 0 2 .897 2 2s-.897 2-2 2-2-.897-2-2 .897-2 2-2zm1.161 5C31.727 28 33 29.184 33 30.64c0 .199-.173.36-.387.36h-7.226c-.214 0-.387-.161-.387-.36 0-1.456 1.273-2.64 2.839-2.64h2.322z"/>
        </g>
    </g>
</svg>
