<svg xmlns="http://www.w3.org/2000/svg" width="50" height="50" viewBox="0 0 50 50">
    <defs>
        <linearGradient id="a" x1="75.477%" x2="23.301%" y1="91.865%" y2="9.764%">
            <stop offset="0%" stop-color="#7CB1D3"/>
            <stop offset="100%" stop-color="#C8E7FF"/>
        </linearGradient>
        <filter id="b" height="130%" y="-15%" filterUnits="objectBoundingBox">
            <feGaussianBlur in="SourceGraphic" stdDeviation="1"/>
        </filter>
    </defs>
    <g fill="none" fill-rule="evenodd">
        <circle cx="25" cy="25" r="25" fill="url(#a)"/>
        <path fill="#7CB1D3" d="M11 16h28a1 1 0 0 1 1 1v18a1 1 0 0 1-1 1H11a1 1 0 0 1-1-1V17a1 1 0 0 1 1-1z" filter="url(#b)"/>
        <path fill="#FFF" d="M11 14.583h28a1 1 0 0 1 1 1v18a1 1 0 0 1-1 1H11a1 1 0 0 1-1-1v-18a1 1 0 0 1 1-1z"/>
        <path fill="#7CB1D3" fill-rule="nonzero" d="M25 21.676c-1.15 0-2.085-.918-2.085-2.046 0-1.129.935-2.047 2.085-2.047s2.085.918 2.085 2.047c0 1.128-.935 2.046-2.085 2.046zm3.554 2.704v3.575c0 .035-.01.07-.03.1l-1.306 1.95h-4.436l-1.305-1.95a.18.18 0 0 1-.03-.1v-3.566c0-.782.507-1.473 1.267-1.722 0 0 .631-.187.65-.187.075 0 .145.046.173.12l1.25 3.37c.073.194.353.194.425 0l1.251-3.37a.186.186 0 0 1 .228-.112l.599.18a1.805 1.805 0 0 1 1.264 1.712zm-11.495 3.002l-.35.782 3.952-1.512V27.9l-3.521 1.347.796.343c.3.13.436.472.304.766a.593.593 0 0 1-.78.299l-2.106-.908a.577.577 0 0 1-.304-.766l.925-2.066a.596.596 0 0 1 .78-.299c.3.13.436.472.304.766zm.891-5.292l-.81.31 3.383 1.459v1.27l-3.86-1.664.316.795a.578.578 0 0 1-.337.753.6.6 0 0 1-.767-.33l-.834-2.104a.578.578 0 0 1 .336-.753l2.143-.82a.595.595 0 0 1 .767.331.578.578 0 0 1-.337.753zm15.983 4.923l.835 2.103a.578.578 0 0 1-.337.753l-2.142.82a.6.6 0 0 1-.767-.331.578.578 0 0 1 .337-.753l.81-.31-3.383-1.458v-1.27l3.86 1.664-.317-.796a.578.578 0 0 1 .337-.753.595.595 0 0 1 .767.331zm.66-5.09c.299.13.435.473.303.767l-.924 2.066a.593.593 0 0 1-.78.299.577.577 0 0 1-.305-.766l.35-.782-3.951 1.512V23.77l3.52-1.347-.796-.343a.577.577 0 0 1-.304-.767.596.596 0 0 1 .78-.298l2.106.908zm-9.118.631c.078.083.09.203.034.297l-.296.439.138 1.149-.273.713c-.026.072-.13.072-.156 0l-.274-.713.14-1.15-.297-.438a.249.249 0 0 1 .034-.297.27.27 0 0 1 .198-.08h.554a.27.27 0 0 1 .198.08z" opacity=".7"/>
    </g>
</svg>
