<svg xmlns="http://www.w3.org/2000/svg" width="50" height="50" viewBox="0 0 50 50">
    <defs>
        <linearGradient id="a" x1="75.477%" x2="23.301%" y1="91.865%" y2="9.764%">
            <stop offset="0%" stop-color="#A48CF6"/>
            <stop offset="100%" stop-color="#D1C5FF"/>
        </linearGradient>
        <filter id="b" width="127.3%" height="121.4%" x="-13.6%" y="-10.7%" filterUnits="objectBoundingBox">
            <feGaussianBlur in="SourceGraphic" stdDeviation="1"/>
        </filter>
    </defs>
    <g fill="none" fill-rule="evenodd">
        <circle cx="25" cy="25" r="25" fill="url(#a)"/>
        <path fill="#8C6CF9" fill-opacity=".504" d="M15 13h20a1 1 0 0 1 1 1v26a1 1 0 0 1-1 1H15a1 1 0 0 1-1-1V14a1 1 0 0 1 1-1z" filter="url(#b)"/>
        <path fill="#FFF" d="M15 11h20a1 1 0 0 1 1 1v26a1 1 0 0 1-1 1H15a1 1 0 0 1-1-1V12a1 1 0 0 1 1-1z"/>
        <path fill="#8D7FD8" fill-rule="nonzero" d="M16 13v3.82h18V13H16zm14.075 10c-.728 0-1.3.587-1.3 1.333 0 .374.156.694.39.934l-2.054 3.173a1.103 1.103 0 0 0-.494-.107c-.26 0-.52.08-.728.214l-1.664-1.707c.13-.213.208-.453.208-.747 0-.746-.572-1.333-1.3-1.333-.728 0-1.3.587-1.3 1.333 0 .267.078.534.208.747l-1.664 1.707a1.22 1.22 0 0 0-.702-.214c-.728 0-1.3.587-1.3 1.334 0 .746.572 1.333 1.3 1.333.728 0 1.3-.587 1.3-1.333 0-.267-.078-.534-.208-.747l1.664-1.706c.208.133.442.213.728.213s.52-.08.728-.213l1.664 1.706a1.27 1.27 0 0 0-.234.747c0 .746.572 1.333 1.3 1.333.728 0 1.3-.587 1.3-1.333 0-.374-.156-.694-.39-.934l2.054-3.173c.156.053.312.107.494.107.728 0 1.3-.587 1.3-1.334 0-.746-.572-1.333-1.3-1.333z" opacity=".7"/>
    </g>
</svg>
