<svg xmlns="http://www.w3.org/2000/svg" width="50" height="50" viewBox="0 0 50 50">
    <defs>
        <linearGradient id="a" x1="75.477%" x2="23.301%" y1="91.865%" y2="9.764%">
            <stop offset="0%" stop-color="#85C26A"/>
            <stop offset="100%" stop-color="#CCF5BA"/>
        </linearGradient>
        <filter id="b" height="130%" y="-15%" filterUnits="objectBoundingBox">
            <feGaussianBlur in="SourceGraphic" stdDeviation="1"/>
        </filter>
        <filter id="c" width="150%" height="153.3%" x="-25%" y="-26.7%" filterUnits="objectBoundingBox">
            <feOffset dy="1" in="SourceAlpha" result="shadowOffsetOuter1"/>
            <feGaussianBlur in="shadowOffsetOuter1" result="shadowBlurOuter1" stdDeviation=".5"/>
            <feColorMatrix in="shadowBlurOuter1" result="shadowMatrixOuter1" values="0 0 0 0 0.552941176 0 0 0 0 0.780392157 0 0 0 0 0.454901961 0 0 0 1 0"/>
            <feMerge>
                <feMergeNode in="shadowMatrixOuter1"/>
                <feMergeNode in="SourceGraphic"/>
            </feMerge>
        </filter>
    </defs>
    <g fill="none" fill-rule="evenodd">
        <circle cx="25" cy="25" r="25" fill="url(#a)"/>
        <path fill="#86C56A" d="M1 2h28a1 1 0 0 1 1 1v18a1 1 0 0 1-1 1H1a1 1 0 0 1-1-1V3a1 1 0 0 1 1-1z" filter="url(#b)" transform="translate(9 15)"/>
        <path fill="#FFF" d="M10 15h28a1 1 0 0 1 1 1v18a1 1 0 0 1-1 1H10a1 1 0 0 1-1-1V16a1 1 0 0 1 1-1z"/>
        <g>
            <g fill="#ADD79A" fill-rule="nonzero">
                <path d="M27.333 31.016h-6.666V20.643c0-.907.736-1.643 1.644-1.643h3.378c.908 0 1.644.736 1.644 1.643v10.373zm-2.02-5.208h-.727v-2.446h-.934a.542.542 0 0 1-.143.15 2.638 2.638 0 0 1-.547.331.637.637 0 0 1-.238.063v.848a.984.984 0 0 0 .25-.037 1.805 1.805 0 0 0 .518-.23.636.636 0 0 0 .16-.14v1.461h-.813v.825h2.474v-.825z"/>
                <path d="M14.041 31.016L14 22.701c0-.908.736-1.643 1.644-1.643h6.023v9.958H14.04zm1.892-3.778a2.6 2.6 0 0 0-.04.48h2.853v-.824h-1.558a.96.96 0 0 1 .151-.129c.067-.048.14-.095.218-.143.078-.048.158-.095.238-.14l.206-.12c.084-.05.166-.105.246-.164.08-.059.153-.128.218-.206.065-.078.117-.167.157-.266.04-.1.06-.212.06-.338a.89.89 0 0 0-.329-.728c-.22-.18-.535-.27-.948-.27a2.494 2.494 0 0 0-.91.17 2.13 2.13 0 0 0-.35.175 1.14 1.14 0 0 0-.246.2l.584.676c.11-.126.225-.228.344-.307a.74.74 0 0 1 .418-.117.49.49 0 0 1 .326.097c.077.065.115.151.115.258 0 .054-.015.1-.046.14a.698.698 0 0 1-.152.135c-.07.05-.166.107-.286.172l-.45.246a2.41 2.41 0 0 0-.418.292c-.11.1-.199.208-.263.324-.065.116-.111.245-.138.387zM34 31.016h-7.2v-6.67-1.642h5.556c.908 0 1.644.735 1.644 1.643v6.67zm-2.75-4.26a.737.737 0 0 0 .462-.282.878.878 0 0 0 .182-.533.776.776 0 0 0-.086-.365.844.844 0 0 0-.242-.282 1.132 1.132 0 0 0-.377-.182 1.784 1.784 0 0 0-.489-.063 2.17 2.17 0 0 0-.75.134c-.11.042-.21.093-.297.153a.92.92 0 0 0-.212.197l.509.584a.837.837 0 0 1 .284-.28.732.732 0 0 1 .376-.098c.127 0 .23.029.307.086.077.057.116.14.116.252 0 .127-.053.23-.16.307-.105.077-.252.116-.44.116h-.166v.579h.151c.242 0 .419.038.531.115a.389.389 0 0 1 .17.343c0 .279-.19.418-.57.418-.161 0-.3-.025-.415-.073a.924.924 0 0 1-.31-.214l-.433.574c.289.299.688.448 1.198.448.209 0 .397-.024.564-.073.168-.049.312-.118.431-.206a.916.916 0 0 0 .274-.323 1.055 1.055 0 0 0 .045-.755.815.815 0 0 0-.368-.468.887.887 0 0 0-.286-.109z"/>
            </g>
        </g>
    </g>
</svg>
