<svg xmlns="http://www.w3.org/2000/svg" width="50" height="50" viewBox="0 0 50 50">
    <defs>
        <linearGradient id="a" x1="75.477%" x2="23.301%" y1="91.865%" y2="9.764%">
            <stop offset="0%" stop-color="#C282B7"/>
            <stop offset="100%" stop-color="#E9BAE1"/>
        </linearGradient>
        <filter id="b" width="117.6%" height="130%" x="-8.8%" y="-15%" filterUnits="objectBoundingBox">
            <feGaussianBlur in="SourceGraphic" stdDeviation="1"/>
        </filter>
    </defs>
    <g fill="none" fill-rule="evenodd">
        <circle cx="25" cy="25" r="25" fill="url(#a)"/>
        <path fill="#C485B9" d="M32 19h1a1 1 0 0 1 1 1v1a1 1 0 0 1-1 1H1a1 1 0 0 1-1-1v-1a1 1 0 0 1 1-1h1V3a1 1 0 0 1 1-1h28a1 1 0 0 1 1 1v16z" filter="url(#b)" transform="translate(8 15)"/>
        <path fill="#FFF" d="M40 32h1a1 1 0 0 1 1 1v1a1 1 0 0 1-1 1H9a1 1 0 0 1-1-1v-1a1 1 0 0 1 1-1h1V16a1 1 0 0 1 1-1h28a1 1 0 0 1 1 1v16z"/>
        <g fill="#D2A8CA" fill-rule="nonzero">
            <path d="M20.657 18h7.823v2.8h-7.823V18zm0 5.6h9.686v2.8h-9.686v-2.8zm0 5.6h5.96V32h-5.96v-2.8zm-1.676-7.48h-.768v2.155c0 .262-.058.472-.175.63-.116.16-.25.304-.398.434.14.131.27.278.391.441.121.164.182.371.182.623v2.31h.768v2.1H16.16a.395.395 0 0 1-.202-.077c-.08-.051-.119-.166-.119-.343v-3.08c0-.298-.09-.54-.272-.728-.182-.186-.37-.303-.566-.35v-1.82c.093 0 .19-.03.293-.09.103-.061.193-.14.273-.239.079-.098.144-.21.195-.336.051-.126.077-.254.077-.385V20.04c0-.168.04-.28.119-.336.079-.056.147-.084.202-.084h2.822v2.1zM36 25.834c-.196.047-.384.164-.566.35-.181.187-.272.43-.272.728v3.08c0 .177-.04.292-.119.343a.396.396 0 0 1-.203.077H32.02v-2.1h.768v-2.31c0-.252.06-.46.182-.623.12-.163.251-.31.39-.44a2.676 2.676 0 0 1-.397-.435c-.117-.158-.175-.368-.175-.63V21.72h-.768v-2.1h2.821c.056 0 .124.028.203.084.08.056.119.168.119.336v2.926c0 .131.025.26.077.385.05.126.116.238.195.336.08.098.168.178.266.238.097.061.197.091.3.091v1.82z"/>
        </g>
    </g>
</svg>
